G04 #@! TF.FileFunction,Soldermask,Bot*
%FSLAX46Y46*%
G04 Gerber Fmt 4.6, Leading zero omitted, Abs format (unit mm)*
G04 Created by KiCad (PCBNEW 4.0.6-e0-6349~53~ubuntu16.04.1) date Sun Jun 25 16:08:35 2017*
%MOMM*%
%LPD*%
G01*
G04 APERTURE LIST*
%ADD10C,0.100000*%
%ADD11C,3.000000*%
%ADD12C,2.082800*%
G04 APERTURE END LIST*
D10*
D11*
X-2540000Y-90424000D03*
X69596000Y-90424000D03*
X-2540000Y-5588000D03*
D12*
X40132000Y-86741000D03*
X42672000Y-86995000D03*
X45212000Y-86741000D03*
X47752000Y-86995000D03*
X50292000Y-86741000D03*
X52832000Y-86995000D03*
X55372000Y-86741000D03*
X57912000Y-86995000D03*
X60452000Y-86741000D03*
X62992000Y-86995000D03*
X40132000Y-94361000D03*
X42672000Y-94615000D03*
X45212000Y-94361000D03*
X47752000Y-94615000D03*
X50292000Y-94361000D03*
X52832000Y-94615000D03*
X55372000Y-94361000D03*
X57912000Y-94615000D03*
X60452000Y-94361000D03*
X62992000Y-94615000D03*
X65405000Y-94488000D03*
X65659000Y-91948000D03*
X65405000Y-89408000D03*
X65659000Y-86868000D03*
X35052000Y-86868000D03*
X37592000Y-86868000D03*
X35052000Y-89408000D03*
X37592000Y-89408000D03*
X35052000Y-91948000D03*
X37592000Y-91948000D03*
X35052000Y-94488000D03*
X37592000Y-94488000D03*
X40132000Y-76073000D03*
X42672000Y-76327000D03*
X45212000Y-76073000D03*
X47752000Y-76327000D03*
X50292000Y-76073000D03*
X52832000Y-76327000D03*
X55372000Y-76073000D03*
X57912000Y-76327000D03*
X60452000Y-76073000D03*
X62992000Y-76327000D03*
X40132000Y-83693000D03*
X42672000Y-83947000D03*
X45212000Y-83693000D03*
X47752000Y-83947000D03*
X50292000Y-83693000D03*
X52832000Y-83947000D03*
X55372000Y-83693000D03*
X57912000Y-83947000D03*
X60452000Y-83693000D03*
X62992000Y-83947000D03*
X65405000Y-83820000D03*
X65659000Y-81280000D03*
X65405000Y-78740000D03*
X65659000Y-76200000D03*
X35052000Y-76200000D03*
X37592000Y-76200000D03*
X35052000Y-78740000D03*
X37592000Y-78740000D03*
X35052000Y-81280000D03*
X37592000Y-81280000D03*
X35052000Y-83820000D03*
X37592000Y-83820000D03*
X40132000Y-65405000D03*
X42672000Y-65659000D03*
X45212000Y-65405000D03*
X47752000Y-65659000D03*
X50292000Y-65405000D03*
X52832000Y-65659000D03*
X55372000Y-65405000D03*
X57912000Y-65659000D03*
X60452000Y-65405000D03*
X62992000Y-65659000D03*
X40132000Y-73025000D03*
X42672000Y-73279000D03*
X45212000Y-73025000D03*
X47752000Y-73279000D03*
X50292000Y-73025000D03*
X52832000Y-73279000D03*
X55372000Y-73025000D03*
X57912000Y-73279000D03*
X60452000Y-73025000D03*
X62992000Y-73279000D03*
X65405000Y-73152000D03*
X65659000Y-70612000D03*
X65405000Y-68072000D03*
X65659000Y-65532000D03*
X35052000Y-65532000D03*
X37592000Y-65532000D03*
X35052000Y-68072000D03*
X37592000Y-68072000D03*
X35052000Y-70612000D03*
X37592000Y-70612000D03*
X35052000Y-73152000D03*
X37592000Y-73152000D03*
X40132000Y-54737000D03*
X42672000Y-54991000D03*
X45212000Y-54737000D03*
X47752000Y-54991000D03*
X50292000Y-54737000D03*
X52832000Y-54991000D03*
X55372000Y-54737000D03*
X57912000Y-54991000D03*
X60452000Y-54737000D03*
X62992000Y-54991000D03*
X40132000Y-62357000D03*
X42672000Y-62611000D03*
X45212000Y-62357000D03*
X47752000Y-62611000D03*
X50292000Y-62357000D03*
X52832000Y-62611000D03*
X55372000Y-62357000D03*
X57912000Y-62611000D03*
X60452000Y-62357000D03*
X62992000Y-62611000D03*
X65405000Y-62484000D03*
X65659000Y-59944000D03*
X65405000Y-57404000D03*
X65659000Y-54864000D03*
X35052000Y-54864000D03*
X37592000Y-54864000D03*
X35052000Y-57404000D03*
X37592000Y-57404000D03*
X35052000Y-59944000D03*
X37592000Y-59944000D03*
X35052000Y-62484000D03*
X37592000Y-62484000D03*
X40132000Y-44069000D03*
X42672000Y-44323000D03*
X45212000Y-44069000D03*
X47752000Y-44323000D03*
X50292000Y-44069000D03*
X52832000Y-44323000D03*
X55372000Y-44069000D03*
X57912000Y-44323000D03*
X60452000Y-44069000D03*
X62992000Y-44323000D03*
X40132000Y-51689000D03*
X42672000Y-51943000D03*
X45212000Y-51689000D03*
X47752000Y-51943000D03*
X50292000Y-51689000D03*
X52832000Y-51943000D03*
X55372000Y-51689000D03*
X57912000Y-51943000D03*
X60452000Y-51689000D03*
X62992000Y-51943000D03*
X65405000Y-51816000D03*
X65659000Y-49276000D03*
X65405000Y-46736000D03*
X65659000Y-44196000D03*
X35052000Y-44196000D03*
X37592000Y-44196000D03*
X35052000Y-46736000D03*
X37592000Y-46736000D03*
X35052000Y-49276000D03*
X37592000Y-49276000D03*
X35052000Y-51816000D03*
X37592000Y-51816000D03*
X40132000Y-33401000D03*
X42672000Y-33655000D03*
X45212000Y-33401000D03*
X47752000Y-33655000D03*
X50292000Y-33401000D03*
X52832000Y-33655000D03*
X55372000Y-33401000D03*
X57912000Y-33655000D03*
X60452000Y-33401000D03*
X62992000Y-33655000D03*
X40132000Y-41021000D03*
X42672000Y-41275000D03*
X45212000Y-41021000D03*
X47752000Y-41275000D03*
X50292000Y-41021000D03*
X52832000Y-41275000D03*
X55372000Y-41021000D03*
X57912000Y-41275000D03*
X60452000Y-41021000D03*
X62992000Y-41275000D03*
X65405000Y-41148000D03*
X65659000Y-38608000D03*
X65405000Y-36068000D03*
X65659000Y-33528000D03*
X35052000Y-33528000D03*
X37592000Y-33528000D03*
X35052000Y-36068000D03*
X37592000Y-36068000D03*
X35052000Y-38608000D03*
X37592000Y-38608000D03*
X35052000Y-41148000D03*
X37592000Y-41148000D03*
X40132000Y-22733000D03*
X42672000Y-22987000D03*
X45212000Y-22733000D03*
X47752000Y-22987000D03*
X50292000Y-22733000D03*
X52832000Y-22987000D03*
X55372000Y-22733000D03*
X57912000Y-22987000D03*
X60452000Y-22733000D03*
X62992000Y-22987000D03*
X40132000Y-30353000D03*
X42672000Y-30607000D03*
X45212000Y-30353000D03*
X47752000Y-30607000D03*
X50292000Y-30353000D03*
X52832000Y-30607000D03*
X55372000Y-30353000D03*
X57912000Y-30607000D03*
X60452000Y-30353000D03*
X62992000Y-30607000D03*
X65405000Y-30480000D03*
X65659000Y-27940000D03*
X65405000Y-25400000D03*
X65659000Y-22860000D03*
X35052000Y-22860000D03*
X37592000Y-22860000D03*
X35052000Y-25400000D03*
X37592000Y-25400000D03*
X35052000Y-27940000D03*
X37592000Y-27940000D03*
X35052000Y-30480000D03*
X37592000Y-30480000D03*
X40132000Y-12065000D03*
X42672000Y-12319000D03*
X45212000Y-12065000D03*
X47752000Y-12319000D03*
X50292000Y-12065000D03*
X52832000Y-12319000D03*
X55372000Y-12065000D03*
X57912000Y-12319000D03*
X60452000Y-12065000D03*
X62992000Y-12319000D03*
X40132000Y-19685000D03*
X42672000Y-19939000D03*
X45212000Y-19685000D03*
X47752000Y-19939000D03*
X50292000Y-19685000D03*
X52832000Y-19939000D03*
X55372000Y-19685000D03*
X57912000Y-19939000D03*
X60452000Y-19685000D03*
X62992000Y-19939000D03*
X65405000Y-19812000D03*
X65659000Y-17272000D03*
X65405000Y-14732000D03*
X65659000Y-12192000D03*
X35052000Y-12192000D03*
X37592000Y-12192000D03*
X35052000Y-14732000D03*
X37592000Y-14732000D03*
X35052000Y-17272000D03*
X37592000Y-17272000D03*
X35052000Y-19812000D03*
X37592000Y-19812000D03*
X40132000Y-1397000D03*
X42672000Y-1651000D03*
X45212000Y-1397000D03*
X47752000Y-1651000D03*
X50292000Y-1397000D03*
X52832000Y-1651000D03*
X55372000Y-1397000D03*
X57912000Y-1651000D03*
X60452000Y-1397000D03*
X62992000Y-1651000D03*
X40132000Y-9017000D03*
X42672000Y-9271000D03*
X45212000Y-9017000D03*
X47752000Y-9271000D03*
X50292000Y-9017000D03*
X52832000Y-9271000D03*
X55372000Y-9017000D03*
X57912000Y-9271000D03*
X60452000Y-9017000D03*
X62992000Y-9271000D03*
X65405000Y-9144000D03*
X65659000Y-6604000D03*
X65405000Y-4064000D03*
X65659000Y-1524000D03*
X35052000Y-1524000D03*
X37592000Y-1524000D03*
X35052000Y-4064000D03*
X37592000Y-4064000D03*
X35052000Y-6604000D03*
X37592000Y-6604000D03*
X35052000Y-9144000D03*
X37592000Y-9144000D03*
X6604000Y-86741000D03*
X9144000Y-86995000D03*
X11684000Y-86741000D03*
X14224000Y-86995000D03*
X16764000Y-86741000D03*
X19304000Y-86995000D03*
X21844000Y-86741000D03*
X24384000Y-86995000D03*
X26924000Y-86741000D03*
X29464000Y-86995000D03*
X6604000Y-94361000D03*
X9144000Y-94615000D03*
X11684000Y-94361000D03*
X14224000Y-94615000D03*
X16764000Y-94361000D03*
X19304000Y-94615000D03*
X21844000Y-94361000D03*
X24384000Y-94615000D03*
X26924000Y-94361000D03*
X29464000Y-94615000D03*
X31877000Y-94488000D03*
X32131000Y-91948000D03*
X31877000Y-89408000D03*
X32131000Y-86868000D03*
X1524000Y-86868000D03*
X4064000Y-86868000D03*
X1524000Y-89408000D03*
X4064000Y-89408000D03*
X1524000Y-91948000D03*
X4064000Y-91948000D03*
X1524000Y-94488000D03*
X4064000Y-94488000D03*
X6604000Y-76073000D03*
X9144000Y-76327000D03*
X11684000Y-76073000D03*
X14224000Y-76327000D03*
X16764000Y-76073000D03*
X19304000Y-76327000D03*
X21844000Y-76073000D03*
X24384000Y-76327000D03*
X26924000Y-76073000D03*
X29464000Y-76327000D03*
X6604000Y-83693000D03*
X9144000Y-83947000D03*
X11684000Y-83693000D03*
X14224000Y-83947000D03*
X16764000Y-83693000D03*
X19304000Y-83947000D03*
X21844000Y-83693000D03*
X24384000Y-83947000D03*
X26924000Y-83693000D03*
X29464000Y-83947000D03*
X31877000Y-83820000D03*
X32131000Y-81280000D03*
X31877000Y-78740000D03*
X32131000Y-76200000D03*
X1524000Y-76200000D03*
X4064000Y-76200000D03*
X1524000Y-78740000D03*
X4064000Y-78740000D03*
X1524000Y-81280000D03*
X4064000Y-81280000D03*
X1524000Y-83820000D03*
X4064000Y-83820000D03*
X6604000Y-65405000D03*
X9144000Y-65659000D03*
X11684000Y-65405000D03*
X14224000Y-65659000D03*
X16764000Y-65405000D03*
X19304000Y-65659000D03*
X21844000Y-65405000D03*
X24384000Y-65659000D03*
X26924000Y-65405000D03*
X29464000Y-65659000D03*
X6604000Y-73025000D03*
X9144000Y-73279000D03*
X11684000Y-73025000D03*
X14224000Y-73279000D03*
X16764000Y-73025000D03*
X19304000Y-73279000D03*
X21844000Y-73025000D03*
X24384000Y-73279000D03*
X26924000Y-73025000D03*
X29464000Y-73279000D03*
X31877000Y-73152000D03*
X32131000Y-70612000D03*
X31877000Y-68072000D03*
X32131000Y-65532000D03*
X1524000Y-65532000D03*
X4064000Y-65532000D03*
X1524000Y-68072000D03*
X4064000Y-68072000D03*
X1524000Y-70612000D03*
X4064000Y-70612000D03*
X1524000Y-73152000D03*
X4064000Y-73152000D03*
X6604000Y-54737000D03*
X9144000Y-54991000D03*
X11684000Y-54737000D03*
X14224000Y-54991000D03*
X16764000Y-54737000D03*
X19304000Y-54991000D03*
X21844000Y-54737000D03*
X24384000Y-54991000D03*
X26924000Y-54737000D03*
X29464000Y-54991000D03*
X6604000Y-62357000D03*
X9144000Y-62611000D03*
X11684000Y-62357000D03*
X14224000Y-62611000D03*
X16764000Y-62357000D03*
X19304000Y-62611000D03*
X21844000Y-62357000D03*
X24384000Y-62611000D03*
X26924000Y-62357000D03*
X29464000Y-62611000D03*
X31877000Y-62484000D03*
X32131000Y-59944000D03*
X31877000Y-57404000D03*
X32131000Y-54864000D03*
X1524000Y-54864000D03*
X4064000Y-54864000D03*
X1524000Y-57404000D03*
X4064000Y-57404000D03*
X1524000Y-59944000D03*
X4064000Y-59944000D03*
X1524000Y-62484000D03*
X4064000Y-62484000D03*
X6604000Y-44069000D03*
X9144000Y-44323000D03*
X11684000Y-44069000D03*
X14224000Y-44323000D03*
X16764000Y-44069000D03*
X19304000Y-44323000D03*
X21844000Y-44069000D03*
X24384000Y-44323000D03*
X26924000Y-44069000D03*
X29464000Y-44323000D03*
X6604000Y-51689000D03*
X9144000Y-51943000D03*
X11684000Y-51689000D03*
X14224000Y-51943000D03*
X16764000Y-51689000D03*
X19304000Y-51943000D03*
X21844000Y-51689000D03*
X24384000Y-51943000D03*
X26924000Y-51689000D03*
X29464000Y-51943000D03*
X31877000Y-51816000D03*
X32131000Y-49276000D03*
X31877000Y-46736000D03*
X32131000Y-44196000D03*
X1524000Y-44196000D03*
X4064000Y-44196000D03*
X1524000Y-46736000D03*
X4064000Y-46736000D03*
X1524000Y-49276000D03*
X4064000Y-49276000D03*
X1524000Y-51816000D03*
X4064000Y-51816000D03*
X6604000Y-33401000D03*
X9144000Y-33655000D03*
X11684000Y-33401000D03*
X14224000Y-33655000D03*
X16764000Y-33401000D03*
X19304000Y-33655000D03*
X21844000Y-33401000D03*
X24384000Y-33655000D03*
X26924000Y-33401000D03*
X29464000Y-33655000D03*
X6604000Y-41021000D03*
X9144000Y-41275000D03*
X11684000Y-41021000D03*
X14224000Y-41275000D03*
X16764000Y-41021000D03*
X19304000Y-41275000D03*
X21844000Y-41021000D03*
X24384000Y-41275000D03*
X26924000Y-41021000D03*
X29464000Y-41275000D03*
X31877000Y-41148000D03*
X32131000Y-38608000D03*
X31877000Y-36068000D03*
X32131000Y-33528000D03*
X1524000Y-33528000D03*
X4064000Y-33528000D03*
X1524000Y-36068000D03*
X4064000Y-36068000D03*
X1524000Y-38608000D03*
X4064000Y-38608000D03*
X1524000Y-41148000D03*
X4064000Y-41148000D03*
X6604000Y-22733000D03*
X9144000Y-22987000D03*
X11684000Y-22733000D03*
X14224000Y-22987000D03*
X16764000Y-22733000D03*
X19304000Y-22987000D03*
X21844000Y-22733000D03*
X24384000Y-22987000D03*
X26924000Y-22733000D03*
X29464000Y-22987000D03*
X6604000Y-30353000D03*
X9144000Y-30607000D03*
X11684000Y-30353000D03*
X14224000Y-30607000D03*
X16764000Y-30353000D03*
X19304000Y-30607000D03*
X21844000Y-30353000D03*
X24384000Y-30607000D03*
X26924000Y-30353000D03*
X29464000Y-30607000D03*
X31877000Y-30480000D03*
X32131000Y-27940000D03*
X31877000Y-25400000D03*
X32131000Y-22860000D03*
X1524000Y-22860000D03*
X4064000Y-22860000D03*
X1524000Y-25400000D03*
X4064000Y-25400000D03*
X1524000Y-27940000D03*
X4064000Y-27940000D03*
X1524000Y-30480000D03*
X4064000Y-30480000D03*
X6604000Y-12065000D03*
X9144000Y-12319000D03*
X11684000Y-12065000D03*
X14224000Y-12319000D03*
X16764000Y-12065000D03*
X19304000Y-12319000D03*
X21844000Y-12065000D03*
X24384000Y-12319000D03*
X26924000Y-12065000D03*
X29464000Y-12319000D03*
X6604000Y-19685000D03*
X9144000Y-19939000D03*
X11684000Y-19685000D03*
X14224000Y-19939000D03*
X16764000Y-19685000D03*
X19304000Y-19939000D03*
X21844000Y-19685000D03*
X24384000Y-19939000D03*
X26924000Y-19685000D03*
X29464000Y-19939000D03*
X31877000Y-19812000D03*
X32131000Y-17272000D03*
X31877000Y-14732000D03*
X32131000Y-12192000D03*
X1524000Y-12192000D03*
X4064000Y-12192000D03*
X1524000Y-14732000D03*
X4064000Y-14732000D03*
X1524000Y-17272000D03*
X4064000Y-17272000D03*
X1524000Y-19812000D03*
X4064000Y-19812000D03*
X1524000Y-1524000D03*
X4064000Y-1524000D03*
X1524000Y-4064000D03*
X4064000Y-4064000D03*
X1524000Y-6604000D03*
X4064000Y-6604000D03*
X1524000Y-9144000D03*
X4064000Y-9144000D03*
X31877000Y-9144000D03*
X32131000Y-6604000D03*
X31877000Y-4064000D03*
X32131000Y-1524000D03*
X6604000Y-9017000D03*
X9144000Y-9271000D03*
X11684000Y-9017000D03*
X14224000Y-9271000D03*
X16764000Y-9017000D03*
X19304000Y-9271000D03*
X21844000Y-9017000D03*
X24384000Y-9271000D03*
X26924000Y-9017000D03*
X29464000Y-9271000D03*
X6604000Y-1397000D03*
X9144000Y-1651000D03*
X11684000Y-1397000D03*
X14224000Y-1651000D03*
X16764000Y-1397000D03*
X19304000Y-1651000D03*
X21844000Y-1397000D03*
X24384000Y-1651000D03*
X26924000Y-1397000D03*
X29464000Y-1651000D03*
D11*
X69596000Y-5588000D03*
M02*
