M48
;DRILL file {KiCad 4.0.6-e0-6349~53~ubuntu16.04.1} date Sun Jun 25 16:08:39 2017
;FORMAT={-:-/ absolute / metric / decimal}
FMAT,2
METRIC,TZ
T1C0.300
T2C1.016
T3C3.000
%
G90
G05
M71
T1
X6.104Y-5.672
X6.104Y-16.34
X6.104Y-27.008
X6.104Y-37.676
X6.104Y-48.344
X6.104Y-59.012
X6.104Y-69.68
X6.104Y-80.348
X6.104Y-91.016
X8.824Y-6.155
X8.824Y-16.823
X8.824Y-27.491
X8.824Y-38.159
X8.824Y-48.827
X8.824Y-59.495
X8.824Y-70.163
X8.824Y-80.831
X8.824Y-91.499
X8.861Y-4.622
X8.861Y-15.29
X8.861Y-25.958
X8.861Y-36.626
X8.861Y-47.294
X8.861Y-57.962
X8.861Y-68.63
X8.861Y-79.298
X8.861Y-89.966
X12.827Y-4.108
X12.827Y-14.776
X12.827Y-25.444
X12.827Y-36.112
X12.827Y-46.78
X12.827Y-57.448
X12.827Y-68.116
X12.827Y-78.784
X12.827Y-89.452
X13.162Y-7.528
X13.162Y-18.196
X13.162Y-28.864
X13.162Y-39.532
X13.162Y-50.2
X13.162Y-60.868
X13.162Y-71.536
X13.162Y-82.204
X13.162Y-92.872
X15.095Y-4.192
X15.095Y-14.86
X15.095Y-25.528
X15.095Y-36.196
X15.095Y-46.864
X15.095Y-57.532
X15.095Y-68.2
X15.095Y-78.868
X15.095Y-89.536
X16.949Y-6.048
X16.949Y-16.716
X16.949Y-27.384
X16.949Y-38.052
X16.949Y-48.72
X16.949Y-59.388
X16.949Y-70.056
X16.949Y-80.724
X16.949Y-91.392
X17.527Y-5.495
X17.527Y-16.163
X17.527Y-26.831
X17.527Y-37.499
X17.527Y-48.167
X17.527Y-58.835
X17.527Y-69.503
X17.527Y-80.171
X17.527Y-90.839
X18.264Y-2.943
X18.264Y-13.611
X18.264Y-24.279
X18.264Y-34.947
X18.264Y-45.615
X18.264Y-56.283
X18.264Y-66.951
X18.264Y-77.619
X18.264Y-88.287
X18.779Y-7.35
X18.779Y-18.018
X18.779Y-28.686
X18.779Y-39.354
X18.779Y-50.022
X18.779Y-60.69
X18.779Y-71.358
X18.779Y-82.026
X18.779Y-92.694
X19.328Y-3.879
X19.328Y-14.547
X19.328Y-25.215
X19.328Y-35.883
X19.328Y-46.551
X19.328Y-57.219
X19.328Y-67.887
X19.328Y-78.555
X19.328Y-89.223
X19.446Y-6.04
X19.446Y-16.708
X19.446Y-27.376
X19.446Y-38.044
X19.446Y-48.712
X19.446Y-59.38
X19.446Y-70.048
X19.446Y-80.716
X19.446Y-91.384
X19.464Y-7.839
X19.464Y-18.508
X19.464Y-29.175
X19.464Y-39.843
X19.464Y-50.511
X19.464Y-61.179
X19.464Y-71.847
X19.464Y-82.516
X19.464Y-93.183
X21.208Y-6.71
X21.208Y-17.378
X21.208Y-28.046
X21.208Y-38.714
X21.208Y-49.382
X21.208Y-60.05
X21.208Y-70.718
X21.208Y-81.386
X21.208Y-92.054
X22.418Y-4.007
X22.418Y-14.675
X22.418Y-25.343
X22.418Y-36.011
X22.418Y-46.679
X22.418Y-57.347
X22.418Y-68.015
X22.418Y-78.683
X22.418Y-89.351
X22.494Y-5.599
X22.494Y-16.267
X22.494Y-26.935
X22.494Y-37.603
X22.494Y-48.271
X22.494Y-58.939
X22.494Y-69.607
X22.494Y-80.275
X22.494Y-90.943
X23.501Y-7.166
X23.501Y-17.834
X23.501Y-28.502
X23.501Y-39.17
X23.501Y-49.838
X23.501Y-60.506
X23.501Y-71.174
X23.501Y-81.842
X23.501Y-92.51
X25.129Y-5.431
X25.129Y-16.099
X25.129Y-26.767
X25.129Y-37.435
X25.129Y-48.103
X25.129Y-58.771
X25.129Y-69.439
X25.129Y-80.107
X25.129Y-90.775
X26.876Y-5.515
X26.876Y-16.183
X26.876Y-26.851
X26.876Y-37.519
X26.876Y-48.187
X26.876Y-58.855
X26.876Y-69.523
X26.876Y-80.191
X26.876Y-90.859
X27.06Y-4.724
X27.06Y-15.392
X27.06Y-26.06
X27.06Y-36.728
X27.06Y-47.396
X27.06Y-58.064
X27.06Y-68.732
X27.06Y-79.4
X27.06Y-90.068
X39.632Y-5.672
X39.632Y-16.34
X39.632Y-27.008
X39.632Y-37.676
X39.632Y-48.344
X39.632Y-59.012
X39.632Y-69.68
X39.632Y-80.348
X39.632Y-91.016
X42.352Y-6.155
X42.352Y-16.823
X42.352Y-27.491
X42.352Y-38.159
X42.352Y-48.827
X42.352Y-59.495
X42.352Y-70.163
X42.352Y-80.831
X42.352Y-91.499
X42.389Y-4.622
X42.389Y-15.29
X42.389Y-25.958
X42.389Y-36.626
X42.389Y-47.294
X42.389Y-57.962
X42.389Y-68.63
X42.389Y-79.298
X42.389Y-89.966
X46.355Y-4.108
X46.355Y-14.776
X46.355Y-25.444
X46.355Y-36.112
X46.355Y-46.78
X46.355Y-57.448
X46.355Y-68.116
X46.355Y-78.784
X46.355Y-89.452
X46.69Y-7.528
X46.69Y-18.196
X46.69Y-28.864
X46.69Y-39.532
X46.69Y-50.2
X46.69Y-60.868
X46.69Y-71.536
X46.69Y-82.204
X46.69Y-92.872
X48.623Y-4.192
X48.623Y-14.86
X48.623Y-25.528
X48.623Y-36.196
X48.623Y-46.864
X48.623Y-57.532
X48.623Y-68.2
X48.623Y-78.868
X48.623Y-89.536
X50.477Y-6.048
X50.477Y-16.716
X50.477Y-27.384
X50.477Y-38.052
X50.477Y-48.72
X50.477Y-59.388
X50.477Y-70.056
X50.477Y-80.724
X50.477Y-91.392
X51.055Y-5.495
X51.055Y-16.163
X51.055Y-26.831
X51.055Y-37.499
X51.055Y-48.167
X51.055Y-58.835
X51.055Y-69.503
X51.055Y-80.171
X51.055Y-90.839
X51.792Y-2.943
X51.792Y-13.611
X51.792Y-24.279
X51.792Y-34.947
X51.792Y-45.615
X51.792Y-56.283
X51.792Y-66.951
X51.792Y-77.619
X51.792Y-88.287
X52.307Y-7.35
X52.307Y-18.018
X52.307Y-28.686
X52.307Y-39.354
X52.307Y-50.022
X52.307Y-60.69
X52.307Y-71.358
X52.307Y-82.026
X52.307Y-92.694
X52.856Y-3.879
X52.856Y-14.547
X52.856Y-25.215
X52.856Y-35.883
X52.856Y-46.551
X52.856Y-57.219
X52.856Y-67.887
X52.856Y-78.555
X52.856Y-89.223
X52.974Y-6.04
X52.974Y-16.708
X52.974Y-27.376
X52.974Y-38.044
X52.974Y-48.712
X52.974Y-59.38
X52.974Y-70.048
X52.974Y-80.716
X52.974Y-91.384
X52.992Y-7.839
X52.992Y-18.508
X52.992Y-29.175
X52.992Y-39.843
X52.992Y-50.511
X52.992Y-61.179
X52.992Y-71.847
X52.992Y-82.516
X52.992Y-93.183
X54.736Y-6.71
X54.736Y-17.378
X54.736Y-28.046
X54.736Y-38.714
X54.736Y-49.382
X54.736Y-60.05
X54.736Y-70.718
X54.736Y-81.386
X54.736Y-92.054
X55.946Y-4.007
X55.946Y-14.675
X55.946Y-25.343
X55.946Y-36.011
X55.946Y-46.679
X55.946Y-57.347
X55.946Y-68.015
X55.946Y-78.683
X55.946Y-89.351
X56.022Y-5.599
X56.022Y-16.267
X56.022Y-26.935
X56.022Y-37.603
X56.022Y-48.271
X56.022Y-58.939
X56.022Y-69.607
X56.022Y-80.275
X56.022Y-90.943
X57.029Y-7.166
X57.029Y-17.834
X57.029Y-28.502
X57.029Y-39.17
X57.029Y-49.838
X57.029Y-60.506
X57.029Y-71.174
X57.029Y-81.842
X57.029Y-92.51
X58.657Y-5.431
X58.657Y-16.099
X58.657Y-26.767
X58.657Y-37.435
X58.657Y-48.103
X58.657Y-58.771
X58.657Y-69.439
X58.657Y-80.107
X58.657Y-90.775
X60.404Y-5.515
X60.404Y-16.183
X60.404Y-26.851
X60.404Y-37.519
X60.404Y-48.187
X60.404Y-58.855
X60.404Y-69.523
X60.404Y-80.191
X60.404Y-90.859
X60.588Y-4.724
X60.588Y-15.392
X60.588Y-26.06
X60.588Y-36.728
X60.588Y-47.396
X60.588Y-58.064
X60.588Y-68.732
X60.588Y-79.4
X60.588Y-90.068
T2
X1.524Y-1.524
X1.524Y-4.064
X1.524Y-6.604
X1.524Y-9.144
X1.524Y-12.192
X1.524Y-14.732
X1.524Y-17.272
X1.524Y-19.812
X1.524Y-22.86
X1.524Y-25.4
X1.524Y-27.94
X1.524Y-30.48
X1.524Y-33.528
X1.524Y-36.068
X1.524Y-38.608
X1.524Y-41.148
X1.524Y-44.196
X1.524Y-46.736
X1.524Y-49.276
X1.524Y-51.816
X1.524Y-54.864
X1.524Y-57.404
X1.524Y-59.944
X1.524Y-62.484
X1.524Y-65.532
X1.524Y-68.072
X1.524Y-70.612
X1.524Y-73.152
X1.524Y-76.2
X1.524Y-78.74
X1.524Y-81.28
X1.524Y-83.82
X1.524Y-86.868
X1.524Y-89.408
X1.524Y-91.948
X1.524Y-94.488
X4.064Y-1.524
X4.064Y-4.064
X4.064Y-6.604
X4.064Y-9.144
X4.064Y-12.192
X4.064Y-14.732
X4.064Y-17.272
X4.064Y-19.812
X4.064Y-22.86
X4.064Y-25.4
X4.064Y-27.94
X4.064Y-30.48
X4.064Y-33.528
X4.064Y-36.068
X4.064Y-38.608
X4.064Y-41.148
X4.064Y-44.196
X4.064Y-46.736
X4.064Y-49.276
X4.064Y-51.816
X4.064Y-54.864
X4.064Y-57.404
X4.064Y-59.944
X4.064Y-62.484
X4.064Y-65.532
X4.064Y-68.072
X4.064Y-70.612
X4.064Y-73.152
X4.064Y-76.2
X4.064Y-78.74
X4.064Y-81.28
X4.064Y-83.82
X4.064Y-86.868
X4.064Y-89.408
X4.064Y-91.948
X4.064Y-94.488
X6.604Y-1.397
X6.604Y-9.017
X6.604Y-12.065
X6.604Y-19.685
X6.604Y-22.733
X6.604Y-30.353
X6.604Y-33.401
X6.604Y-41.021
X6.604Y-44.069
X6.604Y-51.689
X6.604Y-54.737
X6.604Y-62.357
X6.604Y-65.405
X6.604Y-73.025
X6.604Y-76.073
X6.604Y-83.693
X6.604Y-86.741
X6.604Y-94.361
X9.144Y-1.651
X9.144Y-9.271
X9.144Y-12.319
X9.144Y-19.939
X9.144Y-22.987
X9.144Y-30.607
X9.144Y-33.655
X9.144Y-41.275
X9.144Y-44.323
X9.144Y-51.943
X9.144Y-54.991
X9.144Y-62.611
X9.144Y-65.659
X9.144Y-73.279
X9.144Y-76.327
X9.144Y-83.947
X9.144Y-86.995
X9.144Y-94.615
X11.684Y-1.397
X11.684Y-9.017
X11.684Y-12.065
X11.684Y-19.685
X11.684Y-22.733
X11.684Y-30.353
X11.684Y-33.401
X11.684Y-41.021
X11.684Y-44.069
X11.684Y-51.689
X11.684Y-54.737
X11.684Y-62.357
X11.684Y-65.405
X11.684Y-73.025
X11.684Y-76.073
X11.684Y-83.693
X11.684Y-86.741
X11.684Y-94.361
X14.224Y-1.651
X14.224Y-9.271
X14.224Y-12.319
X14.224Y-19.939
X14.224Y-22.987
X14.224Y-30.607
X14.224Y-33.655
X14.224Y-41.275
X14.224Y-44.323
X14.224Y-51.943
X14.224Y-54.991
X14.224Y-62.611
X14.224Y-65.659
X14.224Y-73.279
X14.224Y-76.327
X14.224Y-83.947
X14.224Y-86.995
X14.224Y-94.615
X16.764Y-1.397
X16.764Y-9.017
X16.764Y-12.065
X16.764Y-19.685
X16.764Y-22.733
X16.764Y-30.353
X16.764Y-33.401
X16.764Y-41.021
X16.764Y-44.069
X16.764Y-51.689
X16.764Y-54.737
X16.764Y-62.357
X16.764Y-65.405
X16.764Y-73.025
X16.764Y-76.073
X16.764Y-83.693
X16.764Y-86.741
X16.764Y-94.361
X19.304Y-1.651
X19.304Y-9.271
X19.304Y-12.319
X19.304Y-19.939
X19.304Y-22.987
X19.304Y-30.607
X19.304Y-33.655
X19.304Y-41.275
X19.304Y-44.323
X19.304Y-51.943
X19.304Y-54.991
X19.304Y-62.611
X19.304Y-65.659
X19.304Y-73.279
X19.304Y-76.327
X19.304Y-83.947
X19.304Y-86.995
X19.304Y-94.615
X21.844Y-1.397
X21.844Y-9.017
X21.844Y-12.065
X21.844Y-19.685
X21.844Y-22.733
X21.844Y-30.353
X21.844Y-33.401
X21.844Y-41.021
X21.844Y-44.069
X21.844Y-51.689
X21.844Y-54.737
X21.844Y-62.357
X21.844Y-65.405
X21.844Y-73.025
X21.844Y-76.073
X21.844Y-83.693
X21.844Y-86.741
X21.844Y-94.361
X24.384Y-1.651
X24.384Y-9.271
X24.384Y-12.319
X24.384Y-19.939
X24.384Y-22.987
X24.384Y-30.607
X24.384Y-33.655
X24.384Y-41.275
X24.384Y-44.323
X24.384Y-51.943
X24.384Y-54.991
X24.384Y-62.611
X24.384Y-65.659
X24.384Y-73.279
X24.384Y-76.327
X24.384Y-83.947
X24.384Y-86.995
X24.384Y-94.615
X26.924Y-1.397
X26.924Y-9.017
X26.924Y-12.065
X26.924Y-19.685
X26.924Y-22.733
X26.924Y-30.353
X26.924Y-33.401
X26.924Y-41.021
X26.924Y-44.069
X26.924Y-51.689
X26.924Y-54.737
X26.924Y-62.357
X26.924Y-65.405
X26.924Y-73.025
X26.924Y-76.073
X26.924Y-83.693
X26.924Y-86.741
X26.924Y-94.361
X29.464Y-1.651
X29.464Y-9.271
X29.464Y-12.319
X29.464Y-19.939
X29.464Y-22.987
X29.464Y-30.607
X29.464Y-33.655
X29.464Y-41.275
X29.464Y-44.323
X29.464Y-51.943
X29.464Y-54.991
X29.464Y-62.611
X29.464Y-65.659
X29.464Y-73.279
X29.464Y-76.327
X29.464Y-83.947
X29.464Y-86.995
X29.464Y-94.615
X31.877Y-4.064
X31.877Y-9.144
X31.877Y-14.732
X31.877Y-19.812
X31.877Y-25.4
X31.877Y-30.48
X31.877Y-36.068
X31.877Y-41.148
X31.877Y-46.736
X31.877Y-51.816
X31.877Y-57.404
X31.877Y-62.484
X31.877Y-68.072
X31.877Y-73.152
X31.877Y-78.74
X31.877Y-83.82
X31.877Y-89.408
X31.877Y-94.488
X32.131Y-1.524
X32.131Y-6.604
X32.131Y-12.192
X32.131Y-17.272
X32.131Y-22.86
X32.131Y-27.94
X32.131Y-33.528
X32.131Y-38.608
X32.131Y-44.196
X32.131Y-49.276
X32.131Y-54.864
X32.131Y-59.944
X32.131Y-65.532
X32.131Y-70.612
X32.131Y-76.2
X32.131Y-81.28
X32.131Y-86.868
X32.131Y-91.948
X35.052Y-1.524
X35.052Y-4.064
X35.052Y-6.604
X35.052Y-9.144
X35.052Y-12.192
X35.052Y-14.732
X35.052Y-17.272
X35.052Y-19.812
X35.052Y-22.86
X35.052Y-25.4
X35.052Y-27.94
X35.052Y-30.48
X35.052Y-33.528
X35.052Y-36.068
X35.052Y-38.608
X35.052Y-41.148
X35.052Y-44.196
X35.052Y-46.736
X35.052Y-49.276
X35.052Y-51.816
X35.052Y-54.864
X35.052Y-57.404
X35.052Y-59.944
X35.052Y-62.484
X35.052Y-65.532
X35.052Y-68.072
X35.052Y-70.612
X35.052Y-73.152
X35.052Y-76.2
X35.052Y-78.74
X35.052Y-81.28
X35.052Y-83.82
X35.052Y-86.868
X35.052Y-89.408
X35.052Y-91.948
X35.052Y-94.488
X37.592Y-1.524
X37.592Y-4.064
X37.592Y-6.604
X37.592Y-9.144
X37.592Y-12.192
X37.592Y-14.732
X37.592Y-17.272
X37.592Y-19.812
X37.592Y-22.86
X37.592Y-25.4
X37.592Y-27.94
X37.592Y-30.48
X37.592Y-33.528
X37.592Y-36.068
X37.592Y-38.608
X37.592Y-41.148
X37.592Y-44.196
X37.592Y-46.736
X37.592Y-49.276
X37.592Y-51.816
X37.592Y-54.864
X37.592Y-57.404
X37.592Y-59.944
X37.592Y-62.484
X37.592Y-65.532
X37.592Y-68.072
X37.592Y-70.612
X37.592Y-73.152
X37.592Y-76.2
X37.592Y-78.74
X37.592Y-81.28
X37.592Y-83.82
X37.592Y-86.868
X37.592Y-89.408
X37.592Y-91.948
X37.592Y-94.488
X40.132Y-1.397
X40.132Y-9.017
X40.132Y-12.065
X40.132Y-19.685
X40.132Y-22.733
X40.132Y-30.353
X40.132Y-33.401
X40.132Y-41.021
X40.132Y-44.069
X40.132Y-51.689
X40.132Y-54.737
X40.132Y-62.357
X40.132Y-65.405
X40.132Y-73.025
X40.132Y-76.073
X40.132Y-83.693
X40.132Y-86.741
X40.132Y-94.361
X42.672Y-1.651
X42.672Y-9.271
X42.672Y-12.319
X42.672Y-19.939
X42.672Y-22.987
X42.672Y-30.607
X42.672Y-33.655
X42.672Y-41.275
X42.672Y-44.323
X42.672Y-51.943
X42.672Y-54.991
X42.672Y-62.611
X42.672Y-65.659
X42.672Y-73.279
X42.672Y-76.327
X42.672Y-83.947
X42.672Y-86.995
X42.672Y-94.615
X45.212Y-1.397
X45.212Y-9.017
X45.212Y-12.065
X45.212Y-19.685
X45.212Y-22.733
X45.212Y-30.353
X45.212Y-33.401
X45.212Y-41.021
X45.212Y-44.069
X45.212Y-51.689
X45.212Y-54.737
X45.212Y-62.357
X45.212Y-65.405
X45.212Y-73.025
X45.212Y-76.073
X45.212Y-83.693
X45.212Y-86.741
X45.212Y-94.361
X47.752Y-1.651
X47.752Y-9.271
X47.752Y-12.319
X47.752Y-19.939
X47.752Y-22.987
X47.752Y-30.607
X47.752Y-33.655
X47.752Y-41.275
X47.752Y-44.323
X47.752Y-51.943
X47.752Y-54.991
X47.752Y-62.611
X47.752Y-65.659
X47.752Y-73.279
X47.752Y-76.327
X47.752Y-83.947
X47.752Y-86.995
X47.752Y-94.615
X50.292Y-1.397
X50.292Y-9.017
X50.292Y-12.065
X50.292Y-19.685
X50.292Y-22.733
X50.292Y-30.353
X50.292Y-33.401
X50.292Y-41.021
X50.292Y-44.069
X50.292Y-51.689
X50.292Y-54.737
X50.292Y-62.357
X50.292Y-65.405
X50.292Y-73.025
X50.292Y-76.073
X50.292Y-83.693
X50.292Y-86.741
X50.292Y-94.361
X52.832Y-1.651
X52.832Y-9.271
X52.832Y-12.319
X52.832Y-19.939
X52.832Y-22.987
X52.832Y-30.607
X52.832Y-33.655
X52.832Y-41.275
X52.832Y-44.323
X52.832Y-51.943
X52.832Y-54.991
X52.832Y-62.611
X52.832Y-65.659
X52.832Y-73.279
X52.832Y-76.327
X52.832Y-83.947
X52.832Y-86.995
X52.832Y-94.615
X55.372Y-1.397
X55.372Y-9.017
X55.372Y-12.065
X55.372Y-19.685
X55.372Y-22.733
X55.372Y-30.353
X55.372Y-33.401
X55.372Y-41.021
X55.372Y-44.069
X55.372Y-51.689
X55.372Y-54.737
X55.372Y-62.357
X55.372Y-65.405
X55.372Y-73.025
X55.372Y-76.073
X55.372Y-83.693
X55.372Y-86.741
X55.372Y-94.361
X57.912Y-1.651
X57.912Y-9.271
X57.912Y-12.319
X57.912Y-19.939
X57.912Y-22.987
X57.912Y-30.607
X57.912Y-33.655
X57.912Y-41.275
X57.912Y-44.323
X57.912Y-51.943
X57.912Y-54.991
X57.912Y-62.611
X57.912Y-65.659
X57.912Y-73.279
X57.912Y-76.327
X57.912Y-83.947
X57.912Y-86.995
X57.912Y-94.615
X60.452Y-1.397
X60.452Y-9.017
X60.452Y-12.065
X60.452Y-19.685
X60.452Y-22.733
X60.452Y-30.353
X60.452Y-33.401
X60.452Y-41.021
X60.452Y-44.069
X60.452Y-51.689
X60.452Y-54.737
X60.452Y-62.357
X60.452Y-65.405
X60.452Y-73.025
X60.452Y-76.073
X60.452Y-83.693
X60.452Y-86.741
X60.452Y-94.361
X62.992Y-1.651
X62.992Y-9.271
X62.992Y-12.319
X62.992Y-19.939
X62.992Y-22.987
X62.992Y-30.607
X62.992Y-33.655
X62.992Y-41.275
X62.992Y-44.323
X62.992Y-51.943
X62.992Y-54.991
X62.992Y-62.611
X62.992Y-65.659
X62.992Y-73.279
X62.992Y-76.327
X62.992Y-83.947
X62.992Y-86.995
X62.992Y-94.615
X65.405Y-4.064
X65.405Y-9.144
X65.405Y-14.732
X65.405Y-19.812
X65.405Y-25.4
X65.405Y-30.48
X65.405Y-36.068
X65.405Y-41.148
X65.405Y-46.736
X65.405Y-51.816
X65.405Y-57.404
X65.405Y-62.484
X65.405Y-68.072
X65.405Y-73.152
X65.405Y-78.74
X65.405Y-83.82
X65.405Y-89.408
X65.405Y-94.488
X65.659Y-1.524
X65.659Y-6.604
X65.659Y-12.192
X65.659Y-17.272
X65.659Y-22.86
X65.659Y-27.94
X65.659Y-33.528
X65.659Y-38.608
X65.659Y-44.196
X65.659Y-49.276
X65.659Y-54.864
X65.659Y-59.944
X65.659Y-65.532
X65.659Y-70.612
X65.659Y-76.2
X65.659Y-81.28
X65.659Y-86.868
X65.659Y-91.948
T3
X-2.54Y-5.588
X-2.54Y-90.424
X69.596Y-5.588
X69.596Y-90.424
T0
M30
