G04 #@! TF.FileFunction,Soldermask,Top*
%FSLAX46Y46*%
G04 Gerber Fmt 4.6, Leading zero omitted, Abs format (unit mm)*
G04 Created by KiCad (PCBNEW 4.0.6-e0-6349~53~ubuntu16.04.1) date Sun Jun 25 16:08:35 2017*
%MOMM*%
%LPD*%
G01*
G04 APERTURE LIST*
%ADD10C,0.100000*%
%ADD11C,2.000000*%
%ADD12C,3.000000*%
%ADD13C,2.540000*%
%ADD14R,1.473200X0.838200*%
%ADD15R,0.703200X1.103200*%
%ADD16R,1.103200X0.703200*%
%ADD17R,1.103200X1.003200*%
%ADD18R,1.453200X2.203200*%
%ADD19R,1.003200X1.103200*%
%ADD20R,1.003200X0.953200*%
%ADD21R,0.953200X1.003200*%
%ADD22R,1.003200X1.003200*%
%ADD23R,1.203200X1.453200*%
%ADD24C,2.082800*%
%ADD25R,1.903200X1.103200*%
%ADD26C,0.503200*%
G04 APERTURE END LIST*
D10*
D11*
X69596000Y-75184000D02*
X69596000Y-63500000D01*
D12*
X-2540000Y-90424000D03*
D13*
X69596000Y-79756000D03*
X-2540000Y-79756000D03*
X-2540000Y-16256000D03*
D12*
X69596000Y-90424000D03*
X-2540000Y-5588000D03*
D14*
X40132000Y-92862400D03*
X40132000Y-92049600D03*
D15*
X44462000Y-92583000D03*
X45962000Y-92583000D03*
X57924000Y-90043000D03*
X59424000Y-90043000D03*
X59424000Y-91313000D03*
X57924000Y-91313000D03*
D16*
X63627000Y-88658000D03*
X63627000Y-90158000D03*
D17*
X56880000Y-91628000D03*
X56880000Y-89728000D03*
X54880000Y-90678000D03*
D18*
X43501000Y-89154000D03*
X39751000Y-89154000D03*
D19*
X43495000Y-90694000D03*
X41595000Y-90694000D03*
X42545000Y-92694000D03*
D20*
X45859000Y-91313000D03*
X47359000Y-91313000D03*
D21*
X53848000Y-88785000D03*
X53848000Y-90285000D03*
X53848000Y-92825000D03*
X53848000Y-91325000D03*
X63627000Y-91071000D03*
X63627000Y-92571000D03*
D22*
X59601000Y-88900000D03*
X58001000Y-88900000D03*
X59601000Y-92456000D03*
X58001000Y-92456000D03*
D23*
X47355000Y-90043000D03*
X45355000Y-90043000D03*
D24*
X40132000Y-86741000D03*
X42672000Y-86995000D03*
X45212000Y-86741000D03*
X47752000Y-86995000D03*
X50292000Y-86741000D03*
X52832000Y-86995000D03*
X55372000Y-86741000D03*
X57912000Y-86995000D03*
X60452000Y-86741000D03*
X62992000Y-86995000D03*
X40132000Y-94361000D03*
X42672000Y-94615000D03*
X45212000Y-94361000D03*
X47752000Y-94615000D03*
X50292000Y-94361000D03*
X52832000Y-94615000D03*
X55372000Y-94361000D03*
X57912000Y-94615000D03*
X60452000Y-94361000D03*
X62992000Y-94615000D03*
D25*
X61595000Y-92378000D03*
X61595000Y-88978000D03*
D24*
X65405000Y-94488000D03*
X65659000Y-91948000D03*
X65405000Y-89408000D03*
X65659000Y-86868000D03*
X35052000Y-86868000D03*
X37592000Y-86868000D03*
X35052000Y-89408000D03*
X37592000Y-89408000D03*
X35052000Y-91948000D03*
X37592000Y-91948000D03*
X35052000Y-94488000D03*
X37592000Y-94488000D03*
D26*
X50111091Y-88939077D02*
X50252513Y-89080499D01*
D10*
G36*
X48729971Y-90035094D02*
X49085787Y-89679278D01*
X49724445Y-90317936D01*
X49368629Y-90673752D01*
X48729971Y-90035094D01*
X48729971Y-90035094D01*
G37*
G36*
X49439340Y-92158676D02*
X49083524Y-91802860D01*
X49722182Y-91164202D01*
X50077998Y-91520018D01*
X49439340Y-92158676D01*
X49439340Y-92158676D01*
G37*
G36*
X49083524Y-89681540D02*
X49439340Y-89325724D01*
X50077998Y-89964382D01*
X49722182Y-90320198D01*
X49083524Y-89681540D01*
X49083524Y-89681540D01*
G37*
G36*
X49085787Y-91805122D02*
X48729971Y-91449306D01*
X49368629Y-90810648D01*
X49724445Y-91166464D01*
X49085787Y-91805122D01*
X49085787Y-91805122D01*
G37*
G36*
X51631371Y-90673752D02*
X51275555Y-90317936D01*
X51914213Y-89679278D01*
X52270029Y-90035094D01*
X51631371Y-90673752D01*
X51631371Y-90673752D01*
G37*
G36*
X49792894Y-92512229D02*
X49437078Y-92156413D01*
X50075736Y-91517755D01*
X50431552Y-91873571D01*
X49792894Y-92512229D01*
X49792894Y-92512229D01*
G37*
G36*
X51277818Y-90320198D02*
X50922002Y-89964382D01*
X51560660Y-89325724D01*
X51916476Y-89681540D01*
X51277818Y-90320198D01*
X51277818Y-90320198D01*
G37*
G36*
X50924264Y-89966645D02*
X50568448Y-89610829D01*
X51207106Y-88972171D01*
X51562922Y-89327987D01*
X50924264Y-89966645D01*
X50924264Y-89966645D01*
G37*
G36*
X50922002Y-91520018D02*
X51277818Y-91164202D01*
X51916476Y-91802860D01*
X51560660Y-92158676D01*
X50922002Y-91520018D01*
X50922002Y-91520018D01*
G37*
G36*
X50568448Y-91873571D02*
X50924264Y-91517755D01*
X51562922Y-92156413D01*
X51207106Y-92512229D01*
X50568448Y-91873571D01*
X50568448Y-91873571D01*
G37*
G36*
X51275555Y-91166464D02*
X51631371Y-90810648D01*
X52270029Y-91449306D01*
X51914213Y-91805122D01*
X51275555Y-91166464D01*
X51275555Y-91166464D01*
G37*
G36*
X49437078Y-89327987D02*
X49792894Y-88972171D01*
X50431552Y-89610829D01*
X50075736Y-89966645D01*
X49437078Y-89327987D01*
X49437078Y-89327987D01*
G37*
D26*
X48696877Y-90353291D02*
X48838299Y-90494713D01*
X50747487Y-89080499D02*
X50888909Y-88939077D01*
X48696877Y-91131109D02*
X48838299Y-90989687D01*
X52161701Y-90989687D02*
X52303123Y-91131109D01*
X50747487Y-92403901D02*
X50888909Y-92545323D01*
X50111091Y-92545323D02*
X50252513Y-92403901D01*
X52161701Y-90494713D02*
X52303123Y-90353291D01*
D14*
X40132000Y-82194400D03*
X40132000Y-81381600D03*
D15*
X44462000Y-81915000D03*
X45962000Y-81915000D03*
X57924000Y-79375000D03*
X59424000Y-79375000D03*
X59424000Y-80645000D03*
X57924000Y-80645000D03*
D16*
X63627000Y-77990000D03*
X63627000Y-79490000D03*
D17*
X56880000Y-80960000D03*
X56880000Y-79060000D03*
X54880000Y-80010000D03*
D18*
X43501000Y-78486000D03*
X39751000Y-78486000D03*
D19*
X43495000Y-80026000D03*
X41595000Y-80026000D03*
X42545000Y-82026000D03*
D20*
X45859000Y-80645000D03*
X47359000Y-80645000D03*
D21*
X53848000Y-78117000D03*
X53848000Y-79617000D03*
X53848000Y-82157000D03*
X53848000Y-80657000D03*
X63627000Y-80403000D03*
X63627000Y-81903000D03*
D22*
X59601000Y-78232000D03*
X58001000Y-78232000D03*
X59601000Y-81788000D03*
X58001000Y-81788000D03*
D23*
X47355000Y-79375000D03*
X45355000Y-79375000D03*
D24*
X40132000Y-76073000D03*
X42672000Y-76327000D03*
X45212000Y-76073000D03*
X47752000Y-76327000D03*
X50292000Y-76073000D03*
X52832000Y-76327000D03*
X55372000Y-76073000D03*
X57912000Y-76327000D03*
X60452000Y-76073000D03*
X62992000Y-76327000D03*
X40132000Y-83693000D03*
X42672000Y-83947000D03*
X45212000Y-83693000D03*
X47752000Y-83947000D03*
X50292000Y-83693000D03*
X52832000Y-83947000D03*
X55372000Y-83693000D03*
X57912000Y-83947000D03*
X60452000Y-83693000D03*
X62992000Y-83947000D03*
D25*
X61595000Y-81710000D03*
X61595000Y-78310000D03*
D24*
X65405000Y-83820000D03*
X65659000Y-81280000D03*
X65405000Y-78740000D03*
X65659000Y-76200000D03*
X35052000Y-76200000D03*
X37592000Y-76200000D03*
X35052000Y-78740000D03*
X37592000Y-78740000D03*
X35052000Y-81280000D03*
X37592000Y-81280000D03*
X35052000Y-83820000D03*
X37592000Y-83820000D03*
D26*
X50111091Y-78271077D02*
X50252513Y-78412499D01*
D10*
G36*
X48729971Y-79367094D02*
X49085787Y-79011278D01*
X49724445Y-79649936D01*
X49368629Y-80005752D01*
X48729971Y-79367094D01*
X48729971Y-79367094D01*
G37*
G36*
X49439340Y-81490676D02*
X49083524Y-81134860D01*
X49722182Y-80496202D01*
X50077998Y-80852018D01*
X49439340Y-81490676D01*
X49439340Y-81490676D01*
G37*
G36*
X49083524Y-79013540D02*
X49439340Y-78657724D01*
X50077998Y-79296382D01*
X49722182Y-79652198D01*
X49083524Y-79013540D01*
X49083524Y-79013540D01*
G37*
G36*
X49085787Y-81137122D02*
X48729971Y-80781306D01*
X49368629Y-80142648D01*
X49724445Y-80498464D01*
X49085787Y-81137122D01*
X49085787Y-81137122D01*
G37*
G36*
X51631371Y-80005752D02*
X51275555Y-79649936D01*
X51914213Y-79011278D01*
X52270029Y-79367094D01*
X51631371Y-80005752D01*
X51631371Y-80005752D01*
G37*
G36*
X49792894Y-81844229D02*
X49437078Y-81488413D01*
X50075736Y-80849755D01*
X50431552Y-81205571D01*
X49792894Y-81844229D01*
X49792894Y-81844229D01*
G37*
G36*
X51277818Y-79652198D02*
X50922002Y-79296382D01*
X51560660Y-78657724D01*
X51916476Y-79013540D01*
X51277818Y-79652198D01*
X51277818Y-79652198D01*
G37*
G36*
X50924264Y-79298645D02*
X50568448Y-78942829D01*
X51207106Y-78304171D01*
X51562922Y-78659987D01*
X50924264Y-79298645D01*
X50924264Y-79298645D01*
G37*
G36*
X50922002Y-80852018D02*
X51277818Y-80496202D01*
X51916476Y-81134860D01*
X51560660Y-81490676D01*
X50922002Y-80852018D01*
X50922002Y-80852018D01*
G37*
G36*
X50568448Y-81205571D02*
X50924264Y-80849755D01*
X51562922Y-81488413D01*
X51207106Y-81844229D01*
X50568448Y-81205571D01*
X50568448Y-81205571D01*
G37*
G36*
X51275555Y-80498464D02*
X51631371Y-80142648D01*
X52270029Y-80781306D01*
X51914213Y-81137122D01*
X51275555Y-80498464D01*
X51275555Y-80498464D01*
G37*
G36*
X49437078Y-78659987D02*
X49792894Y-78304171D01*
X50431552Y-78942829D01*
X50075736Y-79298645D01*
X49437078Y-78659987D01*
X49437078Y-78659987D01*
G37*
D26*
X48696877Y-79685291D02*
X48838299Y-79826713D01*
X50747487Y-78412499D02*
X50888909Y-78271077D01*
X48696877Y-80463109D02*
X48838299Y-80321687D01*
X52161701Y-80321687D02*
X52303123Y-80463109D01*
X50747487Y-81735901D02*
X50888909Y-81877323D01*
X50111091Y-81877323D02*
X50252513Y-81735901D01*
X52161701Y-79826713D02*
X52303123Y-79685291D01*
D14*
X40132000Y-71526400D03*
X40132000Y-70713600D03*
D15*
X44462000Y-71247000D03*
X45962000Y-71247000D03*
X57924000Y-68707000D03*
X59424000Y-68707000D03*
X59424000Y-69977000D03*
X57924000Y-69977000D03*
D16*
X63627000Y-67322000D03*
X63627000Y-68822000D03*
D17*
X56880000Y-70292000D03*
X56880000Y-68392000D03*
X54880000Y-69342000D03*
D18*
X43501000Y-67818000D03*
X39751000Y-67818000D03*
D19*
X43495000Y-69358000D03*
X41595000Y-69358000D03*
X42545000Y-71358000D03*
D20*
X45859000Y-69977000D03*
X47359000Y-69977000D03*
D21*
X53848000Y-67449000D03*
X53848000Y-68949000D03*
X53848000Y-71489000D03*
X53848000Y-69989000D03*
X63627000Y-69735000D03*
X63627000Y-71235000D03*
D22*
X59601000Y-67564000D03*
X58001000Y-67564000D03*
X59601000Y-71120000D03*
X58001000Y-71120000D03*
D23*
X47355000Y-68707000D03*
X45355000Y-68707000D03*
D24*
X40132000Y-65405000D03*
X42672000Y-65659000D03*
X45212000Y-65405000D03*
X47752000Y-65659000D03*
X50292000Y-65405000D03*
X52832000Y-65659000D03*
X55372000Y-65405000D03*
X57912000Y-65659000D03*
X60452000Y-65405000D03*
X62992000Y-65659000D03*
X40132000Y-73025000D03*
X42672000Y-73279000D03*
X45212000Y-73025000D03*
X47752000Y-73279000D03*
X50292000Y-73025000D03*
X52832000Y-73279000D03*
X55372000Y-73025000D03*
X57912000Y-73279000D03*
X60452000Y-73025000D03*
X62992000Y-73279000D03*
D25*
X61595000Y-71042000D03*
X61595000Y-67642000D03*
D24*
X65405000Y-73152000D03*
X65659000Y-70612000D03*
X65405000Y-68072000D03*
X65659000Y-65532000D03*
X35052000Y-65532000D03*
X37592000Y-65532000D03*
X35052000Y-68072000D03*
X37592000Y-68072000D03*
X35052000Y-70612000D03*
X37592000Y-70612000D03*
X35052000Y-73152000D03*
X37592000Y-73152000D03*
D26*
X50111091Y-67603077D02*
X50252513Y-67744499D01*
D10*
G36*
X48729971Y-68699094D02*
X49085787Y-68343278D01*
X49724445Y-68981936D01*
X49368629Y-69337752D01*
X48729971Y-68699094D01*
X48729971Y-68699094D01*
G37*
G36*
X49439340Y-70822676D02*
X49083524Y-70466860D01*
X49722182Y-69828202D01*
X50077998Y-70184018D01*
X49439340Y-70822676D01*
X49439340Y-70822676D01*
G37*
G36*
X49083524Y-68345540D02*
X49439340Y-67989724D01*
X50077998Y-68628382D01*
X49722182Y-68984198D01*
X49083524Y-68345540D01*
X49083524Y-68345540D01*
G37*
G36*
X49085787Y-70469122D02*
X48729971Y-70113306D01*
X49368629Y-69474648D01*
X49724445Y-69830464D01*
X49085787Y-70469122D01*
X49085787Y-70469122D01*
G37*
G36*
X51631371Y-69337752D02*
X51275555Y-68981936D01*
X51914213Y-68343278D01*
X52270029Y-68699094D01*
X51631371Y-69337752D01*
X51631371Y-69337752D01*
G37*
G36*
X49792894Y-71176229D02*
X49437078Y-70820413D01*
X50075736Y-70181755D01*
X50431552Y-70537571D01*
X49792894Y-71176229D01*
X49792894Y-71176229D01*
G37*
G36*
X51277818Y-68984198D02*
X50922002Y-68628382D01*
X51560660Y-67989724D01*
X51916476Y-68345540D01*
X51277818Y-68984198D01*
X51277818Y-68984198D01*
G37*
G36*
X50924264Y-68630645D02*
X50568448Y-68274829D01*
X51207106Y-67636171D01*
X51562922Y-67991987D01*
X50924264Y-68630645D01*
X50924264Y-68630645D01*
G37*
G36*
X50922002Y-70184018D02*
X51277818Y-69828202D01*
X51916476Y-70466860D01*
X51560660Y-70822676D01*
X50922002Y-70184018D01*
X50922002Y-70184018D01*
G37*
G36*
X50568448Y-70537571D02*
X50924264Y-70181755D01*
X51562922Y-70820413D01*
X51207106Y-71176229D01*
X50568448Y-70537571D01*
X50568448Y-70537571D01*
G37*
G36*
X51275555Y-69830464D02*
X51631371Y-69474648D01*
X52270029Y-70113306D01*
X51914213Y-70469122D01*
X51275555Y-69830464D01*
X51275555Y-69830464D01*
G37*
G36*
X49437078Y-67991987D02*
X49792894Y-67636171D01*
X50431552Y-68274829D01*
X50075736Y-68630645D01*
X49437078Y-67991987D01*
X49437078Y-67991987D01*
G37*
D26*
X48696877Y-69017291D02*
X48838299Y-69158713D01*
X50747487Y-67744499D02*
X50888909Y-67603077D01*
X48696877Y-69795109D02*
X48838299Y-69653687D01*
X52161701Y-69653687D02*
X52303123Y-69795109D01*
X50747487Y-71067901D02*
X50888909Y-71209323D01*
X50111091Y-71209323D02*
X50252513Y-71067901D01*
X52161701Y-69158713D02*
X52303123Y-69017291D01*
D14*
X40132000Y-60858400D03*
X40132000Y-60045600D03*
D15*
X44462000Y-60579000D03*
X45962000Y-60579000D03*
X57924000Y-58039000D03*
X59424000Y-58039000D03*
X59424000Y-59309000D03*
X57924000Y-59309000D03*
D16*
X63627000Y-56654000D03*
X63627000Y-58154000D03*
D17*
X56880000Y-59624000D03*
X56880000Y-57724000D03*
X54880000Y-58674000D03*
D18*
X43501000Y-57150000D03*
X39751000Y-57150000D03*
D19*
X43495000Y-58690000D03*
X41595000Y-58690000D03*
X42545000Y-60690000D03*
D20*
X45859000Y-59309000D03*
X47359000Y-59309000D03*
D21*
X53848000Y-56781000D03*
X53848000Y-58281000D03*
X53848000Y-60821000D03*
X53848000Y-59321000D03*
X63627000Y-59067000D03*
X63627000Y-60567000D03*
D22*
X59601000Y-56896000D03*
X58001000Y-56896000D03*
X59601000Y-60452000D03*
X58001000Y-60452000D03*
D23*
X47355000Y-58039000D03*
X45355000Y-58039000D03*
D24*
X40132000Y-54737000D03*
X42672000Y-54991000D03*
X45212000Y-54737000D03*
X47752000Y-54991000D03*
X50292000Y-54737000D03*
X52832000Y-54991000D03*
X55372000Y-54737000D03*
X57912000Y-54991000D03*
X60452000Y-54737000D03*
X62992000Y-54991000D03*
X40132000Y-62357000D03*
X42672000Y-62611000D03*
X45212000Y-62357000D03*
X47752000Y-62611000D03*
X50292000Y-62357000D03*
X52832000Y-62611000D03*
X55372000Y-62357000D03*
X57912000Y-62611000D03*
X60452000Y-62357000D03*
X62992000Y-62611000D03*
D25*
X61595000Y-60374000D03*
X61595000Y-56974000D03*
D24*
X65405000Y-62484000D03*
X65659000Y-59944000D03*
X65405000Y-57404000D03*
X65659000Y-54864000D03*
X35052000Y-54864000D03*
X37592000Y-54864000D03*
X35052000Y-57404000D03*
X37592000Y-57404000D03*
X35052000Y-59944000D03*
X37592000Y-59944000D03*
X35052000Y-62484000D03*
X37592000Y-62484000D03*
D26*
X50111091Y-56935077D02*
X50252513Y-57076499D01*
D10*
G36*
X48729971Y-58031094D02*
X49085787Y-57675278D01*
X49724445Y-58313936D01*
X49368629Y-58669752D01*
X48729971Y-58031094D01*
X48729971Y-58031094D01*
G37*
G36*
X49439340Y-60154676D02*
X49083524Y-59798860D01*
X49722182Y-59160202D01*
X50077998Y-59516018D01*
X49439340Y-60154676D01*
X49439340Y-60154676D01*
G37*
G36*
X49083524Y-57677540D02*
X49439340Y-57321724D01*
X50077998Y-57960382D01*
X49722182Y-58316198D01*
X49083524Y-57677540D01*
X49083524Y-57677540D01*
G37*
G36*
X49085787Y-59801122D02*
X48729971Y-59445306D01*
X49368629Y-58806648D01*
X49724445Y-59162464D01*
X49085787Y-59801122D01*
X49085787Y-59801122D01*
G37*
G36*
X51631371Y-58669752D02*
X51275555Y-58313936D01*
X51914213Y-57675278D01*
X52270029Y-58031094D01*
X51631371Y-58669752D01*
X51631371Y-58669752D01*
G37*
G36*
X49792894Y-60508229D02*
X49437078Y-60152413D01*
X50075736Y-59513755D01*
X50431552Y-59869571D01*
X49792894Y-60508229D01*
X49792894Y-60508229D01*
G37*
G36*
X51277818Y-58316198D02*
X50922002Y-57960382D01*
X51560660Y-57321724D01*
X51916476Y-57677540D01*
X51277818Y-58316198D01*
X51277818Y-58316198D01*
G37*
G36*
X50924264Y-57962645D02*
X50568448Y-57606829D01*
X51207106Y-56968171D01*
X51562922Y-57323987D01*
X50924264Y-57962645D01*
X50924264Y-57962645D01*
G37*
G36*
X50922002Y-59516018D02*
X51277818Y-59160202D01*
X51916476Y-59798860D01*
X51560660Y-60154676D01*
X50922002Y-59516018D01*
X50922002Y-59516018D01*
G37*
G36*
X50568448Y-59869571D02*
X50924264Y-59513755D01*
X51562922Y-60152413D01*
X51207106Y-60508229D01*
X50568448Y-59869571D01*
X50568448Y-59869571D01*
G37*
G36*
X51275555Y-59162464D02*
X51631371Y-58806648D01*
X52270029Y-59445306D01*
X51914213Y-59801122D01*
X51275555Y-59162464D01*
X51275555Y-59162464D01*
G37*
G36*
X49437078Y-57323987D02*
X49792894Y-56968171D01*
X50431552Y-57606829D01*
X50075736Y-57962645D01*
X49437078Y-57323987D01*
X49437078Y-57323987D01*
G37*
D26*
X48696877Y-58349291D02*
X48838299Y-58490713D01*
X50747487Y-57076499D02*
X50888909Y-56935077D01*
X48696877Y-59127109D02*
X48838299Y-58985687D01*
X52161701Y-58985687D02*
X52303123Y-59127109D01*
X50747487Y-60399901D02*
X50888909Y-60541323D01*
X50111091Y-60541323D02*
X50252513Y-60399901D01*
X52161701Y-58490713D02*
X52303123Y-58349291D01*
D14*
X40132000Y-50190400D03*
X40132000Y-49377600D03*
D15*
X44462000Y-49911000D03*
X45962000Y-49911000D03*
X57924000Y-47371000D03*
X59424000Y-47371000D03*
X59424000Y-48641000D03*
X57924000Y-48641000D03*
D16*
X63627000Y-45986000D03*
X63627000Y-47486000D03*
D17*
X56880000Y-48956000D03*
X56880000Y-47056000D03*
X54880000Y-48006000D03*
D18*
X43501000Y-46482000D03*
X39751000Y-46482000D03*
D19*
X43495000Y-48022000D03*
X41595000Y-48022000D03*
X42545000Y-50022000D03*
D20*
X45859000Y-48641000D03*
X47359000Y-48641000D03*
D21*
X53848000Y-46113000D03*
X53848000Y-47613000D03*
X53848000Y-50153000D03*
X53848000Y-48653000D03*
X63627000Y-48399000D03*
X63627000Y-49899000D03*
D22*
X59601000Y-46228000D03*
X58001000Y-46228000D03*
X59601000Y-49784000D03*
X58001000Y-49784000D03*
D23*
X47355000Y-47371000D03*
X45355000Y-47371000D03*
D24*
X40132000Y-44069000D03*
X42672000Y-44323000D03*
X45212000Y-44069000D03*
X47752000Y-44323000D03*
X50292000Y-44069000D03*
X52832000Y-44323000D03*
X55372000Y-44069000D03*
X57912000Y-44323000D03*
X60452000Y-44069000D03*
X62992000Y-44323000D03*
X40132000Y-51689000D03*
X42672000Y-51943000D03*
X45212000Y-51689000D03*
X47752000Y-51943000D03*
X50292000Y-51689000D03*
X52832000Y-51943000D03*
X55372000Y-51689000D03*
X57912000Y-51943000D03*
X60452000Y-51689000D03*
X62992000Y-51943000D03*
D25*
X61595000Y-49706000D03*
X61595000Y-46306000D03*
D24*
X65405000Y-51816000D03*
X65659000Y-49276000D03*
X65405000Y-46736000D03*
X65659000Y-44196000D03*
X35052000Y-44196000D03*
X37592000Y-44196000D03*
X35052000Y-46736000D03*
X37592000Y-46736000D03*
X35052000Y-49276000D03*
X37592000Y-49276000D03*
X35052000Y-51816000D03*
X37592000Y-51816000D03*
D26*
X50111091Y-46267077D02*
X50252513Y-46408499D01*
D10*
G36*
X48729971Y-47363094D02*
X49085787Y-47007278D01*
X49724445Y-47645936D01*
X49368629Y-48001752D01*
X48729971Y-47363094D01*
X48729971Y-47363094D01*
G37*
G36*
X49439340Y-49486676D02*
X49083524Y-49130860D01*
X49722182Y-48492202D01*
X50077998Y-48848018D01*
X49439340Y-49486676D01*
X49439340Y-49486676D01*
G37*
G36*
X49083524Y-47009540D02*
X49439340Y-46653724D01*
X50077998Y-47292382D01*
X49722182Y-47648198D01*
X49083524Y-47009540D01*
X49083524Y-47009540D01*
G37*
G36*
X49085787Y-49133122D02*
X48729971Y-48777306D01*
X49368629Y-48138648D01*
X49724445Y-48494464D01*
X49085787Y-49133122D01*
X49085787Y-49133122D01*
G37*
G36*
X51631371Y-48001752D02*
X51275555Y-47645936D01*
X51914213Y-47007278D01*
X52270029Y-47363094D01*
X51631371Y-48001752D01*
X51631371Y-48001752D01*
G37*
G36*
X49792894Y-49840229D02*
X49437078Y-49484413D01*
X50075736Y-48845755D01*
X50431552Y-49201571D01*
X49792894Y-49840229D01*
X49792894Y-49840229D01*
G37*
G36*
X51277818Y-47648198D02*
X50922002Y-47292382D01*
X51560660Y-46653724D01*
X51916476Y-47009540D01*
X51277818Y-47648198D01*
X51277818Y-47648198D01*
G37*
G36*
X50924264Y-47294645D02*
X50568448Y-46938829D01*
X51207106Y-46300171D01*
X51562922Y-46655987D01*
X50924264Y-47294645D01*
X50924264Y-47294645D01*
G37*
G36*
X50922002Y-48848018D02*
X51277818Y-48492202D01*
X51916476Y-49130860D01*
X51560660Y-49486676D01*
X50922002Y-48848018D01*
X50922002Y-48848018D01*
G37*
G36*
X50568448Y-49201571D02*
X50924264Y-48845755D01*
X51562922Y-49484413D01*
X51207106Y-49840229D01*
X50568448Y-49201571D01*
X50568448Y-49201571D01*
G37*
G36*
X51275555Y-48494464D02*
X51631371Y-48138648D01*
X52270029Y-48777306D01*
X51914213Y-49133122D01*
X51275555Y-48494464D01*
X51275555Y-48494464D01*
G37*
G36*
X49437078Y-46655987D02*
X49792894Y-46300171D01*
X50431552Y-46938829D01*
X50075736Y-47294645D01*
X49437078Y-46655987D01*
X49437078Y-46655987D01*
G37*
D26*
X48696877Y-47681291D02*
X48838299Y-47822713D01*
X50747487Y-46408499D02*
X50888909Y-46267077D01*
X48696877Y-48459109D02*
X48838299Y-48317687D01*
X52161701Y-48317687D02*
X52303123Y-48459109D01*
X50747487Y-49731901D02*
X50888909Y-49873323D01*
X50111091Y-49873323D02*
X50252513Y-49731901D01*
X52161701Y-47822713D02*
X52303123Y-47681291D01*
D14*
X40132000Y-39522400D03*
X40132000Y-38709600D03*
D15*
X44462000Y-39243000D03*
X45962000Y-39243000D03*
X57924000Y-36703000D03*
X59424000Y-36703000D03*
X59424000Y-37973000D03*
X57924000Y-37973000D03*
D16*
X63627000Y-35318000D03*
X63627000Y-36818000D03*
D17*
X56880000Y-38288000D03*
X56880000Y-36388000D03*
X54880000Y-37338000D03*
D18*
X43501000Y-35814000D03*
X39751000Y-35814000D03*
D19*
X43495000Y-37354000D03*
X41595000Y-37354000D03*
X42545000Y-39354000D03*
D20*
X45859000Y-37973000D03*
X47359000Y-37973000D03*
D21*
X53848000Y-35445000D03*
X53848000Y-36945000D03*
X53848000Y-39485000D03*
X53848000Y-37985000D03*
X63627000Y-37731000D03*
X63627000Y-39231000D03*
D22*
X59601000Y-35560000D03*
X58001000Y-35560000D03*
X59601000Y-39116000D03*
X58001000Y-39116000D03*
D23*
X47355000Y-36703000D03*
X45355000Y-36703000D03*
D24*
X40132000Y-33401000D03*
X42672000Y-33655000D03*
X45212000Y-33401000D03*
X47752000Y-33655000D03*
X50292000Y-33401000D03*
X52832000Y-33655000D03*
X55372000Y-33401000D03*
X57912000Y-33655000D03*
X60452000Y-33401000D03*
X62992000Y-33655000D03*
X40132000Y-41021000D03*
X42672000Y-41275000D03*
X45212000Y-41021000D03*
X47752000Y-41275000D03*
X50292000Y-41021000D03*
X52832000Y-41275000D03*
X55372000Y-41021000D03*
X57912000Y-41275000D03*
X60452000Y-41021000D03*
X62992000Y-41275000D03*
D25*
X61595000Y-39038000D03*
X61595000Y-35638000D03*
D24*
X65405000Y-41148000D03*
X65659000Y-38608000D03*
X65405000Y-36068000D03*
X65659000Y-33528000D03*
X35052000Y-33528000D03*
X37592000Y-33528000D03*
X35052000Y-36068000D03*
X37592000Y-36068000D03*
X35052000Y-38608000D03*
X37592000Y-38608000D03*
X35052000Y-41148000D03*
X37592000Y-41148000D03*
D26*
X50111091Y-35599077D02*
X50252513Y-35740499D01*
D10*
G36*
X48729971Y-36695094D02*
X49085787Y-36339278D01*
X49724445Y-36977936D01*
X49368629Y-37333752D01*
X48729971Y-36695094D01*
X48729971Y-36695094D01*
G37*
G36*
X49439340Y-38818676D02*
X49083524Y-38462860D01*
X49722182Y-37824202D01*
X50077998Y-38180018D01*
X49439340Y-38818676D01*
X49439340Y-38818676D01*
G37*
G36*
X49083524Y-36341540D02*
X49439340Y-35985724D01*
X50077998Y-36624382D01*
X49722182Y-36980198D01*
X49083524Y-36341540D01*
X49083524Y-36341540D01*
G37*
G36*
X49085787Y-38465122D02*
X48729971Y-38109306D01*
X49368629Y-37470648D01*
X49724445Y-37826464D01*
X49085787Y-38465122D01*
X49085787Y-38465122D01*
G37*
G36*
X51631371Y-37333752D02*
X51275555Y-36977936D01*
X51914213Y-36339278D01*
X52270029Y-36695094D01*
X51631371Y-37333752D01*
X51631371Y-37333752D01*
G37*
G36*
X49792894Y-39172229D02*
X49437078Y-38816413D01*
X50075736Y-38177755D01*
X50431552Y-38533571D01*
X49792894Y-39172229D01*
X49792894Y-39172229D01*
G37*
G36*
X51277818Y-36980198D02*
X50922002Y-36624382D01*
X51560660Y-35985724D01*
X51916476Y-36341540D01*
X51277818Y-36980198D01*
X51277818Y-36980198D01*
G37*
G36*
X50924264Y-36626645D02*
X50568448Y-36270829D01*
X51207106Y-35632171D01*
X51562922Y-35987987D01*
X50924264Y-36626645D01*
X50924264Y-36626645D01*
G37*
G36*
X50922002Y-38180018D02*
X51277818Y-37824202D01*
X51916476Y-38462860D01*
X51560660Y-38818676D01*
X50922002Y-38180018D01*
X50922002Y-38180018D01*
G37*
G36*
X50568448Y-38533571D02*
X50924264Y-38177755D01*
X51562922Y-38816413D01*
X51207106Y-39172229D01*
X50568448Y-38533571D01*
X50568448Y-38533571D01*
G37*
G36*
X51275555Y-37826464D02*
X51631371Y-37470648D01*
X52270029Y-38109306D01*
X51914213Y-38465122D01*
X51275555Y-37826464D01*
X51275555Y-37826464D01*
G37*
G36*
X49437078Y-35987987D02*
X49792894Y-35632171D01*
X50431552Y-36270829D01*
X50075736Y-36626645D01*
X49437078Y-35987987D01*
X49437078Y-35987987D01*
G37*
D26*
X48696877Y-37013291D02*
X48838299Y-37154713D01*
X50747487Y-35740499D02*
X50888909Y-35599077D01*
X48696877Y-37791109D02*
X48838299Y-37649687D01*
X52161701Y-37649687D02*
X52303123Y-37791109D01*
X50747487Y-39063901D02*
X50888909Y-39205323D01*
X50111091Y-39205323D02*
X50252513Y-39063901D01*
X52161701Y-37154713D02*
X52303123Y-37013291D01*
D14*
X40132000Y-28854400D03*
X40132000Y-28041600D03*
D15*
X44462000Y-28575000D03*
X45962000Y-28575000D03*
X57924000Y-26035000D03*
X59424000Y-26035000D03*
X59424000Y-27305000D03*
X57924000Y-27305000D03*
D16*
X63627000Y-24650000D03*
X63627000Y-26150000D03*
D17*
X56880000Y-27620000D03*
X56880000Y-25720000D03*
X54880000Y-26670000D03*
D18*
X43501000Y-25146000D03*
X39751000Y-25146000D03*
D19*
X43495000Y-26686000D03*
X41595000Y-26686000D03*
X42545000Y-28686000D03*
D20*
X45859000Y-27305000D03*
X47359000Y-27305000D03*
D21*
X53848000Y-24777000D03*
X53848000Y-26277000D03*
X53848000Y-28817000D03*
X53848000Y-27317000D03*
X63627000Y-27063000D03*
X63627000Y-28563000D03*
D22*
X59601000Y-24892000D03*
X58001000Y-24892000D03*
X59601000Y-28448000D03*
X58001000Y-28448000D03*
D23*
X47355000Y-26035000D03*
X45355000Y-26035000D03*
D24*
X40132000Y-22733000D03*
X42672000Y-22987000D03*
X45212000Y-22733000D03*
X47752000Y-22987000D03*
X50292000Y-22733000D03*
X52832000Y-22987000D03*
X55372000Y-22733000D03*
X57912000Y-22987000D03*
X60452000Y-22733000D03*
X62992000Y-22987000D03*
X40132000Y-30353000D03*
X42672000Y-30607000D03*
X45212000Y-30353000D03*
X47752000Y-30607000D03*
X50292000Y-30353000D03*
X52832000Y-30607000D03*
X55372000Y-30353000D03*
X57912000Y-30607000D03*
X60452000Y-30353000D03*
X62992000Y-30607000D03*
D25*
X61595000Y-28370000D03*
X61595000Y-24970000D03*
D24*
X65405000Y-30480000D03*
X65659000Y-27940000D03*
X65405000Y-25400000D03*
X65659000Y-22860000D03*
X35052000Y-22860000D03*
X37592000Y-22860000D03*
X35052000Y-25400000D03*
X37592000Y-25400000D03*
X35052000Y-27940000D03*
X37592000Y-27940000D03*
X35052000Y-30480000D03*
X37592000Y-30480000D03*
D26*
X50111091Y-24931077D02*
X50252513Y-25072499D01*
D10*
G36*
X48729971Y-26027094D02*
X49085787Y-25671278D01*
X49724445Y-26309936D01*
X49368629Y-26665752D01*
X48729971Y-26027094D01*
X48729971Y-26027094D01*
G37*
G36*
X49439340Y-28150676D02*
X49083524Y-27794860D01*
X49722182Y-27156202D01*
X50077998Y-27512018D01*
X49439340Y-28150676D01*
X49439340Y-28150676D01*
G37*
G36*
X49083524Y-25673540D02*
X49439340Y-25317724D01*
X50077998Y-25956382D01*
X49722182Y-26312198D01*
X49083524Y-25673540D01*
X49083524Y-25673540D01*
G37*
G36*
X49085787Y-27797122D02*
X48729971Y-27441306D01*
X49368629Y-26802648D01*
X49724445Y-27158464D01*
X49085787Y-27797122D01*
X49085787Y-27797122D01*
G37*
G36*
X51631371Y-26665752D02*
X51275555Y-26309936D01*
X51914213Y-25671278D01*
X52270029Y-26027094D01*
X51631371Y-26665752D01*
X51631371Y-26665752D01*
G37*
G36*
X49792894Y-28504229D02*
X49437078Y-28148413D01*
X50075736Y-27509755D01*
X50431552Y-27865571D01*
X49792894Y-28504229D01*
X49792894Y-28504229D01*
G37*
G36*
X51277818Y-26312198D02*
X50922002Y-25956382D01*
X51560660Y-25317724D01*
X51916476Y-25673540D01*
X51277818Y-26312198D01*
X51277818Y-26312198D01*
G37*
G36*
X50924264Y-25958645D02*
X50568448Y-25602829D01*
X51207106Y-24964171D01*
X51562922Y-25319987D01*
X50924264Y-25958645D01*
X50924264Y-25958645D01*
G37*
G36*
X50922002Y-27512018D02*
X51277818Y-27156202D01*
X51916476Y-27794860D01*
X51560660Y-28150676D01*
X50922002Y-27512018D01*
X50922002Y-27512018D01*
G37*
G36*
X50568448Y-27865571D02*
X50924264Y-27509755D01*
X51562922Y-28148413D01*
X51207106Y-28504229D01*
X50568448Y-27865571D01*
X50568448Y-27865571D01*
G37*
G36*
X51275555Y-27158464D02*
X51631371Y-26802648D01*
X52270029Y-27441306D01*
X51914213Y-27797122D01*
X51275555Y-27158464D01*
X51275555Y-27158464D01*
G37*
G36*
X49437078Y-25319987D02*
X49792894Y-24964171D01*
X50431552Y-25602829D01*
X50075736Y-25958645D01*
X49437078Y-25319987D01*
X49437078Y-25319987D01*
G37*
D26*
X48696877Y-26345291D02*
X48838299Y-26486713D01*
X50747487Y-25072499D02*
X50888909Y-24931077D01*
X48696877Y-27123109D02*
X48838299Y-26981687D01*
X52161701Y-26981687D02*
X52303123Y-27123109D01*
X50747487Y-28395901D02*
X50888909Y-28537323D01*
X50111091Y-28537323D02*
X50252513Y-28395901D01*
X52161701Y-26486713D02*
X52303123Y-26345291D01*
D14*
X40132000Y-18186400D03*
X40132000Y-17373600D03*
D15*
X44462000Y-17907000D03*
X45962000Y-17907000D03*
X57924000Y-15367000D03*
X59424000Y-15367000D03*
X59424000Y-16637000D03*
X57924000Y-16637000D03*
D16*
X63627000Y-13982000D03*
X63627000Y-15482000D03*
D17*
X56880000Y-16952000D03*
X56880000Y-15052000D03*
X54880000Y-16002000D03*
D18*
X43501000Y-14478000D03*
X39751000Y-14478000D03*
D19*
X43495000Y-16018000D03*
X41595000Y-16018000D03*
X42545000Y-18018000D03*
D20*
X45859000Y-16637000D03*
X47359000Y-16637000D03*
D21*
X53848000Y-14109000D03*
X53848000Y-15609000D03*
X53848000Y-18149000D03*
X53848000Y-16649000D03*
X63627000Y-16395000D03*
X63627000Y-17895000D03*
D22*
X59601000Y-14224000D03*
X58001000Y-14224000D03*
X59601000Y-17780000D03*
X58001000Y-17780000D03*
D23*
X47355000Y-15367000D03*
X45355000Y-15367000D03*
D24*
X40132000Y-12065000D03*
X42672000Y-12319000D03*
X45212000Y-12065000D03*
X47752000Y-12319000D03*
X50292000Y-12065000D03*
X52832000Y-12319000D03*
X55372000Y-12065000D03*
X57912000Y-12319000D03*
X60452000Y-12065000D03*
X62992000Y-12319000D03*
X40132000Y-19685000D03*
X42672000Y-19939000D03*
X45212000Y-19685000D03*
X47752000Y-19939000D03*
X50292000Y-19685000D03*
X52832000Y-19939000D03*
X55372000Y-19685000D03*
X57912000Y-19939000D03*
X60452000Y-19685000D03*
X62992000Y-19939000D03*
D25*
X61595000Y-17702000D03*
X61595000Y-14302000D03*
D24*
X65405000Y-19812000D03*
X65659000Y-17272000D03*
X65405000Y-14732000D03*
X65659000Y-12192000D03*
X35052000Y-12192000D03*
X37592000Y-12192000D03*
X35052000Y-14732000D03*
X37592000Y-14732000D03*
X35052000Y-17272000D03*
X37592000Y-17272000D03*
X35052000Y-19812000D03*
X37592000Y-19812000D03*
D26*
X50111091Y-14263077D02*
X50252513Y-14404499D01*
D10*
G36*
X48729971Y-15359094D02*
X49085787Y-15003278D01*
X49724445Y-15641936D01*
X49368629Y-15997752D01*
X48729971Y-15359094D01*
X48729971Y-15359094D01*
G37*
G36*
X49439340Y-17482676D02*
X49083524Y-17126860D01*
X49722182Y-16488202D01*
X50077998Y-16844018D01*
X49439340Y-17482676D01*
X49439340Y-17482676D01*
G37*
G36*
X49083524Y-15005540D02*
X49439340Y-14649724D01*
X50077998Y-15288382D01*
X49722182Y-15644198D01*
X49083524Y-15005540D01*
X49083524Y-15005540D01*
G37*
G36*
X49085787Y-17129122D02*
X48729971Y-16773306D01*
X49368629Y-16134648D01*
X49724445Y-16490464D01*
X49085787Y-17129122D01*
X49085787Y-17129122D01*
G37*
G36*
X51631371Y-15997752D02*
X51275555Y-15641936D01*
X51914213Y-15003278D01*
X52270029Y-15359094D01*
X51631371Y-15997752D01*
X51631371Y-15997752D01*
G37*
G36*
X49792894Y-17836229D02*
X49437078Y-17480413D01*
X50075736Y-16841755D01*
X50431552Y-17197571D01*
X49792894Y-17836229D01*
X49792894Y-17836229D01*
G37*
G36*
X51277818Y-15644198D02*
X50922002Y-15288382D01*
X51560660Y-14649724D01*
X51916476Y-15005540D01*
X51277818Y-15644198D01*
X51277818Y-15644198D01*
G37*
G36*
X50924264Y-15290645D02*
X50568448Y-14934829D01*
X51207106Y-14296171D01*
X51562922Y-14651987D01*
X50924264Y-15290645D01*
X50924264Y-15290645D01*
G37*
G36*
X50922002Y-16844018D02*
X51277818Y-16488202D01*
X51916476Y-17126860D01*
X51560660Y-17482676D01*
X50922002Y-16844018D01*
X50922002Y-16844018D01*
G37*
G36*
X50568448Y-17197571D02*
X50924264Y-16841755D01*
X51562922Y-17480413D01*
X51207106Y-17836229D01*
X50568448Y-17197571D01*
X50568448Y-17197571D01*
G37*
G36*
X51275555Y-16490464D02*
X51631371Y-16134648D01*
X52270029Y-16773306D01*
X51914213Y-17129122D01*
X51275555Y-16490464D01*
X51275555Y-16490464D01*
G37*
G36*
X49437078Y-14651987D02*
X49792894Y-14296171D01*
X50431552Y-14934829D01*
X50075736Y-15290645D01*
X49437078Y-14651987D01*
X49437078Y-14651987D01*
G37*
D26*
X48696877Y-15677291D02*
X48838299Y-15818713D01*
X50747487Y-14404499D02*
X50888909Y-14263077D01*
X48696877Y-16455109D02*
X48838299Y-16313687D01*
X52161701Y-16313687D02*
X52303123Y-16455109D01*
X50747487Y-17727901D02*
X50888909Y-17869323D01*
X50111091Y-17869323D02*
X50252513Y-17727901D01*
X52161701Y-15818713D02*
X52303123Y-15677291D01*
D14*
X40132000Y-7518400D03*
X40132000Y-6705600D03*
D15*
X44462000Y-7239000D03*
X45962000Y-7239000D03*
X57924000Y-4699000D03*
X59424000Y-4699000D03*
X59424000Y-5969000D03*
X57924000Y-5969000D03*
D16*
X63627000Y-3314000D03*
X63627000Y-4814000D03*
D17*
X56880000Y-6284000D03*
X56880000Y-4384000D03*
X54880000Y-5334000D03*
D18*
X43501000Y-3810000D03*
X39751000Y-3810000D03*
D19*
X43495000Y-5350000D03*
X41595000Y-5350000D03*
X42545000Y-7350000D03*
D20*
X45859000Y-5969000D03*
X47359000Y-5969000D03*
D21*
X53848000Y-3441000D03*
X53848000Y-4941000D03*
X53848000Y-7481000D03*
X53848000Y-5981000D03*
X63627000Y-5727000D03*
X63627000Y-7227000D03*
D22*
X59601000Y-3556000D03*
X58001000Y-3556000D03*
X59601000Y-7112000D03*
X58001000Y-7112000D03*
D23*
X47355000Y-4699000D03*
X45355000Y-4699000D03*
D24*
X40132000Y-1397000D03*
X42672000Y-1651000D03*
X45212000Y-1397000D03*
X47752000Y-1651000D03*
X50292000Y-1397000D03*
X52832000Y-1651000D03*
X55372000Y-1397000D03*
X57912000Y-1651000D03*
X60452000Y-1397000D03*
X62992000Y-1651000D03*
X40132000Y-9017000D03*
X42672000Y-9271000D03*
X45212000Y-9017000D03*
X47752000Y-9271000D03*
X50292000Y-9017000D03*
X52832000Y-9271000D03*
X55372000Y-9017000D03*
X57912000Y-9271000D03*
X60452000Y-9017000D03*
X62992000Y-9271000D03*
D25*
X61595000Y-7034000D03*
X61595000Y-3634000D03*
D24*
X65405000Y-9144000D03*
X65659000Y-6604000D03*
X65405000Y-4064000D03*
X65659000Y-1524000D03*
X35052000Y-1524000D03*
X37592000Y-1524000D03*
X35052000Y-4064000D03*
X37592000Y-4064000D03*
X35052000Y-6604000D03*
X37592000Y-6604000D03*
X35052000Y-9144000D03*
X37592000Y-9144000D03*
D26*
X50111091Y-3595077D02*
X50252513Y-3736499D01*
D10*
G36*
X48729971Y-4691094D02*
X49085787Y-4335278D01*
X49724445Y-4973936D01*
X49368629Y-5329752D01*
X48729971Y-4691094D01*
X48729971Y-4691094D01*
G37*
G36*
X49439340Y-6814676D02*
X49083524Y-6458860D01*
X49722182Y-5820202D01*
X50077998Y-6176018D01*
X49439340Y-6814676D01*
X49439340Y-6814676D01*
G37*
G36*
X49083524Y-4337540D02*
X49439340Y-3981724D01*
X50077998Y-4620382D01*
X49722182Y-4976198D01*
X49083524Y-4337540D01*
X49083524Y-4337540D01*
G37*
G36*
X49085787Y-6461122D02*
X48729971Y-6105306D01*
X49368629Y-5466648D01*
X49724445Y-5822464D01*
X49085787Y-6461122D01*
X49085787Y-6461122D01*
G37*
G36*
X51631371Y-5329752D02*
X51275555Y-4973936D01*
X51914213Y-4335278D01*
X52270029Y-4691094D01*
X51631371Y-5329752D01*
X51631371Y-5329752D01*
G37*
G36*
X49792894Y-7168229D02*
X49437078Y-6812413D01*
X50075736Y-6173755D01*
X50431552Y-6529571D01*
X49792894Y-7168229D01*
X49792894Y-7168229D01*
G37*
G36*
X51277818Y-4976198D02*
X50922002Y-4620382D01*
X51560660Y-3981724D01*
X51916476Y-4337540D01*
X51277818Y-4976198D01*
X51277818Y-4976198D01*
G37*
G36*
X50924264Y-4622645D02*
X50568448Y-4266829D01*
X51207106Y-3628171D01*
X51562922Y-3983987D01*
X50924264Y-4622645D01*
X50924264Y-4622645D01*
G37*
G36*
X50922002Y-6176018D02*
X51277818Y-5820202D01*
X51916476Y-6458860D01*
X51560660Y-6814676D01*
X50922002Y-6176018D01*
X50922002Y-6176018D01*
G37*
G36*
X50568448Y-6529571D02*
X50924264Y-6173755D01*
X51562922Y-6812413D01*
X51207106Y-7168229D01*
X50568448Y-6529571D01*
X50568448Y-6529571D01*
G37*
G36*
X51275555Y-5822464D02*
X51631371Y-5466648D01*
X52270029Y-6105306D01*
X51914213Y-6461122D01*
X51275555Y-5822464D01*
X51275555Y-5822464D01*
G37*
G36*
X49437078Y-3983987D02*
X49792894Y-3628171D01*
X50431552Y-4266829D01*
X50075736Y-4622645D01*
X49437078Y-3983987D01*
X49437078Y-3983987D01*
G37*
D26*
X48696877Y-5009291D02*
X48838299Y-5150713D01*
X50747487Y-3736499D02*
X50888909Y-3595077D01*
X48696877Y-5787109D02*
X48838299Y-5645687D01*
X52161701Y-5645687D02*
X52303123Y-5787109D01*
X50747487Y-7059901D02*
X50888909Y-7201323D01*
X50111091Y-7201323D02*
X50252513Y-7059901D01*
X52161701Y-5150713D02*
X52303123Y-5009291D01*
D14*
X6604000Y-92862400D03*
X6604000Y-92049600D03*
D15*
X10934000Y-92583000D03*
X12434000Y-92583000D03*
X24396000Y-90043000D03*
X25896000Y-90043000D03*
X25896000Y-91313000D03*
X24396000Y-91313000D03*
D16*
X30099000Y-88658000D03*
X30099000Y-90158000D03*
D17*
X23352000Y-91628000D03*
X23352000Y-89728000D03*
X21352000Y-90678000D03*
D18*
X9973000Y-89154000D03*
X6223000Y-89154000D03*
D19*
X9967000Y-90694000D03*
X8067000Y-90694000D03*
X9017000Y-92694000D03*
D20*
X12331000Y-91313000D03*
X13831000Y-91313000D03*
D21*
X20320000Y-88785000D03*
X20320000Y-90285000D03*
X20320000Y-92825000D03*
X20320000Y-91325000D03*
X30099000Y-91071000D03*
X30099000Y-92571000D03*
D22*
X26073000Y-88900000D03*
X24473000Y-88900000D03*
X26073000Y-92456000D03*
X24473000Y-92456000D03*
D23*
X13827000Y-90043000D03*
X11827000Y-90043000D03*
D24*
X6604000Y-86741000D03*
X9144000Y-86995000D03*
X11684000Y-86741000D03*
X14224000Y-86995000D03*
X16764000Y-86741000D03*
X19304000Y-86995000D03*
X21844000Y-86741000D03*
X24384000Y-86995000D03*
X26924000Y-86741000D03*
X29464000Y-86995000D03*
X6604000Y-94361000D03*
X9144000Y-94615000D03*
X11684000Y-94361000D03*
X14224000Y-94615000D03*
X16764000Y-94361000D03*
X19304000Y-94615000D03*
X21844000Y-94361000D03*
X24384000Y-94615000D03*
X26924000Y-94361000D03*
X29464000Y-94615000D03*
D25*
X28067000Y-92378000D03*
X28067000Y-88978000D03*
D24*
X31877000Y-94488000D03*
X32131000Y-91948000D03*
X31877000Y-89408000D03*
X32131000Y-86868000D03*
X1524000Y-86868000D03*
X4064000Y-86868000D03*
X1524000Y-89408000D03*
X4064000Y-89408000D03*
X1524000Y-91948000D03*
X4064000Y-91948000D03*
X1524000Y-94488000D03*
X4064000Y-94488000D03*
D26*
X16583091Y-88939077D02*
X16724513Y-89080499D01*
D10*
G36*
X15201971Y-90035094D02*
X15557787Y-89679278D01*
X16196445Y-90317936D01*
X15840629Y-90673752D01*
X15201971Y-90035094D01*
X15201971Y-90035094D01*
G37*
G36*
X15911340Y-92158676D02*
X15555524Y-91802860D01*
X16194182Y-91164202D01*
X16549998Y-91520018D01*
X15911340Y-92158676D01*
X15911340Y-92158676D01*
G37*
G36*
X15555524Y-89681540D02*
X15911340Y-89325724D01*
X16549998Y-89964382D01*
X16194182Y-90320198D01*
X15555524Y-89681540D01*
X15555524Y-89681540D01*
G37*
G36*
X15557787Y-91805122D02*
X15201971Y-91449306D01*
X15840629Y-90810648D01*
X16196445Y-91166464D01*
X15557787Y-91805122D01*
X15557787Y-91805122D01*
G37*
G36*
X18103371Y-90673752D02*
X17747555Y-90317936D01*
X18386213Y-89679278D01*
X18742029Y-90035094D01*
X18103371Y-90673752D01*
X18103371Y-90673752D01*
G37*
G36*
X16264894Y-92512229D02*
X15909078Y-92156413D01*
X16547736Y-91517755D01*
X16903552Y-91873571D01*
X16264894Y-92512229D01*
X16264894Y-92512229D01*
G37*
G36*
X17749818Y-90320198D02*
X17394002Y-89964382D01*
X18032660Y-89325724D01*
X18388476Y-89681540D01*
X17749818Y-90320198D01*
X17749818Y-90320198D01*
G37*
G36*
X17396264Y-89966645D02*
X17040448Y-89610829D01*
X17679106Y-88972171D01*
X18034922Y-89327987D01*
X17396264Y-89966645D01*
X17396264Y-89966645D01*
G37*
G36*
X17394002Y-91520018D02*
X17749818Y-91164202D01*
X18388476Y-91802860D01*
X18032660Y-92158676D01*
X17394002Y-91520018D01*
X17394002Y-91520018D01*
G37*
G36*
X17040448Y-91873571D02*
X17396264Y-91517755D01*
X18034922Y-92156413D01*
X17679106Y-92512229D01*
X17040448Y-91873571D01*
X17040448Y-91873571D01*
G37*
G36*
X17747555Y-91166464D02*
X18103371Y-90810648D01*
X18742029Y-91449306D01*
X18386213Y-91805122D01*
X17747555Y-91166464D01*
X17747555Y-91166464D01*
G37*
G36*
X15909078Y-89327987D02*
X16264894Y-88972171D01*
X16903552Y-89610829D01*
X16547736Y-89966645D01*
X15909078Y-89327987D01*
X15909078Y-89327987D01*
G37*
D26*
X15168877Y-90353291D02*
X15310299Y-90494713D01*
X17219487Y-89080499D02*
X17360909Y-88939077D01*
X15168877Y-91131109D02*
X15310299Y-90989687D01*
X18633701Y-90989687D02*
X18775123Y-91131109D01*
X17219487Y-92403901D02*
X17360909Y-92545323D01*
X16583091Y-92545323D02*
X16724513Y-92403901D01*
X18633701Y-90494713D02*
X18775123Y-90353291D01*
D14*
X6604000Y-82194400D03*
X6604000Y-81381600D03*
D15*
X10934000Y-81915000D03*
X12434000Y-81915000D03*
X24396000Y-79375000D03*
X25896000Y-79375000D03*
X25896000Y-80645000D03*
X24396000Y-80645000D03*
D16*
X30099000Y-77990000D03*
X30099000Y-79490000D03*
D17*
X23352000Y-80960000D03*
X23352000Y-79060000D03*
X21352000Y-80010000D03*
D18*
X9973000Y-78486000D03*
X6223000Y-78486000D03*
D19*
X9967000Y-80026000D03*
X8067000Y-80026000D03*
X9017000Y-82026000D03*
D20*
X12331000Y-80645000D03*
X13831000Y-80645000D03*
D21*
X20320000Y-78117000D03*
X20320000Y-79617000D03*
X20320000Y-82157000D03*
X20320000Y-80657000D03*
X30099000Y-80403000D03*
X30099000Y-81903000D03*
D22*
X26073000Y-78232000D03*
X24473000Y-78232000D03*
X26073000Y-81788000D03*
X24473000Y-81788000D03*
D23*
X13827000Y-79375000D03*
X11827000Y-79375000D03*
D24*
X6604000Y-76073000D03*
X9144000Y-76327000D03*
X11684000Y-76073000D03*
X14224000Y-76327000D03*
X16764000Y-76073000D03*
X19304000Y-76327000D03*
X21844000Y-76073000D03*
X24384000Y-76327000D03*
X26924000Y-76073000D03*
X29464000Y-76327000D03*
X6604000Y-83693000D03*
X9144000Y-83947000D03*
X11684000Y-83693000D03*
X14224000Y-83947000D03*
X16764000Y-83693000D03*
X19304000Y-83947000D03*
X21844000Y-83693000D03*
X24384000Y-83947000D03*
X26924000Y-83693000D03*
X29464000Y-83947000D03*
D25*
X28067000Y-81710000D03*
X28067000Y-78310000D03*
D24*
X31877000Y-83820000D03*
X32131000Y-81280000D03*
X31877000Y-78740000D03*
X32131000Y-76200000D03*
X1524000Y-76200000D03*
X4064000Y-76200000D03*
X1524000Y-78740000D03*
X4064000Y-78740000D03*
X1524000Y-81280000D03*
X4064000Y-81280000D03*
X1524000Y-83820000D03*
X4064000Y-83820000D03*
D26*
X16583091Y-78271077D02*
X16724513Y-78412499D01*
D10*
G36*
X15201971Y-79367094D02*
X15557787Y-79011278D01*
X16196445Y-79649936D01*
X15840629Y-80005752D01*
X15201971Y-79367094D01*
X15201971Y-79367094D01*
G37*
G36*
X15911340Y-81490676D02*
X15555524Y-81134860D01*
X16194182Y-80496202D01*
X16549998Y-80852018D01*
X15911340Y-81490676D01*
X15911340Y-81490676D01*
G37*
G36*
X15555524Y-79013540D02*
X15911340Y-78657724D01*
X16549998Y-79296382D01*
X16194182Y-79652198D01*
X15555524Y-79013540D01*
X15555524Y-79013540D01*
G37*
G36*
X15557787Y-81137122D02*
X15201971Y-80781306D01*
X15840629Y-80142648D01*
X16196445Y-80498464D01*
X15557787Y-81137122D01*
X15557787Y-81137122D01*
G37*
G36*
X18103371Y-80005752D02*
X17747555Y-79649936D01*
X18386213Y-79011278D01*
X18742029Y-79367094D01*
X18103371Y-80005752D01*
X18103371Y-80005752D01*
G37*
G36*
X16264894Y-81844229D02*
X15909078Y-81488413D01*
X16547736Y-80849755D01*
X16903552Y-81205571D01*
X16264894Y-81844229D01*
X16264894Y-81844229D01*
G37*
G36*
X17749818Y-79652198D02*
X17394002Y-79296382D01*
X18032660Y-78657724D01*
X18388476Y-79013540D01*
X17749818Y-79652198D01*
X17749818Y-79652198D01*
G37*
G36*
X17396264Y-79298645D02*
X17040448Y-78942829D01*
X17679106Y-78304171D01*
X18034922Y-78659987D01*
X17396264Y-79298645D01*
X17396264Y-79298645D01*
G37*
G36*
X17394002Y-80852018D02*
X17749818Y-80496202D01*
X18388476Y-81134860D01*
X18032660Y-81490676D01*
X17394002Y-80852018D01*
X17394002Y-80852018D01*
G37*
G36*
X17040448Y-81205571D02*
X17396264Y-80849755D01*
X18034922Y-81488413D01*
X17679106Y-81844229D01*
X17040448Y-81205571D01*
X17040448Y-81205571D01*
G37*
G36*
X17747555Y-80498464D02*
X18103371Y-80142648D01*
X18742029Y-80781306D01*
X18386213Y-81137122D01*
X17747555Y-80498464D01*
X17747555Y-80498464D01*
G37*
G36*
X15909078Y-78659987D02*
X16264894Y-78304171D01*
X16903552Y-78942829D01*
X16547736Y-79298645D01*
X15909078Y-78659987D01*
X15909078Y-78659987D01*
G37*
D26*
X15168877Y-79685291D02*
X15310299Y-79826713D01*
X17219487Y-78412499D02*
X17360909Y-78271077D01*
X15168877Y-80463109D02*
X15310299Y-80321687D01*
X18633701Y-80321687D02*
X18775123Y-80463109D01*
X17219487Y-81735901D02*
X17360909Y-81877323D01*
X16583091Y-81877323D02*
X16724513Y-81735901D01*
X18633701Y-79826713D02*
X18775123Y-79685291D01*
D14*
X6604000Y-71526400D03*
X6604000Y-70713600D03*
D15*
X10934000Y-71247000D03*
X12434000Y-71247000D03*
X24396000Y-68707000D03*
X25896000Y-68707000D03*
X25896000Y-69977000D03*
X24396000Y-69977000D03*
D16*
X30099000Y-67322000D03*
X30099000Y-68822000D03*
D17*
X23352000Y-70292000D03*
X23352000Y-68392000D03*
X21352000Y-69342000D03*
D18*
X9973000Y-67818000D03*
X6223000Y-67818000D03*
D19*
X9967000Y-69358000D03*
X8067000Y-69358000D03*
X9017000Y-71358000D03*
D20*
X12331000Y-69977000D03*
X13831000Y-69977000D03*
D21*
X20320000Y-67449000D03*
X20320000Y-68949000D03*
X20320000Y-71489000D03*
X20320000Y-69989000D03*
X30099000Y-69735000D03*
X30099000Y-71235000D03*
D22*
X26073000Y-67564000D03*
X24473000Y-67564000D03*
X26073000Y-71120000D03*
X24473000Y-71120000D03*
D23*
X13827000Y-68707000D03*
X11827000Y-68707000D03*
D24*
X6604000Y-65405000D03*
X9144000Y-65659000D03*
X11684000Y-65405000D03*
X14224000Y-65659000D03*
X16764000Y-65405000D03*
X19304000Y-65659000D03*
X21844000Y-65405000D03*
X24384000Y-65659000D03*
X26924000Y-65405000D03*
X29464000Y-65659000D03*
X6604000Y-73025000D03*
X9144000Y-73279000D03*
X11684000Y-73025000D03*
X14224000Y-73279000D03*
X16764000Y-73025000D03*
X19304000Y-73279000D03*
X21844000Y-73025000D03*
X24384000Y-73279000D03*
X26924000Y-73025000D03*
X29464000Y-73279000D03*
D25*
X28067000Y-71042000D03*
X28067000Y-67642000D03*
D24*
X31877000Y-73152000D03*
X32131000Y-70612000D03*
X31877000Y-68072000D03*
X32131000Y-65532000D03*
X1524000Y-65532000D03*
X4064000Y-65532000D03*
X1524000Y-68072000D03*
X4064000Y-68072000D03*
X1524000Y-70612000D03*
X4064000Y-70612000D03*
X1524000Y-73152000D03*
X4064000Y-73152000D03*
D26*
X16583091Y-67603077D02*
X16724513Y-67744499D01*
D10*
G36*
X15201971Y-68699094D02*
X15557787Y-68343278D01*
X16196445Y-68981936D01*
X15840629Y-69337752D01*
X15201971Y-68699094D01*
X15201971Y-68699094D01*
G37*
G36*
X15911340Y-70822676D02*
X15555524Y-70466860D01*
X16194182Y-69828202D01*
X16549998Y-70184018D01*
X15911340Y-70822676D01*
X15911340Y-70822676D01*
G37*
G36*
X15555524Y-68345540D02*
X15911340Y-67989724D01*
X16549998Y-68628382D01*
X16194182Y-68984198D01*
X15555524Y-68345540D01*
X15555524Y-68345540D01*
G37*
G36*
X15557787Y-70469122D02*
X15201971Y-70113306D01*
X15840629Y-69474648D01*
X16196445Y-69830464D01*
X15557787Y-70469122D01*
X15557787Y-70469122D01*
G37*
G36*
X18103371Y-69337752D02*
X17747555Y-68981936D01*
X18386213Y-68343278D01*
X18742029Y-68699094D01*
X18103371Y-69337752D01*
X18103371Y-69337752D01*
G37*
G36*
X16264894Y-71176229D02*
X15909078Y-70820413D01*
X16547736Y-70181755D01*
X16903552Y-70537571D01*
X16264894Y-71176229D01*
X16264894Y-71176229D01*
G37*
G36*
X17749818Y-68984198D02*
X17394002Y-68628382D01*
X18032660Y-67989724D01*
X18388476Y-68345540D01*
X17749818Y-68984198D01*
X17749818Y-68984198D01*
G37*
G36*
X17396264Y-68630645D02*
X17040448Y-68274829D01*
X17679106Y-67636171D01*
X18034922Y-67991987D01*
X17396264Y-68630645D01*
X17396264Y-68630645D01*
G37*
G36*
X17394002Y-70184018D02*
X17749818Y-69828202D01*
X18388476Y-70466860D01*
X18032660Y-70822676D01*
X17394002Y-70184018D01*
X17394002Y-70184018D01*
G37*
G36*
X17040448Y-70537571D02*
X17396264Y-70181755D01*
X18034922Y-70820413D01*
X17679106Y-71176229D01*
X17040448Y-70537571D01*
X17040448Y-70537571D01*
G37*
G36*
X17747555Y-69830464D02*
X18103371Y-69474648D01*
X18742029Y-70113306D01*
X18386213Y-70469122D01*
X17747555Y-69830464D01*
X17747555Y-69830464D01*
G37*
G36*
X15909078Y-67991987D02*
X16264894Y-67636171D01*
X16903552Y-68274829D01*
X16547736Y-68630645D01*
X15909078Y-67991987D01*
X15909078Y-67991987D01*
G37*
D26*
X15168877Y-69017291D02*
X15310299Y-69158713D01*
X17219487Y-67744499D02*
X17360909Y-67603077D01*
X15168877Y-69795109D02*
X15310299Y-69653687D01*
X18633701Y-69653687D02*
X18775123Y-69795109D01*
X17219487Y-71067901D02*
X17360909Y-71209323D01*
X16583091Y-71209323D02*
X16724513Y-71067901D01*
X18633701Y-69158713D02*
X18775123Y-69017291D01*
D14*
X6604000Y-60858400D03*
X6604000Y-60045600D03*
D15*
X10934000Y-60579000D03*
X12434000Y-60579000D03*
X24396000Y-58039000D03*
X25896000Y-58039000D03*
X25896000Y-59309000D03*
X24396000Y-59309000D03*
D16*
X30099000Y-56654000D03*
X30099000Y-58154000D03*
D17*
X23352000Y-59624000D03*
X23352000Y-57724000D03*
X21352000Y-58674000D03*
D18*
X9973000Y-57150000D03*
X6223000Y-57150000D03*
D19*
X9967000Y-58690000D03*
X8067000Y-58690000D03*
X9017000Y-60690000D03*
D20*
X12331000Y-59309000D03*
X13831000Y-59309000D03*
D21*
X20320000Y-56781000D03*
X20320000Y-58281000D03*
X20320000Y-60821000D03*
X20320000Y-59321000D03*
X30099000Y-59067000D03*
X30099000Y-60567000D03*
D22*
X26073000Y-56896000D03*
X24473000Y-56896000D03*
X26073000Y-60452000D03*
X24473000Y-60452000D03*
D23*
X13827000Y-58039000D03*
X11827000Y-58039000D03*
D24*
X6604000Y-54737000D03*
X9144000Y-54991000D03*
X11684000Y-54737000D03*
X14224000Y-54991000D03*
X16764000Y-54737000D03*
X19304000Y-54991000D03*
X21844000Y-54737000D03*
X24384000Y-54991000D03*
X26924000Y-54737000D03*
X29464000Y-54991000D03*
X6604000Y-62357000D03*
X9144000Y-62611000D03*
X11684000Y-62357000D03*
X14224000Y-62611000D03*
X16764000Y-62357000D03*
X19304000Y-62611000D03*
X21844000Y-62357000D03*
X24384000Y-62611000D03*
X26924000Y-62357000D03*
X29464000Y-62611000D03*
D25*
X28067000Y-60374000D03*
X28067000Y-56974000D03*
D24*
X31877000Y-62484000D03*
X32131000Y-59944000D03*
X31877000Y-57404000D03*
X32131000Y-54864000D03*
X1524000Y-54864000D03*
X4064000Y-54864000D03*
X1524000Y-57404000D03*
X4064000Y-57404000D03*
X1524000Y-59944000D03*
X4064000Y-59944000D03*
X1524000Y-62484000D03*
X4064000Y-62484000D03*
D26*
X16583091Y-56935077D02*
X16724513Y-57076499D01*
D10*
G36*
X15201971Y-58031094D02*
X15557787Y-57675278D01*
X16196445Y-58313936D01*
X15840629Y-58669752D01*
X15201971Y-58031094D01*
X15201971Y-58031094D01*
G37*
G36*
X15911340Y-60154676D02*
X15555524Y-59798860D01*
X16194182Y-59160202D01*
X16549998Y-59516018D01*
X15911340Y-60154676D01*
X15911340Y-60154676D01*
G37*
G36*
X15555524Y-57677540D02*
X15911340Y-57321724D01*
X16549998Y-57960382D01*
X16194182Y-58316198D01*
X15555524Y-57677540D01*
X15555524Y-57677540D01*
G37*
G36*
X15557787Y-59801122D02*
X15201971Y-59445306D01*
X15840629Y-58806648D01*
X16196445Y-59162464D01*
X15557787Y-59801122D01*
X15557787Y-59801122D01*
G37*
G36*
X18103371Y-58669752D02*
X17747555Y-58313936D01*
X18386213Y-57675278D01*
X18742029Y-58031094D01*
X18103371Y-58669752D01*
X18103371Y-58669752D01*
G37*
G36*
X16264894Y-60508229D02*
X15909078Y-60152413D01*
X16547736Y-59513755D01*
X16903552Y-59869571D01*
X16264894Y-60508229D01*
X16264894Y-60508229D01*
G37*
G36*
X17749818Y-58316198D02*
X17394002Y-57960382D01*
X18032660Y-57321724D01*
X18388476Y-57677540D01*
X17749818Y-58316198D01*
X17749818Y-58316198D01*
G37*
G36*
X17396264Y-57962645D02*
X17040448Y-57606829D01*
X17679106Y-56968171D01*
X18034922Y-57323987D01*
X17396264Y-57962645D01*
X17396264Y-57962645D01*
G37*
G36*
X17394002Y-59516018D02*
X17749818Y-59160202D01*
X18388476Y-59798860D01*
X18032660Y-60154676D01*
X17394002Y-59516018D01*
X17394002Y-59516018D01*
G37*
G36*
X17040448Y-59869571D02*
X17396264Y-59513755D01*
X18034922Y-60152413D01*
X17679106Y-60508229D01*
X17040448Y-59869571D01*
X17040448Y-59869571D01*
G37*
G36*
X17747555Y-59162464D02*
X18103371Y-58806648D01*
X18742029Y-59445306D01*
X18386213Y-59801122D01*
X17747555Y-59162464D01*
X17747555Y-59162464D01*
G37*
G36*
X15909078Y-57323987D02*
X16264894Y-56968171D01*
X16903552Y-57606829D01*
X16547736Y-57962645D01*
X15909078Y-57323987D01*
X15909078Y-57323987D01*
G37*
D26*
X15168877Y-58349291D02*
X15310299Y-58490713D01*
X17219487Y-57076499D02*
X17360909Y-56935077D01*
X15168877Y-59127109D02*
X15310299Y-58985687D01*
X18633701Y-58985687D02*
X18775123Y-59127109D01*
X17219487Y-60399901D02*
X17360909Y-60541323D01*
X16583091Y-60541323D02*
X16724513Y-60399901D01*
X18633701Y-58490713D02*
X18775123Y-58349291D01*
D14*
X6604000Y-50190400D03*
X6604000Y-49377600D03*
D15*
X10934000Y-49911000D03*
X12434000Y-49911000D03*
X24396000Y-47371000D03*
X25896000Y-47371000D03*
X25896000Y-48641000D03*
X24396000Y-48641000D03*
D16*
X30099000Y-45986000D03*
X30099000Y-47486000D03*
D17*
X23352000Y-48956000D03*
X23352000Y-47056000D03*
X21352000Y-48006000D03*
D18*
X9973000Y-46482000D03*
X6223000Y-46482000D03*
D19*
X9967000Y-48022000D03*
X8067000Y-48022000D03*
X9017000Y-50022000D03*
D20*
X12331000Y-48641000D03*
X13831000Y-48641000D03*
D21*
X20320000Y-46113000D03*
X20320000Y-47613000D03*
X20320000Y-50153000D03*
X20320000Y-48653000D03*
X30099000Y-48399000D03*
X30099000Y-49899000D03*
D22*
X26073000Y-46228000D03*
X24473000Y-46228000D03*
X26073000Y-49784000D03*
X24473000Y-49784000D03*
D23*
X13827000Y-47371000D03*
X11827000Y-47371000D03*
D24*
X6604000Y-44069000D03*
X9144000Y-44323000D03*
X11684000Y-44069000D03*
X14224000Y-44323000D03*
X16764000Y-44069000D03*
X19304000Y-44323000D03*
X21844000Y-44069000D03*
X24384000Y-44323000D03*
X26924000Y-44069000D03*
X29464000Y-44323000D03*
X6604000Y-51689000D03*
X9144000Y-51943000D03*
X11684000Y-51689000D03*
X14224000Y-51943000D03*
X16764000Y-51689000D03*
X19304000Y-51943000D03*
X21844000Y-51689000D03*
X24384000Y-51943000D03*
X26924000Y-51689000D03*
X29464000Y-51943000D03*
D25*
X28067000Y-49706000D03*
X28067000Y-46306000D03*
D24*
X31877000Y-51816000D03*
X32131000Y-49276000D03*
X31877000Y-46736000D03*
X32131000Y-44196000D03*
X1524000Y-44196000D03*
X4064000Y-44196000D03*
X1524000Y-46736000D03*
X4064000Y-46736000D03*
X1524000Y-49276000D03*
X4064000Y-49276000D03*
X1524000Y-51816000D03*
X4064000Y-51816000D03*
D26*
X16583091Y-46267077D02*
X16724513Y-46408499D01*
D10*
G36*
X15201971Y-47363094D02*
X15557787Y-47007278D01*
X16196445Y-47645936D01*
X15840629Y-48001752D01*
X15201971Y-47363094D01*
X15201971Y-47363094D01*
G37*
G36*
X15911340Y-49486676D02*
X15555524Y-49130860D01*
X16194182Y-48492202D01*
X16549998Y-48848018D01*
X15911340Y-49486676D01*
X15911340Y-49486676D01*
G37*
G36*
X15555524Y-47009540D02*
X15911340Y-46653724D01*
X16549998Y-47292382D01*
X16194182Y-47648198D01*
X15555524Y-47009540D01*
X15555524Y-47009540D01*
G37*
G36*
X15557787Y-49133122D02*
X15201971Y-48777306D01*
X15840629Y-48138648D01*
X16196445Y-48494464D01*
X15557787Y-49133122D01*
X15557787Y-49133122D01*
G37*
G36*
X18103371Y-48001752D02*
X17747555Y-47645936D01*
X18386213Y-47007278D01*
X18742029Y-47363094D01*
X18103371Y-48001752D01*
X18103371Y-48001752D01*
G37*
G36*
X16264894Y-49840229D02*
X15909078Y-49484413D01*
X16547736Y-48845755D01*
X16903552Y-49201571D01*
X16264894Y-49840229D01*
X16264894Y-49840229D01*
G37*
G36*
X17749818Y-47648198D02*
X17394002Y-47292382D01*
X18032660Y-46653724D01*
X18388476Y-47009540D01*
X17749818Y-47648198D01*
X17749818Y-47648198D01*
G37*
G36*
X17396264Y-47294645D02*
X17040448Y-46938829D01*
X17679106Y-46300171D01*
X18034922Y-46655987D01*
X17396264Y-47294645D01*
X17396264Y-47294645D01*
G37*
G36*
X17394002Y-48848018D02*
X17749818Y-48492202D01*
X18388476Y-49130860D01*
X18032660Y-49486676D01*
X17394002Y-48848018D01*
X17394002Y-48848018D01*
G37*
G36*
X17040448Y-49201571D02*
X17396264Y-48845755D01*
X18034922Y-49484413D01*
X17679106Y-49840229D01*
X17040448Y-49201571D01*
X17040448Y-49201571D01*
G37*
G36*
X17747555Y-48494464D02*
X18103371Y-48138648D01*
X18742029Y-48777306D01*
X18386213Y-49133122D01*
X17747555Y-48494464D01*
X17747555Y-48494464D01*
G37*
G36*
X15909078Y-46655987D02*
X16264894Y-46300171D01*
X16903552Y-46938829D01*
X16547736Y-47294645D01*
X15909078Y-46655987D01*
X15909078Y-46655987D01*
G37*
D26*
X15168877Y-47681291D02*
X15310299Y-47822713D01*
X17219487Y-46408499D02*
X17360909Y-46267077D01*
X15168877Y-48459109D02*
X15310299Y-48317687D01*
X18633701Y-48317687D02*
X18775123Y-48459109D01*
X17219487Y-49731901D02*
X17360909Y-49873323D01*
X16583091Y-49873323D02*
X16724513Y-49731901D01*
X18633701Y-47822713D02*
X18775123Y-47681291D01*
D14*
X6604000Y-39522400D03*
X6604000Y-38709600D03*
D15*
X10934000Y-39243000D03*
X12434000Y-39243000D03*
X24396000Y-36703000D03*
X25896000Y-36703000D03*
X25896000Y-37973000D03*
X24396000Y-37973000D03*
D16*
X30099000Y-35318000D03*
X30099000Y-36818000D03*
D17*
X23352000Y-38288000D03*
X23352000Y-36388000D03*
X21352000Y-37338000D03*
D18*
X9973000Y-35814000D03*
X6223000Y-35814000D03*
D19*
X9967000Y-37354000D03*
X8067000Y-37354000D03*
X9017000Y-39354000D03*
D20*
X12331000Y-37973000D03*
X13831000Y-37973000D03*
D21*
X20320000Y-35445000D03*
X20320000Y-36945000D03*
X20320000Y-39485000D03*
X20320000Y-37985000D03*
X30099000Y-37731000D03*
X30099000Y-39231000D03*
D22*
X26073000Y-35560000D03*
X24473000Y-35560000D03*
X26073000Y-39116000D03*
X24473000Y-39116000D03*
D23*
X13827000Y-36703000D03*
X11827000Y-36703000D03*
D24*
X6604000Y-33401000D03*
X9144000Y-33655000D03*
X11684000Y-33401000D03*
X14224000Y-33655000D03*
X16764000Y-33401000D03*
X19304000Y-33655000D03*
X21844000Y-33401000D03*
X24384000Y-33655000D03*
X26924000Y-33401000D03*
X29464000Y-33655000D03*
X6604000Y-41021000D03*
X9144000Y-41275000D03*
X11684000Y-41021000D03*
X14224000Y-41275000D03*
X16764000Y-41021000D03*
X19304000Y-41275000D03*
X21844000Y-41021000D03*
X24384000Y-41275000D03*
X26924000Y-41021000D03*
X29464000Y-41275000D03*
D25*
X28067000Y-39038000D03*
X28067000Y-35638000D03*
D24*
X31877000Y-41148000D03*
X32131000Y-38608000D03*
X31877000Y-36068000D03*
X32131000Y-33528000D03*
X1524000Y-33528000D03*
X4064000Y-33528000D03*
X1524000Y-36068000D03*
X4064000Y-36068000D03*
X1524000Y-38608000D03*
X4064000Y-38608000D03*
X1524000Y-41148000D03*
X4064000Y-41148000D03*
D26*
X16583091Y-35599077D02*
X16724513Y-35740499D01*
D10*
G36*
X15201971Y-36695094D02*
X15557787Y-36339278D01*
X16196445Y-36977936D01*
X15840629Y-37333752D01*
X15201971Y-36695094D01*
X15201971Y-36695094D01*
G37*
G36*
X15911340Y-38818676D02*
X15555524Y-38462860D01*
X16194182Y-37824202D01*
X16549998Y-38180018D01*
X15911340Y-38818676D01*
X15911340Y-38818676D01*
G37*
G36*
X15555524Y-36341540D02*
X15911340Y-35985724D01*
X16549998Y-36624382D01*
X16194182Y-36980198D01*
X15555524Y-36341540D01*
X15555524Y-36341540D01*
G37*
G36*
X15557787Y-38465122D02*
X15201971Y-38109306D01*
X15840629Y-37470648D01*
X16196445Y-37826464D01*
X15557787Y-38465122D01*
X15557787Y-38465122D01*
G37*
G36*
X18103371Y-37333752D02*
X17747555Y-36977936D01*
X18386213Y-36339278D01*
X18742029Y-36695094D01*
X18103371Y-37333752D01*
X18103371Y-37333752D01*
G37*
G36*
X16264894Y-39172229D02*
X15909078Y-38816413D01*
X16547736Y-38177755D01*
X16903552Y-38533571D01*
X16264894Y-39172229D01*
X16264894Y-39172229D01*
G37*
G36*
X17749818Y-36980198D02*
X17394002Y-36624382D01*
X18032660Y-35985724D01*
X18388476Y-36341540D01*
X17749818Y-36980198D01*
X17749818Y-36980198D01*
G37*
G36*
X17396264Y-36626645D02*
X17040448Y-36270829D01*
X17679106Y-35632171D01*
X18034922Y-35987987D01*
X17396264Y-36626645D01*
X17396264Y-36626645D01*
G37*
G36*
X17394002Y-38180018D02*
X17749818Y-37824202D01*
X18388476Y-38462860D01*
X18032660Y-38818676D01*
X17394002Y-38180018D01*
X17394002Y-38180018D01*
G37*
G36*
X17040448Y-38533571D02*
X17396264Y-38177755D01*
X18034922Y-38816413D01*
X17679106Y-39172229D01*
X17040448Y-38533571D01*
X17040448Y-38533571D01*
G37*
G36*
X17747555Y-37826464D02*
X18103371Y-37470648D01*
X18742029Y-38109306D01*
X18386213Y-38465122D01*
X17747555Y-37826464D01*
X17747555Y-37826464D01*
G37*
G36*
X15909078Y-35987987D02*
X16264894Y-35632171D01*
X16903552Y-36270829D01*
X16547736Y-36626645D01*
X15909078Y-35987987D01*
X15909078Y-35987987D01*
G37*
D26*
X15168877Y-37013291D02*
X15310299Y-37154713D01*
X17219487Y-35740499D02*
X17360909Y-35599077D01*
X15168877Y-37791109D02*
X15310299Y-37649687D01*
X18633701Y-37649687D02*
X18775123Y-37791109D01*
X17219487Y-39063901D02*
X17360909Y-39205323D01*
X16583091Y-39205323D02*
X16724513Y-39063901D01*
X18633701Y-37154713D02*
X18775123Y-37013291D01*
D14*
X6604000Y-28854400D03*
X6604000Y-28041600D03*
D15*
X10934000Y-28575000D03*
X12434000Y-28575000D03*
X24396000Y-26035000D03*
X25896000Y-26035000D03*
X25896000Y-27305000D03*
X24396000Y-27305000D03*
D16*
X30099000Y-24650000D03*
X30099000Y-26150000D03*
D17*
X23352000Y-27620000D03*
X23352000Y-25720000D03*
X21352000Y-26670000D03*
D18*
X9973000Y-25146000D03*
X6223000Y-25146000D03*
D19*
X9967000Y-26686000D03*
X8067000Y-26686000D03*
X9017000Y-28686000D03*
D20*
X12331000Y-27305000D03*
X13831000Y-27305000D03*
D21*
X20320000Y-24777000D03*
X20320000Y-26277000D03*
X20320000Y-28817000D03*
X20320000Y-27317000D03*
X30099000Y-27063000D03*
X30099000Y-28563000D03*
D22*
X26073000Y-24892000D03*
X24473000Y-24892000D03*
X26073000Y-28448000D03*
X24473000Y-28448000D03*
D23*
X13827000Y-26035000D03*
X11827000Y-26035000D03*
D24*
X6604000Y-22733000D03*
X9144000Y-22987000D03*
X11684000Y-22733000D03*
X14224000Y-22987000D03*
X16764000Y-22733000D03*
X19304000Y-22987000D03*
X21844000Y-22733000D03*
X24384000Y-22987000D03*
X26924000Y-22733000D03*
X29464000Y-22987000D03*
X6604000Y-30353000D03*
X9144000Y-30607000D03*
X11684000Y-30353000D03*
X14224000Y-30607000D03*
X16764000Y-30353000D03*
X19304000Y-30607000D03*
X21844000Y-30353000D03*
X24384000Y-30607000D03*
X26924000Y-30353000D03*
X29464000Y-30607000D03*
D25*
X28067000Y-28370000D03*
X28067000Y-24970000D03*
D24*
X31877000Y-30480000D03*
X32131000Y-27940000D03*
X31877000Y-25400000D03*
X32131000Y-22860000D03*
X1524000Y-22860000D03*
X4064000Y-22860000D03*
X1524000Y-25400000D03*
X4064000Y-25400000D03*
X1524000Y-27940000D03*
X4064000Y-27940000D03*
X1524000Y-30480000D03*
X4064000Y-30480000D03*
D26*
X16583091Y-24931077D02*
X16724513Y-25072499D01*
D10*
G36*
X15201971Y-26027094D02*
X15557787Y-25671278D01*
X16196445Y-26309936D01*
X15840629Y-26665752D01*
X15201971Y-26027094D01*
X15201971Y-26027094D01*
G37*
G36*
X15911340Y-28150676D02*
X15555524Y-27794860D01*
X16194182Y-27156202D01*
X16549998Y-27512018D01*
X15911340Y-28150676D01*
X15911340Y-28150676D01*
G37*
G36*
X15555524Y-25673540D02*
X15911340Y-25317724D01*
X16549998Y-25956382D01*
X16194182Y-26312198D01*
X15555524Y-25673540D01*
X15555524Y-25673540D01*
G37*
G36*
X15557787Y-27797122D02*
X15201971Y-27441306D01*
X15840629Y-26802648D01*
X16196445Y-27158464D01*
X15557787Y-27797122D01*
X15557787Y-27797122D01*
G37*
G36*
X18103371Y-26665752D02*
X17747555Y-26309936D01*
X18386213Y-25671278D01*
X18742029Y-26027094D01*
X18103371Y-26665752D01*
X18103371Y-26665752D01*
G37*
G36*
X16264894Y-28504229D02*
X15909078Y-28148413D01*
X16547736Y-27509755D01*
X16903552Y-27865571D01*
X16264894Y-28504229D01*
X16264894Y-28504229D01*
G37*
G36*
X17749818Y-26312198D02*
X17394002Y-25956382D01*
X18032660Y-25317724D01*
X18388476Y-25673540D01*
X17749818Y-26312198D01*
X17749818Y-26312198D01*
G37*
G36*
X17396264Y-25958645D02*
X17040448Y-25602829D01*
X17679106Y-24964171D01*
X18034922Y-25319987D01*
X17396264Y-25958645D01*
X17396264Y-25958645D01*
G37*
G36*
X17394002Y-27512018D02*
X17749818Y-27156202D01*
X18388476Y-27794860D01*
X18032660Y-28150676D01*
X17394002Y-27512018D01*
X17394002Y-27512018D01*
G37*
G36*
X17040448Y-27865571D02*
X17396264Y-27509755D01*
X18034922Y-28148413D01*
X17679106Y-28504229D01*
X17040448Y-27865571D01*
X17040448Y-27865571D01*
G37*
G36*
X17747555Y-27158464D02*
X18103371Y-26802648D01*
X18742029Y-27441306D01*
X18386213Y-27797122D01*
X17747555Y-27158464D01*
X17747555Y-27158464D01*
G37*
G36*
X15909078Y-25319987D02*
X16264894Y-24964171D01*
X16903552Y-25602829D01*
X16547736Y-25958645D01*
X15909078Y-25319987D01*
X15909078Y-25319987D01*
G37*
D26*
X15168877Y-26345291D02*
X15310299Y-26486713D01*
X17219487Y-25072499D02*
X17360909Y-24931077D01*
X15168877Y-27123109D02*
X15310299Y-26981687D01*
X18633701Y-26981687D02*
X18775123Y-27123109D01*
X17219487Y-28395901D02*
X17360909Y-28537323D01*
X16583091Y-28537323D02*
X16724513Y-28395901D01*
X18633701Y-26486713D02*
X18775123Y-26345291D01*
D14*
X6604000Y-18186400D03*
X6604000Y-17373600D03*
D15*
X10934000Y-17907000D03*
X12434000Y-17907000D03*
X24396000Y-15367000D03*
X25896000Y-15367000D03*
X25896000Y-16637000D03*
X24396000Y-16637000D03*
D16*
X30099000Y-13982000D03*
X30099000Y-15482000D03*
D17*
X23352000Y-16952000D03*
X23352000Y-15052000D03*
X21352000Y-16002000D03*
D18*
X9973000Y-14478000D03*
X6223000Y-14478000D03*
D19*
X9967000Y-16018000D03*
X8067000Y-16018000D03*
X9017000Y-18018000D03*
D20*
X12331000Y-16637000D03*
X13831000Y-16637000D03*
D21*
X20320000Y-14109000D03*
X20320000Y-15609000D03*
X20320000Y-18149000D03*
X20320000Y-16649000D03*
X30099000Y-16395000D03*
X30099000Y-17895000D03*
D22*
X26073000Y-14224000D03*
X24473000Y-14224000D03*
X26073000Y-17780000D03*
X24473000Y-17780000D03*
D23*
X13827000Y-15367000D03*
X11827000Y-15367000D03*
D24*
X6604000Y-12065000D03*
X9144000Y-12319000D03*
X11684000Y-12065000D03*
X14224000Y-12319000D03*
X16764000Y-12065000D03*
X19304000Y-12319000D03*
X21844000Y-12065000D03*
X24384000Y-12319000D03*
X26924000Y-12065000D03*
X29464000Y-12319000D03*
X6604000Y-19685000D03*
X9144000Y-19939000D03*
X11684000Y-19685000D03*
X14224000Y-19939000D03*
X16764000Y-19685000D03*
X19304000Y-19939000D03*
X21844000Y-19685000D03*
X24384000Y-19939000D03*
X26924000Y-19685000D03*
X29464000Y-19939000D03*
D25*
X28067000Y-17702000D03*
X28067000Y-14302000D03*
D24*
X31877000Y-19812000D03*
X32131000Y-17272000D03*
X31877000Y-14732000D03*
X32131000Y-12192000D03*
X1524000Y-12192000D03*
X4064000Y-12192000D03*
X1524000Y-14732000D03*
X4064000Y-14732000D03*
X1524000Y-17272000D03*
X4064000Y-17272000D03*
X1524000Y-19812000D03*
X4064000Y-19812000D03*
D26*
X16583091Y-14263077D02*
X16724513Y-14404499D01*
D10*
G36*
X15201971Y-15359094D02*
X15557787Y-15003278D01*
X16196445Y-15641936D01*
X15840629Y-15997752D01*
X15201971Y-15359094D01*
X15201971Y-15359094D01*
G37*
G36*
X15911340Y-17482676D02*
X15555524Y-17126860D01*
X16194182Y-16488202D01*
X16549998Y-16844018D01*
X15911340Y-17482676D01*
X15911340Y-17482676D01*
G37*
G36*
X15555524Y-15005540D02*
X15911340Y-14649724D01*
X16549998Y-15288382D01*
X16194182Y-15644198D01*
X15555524Y-15005540D01*
X15555524Y-15005540D01*
G37*
G36*
X15557787Y-17129122D02*
X15201971Y-16773306D01*
X15840629Y-16134648D01*
X16196445Y-16490464D01*
X15557787Y-17129122D01*
X15557787Y-17129122D01*
G37*
G36*
X18103371Y-15997752D02*
X17747555Y-15641936D01*
X18386213Y-15003278D01*
X18742029Y-15359094D01*
X18103371Y-15997752D01*
X18103371Y-15997752D01*
G37*
G36*
X16264894Y-17836229D02*
X15909078Y-17480413D01*
X16547736Y-16841755D01*
X16903552Y-17197571D01*
X16264894Y-17836229D01*
X16264894Y-17836229D01*
G37*
G36*
X17749818Y-15644198D02*
X17394002Y-15288382D01*
X18032660Y-14649724D01*
X18388476Y-15005540D01*
X17749818Y-15644198D01*
X17749818Y-15644198D01*
G37*
G36*
X17396264Y-15290645D02*
X17040448Y-14934829D01*
X17679106Y-14296171D01*
X18034922Y-14651987D01*
X17396264Y-15290645D01*
X17396264Y-15290645D01*
G37*
G36*
X17394002Y-16844018D02*
X17749818Y-16488202D01*
X18388476Y-17126860D01*
X18032660Y-17482676D01*
X17394002Y-16844018D01*
X17394002Y-16844018D01*
G37*
G36*
X17040448Y-17197571D02*
X17396264Y-16841755D01*
X18034922Y-17480413D01*
X17679106Y-17836229D01*
X17040448Y-17197571D01*
X17040448Y-17197571D01*
G37*
G36*
X17747555Y-16490464D02*
X18103371Y-16134648D01*
X18742029Y-16773306D01*
X18386213Y-17129122D01*
X17747555Y-16490464D01*
X17747555Y-16490464D01*
G37*
G36*
X15909078Y-14651987D02*
X16264894Y-14296171D01*
X16903552Y-14934829D01*
X16547736Y-15290645D01*
X15909078Y-14651987D01*
X15909078Y-14651987D01*
G37*
D26*
X15168877Y-15677291D02*
X15310299Y-15818713D01*
X17219487Y-14404499D02*
X17360909Y-14263077D01*
X15168877Y-16455109D02*
X15310299Y-16313687D01*
X18633701Y-16313687D02*
X18775123Y-16455109D01*
X17219487Y-17727901D02*
X17360909Y-17869323D01*
X16583091Y-17869323D02*
X16724513Y-17727901D01*
X18633701Y-15818713D02*
X18775123Y-15677291D01*
X16583091Y-3595077D02*
X16724513Y-3736499D01*
D10*
G36*
X15201971Y-4691094D02*
X15557787Y-4335278D01*
X16196445Y-4973936D01*
X15840629Y-5329752D01*
X15201971Y-4691094D01*
X15201971Y-4691094D01*
G37*
G36*
X15911340Y-6814676D02*
X15555524Y-6458860D01*
X16194182Y-5820202D01*
X16549998Y-6176018D01*
X15911340Y-6814676D01*
X15911340Y-6814676D01*
G37*
G36*
X15555524Y-4337540D02*
X15911340Y-3981724D01*
X16549998Y-4620382D01*
X16194182Y-4976198D01*
X15555524Y-4337540D01*
X15555524Y-4337540D01*
G37*
G36*
X15557787Y-6461122D02*
X15201971Y-6105306D01*
X15840629Y-5466648D01*
X16196445Y-5822464D01*
X15557787Y-6461122D01*
X15557787Y-6461122D01*
G37*
G36*
X18103371Y-5329752D02*
X17747555Y-4973936D01*
X18386213Y-4335278D01*
X18742029Y-4691094D01*
X18103371Y-5329752D01*
X18103371Y-5329752D01*
G37*
G36*
X16264894Y-7168229D02*
X15909078Y-6812413D01*
X16547736Y-6173755D01*
X16903552Y-6529571D01*
X16264894Y-7168229D01*
X16264894Y-7168229D01*
G37*
G36*
X17749818Y-4976198D02*
X17394002Y-4620382D01*
X18032660Y-3981724D01*
X18388476Y-4337540D01*
X17749818Y-4976198D01*
X17749818Y-4976198D01*
G37*
G36*
X17396264Y-4622645D02*
X17040448Y-4266829D01*
X17679106Y-3628171D01*
X18034922Y-3983987D01*
X17396264Y-4622645D01*
X17396264Y-4622645D01*
G37*
G36*
X17394002Y-6176018D02*
X17749818Y-5820202D01*
X18388476Y-6458860D01*
X18032660Y-6814676D01*
X17394002Y-6176018D01*
X17394002Y-6176018D01*
G37*
G36*
X17040448Y-6529571D02*
X17396264Y-6173755D01*
X18034922Y-6812413D01*
X17679106Y-7168229D01*
X17040448Y-6529571D01*
X17040448Y-6529571D01*
G37*
G36*
X17747555Y-5822464D02*
X18103371Y-5466648D01*
X18742029Y-6105306D01*
X18386213Y-6461122D01*
X17747555Y-5822464D01*
X17747555Y-5822464D01*
G37*
G36*
X15909078Y-3983987D02*
X16264894Y-3628171D01*
X16903552Y-4266829D01*
X16547736Y-4622645D01*
X15909078Y-3983987D01*
X15909078Y-3983987D01*
G37*
D26*
X15168877Y-5009291D02*
X15310299Y-5150713D01*
X17219487Y-3736499D02*
X17360909Y-3595077D01*
X15168877Y-5787109D02*
X15310299Y-5645687D01*
X18633701Y-5645687D02*
X18775123Y-5787109D01*
X17219487Y-7059901D02*
X17360909Y-7201323D01*
X16583091Y-7201323D02*
X16724513Y-7059901D01*
X18633701Y-5150713D02*
X18775123Y-5009291D01*
D24*
X1524000Y-1524000D03*
X4064000Y-1524000D03*
X1524000Y-4064000D03*
X4064000Y-4064000D03*
X1524000Y-6604000D03*
X4064000Y-6604000D03*
X1524000Y-9144000D03*
X4064000Y-9144000D03*
X31877000Y-9144000D03*
X32131000Y-6604000D03*
X31877000Y-4064000D03*
X32131000Y-1524000D03*
D25*
X28067000Y-7034000D03*
X28067000Y-3634000D03*
D24*
X6604000Y-9017000D03*
X9144000Y-9271000D03*
X11684000Y-9017000D03*
X14224000Y-9271000D03*
X16764000Y-9017000D03*
X19304000Y-9271000D03*
X21844000Y-9017000D03*
X24384000Y-9271000D03*
X26924000Y-9017000D03*
X29464000Y-9271000D03*
X6604000Y-1397000D03*
X9144000Y-1651000D03*
X11684000Y-1397000D03*
X14224000Y-1651000D03*
X16764000Y-1397000D03*
X19304000Y-1651000D03*
X21844000Y-1397000D03*
X24384000Y-1651000D03*
X26924000Y-1397000D03*
X29464000Y-1651000D03*
D23*
X13827000Y-4699000D03*
X11827000Y-4699000D03*
D22*
X26073000Y-7112000D03*
X24473000Y-7112000D03*
X26073000Y-3556000D03*
X24473000Y-3556000D03*
D21*
X30099000Y-5727000D03*
X30099000Y-7227000D03*
X20320000Y-7481000D03*
X20320000Y-5981000D03*
X20320000Y-3441000D03*
X20320000Y-4941000D03*
D20*
X12331000Y-5969000D03*
X13831000Y-5969000D03*
D19*
X9967000Y-5350000D03*
X8067000Y-5350000D03*
X9017000Y-7350000D03*
D18*
X9973000Y-3810000D03*
X6223000Y-3810000D03*
D17*
X23352000Y-6284000D03*
X23352000Y-4384000D03*
X21352000Y-5334000D03*
D16*
X30099000Y-3314000D03*
X30099000Y-4814000D03*
D15*
X25896000Y-5969000D03*
X24396000Y-5969000D03*
X24396000Y-4699000D03*
X25896000Y-4699000D03*
X10934000Y-7239000D03*
X12434000Y-7239000D03*
D14*
X6604000Y-7518400D03*
X6604000Y-6705600D03*
D12*
X69596000Y-5588000D03*
D13*
X69596000Y-16256000D03*
M02*
