G04 #@! TF.FileFunction,Copper,L2,Bot,Signal*
%FSLAX46Y46*%
G04 Gerber Fmt 4.6, Leading zero omitted, Abs format (unit mm)*
G04 Created by KiCad (PCBNEW 4.0.6-e0-6349~53~ubuntu16.04.1) date Sun Jun 25 16:08:35 2017*
%MOMM*%
%LPD*%
G01*
G04 APERTURE LIST*
%ADD10C,0.100000*%
%ADD11C,1.879600*%
%ADD12C,0.635000*%
%ADD13C,0.152400*%
G04 APERTURE END LIST*
D10*
D11*
X40132000Y-86741000D03*
X42672000Y-86995000D03*
X45212000Y-86741000D03*
X47752000Y-86995000D03*
X50292000Y-86741000D03*
X52832000Y-86995000D03*
X55372000Y-86741000D03*
X57912000Y-86995000D03*
X60452000Y-86741000D03*
X62992000Y-86995000D03*
X40132000Y-94361000D03*
X42672000Y-94615000D03*
X45212000Y-94361000D03*
X47752000Y-94615000D03*
X50292000Y-94361000D03*
X52832000Y-94615000D03*
X55372000Y-94361000D03*
X57912000Y-94615000D03*
X60452000Y-94361000D03*
X62992000Y-94615000D03*
X65405000Y-94488000D03*
X65659000Y-91948000D03*
X65405000Y-89408000D03*
X65659000Y-86868000D03*
X35052000Y-86868000D03*
X37592000Y-86868000D03*
X35052000Y-89408000D03*
X37592000Y-89408000D03*
X35052000Y-91948000D03*
X37592000Y-91948000D03*
X35052000Y-94488000D03*
X37592000Y-94488000D03*
X40132000Y-76073000D03*
X42672000Y-76327000D03*
X45212000Y-76073000D03*
X47752000Y-76327000D03*
X50292000Y-76073000D03*
X52832000Y-76327000D03*
X55372000Y-76073000D03*
X57912000Y-76327000D03*
X60452000Y-76073000D03*
X62992000Y-76327000D03*
X40132000Y-83693000D03*
X42672000Y-83947000D03*
X45212000Y-83693000D03*
X47752000Y-83947000D03*
X50292000Y-83693000D03*
X52832000Y-83947000D03*
X55372000Y-83693000D03*
X57912000Y-83947000D03*
X60452000Y-83693000D03*
X62992000Y-83947000D03*
X65405000Y-83820000D03*
X65659000Y-81280000D03*
X65405000Y-78740000D03*
X65659000Y-76200000D03*
X35052000Y-76200000D03*
X37592000Y-76200000D03*
X35052000Y-78740000D03*
X37592000Y-78740000D03*
X35052000Y-81280000D03*
X37592000Y-81280000D03*
X35052000Y-83820000D03*
X37592000Y-83820000D03*
X40132000Y-65405000D03*
X42672000Y-65659000D03*
X45212000Y-65405000D03*
X47752000Y-65659000D03*
X50292000Y-65405000D03*
X52832000Y-65659000D03*
X55372000Y-65405000D03*
X57912000Y-65659000D03*
X60452000Y-65405000D03*
X62992000Y-65659000D03*
X40132000Y-73025000D03*
X42672000Y-73279000D03*
X45212000Y-73025000D03*
X47752000Y-73279000D03*
X50292000Y-73025000D03*
X52832000Y-73279000D03*
X55372000Y-73025000D03*
X57912000Y-73279000D03*
X60452000Y-73025000D03*
X62992000Y-73279000D03*
X65405000Y-73152000D03*
X65659000Y-70612000D03*
X65405000Y-68072000D03*
X65659000Y-65532000D03*
X35052000Y-65532000D03*
X37592000Y-65532000D03*
X35052000Y-68072000D03*
X37592000Y-68072000D03*
X35052000Y-70612000D03*
X37592000Y-70612000D03*
X35052000Y-73152000D03*
X37592000Y-73152000D03*
X40132000Y-54737000D03*
X42672000Y-54991000D03*
X45212000Y-54737000D03*
X47752000Y-54991000D03*
X50292000Y-54737000D03*
X52832000Y-54991000D03*
X55372000Y-54737000D03*
X57912000Y-54991000D03*
X60452000Y-54737000D03*
X62992000Y-54991000D03*
X40132000Y-62357000D03*
X42672000Y-62611000D03*
X45212000Y-62357000D03*
X47752000Y-62611000D03*
X50292000Y-62357000D03*
X52832000Y-62611000D03*
X55372000Y-62357000D03*
X57912000Y-62611000D03*
X60452000Y-62357000D03*
X62992000Y-62611000D03*
X65405000Y-62484000D03*
X65659000Y-59944000D03*
X65405000Y-57404000D03*
X65659000Y-54864000D03*
X35052000Y-54864000D03*
X37592000Y-54864000D03*
X35052000Y-57404000D03*
X37592000Y-57404000D03*
X35052000Y-59944000D03*
X37592000Y-59944000D03*
X35052000Y-62484000D03*
X37592000Y-62484000D03*
X40132000Y-44069000D03*
X42672000Y-44323000D03*
X45212000Y-44069000D03*
X47752000Y-44323000D03*
X50292000Y-44069000D03*
X52832000Y-44323000D03*
X55372000Y-44069000D03*
X57912000Y-44323000D03*
X60452000Y-44069000D03*
X62992000Y-44323000D03*
X40132000Y-51689000D03*
X42672000Y-51943000D03*
X45212000Y-51689000D03*
X47752000Y-51943000D03*
X50292000Y-51689000D03*
X52832000Y-51943000D03*
X55372000Y-51689000D03*
X57912000Y-51943000D03*
X60452000Y-51689000D03*
X62992000Y-51943000D03*
X65405000Y-51816000D03*
X65659000Y-49276000D03*
X65405000Y-46736000D03*
X65659000Y-44196000D03*
X35052000Y-44196000D03*
X37592000Y-44196000D03*
X35052000Y-46736000D03*
X37592000Y-46736000D03*
X35052000Y-49276000D03*
X37592000Y-49276000D03*
X35052000Y-51816000D03*
X37592000Y-51816000D03*
X40132000Y-33401000D03*
X42672000Y-33655000D03*
X45212000Y-33401000D03*
X47752000Y-33655000D03*
X50292000Y-33401000D03*
X52832000Y-33655000D03*
X55372000Y-33401000D03*
X57912000Y-33655000D03*
X60452000Y-33401000D03*
X62992000Y-33655000D03*
X40132000Y-41021000D03*
X42672000Y-41275000D03*
X45212000Y-41021000D03*
X47752000Y-41275000D03*
X50292000Y-41021000D03*
X52832000Y-41275000D03*
X55372000Y-41021000D03*
X57912000Y-41275000D03*
X60452000Y-41021000D03*
X62992000Y-41275000D03*
X65405000Y-41148000D03*
X65659000Y-38608000D03*
X65405000Y-36068000D03*
X65659000Y-33528000D03*
X35052000Y-33528000D03*
X37592000Y-33528000D03*
X35052000Y-36068000D03*
X37592000Y-36068000D03*
X35052000Y-38608000D03*
X37592000Y-38608000D03*
X35052000Y-41148000D03*
X37592000Y-41148000D03*
X40132000Y-22733000D03*
X42672000Y-22987000D03*
X45212000Y-22733000D03*
X47752000Y-22987000D03*
X50292000Y-22733000D03*
X52832000Y-22987000D03*
X55372000Y-22733000D03*
X57912000Y-22987000D03*
X60452000Y-22733000D03*
X62992000Y-22987000D03*
X40132000Y-30353000D03*
X42672000Y-30607000D03*
X45212000Y-30353000D03*
X47752000Y-30607000D03*
X50292000Y-30353000D03*
X52832000Y-30607000D03*
X55372000Y-30353000D03*
X57912000Y-30607000D03*
X60452000Y-30353000D03*
X62992000Y-30607000D03*
X65405000Y-30480000D03*
X65659000Y-27940000D03*
X65405000Y-25400000D03*
X65659000Y-22860000D03*
X35052000Y-22860000D03*
X37592000Y-22860000D03*
X35052000Y-25400000D03*
X37592000Y-25400000D03*
X35052000Y-27940000D03*
X37592000Y-27940000D03*
X35052000Y-30480000D03*
X37592000Y-30480000D03*
X40132000Y-12065000D03*
X42672000Y-12319000D03*
X45212000Y-12065000D03*
X47752000Y-12319000D03*
X50292000Y-12065000D03*
X52832000Y-12319000D03*
X55372000Y-12065000D03*
X57912000Y-12319000D03*
X60452000Y-12065000D03*
X62992000Y-12319000D03*
X40132000Y-19685000D03*
X42672000Y-19939000D03*
X45212000Y-19685000D03*
X47752000Y-19939000D03*
X50292000Y-19685000D03*
X52832000Y-19939000D03*
X55372000Y-19685000D03*
X57912000Y-19939000D03*
X60452000Y-19685000D03*
X62992000Y-19939000D03*
X65405000Y-19812000D03*
X65659000Y-17272000D03*
X65405000Y-14732000D03*
X65659000Y-12192000D03*
X35052000Y-12192000D03*
X37592000Y-12192000D03*
X35052000Y-14732000D03*
X37592000Y-14732000D03*
X35052000Y-17272000D03*
X37592000Y-17272000D03*
X35052000Y-19812000D03*
X37592000Y-19812000D03*
X40132000Y-1397000D03*
X42672000Y-1651000D03*
X45212000Y-1397000D03*
X47752000Y-1651000D03*
X50292000Y-1397000D03*
X52832000Y-1651000D03*
X55372000Y-1397000D03*
X57912000Y-1651000D03*
X60452000Y-1397000D03*
X62992000Y-1651000D03*
X40132000Y-9017000D03*
X42672000Y-9271000D03*
X45212000Y-9017000D03*
X47752000Y-9271000D03*
X50292000Y-9017000D03*
X52832000Y-9271000D03*
X55372000Y-9017000D03*
X57912000Y-9271000D03*
X60452000Y-9017000D03*
X62992000Y-9271000D03*
X65405000Y-9144000D03*
X65659000Y-6604000D03*
X65405000Y-4064000D03*
X65659000Y-1524000D03*
X35052000Y-1524000D03*
X37592000Y-1524000D03*
X35052000Y-4064000D03*
X37592000Y-4064000D03*
X35052000Y-6604000D03*
X37592000Y-6604000D03*
X35052000Y-9144000D03*
X37592000Y-9144000D03*
X6604000Y-86741000D03*
X9144000Y-86995000D03*
X11684000Y-86741000D03*
X14224000Y-86995000D03*
X16764000Y-86741000D03*
X19304000Y-86995000D03*
X21844000Y-86741000D03*
X24384000Y-86995000D03*
X26924000Y-86741000D03*
X29464000Y-86995000D03*
X6604000Y-94361000D03*
X9144000Y-94615000D03*
X11684000Y-94361000D03*
X14224000Y-94615000D03*
X16764000Y-94361000D03*
X19304000Y-94615000D03*
X21844000Y-94361000D03*
X24384000Y-94615000D03*
X26924000Y-94361000D03*
X29464000Y-94615000D03*
X31877000Y-94488000D03*
X32131000Y-91948000D03*
X31877000Y-89408000D03*
X32131000Y-86868000D03*
X1524000Y-86868000D03*
X4064000Y-86868000D03*
X1524000Y-89408000D03*
X4064000Y-89408000D03*
X1524000Y-91948000D03*
X4064000Y-91948000D03*
X1524000Y-94488000D03*
X4064000Y-94488000D03*
X6604000Y-76073000D03*
X9144000Y-76327000D03*
X11684000Y-76073000D03*
X14224000Y-76327000D03*
X16764000Y-76073000D03*
X19304000Y-76327000D03*
X21844000Y-76073000D03*
X24384000Y-76327000D03*
X26924000Y-76073000D03*
X29464000Y-76327000D03*
X6604000Y-83693000D03*
X9144000Y-83947000D03*
X11684000Y-83693000D03*
X14224000Y-83947000D03*
X16764000Y-83693000D03*
X19304000Y-83947000D03*
X21844000Y-83693000D03*
X24384000Y-83947000D03*
X26924000Y-83693000D03*
X29464000Y-83947000D03*
X31877000Y-83820000D03*
X32131000Y-81280000D03*
X31877000Y-78740000D03*
X32131000Y-76200000D03*
X1524000Y-76200000D03*
X4064000Y-76200000D03*
X1524000Y-78740000D03*
X4064000Y-78740000D03*
X1524000Y-81280000D03*
X4064000Y-81280000D03*
X1524000Y-83820000D03*
X4064000Y-83820000D03*
X6604000Y-65405000D03*
X9144000Y-65659000D03*
X11684000Y-65405000D03*
X14224000Y-65659000D03*
X16764000Y-65405000D03*
X19304000Y-65659000D03*
X21844000Y-65405000D03*
X24384000Y-65659000D03*
X26924000Y-65405000D03*
X29464000Y-65659000D03*
X6604000Y-73025000D03*
X9144000Y-73279000D03*
X11684000Y-73025000D03*
X14224000Y-73279000D03*
X16764000Y-73025000D03*
X19304000Y-73279000D03*
X21844000Y-73025000D03*
X24384000Y-73279000D03*
X26924000Y-73025000D03*
X29464000Y-73279000D03*
X31877000Y-73152000D03*
X32131000Y-70612000D03*
X31877000Y-68072000D03*
X32131000Y-65532000D03*
X1524000Y-65532000D03*
X4064000Y-65532000D03*
X1524000Y-68072000D03*
X4064000Y-68072000D03*
X1524000Y-70612000D03*
X4064000Y-70612000D03*
X1524000Y-73152000D03*
X4064000Y-73152000D03*
X6604000Y-54737000D03*
X9144000Y-54991000D03*
X11684000Y-54737000D03*
X14224000Y-54991000D03*
X16764000Y-54737000D03*
X19304000Y-54991000D03*
X21844000Y-54737000D03*
X24384000Y-54991000D03*
X26924000Y-54737000D03*
X29464000Y-54991000D03*
X6604000Y-62357000D03*
X9144000Y-62611000D03*
X11684000Y-62357000D03*
X14224000Y-62611000D03*
X16764000Y-62357000D03*
X19304000Y-62611000D03*
X21844000Y-62357000D03*
X24384000Y-62611000D03*
X26924000Y-62357000D03*
X29464000Y-62611000D03*
X31877000Y-62484000D03*
X32131000Y-59944000D03*
X31877000Y-57404000D03*
X32131000Y-54864000D03*
X1524000Y-54864000D03*
X4064000Y-54864000D03*
X1524000Y-57404000D03*
X4064000Y-57404000D03*
X1524000Y-59944000D03*
X4064000Y-59944000D03*
X1524000Y-62484000D03*
X4064000Y-62484000D03*
X6604000Y-44069000D03*
X9144000Y-44323000D03*
X11684000Y-44069000D03*
X14224000Y-44323000D03*
X16764000Y-44069000D03*
X19304000Y-44323000D03*
X21844000Y-44069000D03*
X24384000Y-44323000D03*
X26924000Y-44069000D03*
X29464000Y-44323000D03*
X6604000Y-51689000D03*
X9144000Y-51943000D03*
X11684000Y-51689000D03*
X14224000Y-51943000D03*
X16764000Y-51689000D03*
X19304000Y-51943000D03*
X21844000Y-51689000D03*
X24384000Y-51943000D03*
X26924000Y-51689000D03*
X29464000Y-51943000D03*
X31877000Y-51816000D03*
X32131000Y-49276000D03*
X31877000Y-46736000D03*
X32131000Y-44196000D03*
X1524000Y-44196000D03*
X4064000Y-44196000D03*
X1524000Y-46736000D03*
X4064000Y-46736000D03*
X1524000Y-49276000D03*
X4064000Y-49276000D03*
X1524000Y-51816000D03*
X4064000Y-51816000D03*
X6604000Y-33401000D03*
X9144000Y-33655000D03*
X11684000Y-33401000D03*
X14224000Y-33655000D03*
X16764000Y-33401000D03*
X19304000Y-33655000D03*
X21844000Y-33401000D03*
X24384000Y-33655000D03*
X26924000Y-33401000D03*
X29464000Y-33655000D03*
X6604000Y-41021000D03*
X9144000Y-41275000D03*
X11684000Y-41021000D03*
X14224000Y-41275000D03*
X16764000Y-41021000D03*
X19304000Y-41275000D03*
X21844000Y-41021000D03*
X24384000Y-41275000D03*
X26924000Y-41021000D03*
X29464000Y-41275000D03*
X31877000Y-41148000D03*
X32131000Y-38608000D03*
X31877000Y-36068000D03*
X32131000Y-33528000D03*
X1524000Y-33528000D03*
X4064000Y-33528000D03*
X1524000Y-36068000D03*
X4064000Y-36068000D03*
X1524000Y-38608000D03*
X4064000Y-38608000D03*
X1524000Y-41148000D03*
X4064000Y-41148000D03*
X6604000Y-22733000D03*
X9144000Y-22987000D03*
X11684000Y-22733000D03*
X14224000Y-22987000D03*
X16764000Y-22733000D03*
X19304000Y-22987000D03*
X21844000Y-22733000D03*
X24384000Y-22987000D03*
X26924000Y-22733000D03*
X29464000Y-22987000D03*
X6604000Y-30353000D03*
X9144000Y-30607000D03*
X11684000Y-30353000D03*
X14224000Y-30607000D03*
X16764000Y-30353000D03*
X19304000Y-30607000D03*
X21844000Y-30353000D03*
X24384000Y-30607000D03*
X26924000Y-30353000D03*
X29464000Y-30607000D03*
X31877000Y-30480000D03*
X32131000Y-27940000D03*
X31877000Y-25400000D03*
X32131000Y-22860000D03*
X1524000Y-22860000D03*
X4064000Y-22860000D03*
X1524000Y-25400000D03*
X4064000Y-25400000D03*
X1524000Y-27940000D03*
X4064000Y-27940000D03*
X1524000Y-30480000D03*
X4064000Y-30480000D03*
X6604000Y-12065000D03*
X9144000Y-12319000D03*
X11684000Y-12065000D03*
X14224000Y-12319000D03*
X16764000Y-12065000D03*
X19304000Y-12319000D03*
X21844000Y-12065000D03*
X24384000Y-12319000D03*
X26924000Y-12065000D03*
X29464000Y-12319000D03*
X6604000Y-19685000D03*
X9144000Y-19939000D03*
X11684000Y-19685000D03*
X14224000Y-19939000D03*
X16764000Y-19685000D03*
X19304000Y-19939000D03*
X21844000Y-19685000D03*
X24384000Y-19939000D03*
X26924000Y-19685000D03*
X29464000Y-19939000D03*
X31877000Y-19812000D03*
X32131000Y-17272000D03*
X31877000Y-14732000D03*
X32131000Y-12192000D03*
X1524000Y-12192000D03*
X4064000Y-12192000D03*
X1524000Y-14732000D03*
X4064000Y-14732000D03*
X1524000Y-17272000D03*
X4064000Y-17272000D03*
X1524000Y-19812000D03*
X4064000Y-19812000D03*
X1524000Y-1524000D03*
X4064000Y-1524000D03*
X1524000Y-4064000D03*
X4064000Y-4064000D03*
X1524000Y-6604000D03*
X4064000Y-6604000D03*
X1524000Y-9144000D03*
X4064000Y-9144000D03*
X31877000Y-9144000D03*
X32131000Y-6604000D03*
X31877000Y-4064000D03*
X32131000Y-1524000D03*
X6604000Y-9017000D03*
X9144000Y-9271000D03*
X11684000Y-9017000D03*
X14224000Y-9271000D03*
X16764000Y-9017000D03*
X19304000Y-9271000D03*
X21844000Y-9017000D03*
X24384000Y-9271000D03*
X26924000Y-9017000D03*
X29464000Y-9271000D03*
X6604000Y-1397000D03*
X9144000Y-1651000D03*
X11684000Y-1397000D03*
X14224000Y-1651000D03*
X16764000Y-1397000D03*
X19304000Y-1651000D03*
X21844000Y-1397000D03*
X24384000Y-1651000D03*
X26924000Y-1397000D03*
X29464000Y-1651000D03*
D12*
X60588300Y-90067800D03*
X60588300Y-79399800D03*
X60588300Y-68731800D03*
X60588300Y-58063800D03*
X60588300Y-47395800D03*
X60588300Y-36727800D03*
X60588300Y-26059800D03*
X60588300Y-15391800D03*
X60588300Y-4723800D03*
X27060300Y-90067800D03*
X27060300Y-79399800D03*
X27060300Y-68731800D03*
X27060300Y-58063800D03*
X27060300Y-47395800D03*
X27060300Y-36727800D03*
X27060300Y-26059800D03*
X27060300Y-15391800D03*
X27060300Y-4723800D03*
X48623400Y-89536100D03*
X57029000Y-92509700D03*
X48623400Y-78868100D03*
X57029000Y-81841700D03*
X48623400Y-68200100D03*
X57029000Y-71173700D03*
X48623400Y-57532100D03*
X57029000Y-60505700D03*
X48623400Y-46864100D03*
X57029000Y-49837700D03*
X48623400Y-36196100D03*
X57029000Y-39169700D03*
X48623400Y-25528100D03*
X57029000Y-28501700D03*
X48623400Y-14860100D03*
X57029000Y-17833700D03*
X48623400Y-4192100D03*
X57029000Y-7165700D03*
X15095400Y-89536100D03*
X23501000Y-92509700D03*
X15095400Y-78868100D03*
X23501000Y-81841700D03*
X15095400Y-68200100D03*
X23501000Y-71173700D03*
X15095400Y-57532100D03*
X23501000Y-60505700D03*
X15095400Y-46864100D03*
X23501000Y-49837700D03*
X15095400Y-36196100D03*
X23501000Y-39169700D03*
X15095400Y-25528100D03*
X23501000Y-28501700D03*
X15095400Y-14860100D03*
X23501000Y-17833700D03*
X23501000Y-7165700D03*
X15095400Y-4192100D03*
X52974000Y-91383700D03*
X52974000Y-80715700D03*
X52974000Y-70047700D03*
X52974000Y-59379700D03*
X52974000Y-48711700D03*
X52974000Y-38043700D03*
X52974000Y-27375700D03*
X52974000Y-16707700D03*
X52974000Y-6039700D03*
X19446000Y-91383700D03*
X19446000Y-80715700D03*
X19446000Y-70047700D03*
X19446000Y-59379700D03*
X19446000Y-48711700D03*
X19446000Y-38043700D03*
X19446000Y-27375700D03*
X19446000Y-16707700D03*
X19446000Y-6039700D03*
X46689700Y-92872000D03*
X46689700Y-82204000D03*
X46689700Y-71536000D03*
X46689700Y-60868000D03*
X46689700Y-50200000D03*
X46689700Y-39532000D03*
X46689700Y-28864000D03*
X46689700Y-18196000D03*
X46689700Y-7528000D03*
X13161700Y-92872000D03*
X13161700Y-82204000D03*
X13161700Y-71536000D03*
X13161700Y-60868000D03*
X13161700Y-50200000D03*
X13161700Y-39532000D03*
X13161700Y-28864000D03*
X13161700Y-18196000D03*
X13161700Y-7528000D03*
X42352100Y-91498700D03*
X42352100Y-80830700D03*
X42352100Y-70162700D03*
X42352100Y-59494700D03*
X42352100Y-48826700D03*
X42352100Y-38158700D03*
X42352100Y-27490700D03*
X42352100Y-16822700D03*
X42352100Y-6154700D03*
X8824100Y-91498700D03*
X8824100Y-80830700D03*
X8824100Y-70162700D03*
X8824100Y-59494700D03*
X8824100Y-48826700D03*
X8824100Y-38158700D03*
X8824100Y-27490700D03*
X8824100Y-16822700D03*
X8824100Y-6154700D03*
X50476600Y-91392400D03*
X50476600Y-80724400D03*
X50476600Y-70056400D03*
X50476600Y-59388400D03*
X50476600Y-48720400D03*
X50476600Y-38052400D03*
X50476600Y-27384400D03*
X50476600Y-16716400D03*
X50476600Y-6048400D03*
X16948600Y-91392400D03*
X16948600Y-80724400D03*
X16948600Y-70056400D03*
X16948600Y-59388400D03*
X16948600Y-48720400D03*
X16948600Y-38052400D03*
X16948600Y-27384400D03*
X16948600Y-16716400D03*
X16948600Y-6048400D03*
X51791900Y-88286900D03*
X51791900Y-77618900D03*
X51791900Y-66950900D03*
X51791900Y-56282900D03*
X51791900Y-45614900D03*
X51791900Y-34946900D03*
X51791900Y-24278900D03*
X51791900Y-13610900D03*
X51791900Y-2942900D03*
X18263900Y-88286900D03*
X18263900Y-77618900D03*
X18263900Y-66950900D03*
X18263900Y-56282900D03*
X18263900Y-45614900D03*
X18263900Y-34946900D03*
X18263900Y-24278900D03*
X18263900Y-13610900D03*
X18263900Y-2942900D03*
X52856000Y-89222800D03*
X52856000Y-78554800D03*
X52856000Y-67886800D03*
X52856000Y-57218800D03*
X52856000Y-46550800D03*
X52856000Y-35882800D03*
X52856000Y-25214800D03*
X52856000Y-14546800D03*
X52856000Y-3878800D03*
X19328000Y-89222800D03*
X19328000Y-78554800D03*
X19328000Y-67886800D03*
X19328000Y-57218800D03*
X19328000Y-46550800D03*
X19328000Y-35882800D03*
X19328000Y-25214800D03*
X19328000Y-14546800D03*
X19328000Y-3878800D03*
X55946200Y-89351000D03*
X55946200Y-78683000D03*
X55946200Y-68015000D03*
X55946200Y-57347000D03*
X55946200Y-46679000D03*
X55946200Y-36011000D03*
X55946200Y-25343000D03*
X55946200Y-14675000D03*
X55946200Y-4007000D03*
X22418200Y-89351000D03*
X22418200Y-78683000D03*
X22418200Y-68015000D03*
X22418200Y-57347000D03*
X22418200Y-46679000D03*
X22418200Y-36011000D03*
X22418200Y-25343000D03*
X22418200Y-14675000D03*
X22418200Y-4007000D03*
X39631600Y-91016000D03*
X51055500Y-90839200D03*
X39631600Y-80348000D03*
X51055500Y-80171200D03*
X39631600Y-69680000D03*
X51055500Y-69503200D03*
X39631600Y-59012000D03*
X51055500Y-58835200D03*
X39631600Y-48344000D03*
X51055500Y-48167200D03*
X39631600Y-37676000D03*
X51055500Y-37499200D03*
X39631600Y-27008000D03*
X51055500Y-26831200D03*
X39631600Y-16340000D03*
X51055500Y-16163200D03*
X39631600Y-5672000D03*
X51055500Y-5495200D03*
X6103600Y-91016000D03*
X17527500Y-90839200D03*
X6103600Y-80348000D03*
X17527500Y-80171200D03*
X6103600Y-69680000D03*
X17527500Y-69503200D03*
X6103600Y-59012000D03*
X17527500Y-58835200D03*
X6103600Y-48344000D03*
X17527500Y-48167200D03*
X6103600Y-37676000D03*
X17527500Y-37499200D03*
X6103600Y-27008000D03*
X17527500Y-26831200D03*
X6103600Y-16340000D03*
X17527500Y-16163200D03*
X17527500Y-5495200D03*
X6103600Y-5672000D03*
X52306900Y-92693900D03*
X52306900Y-82025900D03*
X52306900Y-71357900D03*
X52306900Y-60689900D03*
X52306900Y-50021900D03*
X52306900Y-39353900D03*
X52306900Y-28685900D03*
X52306900Y-18017900D03*
X52306900Y-7349900D03*
X18778900Y-92693900D03*
X18778900Y-82025900D03*
X18778900Y-71357900D03*
X18778900Y-60689900D03*
X18778900Y-50021900D03*
X18778900Y-39353900D03*
X18778900Y-28685900D03*
X18778900Y-18017900D03*
X18778900Y-7349900D03*
X52991900Y-93183500D03*
X52991900Y-82515500D03*
X52991900Y-71847500D03*
X52991900Y-61179500D03*
X52991900Y-50511500D03*
X52991900Y-39843500D03*
X52991900Y-29175500D03*
X52991900Y-18507500D03*
X52991900Y-7839500D03*
X19463900Y-93183500D03*
X19463900Y-82515500D03*
X19463900Y-71847500D03*
X19463900Y-61179500D03*
X19463900Y-50511500D03*
X19463900Y-39843500D03*
X19463900Y-29175500D03*
X19463900Y-18507500D03*
X19463900Y-7839500D03*
X56021600Y-90943400D03*
X58657000Y-90774800D03*
X56021600Y-80275400D03*
X58657000Y-80106800D03*
X56021600Y-69607400D03*
X58657000Y-69438800D03*
X56021600Y-58939400D03*
X58657000Y-58770800D03*
X56021600Y-48271400D03*
X58657000Y-48102800D03*
X56021600Y-37603400D03*
X58657000Y-37434800D03*
X56021600Y-26935400D03*
X58657000Y-26766800D03*
X56021600Y-16267400D03*
X58657000Y-16098800D03*
X56021600Y-5599400D03*
X58657000Y-5430800D03*
X22493600Y-90943400D03*
X25129000Y-90774800D03*
X22493600Y-80275400D03*
X25129000Y-80106800D03*
X22493600Y-69607400D03*
X25129000Y-69438800D03*
X22493600Y-58939400D03*
X25129000Y-58770800D03*
X22493600Y-48271400D03*
X25129000Y-48102800D03*
X22493600Y-37603400D03*
X25129000Y-37434800D03*
X22493600Y-26935400D03*
X25129000Y-26766800D03*
X22493600Y-16267400D03*
X25129000Y-16098800D03*
X25129000Y-5430800D03*
X22493600Y-5599400D03*
X54735900Y-92054200D03*
X42388500Y-89965700D03*
X54735900Y-81386200D03*
X42388500Y-79297700D03*
X54735900Y-70718200D03*
X42388500Y-68629700D03*
X54735900Y-60050200D03*
X42388500Y-57961700D03*
X54735900Y-49382200D03*
X42388500Y-47293700D03*
X54735900Y-38714200D03*
X42388500Y-36625700D03*
X54735900Y-28046200D03*
X42388500Y-25957700D03*
X54735900Y-17378200D03*
X42388500Y-15289700D03*
X54735900Y-6710200D03*
X42388500Y-4621700D03*
X21207900Y-92054200D03*
X8860500Y-89965700D03*
X21207900Y-81386200D03*
X8860500Y-79297700D03*
X21207900Y-70718200D03*
X8860500Y-68629700D03*
X21207900Y-60050200D03*
X8860500Y-57961700D03*
X21207900Y-49382200D03*
X8860500Y-47293700D03*
X21207900Y-38714200D03*
X8860500Y-36625700D03*
X21207900Y-28046200D03*
X8860500Y-25957700D03*
X21207900Y-17378200D03*
X8860500Y-15289700D03*
X8860500Y-4621700D03*
X21207900Y-6710200D03*
X46355000Y-89451900D03*
X60404300Y-90858900D03*
X46355000Y-78783900D03*
X60404300Y-80190900D03*
X46355000Y-68115900D03*
X60404300Y-69522900D03*
X46355000Y-57447900D03*
X60404300Y-58854900D03*
X46355000Y-46779900D03*
X60404300Y-48186900D03*
X46355000Y-36111900D03*
X60404300Y-37518900D03*
X46355000Y-25443900D03*
X60404300Y-26850900D03*
X46355000Y-14775900D03*
X60404300Y-16182900D03*
X46355000Y-4107900D03*
X60404300Y-5514900D03*
X12827000Y-89451900D03*
X26876300Y-90858900D03*
X12827000Y-78783900D03*
X26876300Y-80190900D03*
X12827000Y-68115900D03*
X26876300Y-69522900D03*
X12827000Y-57447900D03*
X26876300Y-58854900D03*
X12827000Y-46779900D03*
X26876300Y-48186900D03*
X12827000Y-36111900D03*
X26876300Y-37518900D03*
X12827000Y-25443900D03*
X26876300Y-26850900D03*
X12827000Y-14775900D03*
X26876300Y-16182900D03*
X26876300Y-5514900D03*
X12827000Y-4107900D03*
D13*
X60588300Y-90067800D02*
X60442300Y-89921800D01*
X60442300Y-89921800D02*
X52647200Y-89921800D01*
X52647200Y-89921800D02*
X50292000Y-87566600D01*
X50292000Y-87566600D02*
X50292000Y-86741000D01*
X60588300Y-79399800D02*
X60442300Y-79253800D01*
X60442300Y-79253800D02*
X52647200Y-79253800D01*
X52647200Y-79253800D02*
X50292000Y-76898600D01*
X50292000Y-76898600D02*
X50292000Y-76073000D01*
X60588300Y-68731800D02*
X60442300Y-68585800D01*
X60442300Y-68585800D02*
X52647200Y-68585800D01*
X52647200Y-68585800D02*
X50292000Y-66230600D01*
X50292000Y-66230600D02*
X50292000Y-65405000D01*
X60588300Y-58063800D02*
X60442300Y-57917800D01*
X60442300Y-57917800D02*
X52647200Y-57917800D01*
X52647200Y-57917800D02*
X50292000Y-55562600D01*
X50292000Y-55562600D02*
X50292000Y-54737000D01*
X60588300Y-47395800D02*
X60442300Y-47249800D01*
X60442300Y-47249800D02*
X52647200Y-47249800D01*
X52647200Y-47249800D02*
X50292000Y-44894600D01*
X50292000Y-44894600D02*
X50292000Y-44069000D01*
X60588300Y-36727800D02*
X60442300Y-36581800D01*
X60442300Y-36581800D02*
X52647200Y-36581800D01*
X52647200Y-36581800D02*
X50292000Y-34226600D01*
X50292000Y-34226600D02*
X50292000Y-33401000D01*
X60588300Y-26059800D02*
X60442300Y-25913800D01*
X60442300Y-25913800D02*
X52647200Y-25913800D01*
X52647200Y-25913800D02*
X50292000Y-23558600D01*
X50292000Y-23558600D02*
X50292000Y-22733000D01*
X60588300Y-15391800D02*
X60442300Y-15245800D01*
X60442300Y-15245800D02*
X52647200Y-15245800D01*
X52647200Y-15245800D02*
X50292000Y-12890600D01*
X50292000Y-12890600D02*
X50292000Y-12065000D01*
X60588300Y-4723800D02*
X60442300Y-4577800D01*
X60442300Y-4577800D02*
X52647200Y-4577800D01*
X52647200Y-4577800D02*
X50292000Y-2222600D01*
X50292000Y-2222600D02*
X50292000Y-1397000D01*
X27060300Y-90067800D02*
X26914300Y-89921800D01*
X26914300Y-89921800D02*
X19119200Y-89921800D01*
X19119200Y-89921800D02*
X16764000Y-87566600D01*
X16764000Y-87566600D02*
X16764000Y-86741000D01*
X27060300Y-79399800D02*
X26914300Y-79253800D01*
X26914300Y-79253800D02*
X19119200Y-79253800D01*
X19119200Y-79253800D02*
X16764000Y-76898600D01*
X16764000Y-76898600D02*
X16764000Y-76073000D01*
X27060300Y-68731800D02*
X26914300Y-68585800D01*
X26914300Y-68585800D02*
X19119200Y-68585800D01*
X19119200Y-68585800D02*
X16764000Y-66230600D01*
X16764000Y-66230600D02*
X16764000Y-65405000D01*
X27060300Y-58063800D02*
X26914300Y-57917800D01*
X26914300Y-57917800D02*
X19119200Y-57917800D01*
X19119200Y-57917800D02*
X16764000Y-55562600D01*
X16764000Y-55562600D02*
X16764000Y-54737000D01*
X27060300Y-47395800D02*
X26914300Y-47249800D01*
X26914300Y-47249800D02*
X19119200Y-47249800D01*
X19119200Y-47249800D02*
X16764000Y-44894600D01*
X16764000Y-44894600D02*
X16764000Y-44069000D01*
X27060300Y-36727800D02*
X26914300Y-36581800D01*
X26914300Y-36581800D02*
X19119200Y-36581800D01*
X19119200Y-36581800D02*
X16764000Y-34226600D01*
X16764000Y-34226600D02*
X16764000Y-33401000D01*
X27060300Y-26059800D02*
X26914300Y-25913800D01*
X26914300Y-25913800D02*
X19119200Y-25913800D01*
X19119200Y-25913800D02*
X16764000Y-23558600D01*
X16764000Y-23558600D02*
X16764000Y-22733000D01*
X27060300Y-15391800D02*
X26914300Y-15245800D01*
X26914300Y-15245800D02*
X19119200Y-15245800D01*
X19119200Y-15245800D02*
X16764000Y-12890600D01*
X16764000Y-12890600D02*
X16764000Y-12065000D01*
X16764000Y-2222600D02*
X16764000Y-1397000D01*
X19119200Y-4577800D02*
X16764000Y-2222600D01*
X26914300Y-4577800D02*
X19119200Y-4577800D01*
X27060300Y-4723800D02*
X26914300Y-4577800D01*
X35052000Y-86868000D02*
X36417300Y-88233300D01*
X36417300Y-88233300D02*
X43009400Y-88233300D01*
X43009400Y-88233300D02*
X44783300Y-90007200D01*
X44783300Y-90007200D02*
X46586400Y-90007200D01*
X46586400Y-90007200D02*
X47057500Y-89536100D01*
X47057500Y-89536100D02*
X48623400Y-89536100D01*
X57029000Y-92509700D02*
X56748000Y-92509700D01*
X56748000Y-92509700D02*
X54787900Y-90549600D01*
X54787900Y-90549600D02*
X52025100Y-90549600D01*
X52025100Y-90549600D02*
X51011600Y-89536100D01*
X51011600Y-89536100D02*
X48623400Y-89536100D01*
X65405000Y-89408000D02*
X62303300Y-92509700D01*
X62303300Y-92509700D02*
X57029000Y-92509700D01*
X35052000Y-76200000D02*
X36417300Y-77565300D01*
X36417300Y-77565300D02*
X43009400Y-77565300D01*
X43009400Y-77565300D02*
X44783300Y-79339200D01*
X44783300Y-79339200D02*
X46586400Y-79339200D01*
X46586400Y-79339200D02*
X47057500Y-78868100D01*
X47057500Y-78868100D02*
X48623400Y-78868100D01*
X57029000Y-81841700D02*
X56748000Y-81841700D01*
X56748000Y-81841700D02*
X54787900Y-79881600D01*
X54787900Y-79881600D02*
X52025100Y-79881600D01*
X52025100Y-79881600D02*
X51011600Y-78868100D01*
X51011600Y-78868100D02*
X48623400Y-78868100D01*
X65405000Y-78740000D02*
X62303300Y-81841700D01*
X62303300Y-81841700D02*
X57029000Y-81841700D01*
X35052000Y-65532000D02*
X36417300Y-66897300D01*
X36417300Y-66897300D02*
X43009400Y-66897300D01*
X43009400Y-66897300D02*
X44783300Y-68671200D01*
X44783300Y-68671200D02*
X46586400Y-68671200D01*
X46586400Y-68671200D02*
X47057500Y-68200100D01*
X47057500Y-68200100D02*
X48623400Y-68200100D01*
X57029000Y-71173700D02*
X56748000Y-71173700D01*
X56748000Y-71173700D02*
X54787900Y-69213600D01*
X54787900Y-69213600D02*
X52025100Y-69213600D01*
X52025100Y-69213600D02*
X51011600Y-68200100D01*
X51011600Y-68200100D02*
X48623400Y-68200100D01*
X65405000Y-68072000D02*
X62303300Y-71173700D01*
X62303300Y-71173700D02*
X57029000Y-71173700D01*
X35052000Y-54864000D02*
X36417300Y-56229300D01*
X36417300Y-56229300D02*
X43009400Y-56229300D01*
X43009400Y-56229300D02*
X44783300Y-58003200D01*
X44783300Y-58003200D02*
X46586400Y-58003200D01*
X46586400Y-58003200D02*
X47057500Y-57532100D01*
X47057500Y-57532100D02*
X48623400Y-57532100D01*
X57029000Y-60505700D02*
X56748000Y-60505700D01*
X56748000Y-60505700D02*
X54787900Y-58545600D01*
X54787900Y-58545600D02*
X52025100Y-58545600D01*
X52025100Y-58545600D02*
X51011600Y-57532100D01*
X51011600Y-57532100D02*
X48623400Y-57532100D01*
X65405000Y-57404000D02*
X62303300Y-60505700D01*
X62303300Y-60505700D02*
X57029000Y-60505700D01*
X35052000Y-44196000D02*
X36417300Y-45561300D01*
X36417300Y-45561300D02*
X43009400Y-45561300D01*
X43009400Y-45561300D02*
X44783300Y-47335200D01*
X44783300Y-47335200D02*
X46586400Y-47335200D01*
X46586400Y-47335200D02*
X47057500Y-46864100D01*
X47057500Y-46864100D02*
X48623400Y-46864100D01*
X57029000Y-49837700D02*
X56748000Y-49837700D01*
X56748000Y-49837700D02*
X54787900Y-47877600D01*
X54787900Y-47877600D02*
X52025100Y-47877600D01*
X52025100Y-47877600D02*
X51011600Y-46864100D01*
X51011600Y-46864100D02*
X48623400Y-46864100D01*
X65405000Y-46736000D02*
X62303300Y-49837700D01*
X62303300Y-49837700D02*
X57029000Y-49837700D01*
X35052000Y-33528000D02*
X36417300Y-34893300D01*
X36417300Y-34893300D02*
X43009400Y-34893300D01*
X43009400Y-34893300D02*
X44783300Y-36667200D01*
X44783300Y-36667200D02*
X46586400Y-36667200D01*
X46586400Y-36667200D02*
X47057500Y-36196100D01*
X47057500Y-36196100D02*
X48623400Y-36196100D01*
X57029000Y-39169700D02*
X56748000Y-39169700D01*
X56748000Y-39169700D02*
X54787900Y-37209600D01*
X54787900Y-37209600D02*
X52025100Y-37209600D01*
X52025100Y-37209600D02*
X51011600Y-36196100D01*
X51011600Y-36196100D02*
X48623400Y-36196100D01*
X65405000Y-36068000D02*
X62303300Y-39169700D01*
X62303300Y-39169700D02*
X57029000Y-39169700D01*
X35052000Y-22860000D02*
X36417300Y-24225300D01*
X36417300Y-24225300D02*
X43009400Y-24225300D01*
X43009400Y-24225300D02*
X44783300Y-25999200D01*
X44783300Y-25999200D02*
X46586400Y-25999200D01*
X46586400Y-25999200D02*
X47057500Y-25528100D01*
X47057500Y-25528100D02*
X48623400Y-25528100D01*
X57029000Y-28501700D02*
X56748000Y-28501700D01*
X56748000Y-28501700D02*
X54787900Y-26541600D01*
X54787900Y-26541600D02*
X52025100Y-26541600D01*
X52025100Y-26541600D02*
X51011600Y-25528100D01*
X51011600Y-25528100D02*
X48623400Y-25528100D01*
X65405000Y-25400000D02*
X62303300Y-28501700D01*
X62303300Y-28501700D02*
X57029000Y-28501700D01*
X35052000Y-12192000D02*
X36417300Y-13557300D01*
X36417300Y-13557300D02*
X43009400Y-13557300D01*
X43009400Y-13557300D02*
X44783300Y-15331200D01*
X44783300Y-15331200D02*
X46586400Y-15331200D01*
X46586400Y-15331200D02*
X47057500Y-14860100D01*
X47057500Y-14860100D02*
X48623400Y-14860100D01*
X57029000Y-17833700D02*
X56748000Y-17833700D01*
X56748000Y-17833700D02*
X54787900Y-15873600D01*
X54787900Y-15873600D02*
X52025100Y-15873600D01*
X52025100Y-15873600D02*
X51011600Y-14860100D01*
X51011600Y-14860100D02*
X48623400Y-14860100D01*
X65405000Y-14732000D02*
X62303300Y-17833700D01*
X62303300Y-17833700D02*
X57029000Y-17833700D01*
X35052000Y-1524000D02*
X36417300Y-2889300D01*
X36417300Y-2889300D02*
X43009400Y-2889300D01*
X43009400Y-2889300D02*
X44783300Y-4663200D01*
X44783300Y-4663200D02*
X46586400Y-4663200D01*
X46586400Y-4663200D02*
X47057500Y-4192100D01*
X47057500Y-4192100D02*
X48623400Y-4192100D01*
X57029000Y-7165700D02*
X56748000Y-7165700D01*
X56748000Y-7165700D02*
X54787900Y-5205600D01*
X54787900Y-5205600D02*
X52025100Y-5205600D01*
X52025100Y-5205600D02*
X51011600Y-4192100D01*
X51011600Y-4192100D02*
X48623400Y-4192100D01*
X65405000Y-4064000D02*
X62303300Y-7165700D01*
X62303300Y-7165700D02*
X57029000Y-7165700D01*
X1524000Y-86868000D02*
X2889300Y-88233300D01*
X2889300Y-88233300D02*
X9481400Y-88233300D01*
X9481400Y-88233300D02*
X11255300Y-90007200D01*
X11255300Y-90007200D02*
X13058400Y-90007200D01*
X13058400Y-90007200D02*
X13529500Y-89536100D01*
X13529500Y-89536100D02*
X15095400Y-89536100D01*
X23501000Y-92509700D02*
X23220000Y-92509700D01*
X23220000Y-92509700D02*
X21259900Y-90549600D01*
X21259900Y-90549600D02*
X18497100Y-90549600D01*
X18497100Y-90549600D02*
X17483600Y-89536100D01*
X17483600Y-89536100D02*
X15095400Y-89536100D01*
X31877000Y-89408000D02*
X28775300Y-92509700D01*
X28775300Y-92509700D02*
X23501000Y-92509700D01*
X1524000Y-76200000D02*
X2889300Y-77565300D01*
X2889300Y-77565300D02*
X9481400Y-77565300D01*
X9481400Y-77565300D02*
X11255300Y-79339200D01*
X11255300Y-79339200D02*
X13058400Y-79339200D01*
X13058400Y-79339200D02*
X13529500Y-78868100D01*
X13529500Y-78868100D02*
X15095400Y-78868100D01*
X23501000Y-81841700D02*
X23220000Y-81841700D01*
X23220000Y-81841700D02*
X21259900Y-79881600D01*
X21259900Y-79881600D02*
X18497100Y-79881600D01*
X18497100Y-79881600D02*
X17483600Y-78868100D01*
X17483600Y-78868100D02*
X15095400Y-78868100D01*
X31877000Y-78740000D02*
X28775300Y-81841700D01*
X28775300Y-81841700D02*
X23501000Y-81841700D01*
X1524000Y-65532000D02*
X2889300Y-66897300D01*
X2889300Y-66897300D02*
X9481400Y-66897300D01*
X9481400Y-66897300D02*
X11255300Y-68671200D01*
X11255300Y-68671200D02*
X13058400Y-68671200D01*
X13058400Y-68671200D02*
X13529500Y-68200100D01*
X13529500Y-68200100D02*
X15095400Y-68200100D01*
X23501000Y-71173700D02*
X23220000Y-71173700D01*
X23220000Y-71173700D02*
X21259900Y-69213600D01*
X21259900Y-69213600D02*
X18497100Y-69213600D01*
X18497100Y-69213600D02*
X17483600Y-68200100D01*
X17483600Y-68200100D02*
X15095400Y-68200100D01*
X31877000Y-68072000D02*
X28775300Y-71173700D01*
X28775300Y-71173700D02*
X23501000Y-71173700D01*
X1524000Y-54864000D02*
X2889300Y-56229300D01*
X2889300Y-56229300D02*
X9481400Y-56229300D01*
X9481400Y-56229300D02*
X11255300Y-58003200D01*
X11255300Y-58003200D02*
X13058400Y-58003200D01*
X13058400Y-58003200D02*
X13529500Y-57532100D01*
X13529500Y-57532100D02*
X15095400Y-57532100D01*
X23501000Y-60505700D02*
X23220000Y-60505700D01*
X23220000Y-60505700D02*
X21259900Y-58545600D01*
X21259900Y-58545600D02*
X18497100Y-58545600D01*
X18497100Y-58545600D02*
X17483600Y-57532100D01*
X17483600Y-57532100D02*
X15095400Y-57532100D01*
X31877000Y-57404000D02*
X28775300Y-60505700D01*
X28775300Y-60505700D02*
X23501000Y-60505700D01*
X1524000Y-44196000D02*
X2889300Y-45561300D01*
X2889300Y-45561300D02*
X9481400Y-45561300D01*
X9481400Y-45561300D02*
X11255300Y-47335200D01*
X11255300Y-47335200D02*
X13058400Y-47335200D01*
X13058400Y-47335200D02*
X13529500Y-46864100D01*
X13529500Y-46864100D02*
X15095400Y-46864100D01*
X23501000Y-49837700D02*
X23220000Y-49837700D01*
X23220000Y-49837700D02*
X21259900Y-47877600D01*
X21259900Y-47877600D02*
X18497100Y-47877600D01*
X18497100Y-47877600D02*
X17483600Y-46864100D01*
X17483600Y-46864100D02*
X15095400Y-46864100D01*
X31877000Y-46736000D02*
X28775300Y-49837700D01*
X28775300Y-49837700D02*
X23501000Y-49837700D01*
X1524000Y-33528000D02*
X2889300Y-34893300D01*
X2889300Y-34893300D02*
X9481400Y-34893300D01*
X9481400Y-34893300D02*
X11255300Y-36667200D01*
X11255300Y-36667200D02*
X13058400Y-36667200D01*
X13058400Y-36667200D02*
X13529500Y-36196100D01*
X13529500Y-36196100D02*
X15095400Y-36196100D01*
X23501000Y-39169700D02*
X23220000Y-39169700D01*
X23220000Y-39169700D02*
X21259900Y-37209600D01*
X21259900Y-37209600D02*
X18497100Y-37209600D01*
X18497100Y-37209600D02*
X17483600Y-36196100D01*
X17483600Y-36196100D02*
X15095400Y-36196100D01*
X31877000Y-36068000D02*
X28775300Y-39169700D01*
X28775300Y-39169700D02*
X23501000Y-39169700D01*
X1524000Y-22860000D02*
X2889300Y-24225300D01*
X2889300Y-24225300D02*
X9481400Y-24225300D01*
X9481400Y-24225300D02*
X11255300Y-25999200D01*
X11255300Y-25999200D02*
X13058400Y-25999200D01*
X13058400Y-25999200D02*
X13529500Y-25528100D01*
X13529500Y-25528100D02*
X15095400Y-25528100D01*
X23501000Y-28501700D02*
X23220000Y-28501700D01*
X23220000Y-28501700D02*
X21259900Y-26541600D01*
X21259900Y-26541600D02*
X18497100Y-26541600D01*
X18497100Y-26541600D02*
X17483600Y-25528100D01*
X17483600Y-25528100D02*
X15095400Y-25528100D01*
X31877000Y-25400000D02*
X28775300Y-28501700D01*
X28775300Y-28501700D02*
X23501000Y-28501700D01*
X1524000Y-12192000D02*
X2889300Y-13557300D01*
X2889300Y-13557300D02*
X9481400Y-13557300D01*
X9481400Y-13557300D02*
X11255300Y-15331200D01*
X11255300Y-15331200D02*
X13058400Y-15331200D01*
X13058400Y-15331200D02*
X13529500Y-14860100D01*
X13529500Y-14860100D02*
X15095400Y-14860100D01*
X23501000Y-17833700D02*
X23220000Y-17833700D01*
X23220000Y-17833700D02*
X21259900Y-15873600D01*
X21259900Y-15873600D02*
X18497100Y-15873600D01*
X18497100Y-15873600D02*
X17483600Y-14860100D01*
X17483600Y-14860100D02*
X15095400Y-14860100D01*
X31877000Y-14732000D02*
X28775300Y-17833700D01*
X28775300Y-17833700D02*
X23501000Y-17833700D01*
X28775300Y-7165700D02*
X23501000Y-7165700D01*
X31877000Y-4064000D02*
X28775300Y-7165700D01*
X17483600Y-4192100D02*
X15095400Y-4192100D01*
X18497100Y-5205600D02*
X17483600Y-4192100D01*
X21259900Y-5205600D02*
X18497100Y-5205600D01*
X23220000Y-7165700D02*
X21259900Y-5205600D01*
X23501000Y-7165700D02*
X23220000Y-7165700D01*
X13529500Y-4192100D02*
X15095400Y-4192100D01*
X13058400Y-4663200D02*
X13529500Y-4192100D01*
X11255300Y-4663200D02*
X13058400Y-4663200D01*
X9481400Y-2889300D02*
X11255300Y-4663200D01*
X2889300Y-2889300D02*
X9481400Y-2889300D01*
X1524000Y-1524000D02*
X2889300Y-2889300D01*
X52974000Y-91383700D02*
X55123400Y-91383700D01*
X55123400Y-91383700D02*
X56837400Y-93097700D01*
X56837400Y-93097700D02*
X62690800Y-93097700D01*
X62690800Y-93097700D02*
X62992000Y-93398900D01*
X62992000Y-93398900D02*
X64208100Y-93398900D01*
X64208100Y-93398900D02*
X65659000Y-91948000D01*
X62992000Y-93398900D02*
X62992000Y-94615000D01*
X52974000Y-80715700D02*
X55123400Y-80715700D01*
X55123400Y-80715700D02*
X56837400Y-82429700D01*
X56837400Y-82429700D02*
X62690800Y-82429700D01*
X62690800Y-82429700D02*
X62992000Y-82730900D01*
X62992000Y-82730900D02*
X64208100Y-82730900D01*
X64208100Y-82730900D02*
X65659000Y-81280000D01*
X62992000Y-82730900D02*
X62992000Y-83947000D01*
X52974000Y-70047700D02*
X55123400Y-70047700D01*
X55123400Y-70047700D02*
X56837400Y-71761700D01*
X56837400Y-71761700D02*
X62690800Y-71761700D01*
X62690800Y-71761700D02*
X62992000Y-72062900D01*
X62992000Y-72062900D02*
X64208100Y-72062900D01*
X64208100Y-72062900D02*
X65659000Y-70612000D01*
X62992000Y-72062900D02*
X62992000Y-73279000D01*
X52974000Y-59379700D02*
X55123400Y-59379700D01*
X55123400Y-59379700D02*
X56837400Y-61093700D01*
X56837400Y-61093700D02*
X62690800Y-61093700D01*
X62690800Y-61093700D02*
X62992000Y-61394900D01*
X62992000Y-61394900D02*
X64208100Y-61394900D01*
X64208100Y-61394900D02*
X65659000Y-59944000D01*
X62992000Y-61394900D02*
X62992000Y-62611000D01*
X52974000Y-48711700D02*
X55123400Y-48711700D01*
X55123400Y-48711700D02*
X56837400Y-50425700D01*
X56837400Y-50425700D02*
X62690800Y-50425700D01*
X62690800Y-50425700D02*
X62992000Y-50726900D01*
X62992000Y-50726900D02*
X64208100Y-50726900D01*
X64208100Y-50726900D02*
X65659000Y-49276000D01*
X62992000Y-50726900D02*
X62992000Y-51943000D01*
X52974000Y-38043700D02*
X55123400Y-38043700D01*
X55123400Y-38043700D02*
X56837400Y-39757700D01*
X56837400Y-39757700D02*
X62690800Y-39757700D01*
X62690800Y-39757700D02*
X62992000Y-40058900D01*
X62992000Y-40058900D02*
X64208100Y-40058900D01*
X64208100Y-40058900D02*
X65659000Y-38608000D01*
X62992000Y-40058900D02*
X62992000Y-41275000D01*
X52974000Y-27375700D02*
X55123400Y-27375700D01*
X55123400Y-27375700D02*
X56837400Y-29089700D01*
X56837400Y-29089700D02*
X62690800Y-29089700D01*
X62690800Y-29089700D02*
X62992000Y-29390900D01*
X62992000Y-29390900D02*
X64208100Y-29390900D01*
X64208100Y-29390900D02*
X65659000Y-27940000D01*
X62992000Y-29390900D02*
X62992000Y-30607000D01*
X52974000Y-16707700D02*
X55123400Y-16707700D01*
X55123400Y-16707700D02*
X56837400Y-18421700D01*
X56837400Y-18421700D02*
X62690800Y-18421700D01*
X62690800Y-18421700D02*
X62992000Y-18722900D01*
X62992000Y-18722900D02*
X64208100Y-18722900D01*
X64208100Y-18722900D02*
X65659000Y-17272000D01*
X62992000Y-18722900D02*
X62992000Y-19939000D01*
X52974000Y-6039700D02*
X55123400Y-6039700D01*
X55123400Y-6039700D02*
X56837400Y-7753700D01*
X56837400Y-7753700D02*
X62690800Y-7753700D01*
X62690800Y-7753700D02*
X62992000Y-8054900D01*
X62992000Y-8054900D02*
X64208100Y-8054900D01*
X64208100Y-8054900D02*
X65659000Y-6604000D01*
X62992000Y-8054900D02*
X62992000Y-9271000D01*
X19446000Y-91383700D02*
X21595400Y-91383700D01*
X21595400Y-91383700D02*
X23309400Y-93097700D01*
X23309400Y-93097700D02*
X29162800Y-93097700D01*
X29162800Y-93097700D02*
X29464000Y-93398900D01*
X29464000Y-93398900D02*
X30680100Y-93398900D01*
X30680100Y-93398900D02*
X32131000Y-91948000D01*
X29464000Y-93398900D02*
X29464000Y-94615000D01*
X19446000Y-80715700D02*
X21595400Y-80715700D01*
X21595400Y-80715700D02*
X23309400Y-82429700D01*
X23309400Y-82429700D02*
X29162800Y-82429700D01*
X29162800Y-82429700D02*
X29464000Y-82730900D01*
X29464000Y-82730900D02*
X30680100Y-82730900D01*
X30680100Y-82730900D02*
X32131000Y-81280000D01*
X29464000Y-82730900D02*
X29464000Y-83947000D01*
X19446000Y-70047700D02*
X21595400Y-70047700D01*
X21595400Y-70047700D02*
X23309400Y-71761700D01*
X23309400Y-71761700D02*
X29162800Y-71761700D01*
X29162800Y-71761700D02*
X29464000Y-72062900D01*
X29464000Y-72062900D02*
X30680100Y-72062900D01*
X30680100Y-72062900D02*
X32131000Y-70612000D01*
X29464000Y-72062900D02*
X29464000Y-73279000D01*
X19446000Y-59379700D02*
X21595400Y-59379700D01*
X21595400Y-59379700D02*
X23309400Y-61093700D01*
X23309400Y-61093700D02*
X29162800Y-61093700D01*
X29162800Y-61093700D02*
X29464000Y-61394900D01*
X29464000Y-61394900D02*
X30680100Y-61394900D01*
X30680100Y-61394900D02*
X32131000Y-59944000D01*
X29464000Y-61394900D02*
X29464000Y-62611000D01*
X19446000Y-48711700D02*
X21595400Y-48711700D01*
X21595400Y-48711700D02*
X23309400Y-50425700D01*
X23309400Y-50425700D02*
X29162800Y-50425700D01*
X29162800Y-50425700D02*
X29464000Y-50726900D01*
X29464000Y-50726900D02*
X30680100Y-50726900D01*
X30680100Y-50726900D02*
X32131000Y-49276000D01*
X29464000Y-50726900D02*
X29464000Y-51943000D01*
X19446000Y-38043700D02*
X21595400Y-38043700D01*
X21595400Y-38043700D02*
X23309400Y-39757700D01*
X23309400Y-39757700D02*
X29162800Y-39757700D01*
X29162800Y-39757700D02*
X29464000Y-40058900D01*
X29464000Y-40058900D02*
X30680100Y-40058900D01*
X30680100Y-40058900D02*
X32131000Y-38608000D01*
X29464000Y-40058900D02*
X29464000Y-41275000D01*
X19446000Y-27375700D02*
X21595400Y-27375700D01*
X21595400Y-27375700D02*
X23309400Y-29089700D01*
X23309400Y-29089700D02*
X29162800Y-29089700D01*
X29162800Y-29089700D02*
X29464000Y-29390900D01*
X29464000Y-29390900D02*
X30680100Y-29390900D01*
X30680100Y-29390900D02*
X32131000Y-27940000D01*
X29464000Y-29390900D02*
X29464000Y-30607000D01*
X19446000Y-16707700D02*
X21595400Y-16707700D01*
X21595400Y-16707700D02*
X23309400Y-18421700D01*
X23309400Y-18421700D02*
X29162800Y-18421700D01*
X29162800Y-18421700D02*
X29464000Y-18722900D01*
X29464000Y-18722900D02*
X30680100Y-18722900D01*
X30680100Y-18722900D02*
X32131000Y-17272000D01*
X29464000Y-18722900D02*
X29464000Y-19939000D01*
X29464000Y-8054900D02*
X29464000Y-9271000D01*
X30680100Y-8054900D02*
X32131000Y-6604000D01*
X29464000Y-8054900D02*
X30680100Y-8054900D01*
X29162800Y-7753700D02*
X29464000Y-8054900D01*
X23309400Y-7753700D02*
X29162800Y-7753700D01*
X21595400Y-6039700D02*
X23309400Y-7753700D01*
X19446000Y-6039700D02*
X21595400Y-6039700D01*
X42672000Y-94615000D02*
X44415000Y-92872000D01*
X44415000Y-92872000D02*
X46689700Y-92872000D01*
X37592000Y-94488000D02*
X38963200Y-93116800D01*
X38963200Y-93116800D02*
X41173800Y-93116800D01*
X41173800Y-93116800D02*
X42672000Y-94615000D01*
X42672000Y-83947000D02*
X44415000Y-82204000D01*
X44415000Y-82204000D02*
X46689700Y-82204000D01*
X37592000Y-83820000D02*
X38963200Y-82448800D01*
X38963200Y-82448800D02*
X41173800Y-82448800D01*
X41173800Y-82448800D02*
X42672000Y-83947000D01*
X42672000Y-73279000D02*
X44415000Y-71536000D01*
X44415000Y-71536000D02*
X46689700Y-71536000D01*
X37592000Y-73152000D02*
X38963200Y-71780800D01*
X38963200Y-71780800D02*
X41173800Y-71780800D01*
X41173800Y-71780800D02*
X42672000Y-73279000D01*
X42672000Y-62611000D02*
X44415000Y-60868000D01*
X44415000Y-60868000D02*
X46689700Y-60868000D01*
X37592000Y-62484000D02*
X38963200Y-61112800D01*
X38963200Y-61112800D02*
X41173800Y-61112800D01*
X41173800Y-61112800D02*
X42672000Y-62611000D01*
X42672000Y-51943000D02*
X44415000Y-50200000D01*
X44415000Y-50200000D02*
X46689700Y-50200000D01*
X37592000Y-51816000D02*
X38963200Y-50444800D01*
X38963200Y-50444800D02*
X41173800Y-50444800D01*
X41173800Y-50444800D02*
X42672000Y-51943000D01*
X42672000Y-41275000D02*
X44415000Y-39532000D01*
X44415000Y-39532000D02*
X46689700Y-39532000D01*
X37592000Y-41148000D02*
X38963200Y-39776800D01*
X38963200Y-39776800D02*
X41173800Y-39776800D01*
X41173800Y-39776800D02*
X42672000Y-41275000D01*
X42672000Y-30607000D02*
X44415000Y-28864000D01*
X44415000Y-28864000D02*
X46689700Y-28864000D01*
X37592000Y-30480000D02*
X38963200Y-29108800D01*
X38963200Y-29108800D02*
X41173800Y-29108800D01*
X41173800Y-29108800D02*
X42672000Y-30607000D01*
X42672000Y-19939000D02*
X44415000Y-18196000D01*
X44415000Y-18196000D02*
X46689700Y-18196000D01*
X37592000Y-19812000D02*
X38963200Y-18440800D01*
X38963200Y-18440800D02*
X41173800Y-18440800D01*
X41173800Y-18440800D02*
X42672000Y-19939000D01*
X42672000Y-9271000D02*
X44415000Y-7528000D01*
X44415000Y-7528000D02*
X46689700Y-7528000D01*
X37592000Y-9144000D02*
X38963200Y-7772800D01*
X38963200Y-7772800D02*
X41173800Y-7772800D01*
X41173800Y-7772800D02*
X42672000Y-9271000D01*
X9144000Y-94615000D02*
X10887000Y-92872000D01*
X10887000Y-92872000D02*
X13161700Y-92872000D01*
X4064000Y-94488000D02*
X5435200Y-93116800D01*
X5435200Y-93116800D02*
X7645800Y-93116800D01*
X7645800Y-93116800D02*
X9144000Y-94615000D01*
X9144000Y-83947000D02*
X10887000Y-82204000D01*
X10887000Y-82204000D02*
X13161700Y-82204000D01*
X4064000Y-83820000D02*
X5435200Y-82448800D01*
X5435200Y-82448800D02*
X7645800Y-82448800D01*
X7645800Y-82448800D02*
X9144000Y-83947000D01*
X9144000Y-73279000D02*
X10887000Y-71536000D01*
X10887000Y-71536000D02*
X13161700Y-71536000D01*
X4064000Y-73152000D02*
X5435200Y-71780800D01*
X5435200Y-71780800D02*
X7645800Y-71780800D01*
X7645800Y-71780800D02*
X9144000Y-73279000D01*
X9144000Y-62611000D02*
X10887000Y-60868000D01*
X10887000Y-60868000D02*
X13161700Y-60868000D01*
X4064000Y-62484000D02*
X5435200Y-61112800D01*
X5435200Y-61112800D02*
X7645800Y-61112800D01*
X7645800Y-61112800D02*
X9144000Y-62611000D01*
X9144000Y-51943000D02*
X10887000Y-50200000D01*
X10887000Y-50200000D02*
X13161700Y-50200000D01*
X4064000Y-51816000D02*
X5435200Y-50444800D01*
X5435200Y-50444800D02*
X7645800Y-50444800D01*
X7645800Y-50444800D02*
X9144000Y-51943000D01*
X9144000Y-41275000D02*
X10887000Y-39532000D01*
X10887000Y-39532000D02*
X13161700Y-39532000D01*
X4064000Y-41148000D02*
X5435200Y-39776800D01*
X5435200Y-39776800D02*
X7645800Y-39776800D01*
X7645800Y-39776800D02*
X9144000Y-41275000D01*
X9144000Y-30607000D02*
X10887000Y-28864000D01*
X10887000Y-28864000D02*
X13161700Y-28864000D01*
X4064000Y-30480000D02*
X5435200Y-29108800D01*
X5435200Y-29108800D02*
X7645800Y-29108800D01*
X7645800Y-29108800D02*
X9144000Y-30607000D01*
X9144000Y-19939000D02*
X10887000Y-18196000D01*
X10887000Y-18196000D02*
X13161700Y-18196000D01*
X4064000Y-19812000D02*
X5435200Y-18440800D01*
X5435200Y-18440800D02*
X7645800Y-18440800D01*
X7645800Y-18440800D02*
X9144000Y-19939000D01*
X7645800Y-7772800D02*
X9144000Y-9271000D01*
X5435200Y-7772800D02*
X7645800Y-7772800D01*
X4064000Y-9144000D02*
X5435200Y-7772800D01*
X10887000Y-7528000D02*
X13161700Y-7528000D01*
X9144000Y-9271000D02*
X10887000Y-7528000D01*
X37592000Y-89408000D02*
X37592000Y-89749200D01*
X37592000Y-89749200D02*
X39405200Y-91562400D01*
X39405200Y-91562400D02*
X42288400Y-91562400D01*
X42288400Y-91562400D02*
X42352100Y-91498700D01*
X37592000Y-78740000D02*
X37592000Y-79081200D01*
X37592000Y-79081200D02*
X39405200Y-80894400D01*
X39405200Y-80894400D02*
X42288400Y-80894400D01*
X42288400Y-80894400D02*
X42352100Y-80830700D01*
X37592000Y-68072000D02*
X37592000Y-68413200D01*
X37592000Y-68413200D02*
X39405200Y-70226400D01*
X39405200Y-70226400D02*
X42288400Y-70226400D01*
X42288400Y-70226400D02*
X42352100Y-70162700D01*
X37592000Y-57404000D02*
X37592000Y-57745200D01*
X37592000Y-57745200D02*
X39405200Y-59558400D01*
X39405200Y-59558400D02*
X42288400Y-59558400D01*
X42288400Y-59558400D02*
X42352100Y-59494700D01*
X37592000Y-46736000D02*
X37592000Y-47077200D01*
X37592000Y-47077200D02*
X39405200Y-48890400D01*
X39405200Y-48890400D02*
X42288400Y-48890400D01*
X42288400Y-48890400D02*
X42352100Y-48826700D01*
X37592000Y-36068000D02*
X37592000Y-36409200D01*
X37592000Y-36409200D02*
X39405200Y-38222400D01*
X39405200Y-38222400D02*
X42288400Y-38222400D01*
X42288400Y-38222400D02*
X42352100Y-38158700D01*
X37592000Y-25400000D02*
X37592000Y-25741200D01*
X37592000Y-25741200D02*
X39405200Y-27554400D01*
X39405200Y-27554400D02*
X42288400Y-27554400D01*
X42288400Y-27554400D02*
X42352100Y-27490700D01*
X37592000Y-14732000D02*
X37592000Y-15073200D01*
X37592000Y-15073200D02*
X39405200Y-16886400D01*
X39405200Y-16886400D02*
X42288400Y-16886400D01*
X42288400Y-16886400D02*
X42352100Y-16822700D01*
X37592000Y-4064000D02*
X37592000Y-4405200D01*
X37592000Y-4405200D02*
X39405200Y-6218400D01*
X39405200Y-6218400D02*
X42288400Y-6218400D01*
X42288400Y-6218400D02*
X42352100Y-6154700D01*
X4064000Y-89408000D02*
X4064000Y-89749200D01*
X4064000Y-89749200D02*
X5877200Y-91562400D01*
X5877200Y-91562400D02*
X8760400Y-91562400D01*
X8760400Y-91562400D02*
X8824100Y-91498700D01*
X4064000Y-78740000D02*
X4064000Y-79081200D01*
X4064000Y-79081200D02*
X5877200Y-80894400D01*
X5877200Y-80894400D02*
X8760400Y-80894400D01*
X8760400Y-80894400D02*
X8824100Y-80830700D01*
X4064000Y-68072000D02*
X4064000Y-68413200D01*
X4064000Y-68413200D02*
X5877200Y-70226400D01*
X5877200Y-70226400D02*
X8760400Y-70226400D01*
X8760400Y-70226400D02*
X8824100Y-70162700D01*
X4064000Y-57404000D02*
X4064000Y-57745200D01*
X4064000Y-57745200D02*
X5877200Y-59558400D01*
X5877200Y-59558400D02*
X8760400Y-59558400D01*
X8760400Y-59558400D02*
X8824100Y-59494700D01*
X4064000Y-46736000D02*
X4064000Y-47077200D01*
X4064000Y-47077200D02*
X5877200Y-48890400D01*
X5877200Y-48890400D02*
X8760400Y-48890400D01*
X8760400Y-48890400D02*
X8824100Y-48826700D01*
X4064000Y-36068000D02*
X4064000Y-36409200D01*
X4064000Y-36409200D02*
X5877200Y-38222400D01*
X5877200Y-38222400D02*
X8760400Y-38222400D01*
X8760400Y-38222400D02*
X8824100Y-38158700D01*
X4064000Y-25400000D02*
X4064000Y-25741200D01*
X4064000Y-25741200D02*
X5877200Y-27554400D01*
X5877200Y-27554400D02*
X8760400Y-27554400D01*
X8760400Y-27554400D02*
X8824100Y-27490700D01*
X4064000Y-14732000D02*
X4064000Y-15073200D01*
X4064000Y-15073200D02*
X5877200Y-16886400D01*
X5877200Y-16886400D02*
X8760400Y-16886400D01*
X8760400Y-16886400D02*
X8824100Y-16822700D01*
X8760400Y-6218400D02*
X8824100Y-6154700D01*
X5877200Y-6218400D02*
X8760400Y-6218400D01*
X4064000Y-4405200D02*
X5877200Y-6218400D01*
X4064000Y-4064000D02*
X4064000Y-4405200D01*
X50476600Y-91392400D02*
X43231300Y-91392400D01*
X43231300Y-91392400D02*
X42578600Y-92045100D01*
X42578600Y-92045100D02*
X39456200Y-92045100D01*
X39456200Y-92045100D02*
X38089100Y-90678000D01*
X38089100Y-90678000D02*
X36322000Y-90678000D01*
X36322000Y-90678000D02*
X35052000Y-89408000D01*
X50476600Y-80724400D02*
X43231300Y-80724400D01*
X43231300Y-80724400D02*
X42578600Y-81377100D01*
X42578600Y-81377100D02*
X39456200Y-81377100D01*
X39456200Y-81377100D02*
X38089100Y-80010000D01*
X38089100Y-80010000D02*
X36322000Y-80010000D01*
X36322000Y-80010000D02*
X35052000Y-78740000D01*
X50476600Y-70056400D02*
X43231300Y-70056400D01*
X43231300Y-70056400D02*
X42578600Y-70709100D01*
X42578600Y-70709100D02*
X39456200Y-70709100D01*
X39456200Y-70709100D02*
X38089100Y-69342000D01*
X38089100Y-69342000D02*
X36322000Y-69342000D01*
X36322000Y-69342000D02*
X35052000Y-68072000D01*
X50476600Y-59388400D02*
X43231300Y-59388400D01*
X43231300Y-59388400D02*
X42578600Y-60041100D01*
X42578600Y-60041100D02*
X39456200Y-60041100D01*
X39456200Y-60041100D02*
X38089100Y-58674000D01*
X38089100Y-58674000D02*
X36322000Y-58674000D01*
X36322000Y-58674000D02*
X35052000Y-57404000D01*
X50476600Y-48720400D02*
X43231300Y-48720400D01*
X43231300Y-48720400D02*
X42578600Y-49373100D01*
X42578600Y-49373100D02*
X39456200Y-49373100D01*
X39456200Y-49373100D02*
X38089100Y-48006000D01*
X38089100Y-48006000D02*
X36322000Y-48006000D01*
X36322000Y-48006000D02*
X35052000Y-46736000D01*
X50476600Y-38052400D02*
X43231300Y-38052400D01*
X43231300Y-38052400D02*
X42578600Y-38705100D01*
X42578600Y-38705100D02*
X39456200Y-38705100D01*
X39456200Y-38705100D02*
X38089100Y-37338000D01*
X38089100Y-37338000D02*
X36322000Y-37338000D01*
X36322000Y-37338000D02*
X35052000Y-36068000D01*
X50476600Y-27384400D02*
X43231300Y-27384400D01*
X43231300Y-27384400D02*
X42578600Y-28037100D01*
X42578600Y-28037100D02*
X39456200Y-28037100D01*
X39456200Y-28037100D02*
X38089100Y-26670000D01*
X38089100Y-26670000D02*
X36322000Y-26670000D01*
X36322000Y-26670000D02*
X35052000Y-25400000D01*
X50476600Y-16716400D02*
X43231300Y-16716400D01*
X43231300Y-16716400D02*
X42578600Y-17369100D01*
X42578600Y-17369100D02*
X39456200Y-17369100D01*
X39456200Y-17369100D02*
X38089100Y-16002000D01*
X38089100Y-16002000D02*
X36322000Y-16002000D01*
X36322000Y-16002000D02*
X35052000Y-14732000D01*
X50476600Y-6048400D02*
X43231300Y-6048400D01*
X43231300Y-6048400D02*
X42578600Y-6701100D01*
X42578600Y-6701100D02*
X39456200Y-6701100D01*
X39456200Y-6701100D02*
X38089100Y-5334000D01*
X38089100Y-5334000D02*
X36322000Y-5334000D01*
X36322000Y-5334000D02*
X35052000Y-4064000D01*
X16948600Y-91392400D02*
X9703300Y-91392400D01*
X9703300Y-91392400D02*
X9050600Y-92045100D01*
X9050600Y-92045100D02*
X5928200Y-92045100D01*
X5928200Y-92045100D02*
X4561100Y-90678000D01*
X4561100Y-90678000D02*
X2794000Y-90678000D01*
X2794000Y-90678000D02*
X1524000Y-89408000D01*
X16948600Y-80724400D02*
X9703300Y-80724400D01*
X9703300Y-80724400D02*
X9050600Y-81377100D01*
X9050600Y-81377100D02*
X5928200Y-81377100D01*
X5928200Y-81377100D02*
X4561100Y-80010000D01*
X4561100Y-80010000D02*
X2794000Y-80010000D01*
X2794000Y-80010000D02*
X1524000Y-78740000D01*
X16948600Y-70056400D02*
X9703300Y-70056400D01*
X9703300Y-70056400D02*
X9050600Y-70709100D01*
X9050600Y-70709100D02*
X5928200Y-70709100D01*
X5928200Y-70709100D02*
X4561100Y-69342000D01*
X4561100Y-69342000D02*
X2794000Y-69342000D01*
X2794000Y-69342000D02*
X1524000Y-68072000D01*
X16948600Y-59388400D02*
X9703300Y-59388400D01*
X9703300Y-59388400D02*
X9050600Y-60041100D01*
X9050600Y-60041100D02*
X5928200Y-60041100D01*
X5928200Y-60041100D02*
X4561100Y-58674000D01*
X4561100Y-58674000D02*
X2794000Y-58674000D01*
X2794000Y-58674000D02*
X1524000Y-57404000D01*
X16948600Y-48720400D02*
X9703300Y-48720400D01*
X9703300Y-48720400D02*
X9050600Y-49373100D01*
X9050600Y-49373100D02*
X5928200Y-49373100D01*
X5928200Y-49373100D02*
X4561100Y-48006000D01*
X4561100Y-48006000D02*
X2794000Y-48006000D01*
X2794000Y-48006000D02*
X1524000Y-46736000D01*
X16948600Y-38052400D02*
X9703300Y-38052400D01*
X9703300Y-38052400D02*
X9050600Y-38705100D01*
X9050600Y-38705100D02*
X5928200Y-38705100D01*
X5928200Y-38705100D02*
X4561100Y-37338000D01*
X4561100Y-37338000D02*
X2794000Y-37338000D01*
X2794000Y-37338000D02*
X1524000Y-36068000D01*
X16948600Y-27384400D02*
X9703300Y-27384400D01*
X9703300Y-27384400D02*
X9050600Y-28037100D01*
X9050600Y-28037100D02*
X5928200Y-28037100D01*
X5928200Y-28037100D02*
X4561100Y-26670000D01*
X4561100Y-26670000D02*
X2794000Y-26670000D01*
X2794000Y-26670000D02*
X1524000Y-25400000D01*
X16948600Y-16716400D02*
X9703300Y-16716400D01*
X9703300Y-16716400D02*
X9050600Y-17369100D01*
X9050600Y-17369100D02*
X5928200Y-17369100D01*
X5928200Y-17369100D02*
X4561100Y-16002000D01*
X4561100Y-16002000D02*
X2794000Y-16002000D01*
X2794000Y-16002000D02*
X1524000Y-14732000D01*
X2794000Y-5334000D02*
X1524000Y-4064000D01*
X4561100Y-5334000D02*
X2794000Y-5334000D01*
X5928200Y-6701100D02*
X4561100Y-5334000D01*
X9050600Y-6701100D02*
X5928200Y-6701100D01*
X9703300Y-6048400D02*
X9050600Y-6701100D01*
X16948600Y-6048400D02*
X9703300Y-6048400D01*
X55372000Y-86741000D02*
X53856900Y-88256100D01*
X53856900Y-88256100D02*
X51822700Y-88256100D01*
X51822700Y-88256100D02*
X51791900Y-88286900D01*
X55372000Y-76073000D02*
X53856900Y-77588100D01*
X53856900Y-77588100D02*
X51822700Y-77588100D01*
X51822700Y-77588100D02*
X51791900Y-77618900D01*
X55372000Y-65405000D02*
X53856900Y-66920100D01*
X53856900Y-66920100D02*
X51822700Y-66920100D01*
X51822700Y-66920100D02*
X51791900Y-66950900D01*
X55372000Y-54737000D02*
X53856900Y-56252100D01*
X53856900Y-56252100D02*
X51822700Y-56252100D01*
X51822700Y-56252100D02*
X51791900Y-56282900D01*
X55372000Y-44069000D02*
X53856900Y-45584100D01*
X53856900Y-45584100D02*
X51822700Y-45584100D01*
X51822700Y-45584100D02*
X51791900Y-45614900D01*
X55372000Y-33401000D02*
X53856900Y-34916100D01*
X53856900Y-34916100D02*
X51822700Y-34916100D01*
X51822700Y-34916100D02*
X51791900Y-34946900D01*
X55372000Y-22733000D02*
X53856900Y-24248100D01*
X53856900Y-24248100D02*
X51822700Y-24248100D01*
X51822700Y-24248100D02*
X51791900Y-24278900D01*
X55372000Y-12065000D02*
X53856900Y-13580100D01*
X53856900Y-13580100D02*
X51822700Y-13580100D01*
X51822700Y-13580100D02*
X51791900Y-13610900D01*
X55372000Y-1397000D02*
X53856900Y-2912100D01*
X53856900Y-2912100D02*
X51822700Y-2912100D01*
X51822700Y-2912100D02*
X51791900Y-2942900D01*
X21844000Y-86741000D02*
X20328900Y-88256100D01*
X20328900Y-88256100D02*
X18294700Y-88256100D01*
X18294700Y-88256100D02*
X18263900Y-88286900D01*
X21844000Y-76073000D02*
X20328900Y-77588100D01*
X20328900Y-77588100D02*
X18294700Y-77588100D01*
X18294700Y-77588100D02*
X18263900Y-77618900D01*
X21844000Y-65405000D02*
X20328900Y-66920100D01*
X20328900Y-66920100D02*
X18294700Y-66920100D01*
X18294700Y-66920100D02*
X18263900Y-66950900D01*
X21844000Y-54737000D02*
X20328900Y-56252100D01*
X20328900Y-56252100D02*
X18294700Y-56252100D01*
X18294700Y-56252100D02*
X18263900Y-56282900D01*
X21844000Y-44069000D02*
X20328900Y-45584100D01*
X20328900Y-45584100D02*
X18294700Y-45584100D01*
X18294700Y-45584100D02*
X18263900Y-45614900D01*
X21844000Y-33401000D02*
X20328900Y-34916100D01*
X20328900Y-34916100D02*
X18294700Y-34916100D01*
X18294700Y-34916100D02*
X18263900Y-34946900D01*
X21844000Y-22733000D02*
X20328900Y-24248100D01*
X20328900Y-24248100D02*
X18294700Y-24248100D01*
X18294700Y-24248100D02*
X18263900Y-24278900D01*
X21844000Y-12065000D02*
X20328900Y-13580100D01*
X20328900Y-13580100D02*
X18294700Y-13580100D01*
X18294700Y-13580100D02*
X18263900Y-13610900D01*
X18294700Y-2912100D02*
X18263900Y-2942900D01*
X20328900Y-2912100D02*
X18294700Y-2912100D01*
X21844000Y-1397000D02*
X20328900Y-2912100D01*
X60452000Y-86741000D02*
X58631600Y-88561400D01*
X58631600Y-88561400D02*
X53517400Y-88561400D01*
X53517400Y-88561400D02*
X52856000Y-89222800D01*
X60452000Y-76073000D02*
X58631600Y-77893400D01*
X58631600Y-77893400D02*
X53517400Y-77893400D01*
X53517400Y-77893400D02*
X52856000Y-78554800D01*
X60452000Y-65405000D02*
X58631600Y-67225400D01*
X58631600Y-67225400D02*
X53517400Y-67225400D01*
X53517400Y-67225400D02*
X52856000Y-67886800D01*
X60452000Y-54737000D02*
X58631600Y-56557400D01*
X58631600Y-56557400D02*
X53517400Y-56557400D01*
X53517400Y-56557400D02*
X52856000Y-57218800D01*
X60452000Y-44069000D02*
X58631600Y-45889400D01*
X58631600Y-45889400D02*
X53517400Y-45889400D01*
X53517400Y-45889400D02*
X52856000Y-46550800D01*
X60452000Y-33401000D02*
X58631600Y-35221400D01*
X58631600Y-35221400D02*
X53517400Y-35221400D01*
X53517400Y-35221400D02*
X52856000Y-35882800D01*
X60452000Y-22733000D02*
X58631600Y-24553400D01*
X58631600Y-24553400D02*
X53517400Y-24553400D01*
X53517400Y-24553400D02*
X52856000Y-25214800D01*
X60452000Y-12065000D02*
X58631600Y-13885400D01*
X58631600Y-13885400D02*
X53517400Y-13885400D01*
X53517400Y-13885400D02*
X52856000Y-14546800D01*
X60452000Y-1397000D02*
X58631600Y-3217400D01*
X58631600Y-3217400D02*
X53517400Y-3217400D01*
X53517400Y-3217400D02*
X52856000Y-3878800D01*
X26924000Y-86741000D02*
X25103600Y-88561400D01*
X25103600Y-88561400D02*
X19989400Y-88561400D01*
X19989400Y-88561400D02*
X19328000Y-89222800D01*
X26924000Y-76073000D02*
X25103600Y-77893400D01*
X25103600Y-77893400D02*
X19989400Y-77893400D01*
X19989400Y-77893400D02*
X19328000Y-78554800D01*
X26924000Y-65405000D02*
X25103600Y-67225400D01*
X25103600Y-67225400D02*
X19989400Y-67225400D01*
X19989400Y-67225400D02*
X19328000Y-67886800D01*
X26924000Y-54737000D02*
X25103600Y-56557400D01*
X25103600Y-56557400D02*
X19989400Y-56557400D01*
X19989400Y-56557400D02*
X19328000Y-57218800D01*
X26924000Y-44069000D02*
X25103600Y-45889400D01*
X25103600Y-45889400D02*
X19989400Y-45889400D01*
X19989400Y-45889400D02*
X19328000Y-46550800D01*
X26924000Y-33401000D02*
X25103600Y-35221400D01*
X25103600Y-35221400D02*
X19989400Y-35221400D01*
X19989400Y-35221400D02*
X19328000Y-35882800D01*
X26924000Y-22733000D02*
X25103600Y-24553400D01*
X25103600Y-24553400D02*
X19989400Y-24553400D01*
X19989400Y-24553400D02*
X19328000Y-25214800D01*
X26924000Y-12065000D02*
X25103600Y-13885400D01*
X25103600Y-13885400D02*
X19989400Y-13885400D01*
X19989400Y-13885400D02*
X19328000Y-14546800D01*
X19989400Y-3217400D02*
X19328000Y-3878800D01*
X25103600Y-3217400D02*
X19989400Y-3217400D01*
X26924000Y-1397000D02*
X25103600Y-3217400D01*
X62992000Y-86995000D02*
X60636000Y-89351000D01*
X60636000Y-89351000D02*
X55946200Y-89351000D01*
X62992000Y-76327000D02*
X60636000Y-78683000D01*
X60636000Y-78683000D02*
X55946200Y-78683000D01*
X62992000Y-65659000D02*
X60636000Y-68015000D01*
X60636000Y-68015000D02*
X55946200Y-68015000D01*
X62992000Y-54991000D02*
X60636000Y-57347000D01*
X60636000Y-57347000D02*
X55946200Y-57347000D01*
X62992000Y-44323000D02*
X60636000Y-46679000D01*
X60636000Y-46679000D02*
X55946200Y-46679000D01*
X62992000Y-33655000D02*
X60636000Y-36011000D01*
X60636000Y-36011000D02*
X55946200Y-36011000D01*
X62992000Y-22987000D02*
X60636000Y-25343000D01*
X60636000Y-25343000D02*
X55946200Y-25343000D01*
X62992000Y-12319000D02*
X60636000Y-14675000D01*
X60636000Y-14675000D02*
X55946200Y-14675000D01*
X62992000Y-1651000D02*
X60636000Y-4007000D01*
X60636000Y-4007000D02*
X55946200Y-4007000D01*
X29464000Y-86995000D02*
X27108000Y-89351000D01*
X27108000Y-89351000D02*
X22418200Y-89351000D01*
X29464000Y-76327000D02*
X27108000Y-78683000D01*
X27108000Y-78683000D02*
X22418200Y-78683000D01*
X29464000Y-65659000D02*
X27108000Y-68015000D01*
X27108000Y-68015000D02*
X22418200Y-68015000D01*
X29464000Y-54991000D02*
X27108000Y-57347000D01*
X27108000Y-57347000D02*
X22418200Y-57347000D01*
X29464000Y-44323000D02*
X27108000Y-46679000D01*
X27108000Y-46679000D02*
X22418200Y-46679000D01*
X29464000Y-33655000D02*
X27108000Y-36011000D01*
X27108000Y-36011000D02*
X22418200Y-36011000D01*
X29464000Y-22987000D02*
X27108000Y-25343000D01*
X27108000Y-25343000D02*
X22418200Y-25343000D01*
X29464000Y-12319000D02*
X27108000Y-14675000D01*
X27108000Y-14675000D02*
X22418200Y-14675000D01*
X27108000Y-4007000D02*
X22418200Y-4007000D01*
X29464000Y-1651000D02*
X27108000Y-4007000D01*
X51055500Y-90839200D02*
X51225100Y-90839200D01*
X51225100Y-90839200D02*
X52712700Y-92326800D01*
X52712700Y-92326800D02*
X54235700Y-92326800D01*
X54235700Y-92326800D02*
X54509500Y-92600600D01*
X54509500Y-92600600D02*
X55897700Y-92600600D01*
X55897700Y-92600600D02*
X56700100Y-93403000D01*
X56700100Y-93403000D02*
X59494000Y-93403000D01*
X59494000Y-93403000D02*
X60452000Y-94361000D01*
X51055500Y-90839200D02*
X39808400Y-90839200D01*
X39808400Y-90839200D02*
X39631600Y-91016000D01*
X51055500Y-80171200D02*
X51225100Y-80171200D01*
X51225100Y-80171200D02*
X52712700Y-81658800D01*
X52712700Y-81658800D02*
X54235700Y-81658800D01*
X54235700Y-81658800D02*
X54509500Y-81932600D01*
X54509500Y-81932600D02*
X55897700Y-81932600D01*
X55897700Y-81932600D02*
X56700100Y-82735000D01*
X56700100Y-82735000D02*
X59494000Y-82735000D01*
X59494000Y-82735000D02*
X60452000Y-83693000D01*
X51055500Y-80171200D02*
X39808400Y-80171200D01*
X39808400Y-80171200D02*
X39631600Y-80348000D01*
X51055500Y-69503200D02*
X51225100Y-69503200D01*
X51225100Y-69503200D02*
X52712700Y-70990800D01*
X52712700Y-70990800D02*
X54235700Y-70990800D01*
X54235700Y-70990800D02*
X54509500Y-71264600D01*
X54509500Y-71264600D02*
X55897700Y-71264600D01*
X55897700Y-71264600D02*
X56700100Y-72067000D01*
X56700100Y-72067000D02*
X59494000Y-72067000D01*
X59494000Y-72067000D02*
X60452000Y-73025000D01*
X51055500Y-69503200D02*
X39808400Y-69503200D01*
X39808400Y-69503200D02*
X39631600Y-69680000D01*
X51055500Y-58835200D02*
X51225100Y-58835200D01*
X51225100Y-58835200D02*
X52712700Y-60322800D01*
X52712700Y-60322800D02*
X54235700Y-60322800D01*
X54235700Y-60322800D02*
X54509500Y-60596600D01*
X54509500Y-60596600D02*
X55897700Y-60596600D01*
X55897700Y-60596600D02*
X56700100Y-61399000D01*
X56700100Y-61399000D02*
X59494000Y-61399000D01*
X59494000Y-61399000D02*
X60452000Y-62357000D01*
X51055500Y-58835200D02*
X39808400Y-58835200D01*
X39808400Y-58835200D02*
X39631600Y-59012000D01*
X51055500Y-48167200D02*
X51225100Y-48167200D01*
X51225100Y-48167200D02*
X52712700Y-49654800D01*
X52712700Y-49654800D02*
X54235700Y-49654800D01*
X54235700Y-49654800D02*
X54509500Y-49928600D01*
X54509500Y-49928600D02*
X55897700Y-49928600D01*
X55897700Y-49928600D02*
X56700100Y-50731000D01*
X56700100Y-50731000D02*
X59494000Y-50731000D01*
X59494000Y-50731000D02*
X60452000Y-51689000D01*
X51055500Y-48167200D02*
X39808400Y-48167200D01*
X39808400Y-48167200D02*
X39631600Y-48344000D01*
X51055500Y-37499200D02*
X51225100Y-37499200D01*
X51225100Y-37499200D02*
X52712700Y-38986800D01*
X52712700Y-38986800D02*
X54235700Y-38986800D01*
X54235700Y-38986800D02*
X54509500Y-39260600D01*
X54509500Y-39260600D02*
X55897700Y-39260600D01*
X55897700Y-39260600D02*
X56700100Y-40063000D01*
X56700100Y-40063000D02*
X59494000Y-40063000D01*
X59494000Y-40063000D02*
X60452000Y-41021000D01*
X51055500Y-37499200D02*
X39808400Y-37499200D01*
X39808400Y-37499200D02*
X39631600Y-37676000D01*
X51055500Y-26831200D02*
X51225100Y-26831200D01*
X51225100Y-26831200D02*
X52712700Y-28318800D01*
X52712700Y-28318800D02*
X54235700Y-28318800D01*
X54235700Y-28318800D02*
X54509500Y-28592600D01*
X54509500Y-28592600D02*
X55897700Y-28592600D01*
X55897700Y-28592600D02*
X56700100Y-29395000D01*
X56700100Y-29395000D02*
X59494000Y-29395000D01*
X59494000Y-29395000D02*
X60452000Y-30353000D01*
X51055500Y-26831200D02*
X39808400Y-26831200D01*
X39808400Y-26831200D02*
X39631600Y-27008000D01*
X51055500Y-16163200D02*
X51225100Y-16163200D01*
X51225100Y-16163200D02*
X52712700Y-17650800D01*
X52712700Y-17650800D02*
X54235700Y-17650800D01*
X54235700Y-17650800D02*
X54509500Y-17924600D01*
X54509500Y-17924600D02*
X55897700Y-17924600D01*
X55897700Y-17924600D02*
X56700100Y-18727000D01*
X56700100Y-18727000D02*
X59494000Y-18727000D01*
X59494000Y-18727000D02*
X60452000Y-19685000D01*
X51055500Y-16163200D02*
X39808400Y-16163200D01*
X39808400Y-16163200D02*
X39631600Y-16340000D01*
X51055500Y-5495200D02*
X51225100Y-5495200D01*
X51225100Y-5495200D02*
X52712700Y-6982800D01*
X52712700Y-6982800D02*
X54235700Y-6982800D01*
X54235700Y-6982800D02*
X54509500Y-7256600D01*
X54509500Y-7256600D02*
X55897700Y-7256600D01*
X55897700Y-7256600D02*
X56700100Y-8059000D01*
X56700100Y-8059000D02*
X59494000Y-8059000D01*
X59494000Y-8059000D02*
X60452000Y-9017000D01*
X51055500Y-5495200D02*
X39808400Y-5495200D01*
X39808400Y-5495200D02*
X39631600Y-5672000D01*
X17527500Y-90839200D02*
X17697100Y-90839200D01*
X17697100Y-90839200D02*
X19184700Y-92326800D01*
X19184700Y-92326800D02*
X20707700Y-92326800D01*
X20707700Y-92326800D02*
X20981500Y-92600600D01*
X20981500Y-92600600D02*
X22369700Y-92600600D01*
X22369700Y-92600600D02*
X23172100Y-93403000D01*
X23172100Y-93403000D02*
X25966000Y-93403000D01*
X25966000Y-93403000D02*
X26924000Y-94361000D01*
X17527500Y-90839200D02*
X6280400Y-90839200D01*
X6280400Y-90839200D02*
X6103600Y-91016000D01*
X17527500Y-80171200D02*
X17697100Y-80171200D01*
X17697100Y-80171200D02*
X19184700Y-81658800D01*
X19184700Y-81658800D02*
X20707700Y-81658800D01*
X20707700Y-81658800D02*
X20981500Y-81932600D01*
X20981500Y-81932600D02*
X22369700Y-81932600D01*
X22369700Y-81932600D02*
X23172100Y-82735000D01*
X23172100Y-82735000D02*
X25966000Y-82735000D01*
X25966000Y-82735000D02*
X26924000Y-83693000D01*
X17527500Y-80171200D02*
X6280400Y-80171200D01*
X6280400Y-80171200D02*
X6103600Y-80348000D01*
X17527500Y-69503200D02*
X17697100Y-69503200D01*
X17697100Y-69503200D02*
X19184700Y-70990800D01*
X19184700Y-70990800D02*
X20707700Y-70990800D01*
X20707700Y-70990800D02*
X20981500Y-71264600D01*
X20981500Y-71264600D02*
X22369700Y-71264600D01*
X22369700Y-71264600D02*
X23172100Y-72067000D01*
X23172100Y-72067000D02*
X25966000Y-72067000D01*
X25966000Y-72067000D02*
X26924000Y-73025000D01*
X17527500Y-69503200D02*
X6280400Y-69503200D01*
X6280400Y-69503200D02*
X6103600Y-69680000D01*
X17527500Y-58835200D02*
X17697100Y-58835200D01*
X17697100Y-58835200D02*
X19184700Y-60322800D01*
X19184700Y-60322800D02*
X20707700Y-60322800D01*
X20707700Y-60322800D02*
X20981500Y-60596600D01*
X20981500Y-60596600D02*
X22369700Y-60596600D01*
X22369700Y-60596600D02*
X23172100Y-61399000D01*
X23172100Y-61399000D02*
X25966000Y-61399000D01*
X25966000Y-61399000D02*
X26924000Y-62357000D01*
X17527500Y-58835200D02*
X6280400Y-58835200D01*
X6280400Y-58835200D02*
X6103600Y-59012000D01*
X17527500Y-48167200D02*
X17697100Y-48167200D01*
X17697100Y-48167200D02*
X19184700Y-49654800D01*
X19184700Y-49654800D02*
X20707700Y-49654800D01*
X20707700Y-49654800D02*
X20981500Y-49928600D01*
X20981500Y-49928600D02*
X22369700Y-49928600D01*
X22369700Y-49928600D02*
X23172100Y-50731000D01*
X23172100Y-50731000D02*
X25966000Y-50731000D01*
X25966000Y-50731000D02*
X26924000Y-51689000D01*
X17527500Y-48167200D02*
X6280400Y-48167200D01*
X6280400Y-48167200D02*
X6103600Y-48344000D01*
X17527500Y-37499200D02*
X17697100Y-37499200D01*
X17697100Y-37499200D02*
X19184700Y-38986800D01*
X19184700Y-38986800D02*
X20707700Y-38986800D01*
X20707700Y-38986800D02*
X20981500Y-39260600D01*
X20981500Y-39260600D02*
X22369700Y-39260600D01*
X22369700Y-39260600D02*
X23172100Y-40063000D01*
X23172100Y-40063000D02*
X25966000Y-40063000D01*
X25966000Y-40063000D02*
X26924000Y-41021000D01*
X17527500Y-37499200D02*
X6280400Y-37499200D01*
X6280400Y-37499200D02*
X6103600Y-37676000D01*
X17527500Y-26831200D02*
X17697100Y-26831200D01*
X17697100Y-26831200D02*
X19184700Y-28318800D01*
X19184700Y-28318800D02*
X20707700Y-28318800D01*
X20707700Y-28318800D02*
X20981500Y-28592600D01*
X20981500Y-28592600D02*
X22369700Y-28592600D01*
X22369700Y-28592600D02*
X23172100Y-29395000D01*
X23172100Y-29395000D02*
X25966000Y-29395000D01*
X25966000Y-29395000D02*
X26924000Y-30353000D01*
X17527500Y-26831200D02*
X6280400Y-26831200D01*
X6280400Y-26831200D02*
X6103600Y-27008000D01*
X17527500Y-16163200D02*
X17697100Y-16163200D01*
X17697100Y-16163200D02*
X19184700Y-17650800D01*
X19184700Y-17650800D02*
X20707700Y-17650800D01*
X20707700Y-17650800D02*
X20981500Y-17924600D01*
X20981500Y-17924600D02*
X22369700Y-17924600D01*
X22369700Y-17924600D02*
X23172100Y-18727000D01*
X23172100Y-18727000D02*
X25966000Y-18727000D01*
X25966000Y-18727000D02*
X26924000Y-19685000D01*
X17527500Y-16163200D02*
X6280400Y-16163200D01*
X6280400Y-16163200D02*
X6103600Y-16340000D01*
X6280400Y-5495200D02*
X6103600Y-5672000D01*
X17527500Y-5495200D02*
X6280400Y-5495200D01*
X25966000Y-8059000D02*
X26924000Y-9017000D01*
X23172100Y-8059000D02*
X25966000Y-8059000D01*
X22369700Y-7256600D02*
X23172100Y-8059000D01*
X20981500Y-7256600D02*
X22369700Y-7256600D01*
X20707700Y-6982800D02*
X20981500Y-7256600D01*
X19184700Y-6982800D02*
X20707700Y-6982800D01*
X17697100Y-5495200D02*
X19184700Y-6982800D01*
X17527500Y-5495200D02*
X17697100Y-5495200D01*
X52306900Y-92693900D02*
X52367100Y-92633700D01*
X52367100Y-92633700D02*
X54111000Y-92633700D01*
X54111000Y-92633700D02*
X54383000Y-92905700D01*
X54383000Y-92905700D02*
X55771100Y-92905700D01*
X55771100Y-92905700D02*
X57480400Y-94615000D01*
X57480400Y-94615000D02*
X57912000Y-94615000D01*
X37592000Y-91948000D02*
X37994200Y-92350200D01*
X37994200Y-92350200D02*
X42705100Y-92350200D01*
X42705100Y-92350200D02*
X43050200Y-92005100D01*
X43050200Y-92005100D02*
X51618100Y-92005100D01*
X51618100Y-92005100D02*
X52306900Y-92693900D01*
X52306900Y-82025900D02*
X52367100Y-81965700D01*
X52367100Y-81965700D02*
X54111000Y-81965700D01*
X54111000Y-81965700D02*
X54383000Y-82237700D01*
X54383000Y-82237700D02*
X55771100Y-82237700D01*
X55771100Y-82237700D02*
X57480400Y-83947000D01*
X57480400Y-83947000D02*
X57912000Y-83947000D01*
X37592000Y-81280000D02*
X37994200Y-81682200D01*
X37994200Y-81682200D02*
X42705100Y-81682200D01*
X42705100Y-81682200D02*
X43050200Y-81337100D01*
X43050200Y-81337100D02*
X51618100Y-81337100D01*
X51618100Y-81337100D02*
X52306900Y-82025900D01*
X52306900Y-71357900D02*
X52367100Y-71297700D01*
X52367100Y-71297700D02*
X54111000Y-71297700D01*
X54111000Y-71297700D02*
X54383000Y-71569700D01*
X54383000Y-71569700D02*
X55771100Y-71569700D01*
X55771100Y-71569700D02*
X57480400Y-73279000D01*
X57480400Y-73279000D02*
X57912000Y-73279000D01*
X37592000Y-70612000D02*
X37994200Y-71014200D01*
X37994200Y-71014200D02*
X42705100Y-71014200D01*
X42705100Y-71014200D02*
X43050200Y-70669100D01*
X43050200Y-70669100D02*
X51618100Y-70669100D01*
X51618100Y-70669100D02*
X52306900Y-71357900D01*
X52306900Y-60689900D02*
X52367100Y-60629700D01*
X52367100Y-60629700D02*
X54111000Y-60629700D01*
X54111000Y-60629700D02*
X54383000Y-60901700D01*
X54383000Y-60901700D02*
X55771100Y-60901700D01*
X55771100Y-60901700D02*
X57480400Y-62611000D01*
X57480400Y-62611000D02*
X57912000Y-62611000D01*
X37592000Y-59944000D02*
X37994200Y-60346200D01*
X37994200Y-60346200D02*
X42705100Y-60346200D01*
X42705100Y-60346200D02*
X43050200Y-60001100D01*
X43050200Y-60001100D02*
X51618100Y-60001100D01*
X51618100Y-60001100D02*
X52306900Y-60689900D01*
X52306900Y-50021900D02*
X52367100Y-49961700D01*
X52367100Y-49961700D02*
X54111000Y-49961700D01*
X54111000Y-49961700D02*
X54383000Y-50233700D01*
X54383000Y-50233700D02*
X55771100Y-50233700D01*
X55771100Y-50233700D02*
X57480400Y-51943000D01*
X57480400Y-51943000D02*
X57912000Y-51943000D01*
X37592000Y-49276000D02*
X37994200Y-49678200D01*
X37994200Y-49678200D02*
X42705100Y-49678200D01*
X42705100Y-49678200D02*
X43050200Y-49333100D01*
X43050200Y-49333100D02*
X51618100Y-49333100D01*
X51618100Y-49333100D02*
X52306900Y-50021900D01*
X52306900Y-39353900D02*
X52367100Y-39293700D01*
X52367100Y-39293700D02*
X54111000Y-39293700D01*
X54111000Y-39293700D02*
X54383000Y-39565700D01*
X54383000Y-39565700D02*
X55771100Y-39565700D01*
X55771100Y-39565700D02*
X57480400Y-41275000D01*
X57480400Y-41275000D02*
X57912000Y-41275000D01*
X37592000Y-38608000D02*
X37994200Y-39010200D01*
X37994200Y-39010200D02*
X42705100Y-39010200D01*
X42705100Y-39010200D02*
X43050200Y-38665100D01*
X43050200Y-38665100D02*
X51618100Y-38665100D01*
X51618100Y-38665100D02*
X52306900Y-39353900D01*
X52306900Y-28685900D02*
X52367100Y-28625700D01*
X52367100Y-28625700D02*
X54111000Y-28625700D01*
X54111000Y-28625700D02*
X54383000Y-28897700D01*
X54383000Y-28897700D02*
X55771100Y-28897700D01*
X55771100Y-28897700D02*
X57480400Y-30607000D01*
X57480400Y-30607000D02*
X57912000Y-30607000D01*
X37592000Y-27940000D02*
X37994200Y-28342200D01*
X37994200Y-28342200D02*
X42705100Y-28342200D01*
X42705100Y-28342200D02*
X43050200Y-27997100D01*
X43050200Y-27997100D02*
X51618100Y-27997100D01*
X51618100Y-27997100D02*
X52306900Y-28685900D01*
X52306900Y-18017900D02*
X52367100Y-17957700D01*
X52367100Y-17957700D02*
X54111000Y-17957700D01*
X54111000Y-17957700D02*
X54383000Y-18229700D01*
X54383000Y-18229700D02*
X55771100Y-18229700D01*
X55771100Y-18229700D02*
X57480400Y-19939000D01*
X57480400Y-19939000D02*
X57912000Y-19939000D01*
X37592000Y-17272000D02*
X37994200Y-17674200D01*
X37994200Y-17674200D02*
X42705100Y-17674200D01*
X42705100Y-17674200D02*
X43050200Y-17329100D01*
X43050200Y-17329100D02*
X51618100Y-17329100D01*
X51618100Y-17329100D02*
X52306900Y-18017900D01*
X52306900Y-7349900D02*
X52367100Y-7289700D01*
X52367100Y-7289700D02*
X54111000Y-7289700D01*
X54111000Y-7289700D02*
X54383000Y-7561700D01*
X54383000Y-7561700D02*
X55771100Y-7561700D01*
X55771100Y-7561700D02*
X57480400Y-9271000D01*
X57480400Y-9271000D02*
X57912000Y-9271000D01*
X37592000Y-6604000D02*
X37994200Y-7006200D01*
X37994200Y-7006200D02*
X42705100Y-7006200D01*
X42705100Y-7006200D02*
X43050200Y-6661100D01*
X43050200Y-6661100D02*
X51618100Y-6661100D01*
X51618100Y-6661100D02*
X52306900Y-7349900D01*
X18778900Y-92693900D02*
X18839100Y-92633700D01*
X18839100Y-92633700D02*
X20583000Y-92633700D01*
X20583000Y-92633700D02*
X20855000Y-92905700D01*
X20855000Y-92905700D02*
X22243100Y-92905700D01*
X22243100Y-92905700D02*
X23952400Y-94615000D01*
X23952400Y-94615000D02*
X24384000Y-94615000D01*
X4064000Y-91948000D02*
X4466200Y-92350200D01*
X4466200Y-92350200D02*
X9177100Y-92350200D01*
X9177100Y-92350200D02*
X9522200Y-92005100D01*
X9522200Y-92005100D02*
X18090100Y-92005100D01*
X18090100Y-92005100D02*
X18778900Y-92693900D01*
X18778900Y-82025900D02*
X18839100Y-81965700D01*
X18839100Y-81965700D02*
X20583000Y-81965700D01*
X20583000Y-81965700D02*
X20855000Y-82237700D01*
X20855000Y-82237700D02*
X22243100Y-82237700D01*
X22243100Y-82237700D02*
X23952400Y-83947000D01*
X23952400Y-83947000D02*
X24384000Y-83947000D01*
X4064000Y-81280000D02*
X4466200Y-81682200D01*
X4466200Y-81682200D02*
X9177100Y-81682200D01*
X9177100Y-81682200D02*
X9522200Y-81337100D01*
X9522200Y-81337100D02*
X18090100Y-81337100D01*
X18090100Y-81337100D02*
X18778900Y-82025900D01*
X18778900Y-71357900D02*
X18839100Y-71297700D01*
X18839100Y-71297700D02*
X20583000Y-71297700D01*
X20583000Y-71297700D02*
X20855000Y-71569700D01*
X20855000Y-71569700D02*
X22243100Y-71569700D01*
X22243100Y-71569700D02*
X23952400Y-73279000D01*
X23952400Y-73279000D02*
X24384000Y-73279000D01*
X4064000Y-70612000D02*
X4466200Y-71014200D01*
X4466200Y-71014200D02*
X9177100Y-71014200D01*
X9177100Y-71014200D02*
X9522200Y-70669100D01*
X9522200Y-70669100D02*
X18090100Y-70669100D01*
X18090100Y-70669100D02*
X18778900Y-71357900D01*
X18778900Y-60689900D02*
X18839100Y-60629700D01*
X18839100Y-60629700D02*
X20583000Y-60629700D01*
X20583000Y-60629700D02*
X20855000Y-60901700D01*
X20855000Y-60901700D02*
X22243100Y-60901700D01*
X22243100Y-60901700D02*
X23952400Y-62611000D01*
X23952400Y-62611000D02*
X24384000Y-62611000D01*
X4064000Y-59944000D02*
X4466200Y-60346200D01*
X4466200Y-60346200D02*
X9177100Y-60346200D01*
X9177100Y-60346200D02*
X9522200Y-60001100D01*
X9522200Y-60001100D02*
X18090100Y-60001100D01*
X18090100Y-60001100D02*
X18778900Y-60689900D01*
X18778900Y-50021900D02*
X18839100Y-49961700D01*
X18839100Y-49961700D02*
X20583000Y-49961700D01*
X20583000Y-49961700D02*
X20855000Y-50233700D01*
X20855000Y-50233700D02*
X22243100Y-50233700D01*
X22243100Y-50233700D02*
X23952400Y-51943000D01*
X23952400Y-51943000D02*
X24384000Y-51943000D01*
X4064000Y-49276000D02*
X4466200Y-49678200D01*
X4466200Y-49678200D02*
X9177100Y-49678200D01*
X9177100Y-49678200D02*
X9522200Y-49333100D01*
X9522200Y-49333100D02*
X18090100Y-49333100D01*
X18090100Y-49333100D02*
X18778900Y-50021900D01*
X18778900Y-39353900D02*
X18839100Y-39293700D01*
X18839100Y-39293700D02*
X20583000Y-39293700D01*
X20583000Y-39293700D02*
X20855000Y-39565700D01*
X20855000Y-39565700D02*
X22243100Y-39565700D01*
X22243100Y-39565700D02*
X23952400Y-41275000D01*
X23952400Y-41275000D02*
X24384000Y-41275000D01*
X4064000Y-38608000D02*
X4466200Y-39010200D01*
X4466200Y-39010200D02*
X9177100Y-39010200D01*
X9177100Y-39010200D02*
X9522200Y-38665100D01*
X9522200Y-38665100D02*
X18090100Y-38665100D01*
X18090100Y-38665100D02*
X18778900Y-39353900D01*
X18778900Y-28685900D02*
X18839100Y-28625700D01*
X18839100Y-28625700D02*
X20583000Y-28625700D01*
X20583000Y-28625700D02*
X20855000Y-28897700D01*
X20855000Y-28897700D02*
X22243100Y-28897700D01*
X22243100Y-28897700D02*
X23952400Y-30607000D01*
X23952400Y-30607000D02*
X24384000Y-30607000D01*
X4064000Y-27940000D02*
X4466200Y-28342200D01*
X4466200Y-28342200D02*
X9177100Y-28342200D01*
X9177100Y-28342200D02*
X9522200Y-27997100D01*
X9522200Y-27997100D02*
X18090100Y-27997100D01*
X18090100Y-27997100D02*
X18778900Y-28685900D01*
X18778900Y-18017900D02*
X18839100Y-17957700D01*
X18839100Y-17957700D02*
X20583000Y-17957700D01*
X20583000Y-17957700D02*
X20855000Y-18229700D01*
X20855000Y-18229700D02*
X22243100Y-18229700D01*
X22243100Y-18229700D02*
X23952400Y-19939000D01*
X23952400Y-19939000D02*
X24384000Y-19939000D01*
X4064000Y-17272000D02*
X4466200Y-17674200D01*
X4466200Y-17674200D02*
X9177100Y-17674200D01*
X9177100Y-17674200D02*
X9522200Y-17329100D01*
X9522200Y-17329100D02*
X18090100Y-17329100D01*
X18090100Y-17329100D02*
X18778900Y-18017900D01*
X18090100Y-6661100D02*
X18778900Y-7349900D01*
X9522200Y-6661100D02*
X18090100Y-6661100D01*
X9177100Y-7006200D02*
X9522200Y-6661100D01*
X4466200Y-7006200D02*
X9177100Y-7006200D01*
X4064000Y-6604000D02*
X4466200Y-7006200D01*
X23952400Y-9271000D02*
X24384000Y-9271000D01*
X22243100Y-7561700D02*
X23952400Y-9271000D01*
X20855000Y-7561700D02*
X22243100Y-7561700D01*
X20583000Y-7289700D02*
X20855000Y-7561700D01*
X18839100Y-7289700D02*
X20583000Y-7289700D01*
X18778900Y-7349900D02*
X18839100Y-7289700D01*
X35052000Y-91948000D02*
X36238100Y-93134100D01*
X36238100Y-93134100D02*
X38439300Y-93134100D01*
X38439300Y-93134100D02*
X38918100Y-92655300D01*
X38918100Y-92655300D02*
X42831600Y-92655300D01*
X42831600Y-92655300D02*
X43176700Y-92310200D01*
X43176700Y-92310200D02*
X50023700Y-92310200D01*
X50023700Y-92310200D02*
X51004700Y-93291200D01*
X51004700Y-93291200D02*
X52884200Y-93291200D01*
X52884200Y-93291200D02*
X52991900Y-93183500D01*
X52991900Y-93183500D02*
X54194500Y-93183500D01*
X54194500Y-93183500D02*
X55372000Y-94361000D01*
X35052000Y-81280000D02*
X36238100Y-82466100D01*
X36238100Y-82466100D02*
X38439300Y-82466100D01*
X38439300Y-82466100D02*
X38918100Y-81987300D01*
X38918100Y-81987300D02*
X42831600Y-81987300D01*
X42831600Y-81987300D02*
X43176700Y-81642200D01*
X43176700Y-81642200D02*
X50023700Y-81642200D01*
X50023700Y-81642200D02*
X51004700Y-82623200D01*
X51004700Y-82623200D02*
X52884200Y-82623200D01*
X52884200Y-82623200D02*
X52991900Y-82515500D01*
X52991900Y-82515500D02*
X54194500Y-82515500D01*
X54194500Y-82515500D02*
X55372000Y-83693000D01*
X35052000Y-70612000D02*
X36238100Y-71798100D01*
X36238100Y-71798100D02*
X38439300Y-71798100D01*
X38439300Y-71798100D02*
X38918100Y-71319300D01*
X38918100Y-71319300D02*
X42831600Y-71319300D01*
X42831600Y-71319300D02*
X43176700Y-70974200D01*
X43176700Y-70974200D02*
X50023700Y-70974200D01*
X50023700Y-70974200D02*
X51004700Y-71955200D01*
X51004700Y-71955200D02*
X52884200Y-71955200D01*
X52884200Y-71955200D02*
X52991900Y-71847500D01*
X52991900Y-71847500D02*
X54194500Y-71847500D01*
X54194500Y-71847500D02*
X55372000Y-73025000D01*
X35052000Y-59944000D02*
X36238100Y-61130100D01*
X36238100Y-61130100D02*
X38439300Y-61130100D01*
X38439300Y-61130100D02*
X38918100Y-60651300D01*
X38918100Y-60651300D02*
X42831600Y-60651300D01*
X42831600Y-60651300D02*
X43176700Y-60306200D01*
X43176700Y-60306200D02*
X50023700Y-60306200D01*
X50023700Y-60306200D02*
X51004700Y-61287200D01*
X51004700Y-61287200D02*
X52884200Y-61287200D01*
X52884200Y-61287200D02*
X52991900Y-61179500D01*
X52991900Y-61179500D02*
X54194500Y-61179500D01*
X54194500Y-61179500D02*
X55372000Y-62357000D01*
X35052000Y-49276000D02*
X36238100Y-50462100D01*
X36238100Y-50462100D02*
X38439300Y-50462100D01*
X38439300Y-50462100D02*
X38918100Y-49983300D01*
X38918100Y-49983300D02*
X42831600Y-49983300D01*
X42831600Y-49983300D02*
X43176700Y-49638200D01*
X43176700Y-49638200D02*
X50023700Y-49638200D01*
X50023700Y-49638200D02*
X51004700Y-50619200D01*
X51004700Y-50619200D02*
X52884200Y-50619200D01*
X52884200Y-50619200D02*
X52991900Y-50511500D01*
X52991900Y-50511500D02*
X54194500Y-50511500D01*
X54194500Y-50511500D02*
X55372000Y-51689000D01*
X35052000Y-38608000D02*
X36238100Y-39794100D01*
X36238100Y-39794100D02*
X38439300Y-39794100D01*
X38439300Y-39794100D02*
X38918100Y-39315300D01*
X38918100Y-39315300D02*
X42831600Y-39315300D01*
X42831600Y-39315300D02*
X43176700Y-38970200D01*
X43176700Y-38970200D02*
X50023700Y-38970200D01*
X50023700Y-38970200D02*
X51004700Y-39951200D01*
X51004700Y-39951200D02*
X52884200Y-39951200D01*
X52884200Y-39951200D02*
X52991900Y-39843500D01*
X52991900Y-39843500D02*
X54194500Y-39843500D01*
X54194500Y-39843500D02*
X55372000Y-41021000D01*
X35052000Y-27940000D02*
X36238100Y-29126100D01*
X36238100Y-29126100D02*
X38439300Y-29126100D01*
X38439300Y-29126100D02*
X38918100Y-28647300D01*
X38918100Y-28647300D02*
X42831600Y-28647300D01*
X42831600Y-28647300D02*
X43176700Y-28302200D01*
X43176700Y-28302200D02*
X50023700Y-28302200D01*
X50023700Y-28302200D02*
X51004700Y-29283200D01*
X51004700Y-29283200D02*
X52884200Y-29283200D01*
X52884200Y-29283200D02*
X52991900Y-29175500D01*
X52991900Y-29175500D02*
X54194500Y-29175500D01*
X54194500Y-29175500D02*
X55372000Y-30353000D01*
X35052000Y-17272000D02*
X36238100Y-18458100D01*
X36238100Y-18458100D02*
X38439300Y-18458100D01*
X38439300Y-18458100D02*
X38918100Y-17979300D01*
X38918100Y-17979300D02*
X42831600Y-17979300D01*
X42831600Y-17979300D02*
X43176700Y-17634200D01*
X43176700Y-17634200D02*
X50023700Y-17634200D01*
X50023700Y-17634200D02*
X51004700Y-18615200D01*
X51004700Y-18615200D02*
X52884200Y-18615200D01*
X52884200Y-18615200D02*
X52991900Y-18507500D01*
X52991900Y-18507500D02*
X54194500Y-18507500D01*
X54194500Y-18507500D02*
X55372000Y-19685000D01*
X35052000Y-6604000D02*
X36238100Y-7790100D01*
X36238100Y-7790100D02*
X38439300Y-7790100D01*
X38439300Y-7790100D02*
X38918100Y-7311300D01*
X38918100Y-7311300D02*
X42831600Y-7311300D01*
X42831600Y-7311300D02*
X43176700Y-6966200D01*
X43176700Y-6966200D02*
X50023700Y-6966200D01*
X50023700Y-6966200D02*
X51004700Y-7947200D01*
X51004700Y-7947200D02*
X52884200Y-7947200D01*
X52884200Y-7947200D02*
X52991900Y-7839500D01*
X52991900Y-7839500D02*
X54194500Y-7839500D01*
X54194500Y-7839500D02*
X55372000Y-9017000D01*
X1524000Y-91948000D02*
X2710100Y-93134100D01*
X2710100Y-93134100D02*
X4911300Y-93134100D01*
X4911300Y-93134100D02*
X5390100Y-92655300D01*
X5390100Y-92655300D02*
X9303600Y-92655300D01*
X9303600Y-92655300D02*
X9648700Y-92310200D01*
X9648700Y-92310200D02*
X16495700Y-92310200D01*
X16495700Y-92310200D02*
X17476700Y-93291200D01*
X17476700Y-93291200D02*
X19356200Y-93291200D01*
X19356200Y-93291200D02*
X19463900Y-93183500D01*
X19463900Y-93183500D02*
X20666500Y-93183500D01*
X20666500Y-93183500D02*
X21844000Y-94361000D01*
X1524000Y-81280000D02*
X2710100Y-82466100D01*
X2710100Y-82466100D02*
X4911300Y-82466100D01*
X4911300Y-82466100D02*
X5390100Y-81987300D01*
X5390100Y-81987300D02*
X9303600Y-81987300D01*
X9303600Y-81987300D02*
X9648700Y-81642200D01*
X9648700Y-81642200D02*
X16495700Y-81642200D01*
X16495700Y-81642200D02*
X17476700Y-82623200D01*
X17476700Y-82623200D02*
X19356200Y-82623200D01*
X19356200Y-82623200D02*
X19463900Y-82515500D01*
X19463900Y-82515500D02*
X20666500Y-82515500D01*
X20666500Y-82515500D02*
X21844000Y-83693000D01*
X1524000Y-70612000D02*
X2710100Y-71798100D01*
X2710100Y-71798100D02*
X4911300Y-71798100D01*
X4911300Y-71798100D02*
X5390100Y-71319300D01*
X5390100Y-71319300D02*
X9303600Y-71319300D01*
X9303600Y-71319300D02*
X9648700Y-70974200D01*
X9648700Y-70974200D02*
X16495700Y-70974200D01*
X16495700Y-70974200D02*
X17476700Y-71955200D01*
X17476700Y-71955200D02*
X19356200Y-71955200D01*
X19356200Y-71955200D02*
X19463900Y-71847500D01*
X19463900Y-71847500D02*
X20666500Y-71847500D01*
X20666500Y-71847500D02*
X21844000Y-73025000D01*
X1524000Y-59944000D02*
X2710100Y-61130100D01*
X2710100Y-61130100D02*
X4911300Y-61130100D01*
X4911300Y-61130100D02*
X5390100Y-60651300D01*
X5390100Y-60651300D02*
X9303600Y-60651300D01*
X9303600Y-60651300D02*
X9648700Y-60306200D01*
X9648700Y-60306200D02*
X16495700Y-60306200D01*
X16495700Y-60306200D02*
X17476700Y-61287200D01*
X17476700Y-61287200D02*
X19356200Y-61287200D01*
X19356200Y-61287200D02*
X19463900Y-61179500D01*
X19463900Y-61179500D02*
X20666500Y-61179500D01*
X20666500Y-61179500D02*
X21844000Y-62357000D01*
X1524000Y-49276000D02*
X2710100Y-50462100D01*
X2710100Y-50462100D02*
X4911300Y-50462100D01*
X4911300Y-50462100D02*
X5390100Y-49983300D01*
X5390100Y-49983300D02*
X9303600Y-49983300D01*
X9303600Y-49983300D02*
X9648700Y-49638200D01*
X9648700Y-49638200D02*
X16495700Y-49638200D01*
X16495700Y-49638200D02*
X17476700Y-50619200D01*
X17476700Y-50619200D02*
X19356200Y-50619200D01*
X19356200Y-50619200D02*
X19463900Y-50511500D01*
X19463900Y-50511500D02*
X20666500Y-50511500D01*
X20666500Y-50511500D02*
X21844000Y-51689000D01*
X1524000Y-38608000D02*
X2710100Y-39794100D01*
X2710100Y-39794100D02*
X4911300Y-39794100D01*
X4911300Y-39794100D02*
X5390100Y-39315300D01*
X5390100Y-39315300D02*
X9303600Y-39315300D01*
X9303600Y-39315300D02*
X9648700Y-38970200D01*
X9648700Y-38970200D02*
X16495700Y-38970200D01*
X16495700Y-38970200D02*
X17476700Y-39951200D01*
X17476700Y-39951200D02*
X19356200Y-39951200D01*
X19356200Y-39951200D02*
X19463900Y-39843500D01*
X19463900Y-39843500D02*
X20666500Y-39843500D01*
X20666500Y-39843500D02*
X21844000Y-41021000D01*
X1524000Y-27940000D02*
X2710100Y-29126100D01*
X2710100Y-29126100D02*
X4911300Y-29126100D01*
X4911300Y-29126100D02*
X5390100Y-28647300D01*
X5390100Y-28647300D02*
X9303600Y-28647300D01*
X9303600Y-28647300D02*
X9648700Y-28302200D01*
X9648700Y-28302200D02*
X16495700Y-28302200D01*
X16495700Y-28302200D02*
X17476700Y-29283200D01*
X17476700Y-29283200D02*
X19356200Y-29283200D01*
X19356200Y-29283200D02*
X19463900Y-29175500D01*
X19463900Y-29175500D02*
X20666500Y-29175500D01*
X20666500Y-29175500D02*
X21844000Y-30353000D01*
X1524000Y-17272000D02*
X2710100Y-18458100D01*
X2710100Y-18458100D02*
X4911300Y-18458100D01*
X4911300Y-18458100D02*
X5390100Y-17979300D01*
X5390100Y-17979300D02*
X9303600Y-17979300D01*
X9303600Y-17979300D02*
X9648700Y-17634200D01*
X9648700Y-17634200D02*
X16495700Y-17634200D01*
X16495700Y-17634200D02*
X17476700Y-18615200D01*
X17476700Y-18615200D02*
X19356200Y-18615200D01*
X19356200Y-18615200D02*
X19463900Y-18507500D01*
X19463900Y-18507500D02*
X20666500Y-18507500D01*
X20666500Y-18507500D02*
X21844000Y-19685000D01*
X20666500Y-7839500D02*
X21844000Y-9017000D01*
X19463900Y-7839500D02*
X20666500Y-7839500D01*
X19356200Y-7947200D02*
X19463900Y-7839500D01*
X17476700Y-7947200D02*
X19356200Y-7947200D01*
X16495700Y-6966200D02*
X17476700Y-7947200D01*
X9648700Y-6966200D02*
X16495700Y-6966200D01*
X9303600Y-7311300D02*
X9648700Y-6966200D01*
X5390100Y-7311300D02*
X9303600Y-7311300D01*
X4911300Y-7790100D02*
X5390100Y-7311300D01*
X2710100Y-7790100D02*
X4911300Y-7790100D01*
X1524000Y-6604000D02*
X2710100Y-7790100D01*
X56021600Y-90943400D02*
X58488400Y-90943400D01*
X58488400Y-90943400D02*
X58657000Y-90774800D01*
X56021600Y-80275400D02*
X58488400Y-80275400D01*
X58488400Y-80275400D02*
X58657000Y-80106800D01*
X56021600Y-69607400D02*
X58488400Y-69607400D01*
X58488400Y-69607400D02*
X58657000Y-69438800D01*
X56021600Y-58939400D02*
X58488400Y-58939400D01*
X58488400Y-58939400D02*
X58657000Y-58770800D01*
X56021600Y-48271400D02*
X58488400Y-48271400D01*
X58488400Y-48271400D02*
X58657000Y-48102800D01*
X56021600Y-37603400D02*
X58488400Y-37603400D01*
X58488400Y-37603400D02*
X58657000Y-37434800D01*
X56021600Y-26935400D02*
X58488400Y-26935400D01*
X58488400Y-26935400D02*
X58657000Y-26766800D01*
X56021600Y-16267400D02*
X58488400Y-16267400D01*
X58488400Y-16267400D02*
X58657000Y-16098800D01*
X56021600Y-5599400D02*
X58488400Y-5599400D01*
X58488400Y-5599400D02*
X58657000Y-5430800D01*
X22493600Y-90943400D02*
X24960400Y-90943400D01*
X24960400Y-90943400D02*
X25129000Y-90774800D01*
X22493600Y-80275400D02*
X24960400Y-80275400D01*
X24960400Y-80275400D02*
X25129000Y-80106800D01*
X22493600Y-69607400D02*
X24960400Y-69607400D01*
X24960400Y-69607400D02*
X25129000Y-69438800D01*
X22493600Y-58939400D02*
X24960400Y-58939400D01*
X24960400Y-58939400D02*
X25129000Y-58770800D01*
X22493600Y-48271400D02*
X24960400Y-48271400D01*
X24960400Y-48271400D02*
X25129000Y-48102800D01*
X22493600Y-37603400D02*
X24960400Y-37603400D01*
X24960400Y-37603400D02*
X25129000Y-37434800D01*
X22493600Y-26935400D02*
X24960400Y-26935400D01*
X24960400Y-26935400D02*
X25129000Y-26766800D01*
X22493600Y-16267400D02*
X24960400Y-16267400D01*
X24960400Y-16267400D02*
X25129000Y-16098800D01*
X24960400Y-5599400D02*
X25129000Y-5430800D01*
X22493600Y-5599400D02*
X24960400Y-5599400D01*
X42388500Y-89965700D02*
X42802300Y-90379500D01*
X42802300Y-90379500D02*
X46645700Y-90379500D01*
X46645700Y-90379500D02*
X46798200Y-90227000D01*
X46798200Y-90227000D02*
X51217100Y-90227000D01*
X51217100Y-90227000D02*
X52427600Y-91437500D01*
X52427600Y-91437500D02*
X52427600Y-91610100D01*
X52427600Y-91610100D02*
X52826300Y-92008800D01*
X52826300Y-92008800D02*
X54690500Y-92008800D01*
X54690500Y-92008800D02*
X54735900Y-92054200D01*
X42388500Y-79297700D02*
X42802300Y-79711500D01*
X42802300Y-79711500D02*
X46645700Y-79711500D01*
X46645700Y-79711500D02*
X46798200Y-79559000D01*
X46798200Y-79559000D02*
X51217100Y-79559000D01*
X51217100Y-79559000D02*
X52427600Y-80769500D01*
X52427600Y-80769500D02*
X52427600Y-80942100D01*
X52427600Y-80942100D02*
X52826300Y-81340800D01*
X52826300Y-81340800D02*
X54690500Y-81340800D01*
X54690500Y-81340800D02*
X54735900Y-81386200D01*
X42388500Y-68629700D02*
X42802300Y-69043500D01*
X42802300Y-69043500D02*
X46645700Y-69043500D01*
X46645700Y-69043500D02*
X46798200Y-68891000D01*
X46798200Y-68891000D02*
X51217100Y-68891000D01*
X51217100Y-68891000D02*
X52427600Y-70101500D01*
X52427600Y-70101500D02*
X52427600Y-70274100D01*
X52427600Y-70274100D02*
X52826300Y-70672800D01*
X52826300Y-70672800D02*
X54690500Y-70672800D01*
X54690500Y-70672800D02*
X54735900Y-70718200D01*
X42388500Y-57961700D02*
X42802300Y-58375500D01*
X42802300Y-58375500D02*
X46645700Y-58375500D01*
X46645700Y-58375500D02*
X46798200Y-58223000D01*
X46798200Y-58223000D02*
X51217100Y-58223000D01*
X51217100Y-58223000D02*
X52427600Y-59433500D01*
X52427600Y-59433500D02*
X52427600Y-59606100D01*
X52427600Y-59606100D02*
X52826300Y-60004800D01*
X52826300Y-60004800D02*
X54690500Y-60004800D01*
X54690500Y-60004800D02*
X54735900Y-60050200D01*
X42388500Y-47293700D02*
X42802300Y-47707500D01*
X42802300Y-47707500D02*
X46645700Y-47707500D01*
X46645700Y-47707500D02*
X46798200Y-47555000D01*
X46798200Y-47555000D02*
X51217100Y-47555000D01*
X51217100Y-47555000D02*
X52427600Y-48765500D01*
X52427600Y-48765500D02*
X52427600Y-48938100D01*
X52427600Y-48938100D02*
X52826300Y-49336800D01*
X52826300Y-49336800D02*
X54690500Y-49336800D01*
X54690500Y-49336800D02*
X54735900Y-49382200D01*
X42388500Y-36625700D02*
X42802300Y-37039500D01*
X42802300Y-37039500D02*
X46645700Y-37039500D01*
X46645700Y-37039500D02*
X46798200Y-36887000D01*
X46798200Y-36887000D02*
X51217100Y-36887000D01*
X51217100Y-36887000D02*
X52427600Y-38097500D01*
X52427600Y-38097500D02*
X52427600Y-38270100D01*
X52427600Y-38270100D02*
X52826300Y-38668800D01*
X52826300Y-38668800D02*
X54690500Y-38668800D01*
X54690500Y-38668800D02*
X54735900Y-38714200D01*
X42388500Y-25957700D02*
X42802300Y-26371500D01*
X42802300Y-26371500D02*
X46645700Y-26371500D01*
X46645700Y-26371500D02*
X46798200Y-26219000D01*
X46798200Y-26219000D02*
X51217100Y-26219000D01*
X51217100Y-26219000D02*
X52427600Y-27429500D01*
X52427600Y-27429500D02*
X52427600Y-27602100D01*
X52427600Y-27602100D02*
X52826300Y-28000800D01*
X52826300Y-28000800D02*
X54690500Y-28000800D01*
X54690500Y-28000800D02*
X54735900Y-28046200D01*
X42388500Y-15289700D02*
X42802300Y-15703500D01*
X42802300Y-15703500D02*
X46645700Y-15703500D01*
X46645700Y-15703500D02*
X46798200Y-15551000D01*
X46798200Y-15551000D02*
X51217100Y-15551000D01*
X51217100Y-15551000D02*
X52427600Y-16761500D01*
X52427600Y-16761500D02*
X52427600Y-16934100D01*
X52427600Y-16934100D02*
X52826300Y-17332800D01*
X52826300Y-17332800D02*
X54690500Y-17332800D01*
X54690500Y-17332800D02*
X54735900Y-17378200D01*
X42388500Y-4621700D02*
X42802300Y-5035500D01*
X42802300Y-5035500D02*
X46645700Y-5035500D01*
X46645700Y-5035500D02*
X46798200Y-4883000D01*
X46798200Y-4883000D02*
X51217100Y-4883000D01*
X51217100Y-4883000D02*
X52427600Y-6093500D01*
X52427600Y-6093500D02*
X52427600Y-6266100D01*
X52427600Y-6266100D02*
X52826300Y-6664800D01*
X52826300Y-6664800D02*
X54690500Y-6664800D01*
X54690500Y-6664800D02*
X54735900Y-6710200D01*
X8860500Y-89965700D02*
X9274300Y-90379500D01*
X9274300Y-90379500D02*
X13117700Y-90379500D01*
X13117700Y-90379500D02*
X13270200Y-90227000D01*
X13270200Y-90227000D02*
X17689100Y-90227000D01*
X17689100Y-90227000D02*
X18899600Y-91437500D01*
X18899600Y-91437500D02*
X18899600Y-91610100D01*
X18899600Y-91610100D02*
X19298300Y-92008800D01*
X19298300Y-92008800D02*
X21162500Y-92008800D01*
X21162500Y-92008800D02*
X21207900Y-92054200D01*
X8860500Y-79297700D02*
X9274300Y-79711500D01*
X9274300Y-79711500D02*
X13117700Y-79711500D01*
X13117700Y-79711500D02*
X13270200Y-79559000D01*
X13270200Y-79559000D02*
X17689100Y-79559000D01*
X17689100Y-79559000D02*
X18899600Y-80769500D01*
X18899600Y-80769500D02*
X18899600Y-80942100D01*
X18899600Y-80942100D02*
X19298300Y-81340800D01*
X19298300Y-81340800D02*
X21162500Y-81340800D01*
X21162500Y-81340800D02*
X21207900Y-81386200D01*
X8860500Y-68629700D02*
X9274300Y-69043500D01*
X9274300Y-69043500D02*
X13117700Y-69043500D01*
X13117700Y-69043500D02*
X13270200Y-68891000D01*
X13270200Y-68891000D02*
X17689100Y-68891000D01*
X17689100Y-68891000D02*
X18899600Y-70101500D01*
X18899600Y-70101500D02*
X18899600Y-70274100D01*
X18899600Y-70274100D02*
X19298300Y-70672800D01*
X19298300Y-70672800D02*
X21162500Y-70672800D01*
X21162500Y-70672800D02*
X21207900Y-70718200D01*
X8860500Y-57961700D02*
X9274300Y-58375500D01*
X9274300Y-58375500D02*
X13117700Y-58375500D01*
X13117700Y-58375500D02*
X13270200Y-58223000D01*
X13270200Y-58223000D02*
X17689100Y-58223000D01*
X17689100Y-58223000D02*
X18899600Y-59433500D01*
X18899600Y-59433500D02*
X18899600Y-59606100D01*
X18899600Y-59606100D02*
X19298300Y-60004800D01*
X19298300Y-60004800D02*
X21162500Y-60004800D01*
X21162500Y-60004800D02*
X21207900Y-60050200D01*
X8860500Y-47293700D02*
X9274300Y-47707500D01*
X9274300Y-47707500D02*
X13117700Y-47707500D01*
X13117700Y-47707500D02*
X13270200Y-47555000D01*
X13270200Y-47555000D02*
X17689100Y-47555000D01*
X17689100Y-47555000D02*
X18899600Y-48765500D01*
X18899600Y-48765500D02*
X18899600Y-48938100D01*
X18899600Y-48938100D02*
X19298300Y-49336800D01*
X19298300Y-49336800D02*
X21162500Y-49336800D01*
X21162500Y-49336800D02*
X21207900Y-49382200D01*
X8860500Y-36625700D02*
X9274300Y-37039500D01*
X9274300Y-37039500D02*
X13117700Y-37039500D01*
X13117700Y-37039500D02*
X13270200Y-36887000D01*
X13270200Y-36887000D02*
X17689100Y-36887000D01*
X17689100Y-36887000D02*
X18899600Y-38097500D01*
X18899600Y-38097500D02*
X18899600Y-38270100D01*
X18899600Y-38270100D02*
X19298300Y-38668800D01*
X19298300Y-38668800D02*
X21162500Y-38668800D01*
X21162500Y-38668800D02*
X21207900Y-38714200D01*
X8860500Y-25957700D02*
X9274300Y-26371500D01*
X9274300Y-26371500D02*
X13117700Y-26371500D01*
X13117700Y-26371500D02*
X13270200Y-26219000D01*
X13270200Y-26219000D02*
X17689100Y-26219000D01*
X17689100Y-26219000D02*
X18899600Y-27429500D01*
X18899600Y-27429500D02*
X18899600Y-27602100D01*
X18899600Y-27602100D02*
X19298300Y-28000800D01*
X19298300Y-28000800D02*
X21162500Y-28000800D01*
X21162500Y-28000800D02*
X21207900Y-28046200D01*
X8860500Y-15289700D02*
X9274300Y-15703500D01*
X9274300Y-15703500D02*
X13117700Y-15703500D01*
X13117700Y-15703500D02*
X13270200Y-15551000D01*
X13270200Y-15551000D02*
X17689100Y-15551000D01*
X17689100Y-15551000D02*
X18899600Y-16761500D01*
X18899600Y-16761500D02*
X18899600Y-16934100D01*
X18899600Y-16934100D02*
X19298300Y-17332800D01*
X19298300Y-17332800D02*
X21162500Y-17332800D01*
X21162500Y-17332800D02*
X21207900Y-17378200D01*
X21162500Y-6664800D02*
X21207900Y-6710200D01*
X19298300Y-6664800D02*
X21162500Y-6664800D01*
X18899600Y-6266100D02*
X19298300Y-6664800D01*
X18899600Y-6093500D02*
X18899600Y-6266100D01*
X17689100Y-4883000D02*
X18899600Y-6093500D01*
X13270200Y-4883000D02*
X17689100Y-4883000D01*
X13117700Y-5035500D02*
X13270200Y-4883000D01*
X9274300Y-5035500D02*
X13117700Y-5035500D01*
X8860500Y-4621700D02*
X9274300Y-5035500D01*
X60404300Y-90858900D02*
X59772400Y-90227000D01*
X59772400Y-90227000D02*
X52134300Y-90227000D01*
X52134300Y-90227000D02*
X50895200Y-88987900D01*
X50895200Y-88987900D02*
X46819000Y-88987900D01*
X46819000Y-88987900D02*
X46355000Y-89451900D01*
X65659000Y-86868000D02*
X61668100Y-90858900D01*
X61668100Y-90858900D02*
X60404300Y-90858900D01*
X46355000Y-89451900D02*
X45128900Y-89451900D01*
X45128900Y-89451900D02*
X42672000Y-86995000D01*
X42672000Y-86995000D02*
X41738900Y-87928100D01*
X41738900Y-87928100D02*
X38652100Y-87928100D01*
X38652100Y-87928100D02*
X37592000Y-86868000D01*
X60404300Y-80190900D02*
X59772400Y-79559000D01*
X59772400Y-79559000D02*
X52134300Y-79559000D01*
X52134300Y-79559000D02*
X50895200Y-78319900D01*
X50895200Y-78319900D02*
X46819000Y-78319900D01*
X46819000Y-78319900D02*
X46355000Y-78783900D01*
X65659000Y-76200000D02*
X61668100Y-80190900D01*
X61668100Y-80190900D02*
X60404300Y-80190900D01*
X46355000Y-78783900D02*
X45128900Y-78783900D01*
X45128900Y-78783900D02*
X42672000Y-76327000D01*
X42672000Y-76327000D02*
X41738900Y-77260100D01*
X41738900Y-77260100D02*
X38652100Y-77260100D01*
X38652100Y-77260100D02*
X37592000Y-76200000D01*
X60404300Y-69522900D02*
X59772400Y-68891000D01*
X59772400Y-68891000D02*
X52134300Y-68891000D01*
X52134300Y-68891000D02*
X50895200Y-67651900D01*
X50895200Y-67651900D02*
X46819000Y-67651900D01*
X46819000Y-67651900D02*
X46355000Y-68115900D01*
X65659000Y-65532000D02*
X61668100Y-69522900D01*
X61668100Y-69522900D02*
X60404300Y-69522900D01*
X46355000Y-68115900D02*
X45128900Y-68115900D01*
X45128900Y-68115900D02*
X42672000Y-65659000D01*
X42672000Y-65659000D02*
X41738900Y-66592100D01*
X41738900Y-66592100D02*
X38652100Y-66592100D01*
X38652100Y-66592100D02*
X37592000Y-65532000D01*
X60404300Y-58854900D02*
X59772400Y-58223000D01*
X59772400Y-58223000D02*
X52134300Y-58223000D01*
X52134300Y-58223000D02*
X50895200Y-56983900D01*
X50895200Y-56983900D02*
X46819000Y-56983900D01*
X46819000Y-56983900D02*
X46355000Y-57447900D01*
X65659000Y-54864000D02*
X61668100Y-58854900D01*
X61668100Y-58854900D02*
X60404300Y-58854900D01*
X46355000Y-57447900D02*
X45128900Y-57447900D01*
X45128900Y-57447900D02*
X42672000Y-54991000D01*
X42672000Y-54991000D02*
X41738900Y-55924100D01*
X41738900Y-55924100D02*
X38652100Y-55924100D01*
X38652100Y-55924100D02*
X37592000Y-54864000D01*
X60404300Y-48186900D02*
X59772400Y-47555000D01*
X59772400Y-47555000D02*
X52134300Y-47555000D01*
X52134300Y-47555000D02*
X50895200Y-46315900D01*
X50895200Y-46315900D02*
X46819000Y-46315900D01*
X46819000Y-46315900D02*
X46355000Y-46779900D01*
X65659000Y-44196000D02*
X61668100Y-48186900D01*
X61668100Y-48186900D02*
X60404300Y-48186900D01*
X46355000Y-46779900D02*
X45128900Y-46779900D01*
X45128900Y-46779900D02*
X42672000Y-44323000D01*
X42672000Y-44323000D02*
X41738900Y-45256100D01*
X41738900Y-45256100D02*
X38652100Y-45256100D01*
X38652100Y-45256100D02*
X37592000Y-44196000D01*
X60404300Y-37518900D02*
X59772400Y-36887000D01*
X59772400Y-36887000D02*
X52134300Y-36887000D01*
X52134300Y-36887000D02*
X50895200Y-35647900D01*
X50895200Y-35647900D02*
X46819000Y-35647900D01*
X46819000Y-35647900D02*
X46355000Y-36111900D01*
X65659000Y-33528000D02*
X61668100Y-37518900D01*
X61668100Y-37518900D02*
X60404300Y-37518900D01*
X46355000Y-36111900D02*
X45128900Y-36111900D01*
X45128900Y-36111900D02*
X42672000Y-33655000D01*
X42672000Y-33655000D02*
X41738900Y-34588100D01*
X41738900Y-34588100D02*
X38652100Y-34588100D01*
X38652100Y-34588100D02*
X37592000Y-33528000D01*
X60404300Y-26850900D02*
X59772400Y-26219000D01*
X59772400Y-26219000D02*
X52134300Y-26219000D01*
X52134300Y-26219000D02*
X50895200Y-24979900D01*
X50895200Y-24979900D02*
X46819000Y-24979900D01*
X46819000Y-24979900D02*
X46355000Y-25443900D01*
X65659000Y-22860000D02*
X61668100Y-26850900D01*
X61668100Y-26850900D02*
X60404300Y-26850900D01*
X46355000Y-25443900D02*
X45128900Y-25443900D01*
X45128900Y-25443900D02*
X42672000Y-22987000D01*
X42672000Y-22987000D02*
X41738900Y-23920100D01*
X41738900Y-23920100D02*
X38652100Y-23920100D01*
X38652100Y-23920100D02*
X37592000Y-22860000D01*
X60404300Y-16182900D02*
X59772400Y-15551000D01*
X59772400Y-15551000D02*
X52134300Y-15551000D01*
X52134300Y-15551000D02*
X50895200Y-14311900D01*
X50895200Y-14311900D02*
X46819000Y-14311900D01*
X46819000Y-14311900D02*
X46355000Y-14775900D01*
X65659000Y-12192000D02*
X61668100Y-16182900D01*
X61668100Y-16182900D02*
X60404300Y-16182900D01*
X46355000Y-14775900D02*
X45128900Y-14775900D01*
X45128900Y-14775900D02*
X42672000Y-12319000D01*
X42672000Y-12319000D02*
X41738900Y-13252100D01*
X41738900Y-13252100D02*
X38652100Y-13252100D01*
X38652100Y-13252100D02*
X37592000Y-12192000D01*
X60404300Y-5514900D02*
X59772400Y-4883000D01*
X59772400Y-4883000D02*
X52134300Y-4883000D01*
X52134300Y-4883000D02*
X50895200Y-3643900D01*
X50895200Y-3643900D02*
X46819000Y-3643900D01*
X46819000Y-3643900D02*
X46355000Y-4107900D01*
X65659000Y-1524000D02*
X61668100Y-5514900D01*
X61668100Y-5514900D02*
X60404300Y-5514900D01*
X46355000Y-4107900D02*
X45128900Y-4107900D01*
X45128900Y-4107900D02*
X42672000Y-1651000D01*
X42672000Y-1651000D02*
X41738900Y-2584100D01*
X41738900Y-2584100D02*
X38652100Y-2584100D01*
X38652100Y-2584100D02*
X37592000Y-1524000D01*
X26876300Y-90858900D02*
X26244400Y-90227000D01*
X26244400Y-90227000D02*
X18606300Y-90227000D01*
X18606300Y-90227000D02*
X17367200Y-88987900D01*
X17367200Y-88987900D02*
X13291000Y-88987900D01*
X13291000Y-88987900D02*
X12827000Y-89451900D01*
X32131000Y-86868000D02*
X28140100Y-90858900D01*
X28140100Y-90858900D02*
X26876300Y-90858900D01*
X12827000Y-89451900D02*
X11600900Y-89451900D01*
X11600900Y-89451900D02*
X9144000Y-86995000D01*
X9144000Y-86995000D02*
X8210900Y-87928100D01*
X8210900Y-87928100D02*
X5124100Y-87928100D01*
X5124100Y-87928100D02*
X4064000Y-86868000D01*
X26876300Y-80190900D02*
X26244400Y-79559000D01*
X26244400Y-79559000D02*
X18606300Y-79559000D01*
X18606300Y-79559000D02*
X17367200Y-78319900D01*
X17367200Y-78319900D02*
X13291000Y-78319900D01*
X13291000Y-78319900D02*
X12827000Y-78783900D01*
X32131000Y-76200000D02*
X28140100Y-80190900D01*
X28140100Y-80190900D02*
X26876300Y-80190900D01*
X12827000Y-78783900D02*
X11600900Y-78783900D01*
X11600900Y-78783900D02*
X9144000Y-76327000D01*
X9144000Y-76327000D02*
X8210900Y-77260100D01*
X8210900Y-77260100D02*
X5124100Y-77260100D01*
X5124100Y-77260100D02*
X4064000Y-76200000D01*
X26876300Y-69522900D02*
X26244400Y-68891000D01*
X26244400Y-68891000D02*
X18606300Y-68891000D01*
X18606300Y-68891000D02*
X17367200Y-67651900D01*
X17367200Y-67651900D02*
X13291000Y-67651900D01*
X13291000Y-67651900D02*
X12827000Y-68115900D01*
X32131000Y-65532000D02*
X28140100Y-69522900D01*
X28140100Y-69522900D02*
X26876300Y-69522900D01*
X12827000Y-68115900D02*
X11600900Y-68115900D01*
X11600900Y-68115900D02*
X9144000Y-65659000D01*
X9144000Y-65659000D02*
X8210900Y-66592100D01*
X8210900Y-66592100D02*
X5124100Y-66592100D01*
X5124100Y-66592100D02*
X4064000Y-65532000D01*
X26876300Y-58854900D02*
X26244400Y-58223000D01*
X26244400Y-58223000D02*
X18606300Y-58223000D01*
X18606300Y-58223000D02*
X17367200Y-56983900D01*
X17367200Y-56983900D02*
X13291000Y-56983900D01*
X13291000Y-56983900D02*
X12827000Y-57447900D01*
X32131000Y-54864000D02*
X28140100Y-58854900D01*
X28140100Y-58854900D02*
X26876300Y-58854900D01*
X12827000Y-57447900D02*
X11600900Y-57447900D01*
X11600900Y-57447900D02*
X9144000Y-54991000D01*
X9144000Y-54991000D02*
X8210900Y-55924100D01*
X8210900Y-55924100D02*
X5124100Y-55924100D01*
X5124100Y-55924100D02*
X4064000Y-54864000D01*
X26876300Y-48186900D02*
X26244400Y-47555000D01*
X26244400Y-47555000D02*
X18606300Y-47555000D01*
X18606300Y-47555000D02*
X17367200Y-46315900D01*
X17367200Y-46315900D02*
X13291000Y-46315900D01*
X13291000Y-46315900D02*
X12827000Y-46779900D01*
X32131000Y-44196000D02*
X28140100Y-48186900D01*
X28140100Y-48186900D02*
X26876300Y-48186900D01*
X12827000Y-46779900D02*
X11600900Y-46779900D01*
X11600900Y-46779900D02*
X9144000Y-44323000D01*
X9144000Y-44323000D02*
X8210900Y-45256100D01*
X8210900Y-45256100D02*
X5124100Y-45256100D01*
X5124100Y-45256100D02*
X4064000Y-44196000D01*
X26876300Y-37518900D02*
X26244400Y-36887000D01*
X26244400Y-36887000D02*
X18606300Y-36887000D01*
X18606300Y-36887000D02*
X17367200Y-35647900D01*
X17367200Y-35647900D02*
X13291000Y-35647900D01*
X13291000Y-35647900D02*
X12827000Y-36111900D01*
X32131000Y-33528000D02*
X28140100Y-37518900D01*
X28140100Y-37518900D02*
X26876300Y-37518900D01*
X12827000Y-36111900D02*
X11600900Y-36111900D01*
X11600900Y-36111900D02*
X9144000Y-33655000D01*
X9144000Y-33655000D02*
X8210900Y-34588100D01*
X8210900Y-34588100D02*
X5124100Y-34588100D01*
X5124100Y-34588100D02*
X4064000Y-33528000D01*
X26876300Y-26850900D02*
X26244400Y-26219000D01*
X26244400Y-26219000D02*
X18606300Y-26219000D01*
X18606300Y-26219000D02*
X17367200Y-24979900D01*
X17367200Y-24979900D02*
X13291000Y-24979900D01*
X13291000Y-24979900D02*
X12827000Y-25443900D01*
X32131000Y-22860000D02*
X28140100Y-26850900D01*
X28140100Y-26850900D02*
X26876300Y-26850900D01*
X12827000Y-25443900D02*
X11600900Y-25443900D01*
X11600900Y-25443900D02*
X9144000Y-22987000D01*
X9144000Y-22987000D02*
X8210900Y-23920100D01*
X8210900Y-23920100D02*
X5124100Y-23920100D01*
X5124100Y-23920100D02*
X4064000Y-22860000D01*
X26876300Y-16182900D02*
X26244400Y-15551000D01*
X26244400Y-15551000D02*
X18606300Y-15551000D01*
X18606300Y-15551000D02*
X17367200Y-14311900D01*
X17367200Y-14311900D02*
X13291000Y-14311900D01*
X13291000Y-14311900D02*
X12827000Y-14775900D01*
X32131000Y-12192000D02*
X28140100Y-16182900D01*
X28140100Y-16182900D02*
X26876300Y-16182900D01*
X12827000Y-14775900D02*
X11600900Y-14775900D01*
X11600900Y-14775900D02*
X9144000Y-12319000D01*
X9144000Y-12319000D02*
X8210900Y-13252100D01*
X8210900Y-13252100D02*
X5124100Y-13252100D01*
X5124100Y-13252100D02*
X4064000Y-12192000D01*
X5124100Y-2584100D02*
X4064000Y-1524000D01*
X8210900Y-2584100D02*
X5124100Y-2584100D01*
X9144000Y-1651000D02*
X8210900Y-2584100D01*
X11600900Y-4107900D02*
X9144000Y-1651000D01*
X12827000Y-4107900D02*
X11600900Y-4107900D01*
X28140100Y-5514900D02*
X26876300Y-5514900D01*
X32131000Y-1524000D02*
X28140100Y-5514900D01*
X13291000Y-3643900D02*
X12827000Y-4107900D01*
X17367200Y-3643900D02*
X13291000Y-3643900D01*
X18606300Y-4883000D02*
X17367200Y-3643900D01*
X26244400Y-4883000D02*
X18606300Y-4883000D01*
X26876300Y-5514900D02*
X26244400Y-4883000D01*
M02*
