M48
;DRILL file {KiCad 4.0.1-2.201512121406+6195~38~ubuntu15.10.1-stable} date Monday, December 14, 2015 PM10:33:07 HKT
;FORMAT={-:-/ absolute / inch / decimal}
FMAT,2
INCH,TZ
T1C0.020
T2C0.020
T3C0.032
T4C0.040
T5C0.024
%
G90
G05
M72
T2
X0.31Y3.4
X0.31Y2.46
X0.31Y1.52
X0.31Y0.58
X0.33Y3.505
X0.33Y2.565
X0.33Y1.625
X0.33Y0.685
X0.3569Y3.5784
X0.3569Y2.6384
X0.3569Y1.6984
X0.3569Y0.7584
X0.3678Y3.2434
X0.3678Y2.3034
X0.3678Y1.3634
X0.3678Y0.4234
X0.4419Y3.5271
X0.4419Y2.5871
X0.4419Y1.6471
X0.4419Y0.7071
X0.4948Y3.072
X0.4948Y2.132
X0.4948Y1.192
X0.4948Y0.252
X0.6021Y3.3117
X0.6021Y2.3717
X0.6021Y1.4317
X0.6021Y0.4917
X0.6202Y3.5051
X0.6202Y2.5651
X0.6202Y1.6251
X0.6202Y0.6851
X0.67Y3.3922
X0.67Y2.4522
X0.67Y1.5122
X0.67Y0.5722
X0.797Y3.4224
X0.797Y2.4824
X0.797Y1.5424
X0.797Y0.6024
X1.25Y3.4
X1.25Y2.46
X1.25Y1.52
X1.25Y0.58
X1.27Y3.505
X1.27Y2.565
X1.27Y1.625
X1.27Y0.685
X1.2969Y3.5784
X1.2969Y2.6384
X1.2969Y1.6984
X1.2969Y0.7584
X1.3078Y3.2434
X1.3078Y2.3034
X1.3078Y1.3634
X1.3078Y0.4234
X1.3819Y3.5271
X1.3819Y2.5871
X1.3819Y1.6471
X1.3819Y0.7071
X1.4348Y3.072
X1.4348Y2.132
X1.4348Y1.192
X1.4348Y0.252
X1.5421Y3.3117
X1.5421Y2.3717
X1.5421Y1.4317
X1.5421Y0.4917
X1.5602Y3.5051
X1.5602Y2.5651
X1.5602Y1.6251
X1.5602Y0.6851
X1.61Y3.3922
X1.61Y2.4522
X1.61Y1.5122
X1.61Y0.5722
X1.737Y3.4224
X1.737Y2.4824
X1.737Y1.5424
X1.737Y0.6024
X2.19Y3.4
X2.19Y2.46
X2.19Y1.52
X2.19Y0.58
X2.21Y3.505
X2.21Y2.565
X2.21Y1.625
X2.21Y0.685
X2.2369Y3.5784
X2.2369Y2.6384
X2.2369Y1.6984
X2.2369Y0.7584
X2.2478Y3.2434
X2.2478Y2.3034
X2.2478Y1.3634
X2.2478Y0.4234
X2.3219Y3.5271
X2.3219Y2.5871
X2.3219Y1.6471
X2.3219Y0.7071
X2.3748Y3.072
X2.3748Y2.132
X2.3748Y1.192
X2.3748Y0.252
X2.4821Y3.3117
X2.4821Y2.3717
X2.4821Y1.4317
X2.4821Y0.4917
X2.5002Y3.5051
X2.5002Y2.5651
X2.5002Y1.6251
X2.5002Y0.6851
X2.55Y3.3922
X2.55Y2.4522
X2.55Y1.5122
X2.55Y0.5722
X2.677Y3.4224
X2.677Y2.4824
X2.677Y1.5424
X2.677Y0.6024
X3.13Y3.4
X3.13Y2.46
X3.13Y1.52
X3.13Y0.58
X3.15Y3.505
X3.15Y2.565
X3.15Y1.625
X3.15Y0.685
X3.1769Y3.5784
X3.1769Y2.6384
X3.1769Y1.6984
X3.1769Y0.7584
X3.1878Y3.2434
X3.1878Y2.3034
X3.1878Y1.3634
X3.1878Y0.4234
X3.2619Y3.5271
X3.2619Y2.5871
X3.2619Y1.6471
X3.2619Y0.7071
X3.3148Y3.072
X3.3148Y2.132
X3.3148Y1.192
X3.3148Y0.252
X3.4221Y3.3117
X3.4221Y2.3717
X3.4221Y1.4317
X3.4221Y0.4917
X3.4402Y3.5051
X3.4402Y2.5651
X3.4402Y1.6251
X3.4402Y0.6851
X3.49Y3.3922
X3.49Y2.4522
X3.49Y1.5122
X3.49Y0.5722
X3.617Y3.4224
X3.617Y2.4824
X3.617Y1.5424
X3.617Y0.6024
T3
X0.26Y3.4561
X0.26Y3.2639
X0.26Y2.5161
X0.26Y2.3239
X0.26Y1.5761
X0.26Y1.3839
X0.26Y0.6361
X0.26Y0.4439
X1.2Y3.4561
X1.2Y3.2639
X1.2Y2.5161
X1.2Y2.3239
X1.2Y1.5761
X1.2Y1.3839
X1.2Y0.6361
X1.2Y0.4439
X2.14Y3.4561
X2.14Y3.2639
X2.14Y2.5161
X2.14Y2.3239
X2.14Y1.5761
X2.14Y1.3839
X2.14Y0.6361
X2.14Y0.4439
X3.08Y3.4561
X3.08Y3.2639
X3.08Y2.5161
X3.08Y2.3239
X3.08Y1.5761
X3.08Y1.3839
X3.08Y0.6361
X3.08Y0.4439
T4
X0.07Y3.69
X0.07Y3.59
X0.07Y3.49
X0.07Y3.39
X0.07Y3.29
X0.07Y3.19
X0.07Y3.09
X0.07Y2.99
X0.07Y2.89
X0.07Y2.75
X0.07Y2.65
X0.07Y2.55
X0.07Y2.45
X0.07Y2.35
X0.07Y2.25
X0.07Y2.15
X0.07Y2.05
X0.07Y1.95
X0.07Y1.81
X0.07Y1.71
X0.07Y1.61
X0.07Y1.51
X0.07Y1.41
X0.07Y1.31
X0.07Y1.21
X0.07Y1.11
X0.07Y1.01
X0.07Y0.87
X0.07Y0.77
X0.07Y0.67
X0.07Y0.57
X0.07Y0.47
X0.07Y0.37
X0.07Y0.27
X0.07Y0.17
X0.07Y0.07
X0.22Y3.69
X0.22Y2.75
X0.22Y1.81
X0.22Y0.87
X0.32Y3.69
X0.32Y2.75
X0.32Y1.81
X0.32Y0.87
X0.42Y3.69
X0.42Y2.75
X0.42Y1.81
X0.42Y0.87
X0.52Y3.69
X0.52Y2.75
X0.52Y1.81
X0.52Y0.87
X0.57Y3.01
X0.57Y2.91
X0.57Y2.07
X0.57Y1.97
X0.57Y1.13
X0.57Y1.03
X0.57Y0.19
X0.57Y0.09
X0.62Y3.69
X0.62Y2.75
X0.62Y1.81
X0.62Y0.87
X0.72Y3.69
X0.72Y2.75
X0.72Y1.81
X0.72Y0.87
X0.87Y3.69
X0.87Y3.59
X0.87Y3.49
X0.87Y3.39
X0.87Y3.29
X0.87Y3.19
X0.87Y3.09
X0.87Y2.99
X0.87Y2.89
X0.87Y2.75
X0.87Y2.65
X0.87Y2.55
X0.87Y2.45
X0.87Y2.35
X0.87Y2.25
X0.87Y2.15
X0.87Y2.05
X0.87Y1.95
X0.87Y1.81
X0.87Y1.71
X0.87Y1.61
X0.87Y1.51
X0.87Y1.41
X0.87Y1.31
X0.87Y1.21
X0.87Y1.11
X0.87Y1.01
X0.87Y0.87
X0.87Y0.77
X0.87Y0.67
X0.87Y0.57
X0.87Y0.47
X0.87Y0.37
X0.87Y0.27
X0.87Y0.17
X0.87Y0.07
X1.01Y3.69
X1.01Y3.59
X1.01Y3.49
X1.01Y3.39
X1.01Y3.29
X1.01Y3.19
X1.01Y3.09
X1.01Y2.99
X1.01Y2.89
X1.01Y2.75
X1.01Y2.65
X1.01Y2.55
X1.01Y2.45
X1.01Y2.35
X1.01Y2.25
X1.01Y2.15
X1.01Y2.05
X1.01Y1.95
X1.01Y1.81
X1.01Y1.71
X1.01Y1.61
X1.01Y1.51
X1.01Y1.41
X1.01Y1.31
X1.01Y1.21
X1.01Y1.11
X1.01Y1.01
X1.01Y0.87
X1.01Y0.77
X1.01Y0.67
X1.01Y0.57
X1.01Y0.47
X1.01Y0.37
X1.01Y0.27
X1.01Y0.17
X1.01Y0.07
X1.16Y3.69
X1.16Y2.75
X1.16Y1.81
X1.16Y0.87
X1.26Y3.69
X1.26Y2.75
X1.26Y1.81
X1.26Y0.87
X1.36Y3.69
X1.36Y2.75
X1.36Y1.81
X1.36Y0.87
X1.46Y3.69
X1.46Y2.75
X1.46Y1.81
X1.46Y0.87
X1.51Y3.01
X1.51Y2.91
X1.51Y2.07
X1.51Y1.97
X1.51Y1.13
X1.51Y1.03
X1.51Y0.19
X1.51Y0.09
X1.56Y3.69
X1.56Y2.75
X1.56Y1.81
X1.56Y0.87
X1.66Y3.69
X1.66Y2.75
X1.66Y1.81
X1.66Y0.87
X1.81Y3.69
X1.81Y3.59
X1.81Y3.49
X1.81Y3.39
X1.81Y3.29
X1.81Y3.19
X1.81Y3.09
X1.81Y2.99
X1.81Y2.89
X1.81Y2.75
X1.81Y2.65
X1.81Y2.55
X1.81Y2.45
X1.81Y2.35
X1.81Y2.25
X1.81Y2.15
X1.81Y2.05
X1.81Y1.95
X1.81Y1.81
X1.81Y1.71
X1.81Y1.61
X1.81Y1.51
X1.81Y1.41
X1.81Y1.31
X1.81Y1.21
X1.81Y1.11
X1.81Y1.01
X1.81Y0.87
X1.81Y0.77
X1.81Y0.67
X1.81Y0.57
X1.81Y0.47
X1.81Y0.37
X1.81Y0.27
X1.81Y0.17
X1.81Y0.07
X1.95Y3.69
X1.95Y3.59
X1.95Y3.49
X1.95Y3.39
X1.95Y3.29
X1.95Y3.19
X1.95Y3.09
X1.95Y2.99
X1.95Y2.89
X1.95Y2.75
X1.95Y2.65
X1.95Y2.55
X1.95Y2.45
X1.95Y2.35
X1.95Y2.25
X1.95Y2.15
X1.95Y2.05
X1.95Y1.95
X1.95Y1.81
X1.95Y1.71
X1.95Y1.61
X1.95Y1.51
X1.95Y1.41
X1.95Y1.31
X1.95Y1.21
X1.95Y1.11
X1.95Y1.01
X1.95Y0.87
X1.95Y0.77
X1.95Y0.67
X1.95Y0.57
X1.95Y0.47
X1.95Y0.37
X1.95Y0.27
X1.95Y0.17
X1.95Y0.07
X2.1Y3.69
X2.1Y2.75
X2.1Y1.81
X2.1Y0.87
X2.2Y3.69
X2.2Y2.75
X2.2Y1.81
X2.2Y0.87
X2.3Y3.69
X2.3Y2.75
X2.3Y1.81
X2.3Y0.87
X2.4Y3.69
X2.4Y2.75
X2.4Y1.81
X2.4Y0.87
X2.45Y3.01
X2.45Y2.91
X2.45Y2.07
X2.45Y1.97
X2.45Y1.13
X2.45Y1.03
X2.45Y0.19
X2.45Y0.09
X2.5Y3.69
X2.5Y2.75
X2.5Y1.81
X2.5Y0.87
X2.6Y3.69
X2.6Y2.75
X2.6Y1.81
X2.6Y0.87
X2.75Y3.69
X2.75Y3.59
X2.75Y3.49
X2.75Y3.39
X2.75Y3.29
X2.75Y3.19
X2.75Y3.09
X2.75Y2.99
X2.75Y2.89
X2.75Y2.75
X2.75Y2.65
X2.75Y2.55
X2.75Y2.45
X2.75Y2.35
X2.75Y2.25
X2.75Y2.15
X2.75Y2.05
X2.75Y1.95
X2.75Y1.81
X2.75Y1.71
X2.75Y1.61
X2.75Y1.51
X2.75Y1.41
X2.75Y1.31
X2.75Y1.21
X2.75Y1.11
X2.75Y1.01
X2.75Y0.87
X2.75Y0.77
X2.75Y0.67
X2.75Y0.57
X2.75Y0.47
X2.75Y0.37
X2.75Y0.27
X2.75Y0.17
X2.75Y0.07
X2.89Y3.69
X2.89Y3.59
X2.89Y3.49
X2.89Y3.39
X2.89Y3.29
X2.89Y3.19
X2.89Y3.09
X2.89Y2.99
X2.89Y2.89
X2.89Y2.75
X2.89Y2.65
X2.89Y2.55
X2.89Y2.45
X2.89Y2.35
X2.89Y2.25
X2.89Y2.15
X2.89Y2.05
X2.89Y1.95
X2.89Y1.81
X2.89Y1.71
X2.89Y1.61
X2.89Y1.51
X2.89Y1.41
X2.89Y1.31
X2.89Y1.21
X2.89Y1.11
X2.89Y1.01
X2.89Y0.87
X2.89Y0.77
X2.89Y0.67
X2.89Y0.57
X2.89Y0.47
X2.89Y0.37
X2.89Y0.27
X2.89Y0.17
X2.89Y0.07
X3.04Y3.69
X3.04Y2.75
X3.04Y1.81
X3.04Y0.87
X3.14Y3.69
X3.14Y2.75
X3.14Y1.81
X3.14Y0.87
X3.24Y3.69
X3.24Y2.75
X3.24Y1.81
X3.24Y0.87
X3.34Y3.69
X3.34Y2.75
X3.34Y1.81
X3.34Y0.87
X3.39Y3.01
X3.39Y2.91
X3.39Y2.07
X3.39Y1.97
X3.39Y1.13
X3.39Y1.03
X3.39Y0.19
X3.39Y0.09
X3.44Y3.69
X3.44Y2.75
X3.44Y1.81
X3.44Y0.87
X3.54Y3.69
X3.54Y2.75
X3.54Y1.81
X3.54Y0.87
X3.69Y3.69
X3.69Y3.59
X3.69Y3.49
X3.69Y3.39
X3.69Y3.29
X3.69Y3.19
X3.69Y3.09
X3.69Y2.99
X3.69Y2.89
X3.69Y2.75
X3.69Y2.65
X3.69Y2.55
X3.69Y2.45
X3.69Y2.35
X3.69Y2.25
X3.69Y2.15
X3.69Y2.05
X3.69Y1.95
X3.69Y1.81
X3.69Y1.71
X3.69Y1.61
X3.69Y1.51
X3.69Y1.41
X3.69Y1.31
X3.69Y1.21
X3.69Y1.11
X3.69Y1.01
X3.69Y0.87
X3.69Y0.77
X3.69Y0.67
X3.69Y0.57
X3.69Y0.47
X3.69Y0.37
X3.69Y0.27
X3.69Y0.17
X3.69Y0.07
T5
X0.2602Y2.9946
X0.2602Y2.0546
X0.2602Y1.1146
X0.2602Y0.1746
X0.4098Y2.9946
X0.4098Y2.0546
X0.4098Y1.1146
X0.4098Y0.1746
X1.2002Y2.9946
X1.2002Y2.0546
X1.2002Y1.1146
X1.2002Y0.1746
X1.3498Y2.9946
X1.3498Y2.0546
X1.3498Y1.1146
X1.3498Y0.1746
X2.1402Y2.9946
X2.1402Y2.0546
X2.1402Y1.1146
X2.1402Y0.1746
X2.2898Y2.9946
X2.2898Y2.0546
X2.2898Y1.1146
X2.2898Y0.1746
X3.0802Y2.9946
X3.0802Y2.0546
X3.0802Y1.1146
X3.0802Y0.1746
X3.2298Y2.9946
X3.2298Y2.0546
X3.2298Y1.1146
X3.2298Y0.1746
T1
X0.209Y2.9257G85X0.209Y2.8943
G05
X0.209Y1.9857G85X0.209Y1.9543
G05
X0.209Y1.0457G85X0.209Y1.0143
G05
X0.209Y0.1057G85X0.209Y0.0743
G05
X0.461Y2.9257G85X0.461Y2.8943
G05
X0.461Y1.9857G85X0.461Y1.9543
G05
X0.461Y1.0457G85X0.461Y1.0143
G05
X0.461Y0.1057G85X0.461Y0.0743
G05
X1.149Y2.9257G85X1.149Y2.8943
G05
X1.149Y1.9857G85X1.149Y1.9543
G05
X1.149Y1.0457G85X1.149Y1.0143
G05
X1.149Y0.1057G85X1.149Y0.0743
G05
X1.401Y2.9257G85X1.401Y2.8943
G05
X1.401Y1.9857G85X1.401Y1.9543
G05
X1.401Y1.0457G85X1.401Y1.0143
G05
X1.401Y0.1057G85X1.401Y0.0743
G05
X2.089Y2.9257G85X2.089Y2.8943
G05
X2.089Y1.9857G85X2.089Y1.9543
G05
X2.089Y1.0457G85X2.089Y1.0143
G05
X2.089Y0.1057G85X2.089Y0.0743
G05
X2.341Y2.9257G85X2.341Y2.8943
G05
X2.341Y1.9857G85X2.341Y1.9543
G05
X2.341Y1.0457G85X2.341Y1.0143
G05
X2.341Y0.1057G85X2.341Y0.0743
G05
X3.029Y2.9257G85X3.029Y2.8943
G05
X3.029Y1.9857G85X3.029Y1.9543
G05
X3.029Y1.0457G85X3.029Y1.0143
G05
X3.029Y0.1057G85X3.029Y0.0743
G05
X3.281Y2.9257G85X3.281Y2.8943
G05
X3.281Y1.9857G85X3.281Y1.9543
G05
X3.281Y1.0457G85X3.281Y1.0143
G05
X3.281Y0.1057G85X3.281Y0.0743
G05
T0
M30
