G04 #@! TF.FileFunction,Soldermask,Bot*
%FSLAX46Y46*%
G04 Gerber Fmt 4.6, Leading zero omitted, Abs format (unit mm)*
G04 Created by KiCad (PCBNEW 4.0.1-2.201512121406+6195~38~ubuntu15.10.1-stable) date Monday, December 14, 2015 PM10:34:12 HKT*
%MOMM*%
G01*
G04 APERTURE LIST*
%ADD10C,0.100000*%
%ADD11R,2.235200X2.235200*%
%ADD12O,2.235200X2.235200*%
%ADD13R,1.703200X1.453200*%
%ADD14R,1.453200X1.703200*%
%ADD15R,2.235200X3.860800*%
%ADD16R,2.235200X1.219200*%
%ADD17C,1.704340*%
%ADD18R,2.235200X1.930400*%
%ADD19O,2.235200X1.930400*%
%ADD20R,1.930400X2.235200*%
%ADD21O,1.930400X2.235200*%
%ADD22O,1.403200X2.203200*%
%ADD23C,0.803200*%
G04 APERTURE END LIST*
D10*
D11*
X86106000Y4826000D03*
D12*
X86106000Y2286000D03*
D13*
X87015000Y15748000D03*
X89515000Y15748000D03*
D14*
X89408000Y5314000D03*
X89408000Y2814000D03*
D15*
X82550000Y10414000D03*
D16*
X89154000Y10414000D03*
X89154000Y8128000D03*
X89154000Y12700000D03*
D17*
X78232000Y11275060D03*
X78232000Y16156940D03*
D18*
X93726000Y22098000D03*
D19*
X93726000Y19558000D03*
X93726000Y17018000D03*
X93726000Y14478000D03*
X93726000Y11938000D03*
X93726000Y9398000D03*
X93726000Y6858000D03*
X93726000Y4318000D03*
X93726000Y1778000D03*
D18*
X73406000Y22098000D03*
D19*
X73406000Y19558000D03*
X73406000Y17018000D03*
X73406000Y14478000D03*
X73406000Y11938000D03*
X73406000Y9398000D03*
X73406000Y6858000D03*
X73406000Y4318000D03*
X73406000Y1778000D03*
D20*
X77216000Y22098000D03*
D21*
X79756000Y22098000D03*
X82296000Y22098000D03*
X84836000Y22098000D03*
X87376000Y22098000D03*
X89916000Y22098000D03*
D22*
X76937000Y2286000D03*
X83337000Y2286000D03*
D23*
X78237000Y4436000D03*
X82037000Y4436000D03*
D11*
X86106000Y28702000D03*
D12*
X86106000Y26162000D03*
D13*
X87015000Y39624000D03*
X89515000Y39624000D03*
D14*
X89408000Y29190000D03*
X89408000Y26690000D03*
D15*
X82550000Y34290000D03*
D16*
X89154000Y34290000D03*
X89154000Y32004000D03*
X89154000Y36576000D03*
D17*
X78232000Y35151060D03*
X78232000Y40032940D03*
D18*
X93726000Y45974000D03*
D19*
X93726000Y43434000D03*
X93726000Y40894000D03*
X93726000Y38354000D03*
X93726000Y35814000D03*
X93726000Y33274000D03*
X93726000Y30734000D03*
X93726000Y28194000D03*
X93726000Y25654000D03*
D18*
X73406000Y45974000D03*
D19*
X73406000Y43434000D03*
X73406000Y40894000D03*
X73406000Y38354000D03*
X73406000Y35814000D03*
X73406000Y33274000D03*
X73406000Y30734000D03*
X73406000Y28194000D03*
X73406000Y25654000D03*
D20*
X77216000Y45974000D03*
D21*
X79756000Y45974000D03*
X82296000Y45974000D03*
X84836000Y45974000D03*
X87376000Y45974000D03*
X89916000Y45974000D03*
D22*
X76937000Y26162000D03*
X83337000Y26162000D03*
D23*
X78237000Y28312000D03*
X82037000Y28312000D03*
D11*
X86106000Y52578000D03*
D12*
X86106000Y50038000D03*
D13*
X87015000Y63500000D03*
X89515000Y63500000D03*
D14*
X89408000Y53066000D03*
X89408000Y50566000D03*
D15*
X82550000Y58166000D03*
D16*
X89154000Y58166000D03*
X89154000Y55880000D03*
X89154000Y60452000D03*
D17*
X78232000Y59027060D03*
X78232000Y63908940D03*
D18*
X93726000Y69850000D03*
D19*
X93726000Y67310000D03*
X93726000Y64770000D03*
X93726000Y62230000D03*
X93726000Y59690000D03*
X93726000Y57150000D03*
X93726000Y54610000D03*
X93726000Y52070000D03*
X93726000Y49530000D03*
D18*
X73406000Y69850000D03*
D19*
X73406000Y67310000D03*
X73406000Y64770000D03*
X73406000Y62230000D03*
X73406000Y59690000D03*
X73406000Y57150000D03*
X73406000Y54610000D03*
X73406000Y52070000D03*
X73406000Y49530000D03*
D20*
X77216000Y69850000D03*
D21*
X79756000Y69850000D03*
X82296000Y69850000D03*
X84836000Y69850000D03*
X87376000Y69850000D03*
X89916000Y69850000D03*
D22*
X76937000Y50038000D03*
X83337000Y50038000D03*
D23*
X78237000Y52188000D03*
X82037000Y52188000D03*
D11*
X86106000Y76454000D03*
D12*
X86106000Y73914000D03*
D13*
X87015000Y87376000D03*
X89515000Y87376000D03*
D14*
X89408000Y76942000D03*
X89408000Y74442000D03*
D15*
X82550000Y82042000D03*
D16*
X89154000Y82042000D03*
X89154000Y79756000D03*
X89154000Y84328000D03*
D17*
X78232000Y82903060D03*
X78232000Y87784940D03*
D18*
X93726000Y93726000D03*
D19*
X93726000Y91186000D03*
X93726000Y88646000D03*
X93726000Y86106000D03*
X93726000Y83566000D03*
X93726000Y81026000D03*
X93726000Y78486000D03*
X93726000Y75946000D03*
X93726000Y73406000D03*
D18*
X73406000Y93726000D03*
D19*
X73406000Y91186000D03*
X73406000Y88646000D03*
X73406000Y86106000D03*
X73406000Y83566000D03*
X73406000Y81026000D03*
X73406000Y78486000D03*
X73406000Y75946000D03*
X73406000Y73406000D03*
D20*
X77216000Y93726000D03*
D21*
X79756000Y93726000D03*
X82296000Y93726000D03*
X84836000Y93726000D03*
X87376000Y93726000D03*
X89916000Y93726000D03*
D22*
X76937000Y73914000D03*
X83337000Y73914000D03*
D23*
X78237000Y76064000D03*
X82037000Y76064000D03*
D11*
X62230000Y4826000D03*
D12*
X62230000Y2286000D03*
D13*
X63139000Y15748000D03*
X65639000Y15748000D03*
D14*
X65532000Y5314000D03*
X65532000Y2814000D03*
D15*
X58674000Y10414000D03*
D16*
X65278000Y10414000D03*
X65278000Y8128000D03*
X65278000Y12700000D03*
D17*
X54356000Y11275060D03*
X54356000Y16156940D03*
D18*
X69850000Y22098000D03*
D19*
X69850000Y19558000D03*
X69850000Y17018000D03*
X69850000Y14478000D03*
X69850000Y11938000D03*
X69850000Y9398000D03*
X69850000Y6858000D03*
X69850000Y4318000D03*
X69850000Y1778000D03*
D18*
X49530000Y22098000D03*
D19*
X49530000Y19558000D03*
X49530000Y17018000D03*
X49530000Y14478000D03*
X49530000Y11938000D03*
X49530000Y9398000D03*
X49530000Y6858000D03*
X49530000Y4318000D03*
X49530000Y1778000D03*
D20*
X53340000Y22098000D03*
D21*
X55880000Y22098000D03*
X58420000Y22098000D03*
X60960000Y22098000D03*
X63500000Y22098000D03*
X66040000Y22098000D03*
D22*
X53061000Y2286000D03*
X59461000Y2286000D03*
D23*
X54361000Y4436000D03*
X58161000Y4436000D03*
D11*
X62230000Y28702000D03*
D12*
X62230000Y26162000D03*
D13*
X63139000Y39624000D03*
X65639000Y39624000D03*
D14*
X65532000Y29190000D03*
X65532000Y26690000D03*
D15*
X58674000Y34290000D03*
D16*
X65278000Y34290000D03*
X65278000Y32004000D03*
X65278000Y36576000D03*
D17*
X54356000Y35151060D03*
X54356000Y40032940D03*
D18*
X69850000Y45974000D03*
D19*
X69850000Y43434000D03*
X69850000Y40894000D03*
X69850000Y38354000D03*
X69850000Y35814000D03*
X69850000Y33274000D03*
X69850000Y30734000D03*
X69850000Y28194000D03*
X69850000Y25654000D03*
D18*
X49530000Y45974000D03*
D19*
X49530000Y43434000D03*
X49530000Y40894000D03*
X49530000Y38354000D03*
X49530000Y35814000D03*
X49530000Y33274000D03*
X49530000Y30734000D03*
X49530000Y28194000D03*
X49530000Y25654000D03*
D20*
X53340000Y45974000D03*
D21*
X55880000Y45974000D03*
X58420000Y45974000D03*
X60960000Y45974000D03*
X63500000Y45974000D03*
X66040000Y45974000D03*
D22*
X53061000Y26162000D03*
X59461000Y26162000D03*
D23*
X54361000Y28312000D03*
X58161000Y28312000D03*
D11*
X62230000Y52578000D03*
D12*
X62230000Y50038000D03*
D13*
X63139000Y63500000D03*
X65639000Y63500000D03*
D14*
X65532000Y53066000D03*
X65532000Y50566000D03*
D15*
X58674000Y58166000D03*
D16*
X65278000Y58166000D03*
X65278000Y55880000D03*
X65278000Y60452000D03*
D17*
X54356000Y59027060D03*
X54356000Y63908940D03*
D18*
X69850000Y69850000D03*
D19*
X69850000Y67310000D03*
X69850000Y64770000D03*
X69850000Y62230000D03*
X69850000Y59690000D03*
X69850000Y57150000D03*
X69850000Y54610000D03*
X69850000Y52070000D03*
X69850000Y49530000D03*
D18*
X49530000Y69850000D03*
D19*
X49530000Y67310000D03*
X49530000Y64770000D03*
X49530000Y62230000D03*
X49530000Y59690000D03*
X49530000Y57150000D03*
X49530000Y54610000D03*
X49530000Y52070000D03*
X49530000Y49530000D03*
D20*
X53340000Y69850000D03*
D21*
X55880000Y69850000D03*
X58420000Y69850000D03*
X60960000Y69850000D03*
X63500000Y69850000D03*
X66040000Y69850000D03*
D22*
X53061000Y50038000D03*
X59461000Y50038000D03*
D23*
X54361000Y52188000D03*
X58161000Y52188000D03*
D11*
X62230000Y76454000D03*
D12*
X62230000Y73914000D03*
D13*
X63139000Y87376000D03*
X65639000Y87376000D03*
D14*
X65532000Y76942000D03*
X65532000Y74442000D03*
D15*
X58674000Y82042000D03*
D16*
X65278000Y82042000D03*
X65278000Y79756000D03*
X65278000Y84328000D03*
D17*
X54356000Y82903060D03*
X54356000Y87784940D03*
D18*
X69850000Y93726000D03*
D19*
X69850000Y91186000D03*
X69850000Y88646000D03*
X69850000Y86106000D03*
X69850000Y83566000D03*
X69850000Y81026000D03*
X69850000Y78486000D03*
X69850000Y75946000D03*
X69850000Y73406000D03*
D18*
X49530000Y93726000D03*
D19*
X49530000Y91186000D03*
X49530000Y88646000D03*
X49530000Y86106000D03*
X49530000Y83566000D03*
X49530000Y81026000D03*
X49530000Y78486000D03*
X49530000Y75946000D03*
X49530000Y73406000D03*
D20*
X53340000Y93726000D03*
D21*
X55880000Y93726000D03*
X58420000Y93726000D03*
X60960000Y93726000D03*
X63500000Y93726000D03*
X66040000Y93726000D03*
D22*
X53061000Y73914000D03*
X59461000Y73914000D03*
D23*
X54361000Y76064000D03*
X58161000Y76064000D03*
D11*
X38354000Y4826000D03*
D12*
X38354000Y2286000D03*
D13*
X39263000Y15748000D03*
X41763000Y15748000D03*
D14*
X41656000Y5314000D03*
X41656000Y2814000D03*
D15*
X34798000Y10414000D03*
D16*
X41402000Y10414000D03*
X41402000Y8128000D03*
X41402000Y12700000D03*
D17*
X30480000Y11275060D03*
X30480000Y16156940D03*
D18*
X45974000Y22098000D03*
D19*
X45974000Y19558000D03*
X45974000Y17018000D03*
X45974000Y14478000D03*
X45974000Y11938000D03*
X45974000Y9398000D03*
X45974000Y6858000D03*
X45974000Y4318000D03*
X45974000Y1778000D03*
D18*
X25654000Y22098000D03*
D19*
X25654000Y19558000D03*
X25654000Y17018000D03*
X25654000Y14478000D03*
X25654000Y11938000D03*
X25654000Y9398000D03*
X25654000Y6858000D03*
X25654000Y4318000D03*
X25654000Y1778000D03*
D20*
X29464000Y22098000D03*
D21*
X32004000Y22098000D03*
X34544000Y22098000D03*
X37084000Y22098000D03*
X39624000Y22098000D03*
X42164000Y22098000D03*
D22*
X29185000Y2286000D03*
X35585000Y2286000D03*
D23*
X30485000Y4436000D03*
X34285000Y4436000D03*
D11*
X38354000Y28702000D03*
D12*
X38354000Y26162000D03*
D13*
X39263000Y39624000D03*
X41763000Y39624000D03*
D14*
X41656000Y29190000D03*
X41656000Y26690000D03*
D15*
X34798000Y34290000D03*
D16*
X41402000Y34290000D03*
X41402000Y32004000D03*
X41402000Y36576000D03*
D17*
X30480000Y35151060D03*
X30480000Y40032940D03*
D18*
X45974000Y45974000D03*
D19*
X45974000Y43434000D03*
X45974000Y40894000D03*
X45974000Y38354000D03*
X45974000Y35814000D03*
X45974000Y33274000D03*
X45974000Y30734000D03*
X45974000Y28194000D03*
X45974000Y25654000D03*
D18*
X25654000Y45974000D03*
D19*
X25654000Y43434000D03*
X25654000Y40894000D03*
X25654000Y38354000D03*
X25654000Y35814000D03*
X25654000Y33274000D03*
X25654000Y30734000D03*
X25654000Y28194000D03*
X25654000Y25654000D03*
D20*
X29464000Y45974000D03*
D21*
X32004000Y45974000D03*
X34544000Y45974000D03*
X37084000Y45974000D03*
X39624000Y45974000D03*
X42164000Y45974000D03*
D22*
X29185000Y26162000D03*
X35585000Y26162000D03*
D23*
X30485000Y28312000D03*
X34285000Y28312000D03*
D11*
X38354000Y52578000D03*
D12*
X38354000Y50038000D03*
D13*
X39263000Y63500000D03*
X41763000Y63500000D03*
D14*
X41656000Y53066000D03*
X41656000Y50566000D03*
D15*
X34798000Y58166000D03*
D16*
X41402000Y58166000D03*
X41402000Y55880000D03*
X41402000Y60452000D03*
D17*
X30480000Y59027060D03*
X30480000Y63908940D03*
D18*
X45974000Y69850000D03*
D19*
X45974000Y67310000D03*
X45974000Y64770000D03*
X45974000Y62230000D03*
X45974000Y59690000D03*
X45974000Y57150000D03*
X45974000Y54610000D03*
X45974000Y52070000D03*
X45974000Y49530000D03*
D18*
X25654000Y69850000D03*
D19*
X25654000Y67310000D03*
X25654000Y64770000D03*
X25654000Y62230000D03*
X25654000Y59690000D03*
X25654000Y57150000D03*
X25654000Y54610000D03*
X25654000Y52070000D03*
X25654000Y49530000D03*
D20*
X29464000Y69850000D03*
D21*
X32004000Y69850000D03*
X34544000Y69850000D03*
X37084000Y69850000D03*
X39624000Y69850000D03*
X42164000Y69850000D03*
D22*
X29185000Y50038000D03*
X35585000Y50038000D03*
D23*
X30485000Y52188000D03*
X34285000Y52188000D03*
D11*
X38354000Y76454000D03*
D12*
X38354000Y73914000D03*
D13*
X39263000Y87376000D03*
X41763000Y87376000D03*
D14*
X41656000Y76942000D03*
X41656000Y74442000D03*
D15*
X34798000Y82042000D03*
D16*
X41402000Y82042000D03*
X41402000Y79756000D03*
X41402000Y84328000D03*
D17*
X30480000Y82903060D03*
X30480000Y87784940D03*
D18*
X45974000Y93726000D03*
D19*
X45974000Y91186000D03*
X45974000Y88646000D03*
X45974000Y86106000D03*
X45974000Y83566000D03*
X45974000Y81026000D03*
X45974000Y78486000D03*
X45974000Y75946000D03*
X45974000Y73406000D03*
D18*
X25654000Y93726000D03*
D19*
X25654000Y91186000D03*
X25654000Y88646000D03*
X25654000Y86106000D03*
X25654000Y83566000D03*
X25654000Y81026000D03*
X25654000Y78486000D03*
X25654000Y75946000D03*
X25654000Y73406000D03*
D20*
X29464000Y93726000D03*
D21*
X32004000Y93726000D03*
X34544000Y93726000D03*
X37084000Y93726000D03*
X39624000Y93726000D03*
X42164000Y93726000D03*
D22*
X29185000Y73914000D03*
X35585000Y73914000D03*
D23*
X30485000Y76064000D03*
X34285000Y76064000D03*
D11*
X14478000Y4826000D03*
D12*
X14478000Y2286000D03*
D13*
X15387000Y15748000D03*
X17887000Y15748000D03*
D14*
X17780000Y5314000D03*
X17780000Y2814000D03*
D15*
X10922000Y10414000D03*
D16*
X17526000Y10414000D03*
X17526000Y8128000D03*
X17526000Y12700000D03*
D17*
X6604000Y11275060D03*
X6604000Y16156940D03*
D18*
X22098000Y22098000D03*
D19*
X22098000Y19558000D03*
X22098000Y17018000D03*
X22098000Y14478000D03*
X22098000Y11938000D03*
X22098000Y9398000D03*
X22098000Y6858000D03*
X22098000Y4318000D03*
X22098000Y1778000D03*
D18*
X1778000Y22098000D03*
D19*
X1778000Y19558000D03*
X1778000Y17018000D03*
X1778000Y14478000D03*
X1778000Y11938000D03*
X1778000Y9398000D03*
X1778000Y6858000D03*
X1778000Y4318000D03*
X1778000Y1778000D03*
D20*
X5588000Y22098000D03*
D21*
X8128000Y22098000D03*
X10668000Y22098000D03*
X13208000Y22098000D03*
X15748000Y22098000D03*
X18288000Y22098000D03*
D22*
X5309000Y2286000D03*
X11709000Y2286000D03*
D23*
X6609000Y4436000D03*
X10409000Y4436000D03*
D11*
X14478000Y28702000D03*
D12*
X14478000Y26162000D03*
D13*
X15387000Y39624000D03*
X17887000Y39624000D03*
D14*
X17780000Y29190000D03*
X17780000Y26690000D03*
D15*
X10922000Y34290000D03*
D16*
X17526000Y34290000D03*
X17526000Y32004000D03*
X17526000Y36576000D03*
D17*
X6604000Y35151060D03*
X6604000Y40032940D03*
D18*
X22098000Y45974000D03*
D19*
X22098000Y43434000D03*
X22098000Y40894000D03*
X22098000Y38354000D03*
X22098000Y35814000D03*
X22098000Y33274000D03*
X22098000Y30734000D03*
X22098000Y28194000D03*
X22098000Y25654000D03*
D18*
X1778000Y45974000D03*
D19*
X1778000Y43434000D03*
X1778000Y40894000D03*
X1778000Y38354000D03*
X1778000Y35814000D03*
X1778000Y33274000D03*
X1778000Y30734000D03*
X1778000Y28194000D03*
X1778000Y25654000D03*
D20*
X5588000Y45974000D03*
D21*
X8128000Y45974000D03*
X10668000Y45974000D03*
X13208000Y45974000D03*
X15748000Y45974000D03*
X18288000Y45974000D03*
D22*
X5309000Y26162000D03*
X11709000Y26162000D03*
D23*
X6609000Y28312000D03*
X10409000Y28312000D03*
D11*
X14478000Y52578000D03*
D12*
X14478000Y50038000D03*
D13*
X15387000Y63500000D03*
X17887000Y63500000D03*
D14*
X17780000Y53066000D03*
X17780000Y50566000D03*
D15*
X10922000Y58166000D03*
D16*
X17526000Y58166000D03*
X17526000Y55880000D03*
X17526000Y60452000D03*
D17*
X6604000Y59027060D03*
X6604000Y63908940D03*
D18*
X22098000Y69850000D03*
D19*
X22098000Y67310000D03*
X22098000Y64770000D03*
X22098000Y62230000D03*
X22098000Y59690000D03*
X22098000Y57150000D03*
X22098000Y54610000D03*
X22098000Y52070000D03*
X22098000Y49530000D03*
D18*
X1778000Y69850000D03*
D19*
X1778000Y67310000D03*
X1778000Y64770000D03*
X1778000Y62230000D03*
X1778000Y59690000D03*
X1778000Y57150000D03*
X1778000Y54610000D03*
X1778000Y52070000D03*
X1778000Y49530000D03*
D20*
X5588000Y69850000D03*
D21*
X8128000Y69850000D03*
X10668000Y69850000D03*
X13208000Y69850000D03*
X15748000Y69850000D03*
X18288000Y69850000D03*
D22*
X5309000Y50038000D03*
X11709000Y50038000D03*
D23*
X6609000Y52188000D03*
X10409000Y52188000D03*
D22*
X5309000Y73914000D03*
X11709000Y73914000D03*
D23*
X6609000Y76064000D03*
X10409000Y76064000D03*
D20*
X5588000Y93726000D03*
D21*
X8128000Y93726000D03*
X10668000Y93726000D03*
X13208000Y93726000D03*
X15748000Y93726000D03*
X18288000Y93726000D03*
D18*
X1778000Y93726000D03*
D19*
X1778000Y91186000D03*
X1778000Y88646000D03*
X1778000Y86106000D03*
X1778000Y83566000D03*
X1778000Y81026000D03*
X1778000Y78486000D03*
X1778000Y75946000D03*
X1778000Y73406000D03*
D18*
X22098000Y93726000D03*
D19*
X22098000Y91186000D03*
X22098000Y88646000D03*
X22098000Y86106000D03*
X22098000Y83566000D03*
X22098000Y81026000D03*
X22098000Y78486000D03*
X22098000Y75946000D03*
X22098000Y73406000D03*
D17*
X6604000Y82903060D03*
X6604000Y87784940D03*
D15*
X10922000Y82042000D03*
D16*
X17526000Y82042000D03*
X17526000Y79756000D03*
X17526000Y84328000D03*
D14*
X17780000Y76942000D03*
X17780000Y74442000D03*
D13*
X15387000Y87376000D03*
X17887000Y87376000D03*
D11*
X14478000Y76454000D03*
D12*
X14478000Y73914000D03*
M02*
