G04 #@! TF.FileFunction,Legend,Bot*
%FSLAX46Y46*%
G04 Gerber Fmt 4.6, Leading zero omitted, Abs format (unit mm)*
G04 Created by KiCad (PCBNEW 4.0.1-2.201512121406+6195~38~ubuntu15.10.1-stable) date Monday, December 14, 2015 PM10:34:12 HKT*
%MOMM*%
G01*
G04 APERTURE LIST*
%ADD10C,0.100000*%
%ADD11C,0.200000*%
%ADD12C,0.150000*%
G04 APERTURE END LIST*
D10*
D11*
X84473619Y5276857D02*
X83864095Y5276857D01*
X84168857Y4972095D02*
X84168857Y5581619D01*
X83064095Y4972095D02*
X83521238Y4972095D01*
X83292667Y4972095D02*
X83292667Y5772095D01*
X83368857Y5657810D01*
X83445048Y5581619D01*
X83521238Y5543524D01*
X82759333Y5695905D02*
X82721238Y5734000D01*
X82645047Y5772095D01*
X82454571Y5772095D01*
X82378381Y5734000D01*
X82340285Y5695905D01*
X82302190Y5619714D01*
X82302190Y5543524D01*
X82340285Y5429238D01*
X82797428Y4972095D01*
X82302190Y4972095D01*
X82073619Y5772095D02*
X81806952Y4972095D01*
X81540285Y5772095D01*
X80664095Y4972095D02*
X80664095Y5772095D01*
X80283143Y4972095D02*
X80283143Y5772095D01*
X79826000Y4972095D01*
X79826000Y5772095D01*
X79445048Y4972095D02*
X79445048Y5772095D01*
X79140286Y5772095D01*
X79064095Y5734000D01*
X79026000Y5695905D01*
X78987905Y5619714D01*
X78987905Y5505429D01*
X79026000Y5429238D01*
X79064095Y5391143D01*
X79140286Y5353048D01*
X79445048Y5353048D01*
X78645048Y5772095D02*
X78645048Y5124476D01*
X78606953Y5048286D01*
X78568857Y5010190D01*
X78492667Y4972095D01*
X78340286Y4972095D01*
X78264095Y5010190D01*
X78226000Y5048286D01*
X78187905Y5124476D01*
X78187905Y5772095D01*
X77921239Y5772095D02*
X77464096Y5772095D01*
X77692667Y4972095D02*
X77692667Y5772095D01*
X86842523Y1035000D02*
X86918714Y1073095D01*
X87032999Y1073095D01*
X87147285Y1035000D01*
X87223476Y958810D01*
X87261571Y882619D01*
X87299666Y730238D01*
X87299666Y615952D01*
X87261571Y463571D01*
X87223476Y387381D01*
X87147285Y311190D01*
X87032999Y273095D01*
X86956809Y273095D01*
X86842523Y311190D01*
X86804428Y349286D01*
X86804428Y615952D01*
X86956809Y615952D01*
X86461571Y273095D02*
X86461571Y1073095D01*
X86004428Y273095D01*
X86004428Y1073095D01*
X85623476Y273095D02*
X85623476Y1073095D01*
X85433000Y1073095D01*
X85318714Y1035000D01*
X85242523Y958810D01*
X85204428Y882619D01*
X85166333Y730238D01*
X85166333Y615952D01*
X85204428Y463571D01*
X85242523Y387381D01*
X85318714Y311190D01*
X85433000Y273095D01*
X85623476Y273095D01*
X77666095Y6997619D02*
X78047048Y6730952D01*
X77666095Y6540476D02*
X78466095Y6540476D01*
X78466095Y6845238D01*
X78428000Y6921429D01*
X78389905Y6959524D01*
X78313714Y6997619D01*
X78199429Y6997619D01*
X78123238Y6959524D01*
X78085143Y6921429D01*
X78047048Y6845238D01*
X78047048Y6540476D01*
X77704190Y7645238D02*
X77666095Y7569048D01*
X77666095Y7416667D01*
X77704190Y7340476D01*
X77780381Y7302381D01*
X78085143Y7302381D01*
X78161333Y7340476D01*
X78199429Y7416667D01*
X78199429Y7569048D01*
X78161333Y7645238D01*
X78085143Y7683333D01*
X78008952Y7683333D01*
X77932762Y7302381D01*
X78199429Y7950000D02*
X77666095Y8140476D01*
X78199429Y8330952D01*
X77666095Y9054762D02*
X77666095Y8597619D01*
X77666095Y8826190D02*
X78466095Y8826190D01*
X78351810Y8750000D01*
X78275619Y8673809D01*
X78237524Y8597619D01*
X77742286Y9397619D02*
X77704190Y9435714D01*
X77666095Y9397619D01*
X77704190Y9359524D01*
X77742286Y9397619D01*
X77666095Y9397619D01*
X78466095Y9930952D02*
X78466095Y10007143D01*
X78428000Y10083333D01*
X78389905Y10121428D01*
X78313714Y10159524D01*
X78161333Y10197619D01*
X77970857Y10197619D01*
X77818476Y10159524D01*
X77742286Y10121428D01*
X77704190Y10083333D01*
X77666095Y10007143D01*
X77666095Y9930952D01*
X77704190Y9854762D01*
X77742286Y9816666D01*
X77818476Y9778571D01*
X77970857Y9740476D01*
X78161333Y9740476D01*
X78313714Y9778571D01*
X78389905Y9816666D01*
X78428000Y9854762D01*
X78466095Y9930952D01*
X76346095Y6540476D02*
X77146095Y6540476D01*
X77146095Y6730952D01*
X77108000Y6845238D01*
X77031810Y6921429D01*
X76955619Y6959524D01*
X76803238Y6997619D01*
X76688952Y6997619D01*
X76536571Y6959524D01*
X76460381Y6921429D01*
X76384190Y6845238D01*
X76346095Y6730952D01*
X76346095Y6540476D01*
X76384190Y7645238D02*
X76346095Y7569048D01*
X76346095Y7416667D01*
X76384190Y7340476D01*
X76460381Y7302381D01*
X76765143Y7302381D01*
X76841333Y7340476D01*
X76879429Y7416667D01*
X76879429Y7569048D01*
X76841333Y7645238D01*
X76765143Y7683333D01*
X76688952Y7683333D01*
X76612762Y7302381D01*
X76384190Y8369047D02*
X76346095Y8292857D01*
X76346095Y8140476D01*
X76384190Y8064285D01*
X76422286Y8026190D01*
X76498476Y7988095D01*
X76727048Y7988095D01*
X76803238Y8026190D01*
X76841333Y8064285D01*
X76879429Y8140476D01*
X76879429Y8292857D01*
X76841333Y8369047D01*
X76650857Y8711904D02*
X76650857Y9321428D01*
X77069905Y9664285D02*
X77108000Y9702380D01*
X77146095Y9778571D01*
X77146095Y9969047D01*
X77108000Y10045237D01*
X77069905Y10083333D01*
X76993714Y10121428D01*
X76917524Y10121428D01*
X76803238Y10083333D01*
X76346095Y9626190D01*
X76346095Y10121428D01*
X77146095Y10616666D02*
X77146095Y10692857D01*
X77108000Y10769047D01*
X77069905Y10807142D01*
X76993714Y10845238D01*
X76841333Y10883333D01*
X76650857Y10883333D01*
X76498476Y10845238D01*
X76422286Y10807142D01*
X76384190Y10769047D01*
X76346095Y10692857D01*
X76346095Y10616666D01*
X76384190Y10540476D01*
X76422286Y10502380D01*
X76498476Y10464285D01*
X76650857Y10426190D01*
X76841333Y10426190D01*
X76993714Y10464285D01*
X77069905Y10502380D01*
X77108000Y10540476D01*
X77146095Y10616666D01*
X76346095Y11645238D02*
X76346095Y11188095D01*
X76346095Y11416666D02*
X77146095Y11416666D01*
X77031810Y11340476D01*
X76955619Y11264285D01*
X76917524Y11188095D01*
X77146095Y12369048D02*
X77146095Y11988095D01*
X76765143Y11950000D01*
X76803238Y11988095D01*
X76841333Y12064286D01*
X76841333Y12254762D01*
X76803238Y12330952D01*
X76765143Y12369048D01*
X76688952Y12407143D01*
X76498476Y12407143D01*
X76422286Y12369048D01*
X76384190Y12330952D01*
X76346095Y12254762D01*
X76346095Y12064286D01*
X76384190Y11988095D01*
X76422286Y11950000D01*
X75026095Y6540476D02*
X75826095Y6540476D01*
X75826095Y6730952D01*
X75788000Y6845238D01*
X75711810Y6921429D01*
X75635619Y6959524D01*
X75483238Y6997619D01*
X75368952Y6997619D01*
X75216571Y6959524D01*
X75140381Y6921429D01*
X75064190Y6845238D01*
X75026095Y6730952D01*
X75026095Y6540476D01*
X75064190Y7645238D02*
X75026095Y7569048D01*
X75026095Y7416667D01*
X75064190Y7340476D01*
X75140381Y7302381D01*
X75445143Y7302381D01*
X75521333Y7340476D01*
X75559429Y7416667D01*
X75559429Y7569048D01*
X75521333Y7645238D01*
X75445143Y7683333D01*
X75368952Y7683333D01*
X75292762Y7302381D01*
X75064190Y7988095D02*
X75026095Y8064285D01*
X75026095Y8216666D01*
X75064190Y8292857D01*
X75140381Y8330952D01*
X75178476Y8330952D01*
X75254667Y8292857D01*
X75292762Y8216666D01*
X75292762Y8102381D01*
X75330857Y8026190D01*
X75407048Y7988095D01*
X75445143Y7988095D01*
X75521333Y8026190D01*
X75559429Y8102381D01*
X75559429Y8216666D01*
X75521333Y8292857D01*
X75026095Y8673809D02*
X75559429Y8673809D01*
X75826095Y8673809D02*
X75788000Y8635714D01*
X75749905Y8673809D01*
X75788000Y8711904D01*
X75826095Y8673809D01*
X75749905Y8673809D01*
X75559429Y9397618D02*
X74911810Y9397618D01*
X74835619Y9359523D01*
X74797524Y9321428D01*
X74759429Y9245237D01*
X74759429Y9130952D01*
X74797524Y9054761D01*
X75064190Y9397618D02*
X75026095Y9321428D01*
X75026095Y9169047D01*
X75064190Y9092856D01*
X75102286Y9054761D01*
X75178476Y9016666D01*
X75407048Y9016666D01*
X75483238Y9054761D01*
X75521333Y9092856D01*
X75559429Y9169047D01*
X75559429Y9321428D01*
X75521333Y9397618D01*
X75559429Y9778571D02*
X75026095Y9778571D01*
X75483238Y9778571D02*
X75521333Y9816666D01*
X75559429Y9892857D01*
X75559429Y10007143D01*
X75521333Y10083333D01*
X75445143Y10121428D01*
X75026095Y10121428D01*
X75064190Y10807143D02*
X75026095Y10730953D01*
X75026095Y10578572D01*
X75064190Y10502381D01*
X75140381Y10464286D01*
X75445143Y10464286D01*
X75521333Y10502381D01*
X75559429Y10578572D01*
X75559429Y10730953D01*
X75521333Y10807143D01*
X75445143Y10845238D01*
X75368952Y10845238D01*
X75292762Y10464286D01*
X75026095Y11530952D02*
X75826095Y11530952D01*
X75064190Y11530952D02*
X75026095Y11454762D01*
X75026095Y11302381D01*
X75064190Y11226190D01*
X75102286Y11188095D01*
X75178476Y11150000D01*
X75407048Y11150000D01*
X75483238Y11188095D01*
X75521333Y11226190D01*
X75559429Y11302381D01*
X75559429Y11454762D01*
X75521333Y11530952D01*
X75026095Y12521429D02*
X75826095Y12521429D01*
X75521333Y12521429D02*
X75559429Y12597620D01*
X75559429Y12750001D01*
X75521333Y12826191D01*
X75483238Y12864286D01*
X75407048Y12902382D01*
X75178476Y12902382D01*
X75102286Y12864286D01*
X75064190Y12826191D01*
X75026095Y12750001D01*
X75026095Y12597620D01*
X75064190Y12521429D01*
X75559429Y13169049D02*
X75026095Y13359525D01*
X75559429Y13550001D02*
X75026095Y13359525D01*
X74835619Y13283334D01*
X74797524Y13245239D01*
X74759429Y13169049D01*
X75026095Y14464287D02*
X75826095Y14464287D01*
X75445143Y14464287D02*
X75445143Y14921430D01*
X75026095Y14921430D02*
X75826095Y14921430D01*
X75826095Y15226192D02*
X75026095Y15416668D01*
X75597524Y15569049D01*
X75026095Y15721430D01*
X75826095Y15911906D01*
X75826095Y16750002D02*
X75026095Y16940478D01*
X75597524Y17092859D01*
X75026095Y17245240D01*
X75826095Y17435716D01*
X75026095Y17854764D02*
X75064190Y17778573D01*
X75102286Y17740478D01*
X75178476Y17702383D01*
X75407048Y17702383D01*
X75483238Y17740478D01*
X75521333Y17778573D01*
X75559429Y17854764D01*
X75559429Y17969050D01*
X75521333Y18045240D01*
X75483238Y18083335D01*
X75407048Y18121431D01*
X75178476Y18121431D01*
X75102286Y18083335D01*
X75064190Y18045240D01*
X75026095Y17969050D01*
X75026095Y17854764D01*
X75559429Y18464288D02*
X75026095Y18464288D01*
X75483238Y18464288D02*
X75521333Y18502383D01*
X75559429Y18578574D01*
X75559429Y18692860D01*
X75521333Y18769050D01*
X75445143Y18807145D01*
X75026095Y18807145D01*
X75559429Y19530955D02*
X74911810Y19530955D01*
X74835619Y19492860D01*
X74797524Y19454765D01*
X74759429Y19378574D01*
X74759429Y19264289D01*
X74797524Y19188098D01*
X75064190Y19530955D02*
X75026095Y19454765D01*
X75026095Y19302384D01*
X75064190Y19226193D01*
X75102286Y19188098D01*
X75178476Y19150003D01*
X75407048Y19150003D01*
X75483238Y19188098D01*
X75521333Y19226193D01*
X75559429Y19302384D01*
X75559429Y19454765D01*
X75521333Y19530955D01*
X84473619Y29152857D02*
X83864095Y29152857D01*
X84168857Y28848095D02*
X84168857Y29457619D01*
X83064095Y28848095D02*
X83521238Y28848095D01*
X83292667Y28848095D02*
X83292667Y29648095D01*
X83368857Y29533810D01*
X83445048Y29457619D01*
X83521238Y29419524D01*
X82759333Y29571905D02*
X82721238Y29610000D01*
X82645047Y29648095D01*
X82454571Y29648095D01*
X82378381Y29610000D01*
X82340285Y29571905D01*
X82302190Y29495714D01*
X82302190Y29419524D01*
X82340285Y29305238D01*
X82797428Y28848095D01*
X82302190Y28848095D01*
X82073619Y29648095D02*
X81806952Y28848095D01*
X81540285Y29648095D01*
X80664095Y28848095D02*
X80664095Y29648095D01*
X80283143Y28848095D02*
X80283143Y29648095D01*
X79826000Y28848095D01*
X79826000Y29648095D01*
X79445048Y28848095D02*
X79445048Y29648095D01*
X79140286Y29648095D01*
X79064095Y29610000D01*
X79026000Y29571905D01*
X78987905Y29495714D01*
X78987905Y29381429D01*
X79026000Y29305238D01*
X79064095Y29267143D01*
X79140286Y29229048D01*
X79445048Y29229048D01*
X78645048Y29648095D02*
X78645048Y29000476D01*
X78606953Y28924286D01*
X78568857Y28886190D01*
X78492667Y28848095D01*
X78340286Y28848095D01*
X78264095Y28886190D01*
X78226000Y28924286D01*
X78187905Y29000476D01*
X78187905Y29648095D01*
X77921239Y29648095D02*
X77464096Y29648095D01*
X77692667Y28848095D02*
X77692667Y29648095D01*
X86842523Y24911000D02*
X86918714Y24949095D01*
X87032999Y24949095D01*
X87147285Y24911000D01*
X87223476Y24834810D01*
X87261571Y24758619D01*
X87299666Y24606238D01*
X87299666Y24491952D01*
X87261571Y24339571D01*
X87223476Y24263381D01*
X87147285Y24187190D01*
X87032999Y24149095D01*
X86956809Y24149095D01*
X86842523Y24187190D01*
X86804428Y24225286D01*
X86804428Y24491952D01*
X86956809Y24491952D01*
X86461571Y24149095D02*
X86461571Y24949095D01*
X86004428Y24149095D01*
X86004428Y24949095D01*
X85623476Y24149095D02*
X85623476Y24949095D01*
X85433000Y24949095D01*
X85318714Y24911000D01*
X85242523Y24834810D01*
X85204428Y24758619D01*
X85166333Y24606238D01*
X85166333Y24491952D01*
X85204428Y24339571D01*
X85242523Y24263381D01*
X85318714Y24187190D01*
X85433000Y24149095D01*
X85623476Y24149095D01*
X77666095Y30873619D02*
X78047048Y30606952D01*
X77666095Y30416476D02*
X78466095Y30416476D01*
X78466095Y30721238D01*
X78428000Y30797429D01*
X78389905Y30835524D01*
X78313714Y30873619D01*
X78199429Y30873619D01*
X78123238Y30835524D01*
X78085143Y30797429D01*
X78047048Y30721238D01*
X78047048Y30416476D01*
X77704190Y31521238D02*
X77666095Y31445048D01*
X77666095Y31292667D01*
X77704190Y31216476D01*
X77780381Y31178381D01*
X78085143Y31178381D01*
X78161333Y31216476D01*
X78199429Y31292667D01*
X78199429Y31445048D01*
X78161333Y31521238D01*
X78085143Y31559333D01*
X78008952Y31559333D01*
X77932762Y31178381D01*
X78199429Y31826000D02*
X77666095Y32016476D01*
X78199429Y32206952D01*
X77666095Y32930762D02*
X77666095Y32473619D01*
X77666095Y32702190D02*
X78466095Y32702190D01*
X78351810Y32626000D01*
X78275619Y32549809D01*
X78237524Y32473619D01*
X77742286Y33273619D02*
X77704190Y33311714D01*
X77666095Y33273619D01*
X77704190Y33235524D01*
X77742286Y33273619D01*
X77666095Y33273619D01*
X78466095Y33806952D02*
X78466095Y33883143D01*
X78428000Y33959333D01*
X78389905Y33997428D01*
X78313714Y34035524D01*
X78161333Y34073619D01*
X77970857Y34073619D01*
X77818476Y34035524D01*
X77742286Y33997428D01*
X77704190Y33959333D01*
X77666095Y33883143D01*
X77666095Y33806952D01*
X77704190Y33730762D01*
X77742286Y33692666D01*
X77818476Y33654571D01*
X77970857Y33616476D01*
X78161333Y33616476D01*
X78313714Y33654571D01*
X78389905Y33692666D01*
X78428000Y33730762D01*
X78466095Y33806952D01*
X76346095Y30416476D02*
X77146095Y30416476D01*
X77146095Y30606952D01*
X77108000Y30721238D01*
X77031810Y30797429D01*
X76955619Y30835524D01*
X76803238Y30873619D01*
X76688952Y30873619D01*
X76536571Y30835524D01*
X76460381Y30797429D01*
X76384190Y30721238D01*
X76346095Y30606952D01*
X76346095Y30416476D01*
X76384190Y31521238D02*
X76346095Y31445048D01*
X76346095Y31292667D01*
X76384190Y31216476D01*
X76460381Y31178381D01*
X76765143Y31178381D01*
X76841333Y31216476D01*
X76879429Y31292667D01*
X76879429Y31445048D01*
X76841333Y31521238D01*
X76765143Y31559333D01*
X76688952Y31559333D01*
X76612762Y31178381D01*
X76384190Y32245047D02*
X76346095Y32168857D01*
X76346095Y32016476D01*
X76384190Y31940285D01*
X76422286Y31902190D01*
X76498476Y31864095D01*
X76727048Y31864095D01*
X76803238Y31902190D01*
X76841333Y31940285D01*
X76879429Y32016476D01*
X76879429Y32168857D01*
X76841333Y32245047D01*
X76650857Y32587904D02*
X76650857Y33197428D01*
X77069905Y33540285D02*
X77108000Y33578380D01*
X77146095Y33654571D01*
X77146095Y33845047D01*
X77108000Y33921237D01*
X77069905Y33959333D01*
X76993714Y33997428D01*
X76917524Y33997428D01*
X76803238Y33959333D01*
X76346095Y33502190D01*
X76346095Y33997428D01*
X77146095Y34492666D02*
X77146095Y34568857D01*
X77108000Y34645047D01*
X77069905Y34683142D01*
X76993714Y34721238D01*
X76841333Y34759333D01*
X76650857Y34759333D01*
X76498476Y34721238D01*
X76422286Y34683142D01*
X76384190Y34645047D01*
X76346095Y34568857D01*
X76346095Y34492666D01*
X76384190Y34416476D01*
X76422286Y34378380D01*
X76498476Y34340285D01*
X76650857Y34302190D01*
X76841333Y34302190D01*
X76993714Y34340285D01*
X77069905Y34378380D01*
X77108000Y34416476D01*
X77146095Y34492666D01*
X76346095Y35521238D02*
X76346095Y35064095D01*
X76346095Y35292666D02*
X77146095Y35292666D01*
X77031810Y35216476D01*
X76955619Y35140285D01*
X76917524Y35064095D01*
X77146095Y36245048D02*
X77146095Y35864095D01*
X76765143Y35826000D01*
X76803238Y35864095D01*
X76841333Y35940286D01*
X76841333Y36130762D01*
X76803238Y36206952D01*
X76765143Y36245048D01*
X76688952Y36283143D01*
X76498476Y36283143D01*
X76422286Y36245048D01*
X76384190Y36206952D01*
X76346095Y36130762D01*
X76346095Y35940286D01*
X76384190Y35864095D01*
X76422286Y35826000D01*
X75026095Y30416476D02*
X75826095Y30416476D01*
X75826095Y30606952D01*
X75788000Y30721238D01*
X75711810Y30797429D01*
X75635619Y30835524D01*
X75483238Y30873619D01*
X75368952Y30873619D01*
X75216571Y30835524D01*
X75140381Y30797429D01*
X75064190Y30721238D01*
X75026095Y30606952D01*
X75026095Y30416476D01*
X75064190Y31521238D02*
X75026095Y31445048D01*
X75026095Y31292667D01*
X75064190Y31216476D01*
X75140381Y31178381D01*
X75445143Y31178381D01*
X75521333Y31216476D01*
X75559429Y31292667D01*
X75559429Y31445048D01*
X75521333Y31521238D01*
X75445143Y31559333D01*
X75368952Y31559333D01*
X75292762Y31178381D01*
X75064190Y31864095D02*
X75026095Y31940285D01*
X75026095Y32092666D01*
X75064190Y32168857D01*
X75140381Y32206952D01*
X75178476Y32206952D01*
X75254667Y32168857D01*
X75292762Y32092666D01*
X75292762Y31978381D01*
X75330857Y31902190D01*
X75407048Y31864095D01*
X75445143Y31864095D01*
X75521333Y31902190D01*
X75559429Y31978381D01*
X75559429Y32092666D01*
X75521333Y32168857D01*
X75026095Y32549809D02*
X75559429Y32549809D01*
X75826095Y32549809D02*
X75788000Y32511714D01*
X75749905Y32549809D01*
X75788000Y32587904D01*
X75826095Y32549809D01*
X75749905Y32549809D01*
X75559429Y33273618D02*
X74911810Y33273618D01*
X74835619Y33235523D01*
X74797524Y33197428D01*
X74759429Y33121237D01*
X74759429Y33006952D01*
X74797524Y32930761D01*
X75064190Y33273618D02*
X75026095Y33197428D01*
X75026095Y33045047D01*
X75064190Y32968856D01*
X75102286Y32930761D01*
X75178476Y32892666D01*
X75407048Y32892666D01*
X75483238Y32930761D01*
X75521333Y32968856D01*
X75559429Y33045047D01*
X75559429Y33197428D01*
X75521333Y33273618D01*
X75559429Y33654571D02*
X75026095Y33654571D01*
X75483238Y33654571D02*
X75521333Y33692666D01*
X75559429Y33768857D01*
X75559429Y33883143D01*
X75521333Y33959333D01*
X75445143Y33997428D01*
X75026095Y33997428D01*
X75064190Y34683143D02*
X75026095Y34606953D01*
X75026095Y34454572D01*
X75064190Y34378381D01*
X75140381Y34340286D01*
X75445143Y34340286D01*
X75521333Y34378381D01*
X75559429Y34454572D01*
X75559429Y34606953D01*
X75521333Y34683143D01*
X75445143Y34721238D01*
X75368952Y34721238D01*
X75292762Y34340286D01*
X75026095Y35406952D02*
X75826095Y35406952D01*
X75064190Y35406952D02*
X75026095Y35330762D01*
X75026095Y35178381D01*
X75064190Y35102190D01*
X75102286Y35064095D01*
X75178476Y35026000D01*
X75407048Y35026000D01*
X75483238Y35064095D01*
X75521333Y35102190D01*
X75559429Y35178381D01*
X75559429Y35330762D01*
X75521333Y35406952D01*
X75026095Y36397429D02*
X75826095Y36397429D01*
X75521333Y36397429D02*
X75559429Y36473620D01*
X75559429Y36626001D01*
X75521333Y36702191D01*
X75483238Y36740286D01*
X75407048Y36778382D01*
X75178476Y36778382D01*
X75102286Y36740286D01*
X75064190Y36702191D01*
X75026095Y36626001D01*
X75026095Y36473620D01*
X75064190Y36397429D01*
X75559429Y37045049D02*
X75026095Y37235525D01*
X75559429Y37426001D02*
X75026095Y37235525D01*
X74835619Y37159334D01*
X74797524Y37121239D01*
X74759429Y37045049D01*
X75026095Y38340287D02*
X75826095Y38340287D01*
X75445143Y38340287D02*
X75445143Y38797430D01*
X75026095Y38797430D02*
X75826095Y38797430D01*
X75826095Y39102192D02*
X75026095Y39292668D01*
X75597524Y39445049D01*
X75026095Y39597430D01*
X75826095Y39787906D01*
X75826095Y40626002D02*
X75026095Y40816478D01*
X75597524Y40968859D01*
X75026095Y41121240D01*
X75826095Y41311716D01*
X75026095Y41730764D02*
X75064190Y41654573D01*
X75102286Y41616478D01*
X75178476Y41578383D01*
X75407048Y41578383D01*
X75483238Y41616478D01*
X75521333Y41654573D01*
X75559429Y41730764D01*
X75559429Y41845050D01*
X75521333Y41921240D01*
X75483238Y41959335D01*
X75407048Y41997431D01*
X75178476Y41997431D01*
X75102286Y41959335D01*
X75064190Y41921240D01*
X75026095Y41845050D01*
X75026095Y41730764D01*
X75559429Y42340288D02*
X75026095Y42340288D01*
X75483238Y42340288D02*
X75521333Y42378383D01*
X75559429Y42454574D01*
X75559429Y42568860D01*
X75521333Y42645050D01*
X75445143Y42683145D01*
X75026095Y42683145D01*
X75559429Y43406955D02*
X74911810Y43406955D01*
X74835619Y43368860D01*
X74797524Y43330765D01*
X74759429Y43254574D01*
X74759429Y43140289D01*
X74797524Y43064098D01*
X75064190Y43406955D02*
X75026095Y43330765D01*
X75026095Y43178384D01*
X75064190Y43102193D01*
X75102286Y43064098D01*
X75178476Y43026003D01*
X75407048Y43026003D01*
X75483238Y43064098D01*
X75521333Y43102193D01*
X75559429Y43178384D01*
X75559429Y43330765D01*
X75521333Y43406955D01*
X84473619Y53028857D02*
X83864095Y53028857D01*
X84168857Y52724095D02*
X84168857Y53333619D01*
X83064095Y52724095D02*
X83521238Y52724095D01*
X83292667Y52724095D02*
X83292667Y53524095D01*
X83368857Y53409810D01*
X83445048Y53333619D01*
X83521238Y53295524D01*
X82759333Y53447905D02*
X82721238Y53486000D01*
X82645047Y53524095D01*
X82454571Y53524095D01*
X82378381Y53486000D01*
X82340285Y53447905D01*
X82302190Y53371714D01*
X82302190Y53295524D01*
X82340285Y53181238D01*
X82797428Y52724095D01*
X82302190Y52724095D01*
X82073619Y53524095D02*
X81806952Y52724095D01*
X81540285Y53524095D01*
X80664095Y52724095D02*
X80664095Y53524095D01*
X80283143Y52724095D02*
X80283143Y53524095D01*
X79826000Y52724095D01*
X79826000Y53524095D01*
X79445048Y52724095D02*
X79445048Y53524095D01*
X79140286Y53524095D01*
X79064095Y53486000D01*
X79026000Y53447905D01*
X78987905Y53371714D01*
X78987905Y53257429D01*
X79026000Y53181238D01*
X79064095Y53143143D01*
X79140286Y53105048D01*
X79445048Y53105048D01*
X78645048Y53524095D02*
X78645048Y52876476D01*
X78606953Y52800286D01*
X78568857Y52762190D01*
X78492667Y52724095D01*
X78340286Y52724095D01*
X78264095Y52762190D01*
X78226000Y52800286D01*
X78187905Y52876476D01*
X78187905Y53524095D01*
X77921239Y53524095D02*
X77464096Y53524095D01*
X77692667Y52724095D02*
X77692667Y53524095D01*
X86842523Y48787000D02*
X86918714Y48825095D01*
X87032999Y48825095D01*
X87147285Y48787000D01*
X87223476Y48710810D01*
X87261571Y48634619D01*
X87299666Y48482238D01*
X87299666Y48367952D01*
X87261571Y48215571D01*
X87223476Y48139381D01*
X87147285Y48063190D01*
X87032999Y48025095D01*
X86956809Y48025095D01*
X86842523Y48063190D01*
X86804428Y48101286D01*
X86804428Y48367952D01*
X86956809Y48367952D01*
X86461571Y48025095D02*
X86461571Y48825095D01*
X86004428Y48025095D01*
X86004428Y48825095D01*
X85623476Y48025095D02*
X85623476Y48825095D01*
X85433000Y48825095D01*
X85318714Y48787000D01*
X85242523Y48710810D01*
X85204428Y48634619D01*
X85166333Y48482238D01*
X85166333Y48367952D01*
X85204428Y48215571D01*
X85242523Y48139381D01*
X85318714Y48063190D01*
X85433000Y48025095D01*
X85623476Y48025095D01*
X77666095Y54749619D02*
X78047048Y54482952D01*
X77666095Y54292476D02*
X78466095Y54292476D01*
X78466095Y54597238D01*
X78428000Y54673429D01*
X78389905Y54711524D01*
X78313714Y54749619D01*
X78199429Y54749619D01*
X78123238Y54711524D01*
X78085143Y54673429D01*
X78047048Y54597238D01*
X78047048Y54292476D01*
X77704190Y55397238D02*
X77666095Y55321048D01*
X77666095Y55168667D01*
X77704190Y55092476D01*
X77780381Y55054381D01*
X78085143Y55054381D01*
X78161333Y55092476D01*
X78199429Y55168667D01*
X78199429Y55321048D01*
X78161333Y55397238D01*
X78085143Y55435333D01*
X78008952Y55435333D01*
X77932762Y55054381D01*
X78199429Y55702000D02*
X77666095Y55892476D01*
X78199429Y56082952D01*
X77666095Y56806762D02*
X77666095Y56349619D01*
X77666095Y56578190D02*
X78466095Y56578190D01*
X78351810Y56502000D01*
X78275619Y56425809D01*
X78237524Y56349619D01*
X77742286Y57149619D02*
X77704190Y57187714D01*
X77666095Y57149619D01*
X77704190Y57111524D01*
X77742286Y57149619D01*
X77666095Y57149619D01*
X78466095Y57682952D02*
X78466095Y57759143D01*
X78428000Y57835333D01*
X78389905Y57873428D01*
X78313714Y57911524D01*
X78161333Y57949619D01*
X77970857Y57949619D01*
X77818476Y57911524D01*
X77742286Y57873428D01*
X77704190Y57835333D01*
X77666095Y57759143D01*
X77666095Y57682952D01*
X77704190Y57606762D01*
X77742286Y57568666D01*
X77818476Y57530571D01*
X77970857Y57492476D01*
X78161333Y57492476D01*
X78313714Y57530571D01*
X78389905Y57568666D01*
X78428000Y57606762D01*
X78466095Y57682952D01*
X76346095Y54292476D02*
X77146095Y54292476D01*
X77146095Y54482952D01*
X77108000Y54597238D01*
X77031810Y54673429D01*
X76955619Y54711524D01*
X76803238Y54749619D01*
X76688952Y54749619D01*
X76536571Y54711524D01*
X76460381Y54673429D01*
X76384190Y54597238D01*
X76346095Y54482952D01*
X76346095Y54292476D01*
X76384190Y55397238D02*
X76346095Y55321048D01*
X76346095Y55168667D01*
X76384190Y55092476D01*
X76460381Y55054381D01*
X76765143Y55054381D01*
X76841333Y55092476D01*
X76879429Y55168667D01*
X76879429Y55321048D01*
X76841333Y55397238D01*
X76765143Y55435333D01*
X76688952Y55435333D01*
X76612762Y55054381D01*
X76384190Y56121047D02*
X76346095Y56044857D01*
X76346095Y55892476D01*
X76384190Y55816285D01*
X76422286Y55778190D01*
X76498476Y55740095D01*
X76727048Y55740095D01*
X76803238Y55778190D01*
X76841333Y55816285D01*
X76879429Y55892476D01*
X76879429Y56044857D01*
X76841333Y56121047D01*
X76650857Y56463904D02*
X76650857Y57073428D01*
X77069905Y57416285D02*
X77108000Y57454380D01*
X77146095Y57530571D01*
X77146095Y57721047D01*
X77108000Y57797237D01*
X77069905Y57835333D01*
X76993714Y57873428D01*
X76917524Y57873428D01*
X76803238Y57835333D01*
X76346095Y57378190D01*
X76346095Y57873428D01*
X77146095Y58368666D02*
X77146095Y58444857D01*
X77108000Y58521047D01*
X77069905Y58559142D01*
X76993714Y58597238D01*
X76841333Y58635333D01*
X76650857Y58635333D01*
X76498476Y58597238D01*
X76422286Y58559142D01*
X76384190Y58521047D01*
X76346095Y58444857D01*
X76346095Y58368666D01*
X76384190Y58292476D01*
X76422286Y58254380D01*
X76498476Y58216285D01*
X76650857Y58178190D01*
X76841333Y58178190D01*
X76993714Y58216285D01*
X77069905Y58254380D01*
X77108000Y58292476D01*
X77146095Y58368666D01*
X76346095Y59397238D02*
X76346095Y58940095D01*
X76346095Y59168666D02*
X77146095Y59168666D01*
X77031810Y59092476D01*
X76955619Y59016285D01*
X76917524Y58940095D01*
X77146095Y60121048D02*
X77146095Y59740095D01*
X76765143Y59702000D01*
X76803238Y59740095D01*
X76841333Y59816286D01*
X76841333Y60006762D01*
X76803238Y60082952D01*
X76765143Y60121048D01*
X76688952Y60159143D01*
X76498476Y60159143D01*
X76422286Y60121048D01*
X76384190Y60082952D01*
X76346095Y60006762D01*
X76346095Y59816286D01*
X76384190Y59740095D01*
X76422286Y59702000D01*
X75026095Y54292476D02*
X75826095Y54292476D01*
X75826095Y54482952D01*
X75788000Y54597238D01*
X75711810Y54673429D01*
X75635619Y54711524D01*
X75483238Y54749619D01*
X75368952Y54749619D01*
X75216571Y54711524D01*
X75140381Y54673429D01*
X75064190Y54597238D01*
X75026095Y54482952D01*
X75026095Y54292476D01*
X75064190Y55397238D02*
X75026095Y55321048D01*
X75026095Y55168667D01*
X75064190Y55092476D01*
X75140381Y55054381D01*
X75445143Y55054381D01*
X75521333Y55092476D01*
X75559429Y55168667D01*
X75559429Y55321048D01*
X75521333Y55397238D01*
X75445143Y55435333D01*
X75368952Y55435333D01*
X75292762Y55054381D01*
X75064190Y55740095D02*
X75026095Y55816285D01*
X75026095Y55968666D01*
X75064190Y56044857D01*
X75140381Y56082952D01*
X75178476Y56082952D01*
X75254667Y56044857D01*
X75292762Y55968666D01*
X75292762Y55854381D01*
X75330857Y55778190D01*
X75407048Y55740095D01*
X75445143Y55740095D01*
X75521333Y55778190D01*
X75559429Y55854381D01*
X75559429Y55968666D01*
X75521333Y56044857D01*
X75026095Y56425809D02*
X75559429Y56425809D01*
X75826095Y56425809D02*
X75788000Y56387714D01*
X75749905Y56425809D01*
X75788000Y56463904D01*
X75826095Y56425809D01*
X75749905Y56425809D01*
X75559429Y57149618D02*
X74911810Y57149618D01*
X74835619Y57111523D01*
X74797524Y57073428D01*
X74759429Y56997237D01*
X74759429Y56882952D01*
X74797524Y56806761D01*
X75064190Y57149618D02*
X75026095Y57073428D01*
X75026095Y56921047D01*
X75064190Y56844856D01*
X75102286Y56806761D01*
X75178476Y56768666D01*
X75407048Y56768666D01*
X75483238Y56806761D01*
X75521333Y56844856D01*
X75559429Y56921047D01*
X75559429Y57073428D01*
X75521333Y57149618D01*
X75559429Y57530571D02*
X75026095Y57530571D01*
X75483238Y57530571D02*
X75521333Y57568666D01*
X75559429Y57644857D01*
X75559429Y57759143D01*
X75521333Y57835333D01*
X75445143Y57873428D01*
X75026095Y57873428D01*
X75064190Y58559143D02*
X75026095Y58482953D01*
X75026095Y58330572D01*
X75064190Y58254381D01*
X75140381Y58216286D01*
X75445143Y58216286D01*
X75521333Y58254381D01*
X75559429Y58330572D01*
X75559429Y58482953D01*
X75521333Y58559143D01*
X75445143Y58597238D01*
X75368952Y58597238D01*
X75292762Y58216286D01*
X75026095Y59282952D02*
X75826095Y59282952D01*
X75064190Y59282952D02*
X75026095Y59206762D01*
X75026095Y59054381D01*
X75064190Y58978190D01*
X75102286Y58940095D01*
X75178476Y58902000D01*
X75407048Y58902000D01*
X75483238Y58940095D01*
X75521333Y58978190D01*
X75559429Y59054381D01*
X75559429Y59206762D01*
X75521333Y59282952D01*
X75026095Y60273429D02*
X75826095Y60273429D01*
X75521333Y60273429D02*
X75559429Y60349620D01*
X75559429Y60502001D01*
X75521333Y60578191D01*
X75483238Y60616286D01*
X75407048Y60654382D01*
X75178476Y60654382D01*
X75102286Y60616286D01*
X75064190Y60578191D01*
X75026095Y60502001D01*
X75026095Y60349620D01*
X75064190Y60273429D01*
X75559429Y60921049D02*
X75026095Y61111525D01*
X75559429Y61302001D02*
X75026095Y61111525D01*
X74835619Y61035334D01*
X74797524Y60997239D01*
X74759429Y60921049D01*
X75026095Y62216287D02*
X75826095Y62216287D01*
X75445143Y62216287D02*
X75445143Y62673430D01*
X75026095Y62673430D02*
X75826095Y62673430D01*
X75826095Y62978192D02*
X75026095Y63168668D01*
X75597524Y63321049D01*
X75026095Y63473430D01*
X75826095Y63663906D01*
X75826095Y64502002D02*
X75026095Y64692478D01*
X75597524Y64844859D01*
X75026095Y64997240D01*
X75826095Y65187716D01*
X75026095Y65606764D02*
X75064190Y65530573D01*
X75102286Y65492478D01*
X75178476Y65454383D01*
X75407048Y65454383D01*
X75483238Y65492478D01*
X75521333Y65530573D01*
X75559429Y65606764D01*
X75559429Y65721050D01*
X75521333Y65797240D01*
X75483238Y65835335D01*
X75407048Y65873431D01*
X75178476Y65873431D01*
X75102286Y65835335D01*
X75064190Y65797240D01*
X75026095Y65721050D01*
X75026095Y65606764D01*
X75559429Y66216288D02*
X75026095Y66216288D01*
X75483238Y66216288D02*
X75521333Y66254383D01*
X75559429Y66330574D01*
X75559429Y66444860D01*
X75521333Y66521050D01*
X75445143Y66559145D01*
X75026095Y66559145D01*
X75559429Y67282955D02*
X74911810Y67282955D01*
X74835619Y67244860D01*
X74797524Y67206765D01*
X74759429Y67130574D01*
X74759429Y67016289D01*
X74797524Y66940098D01*
X75064190Y67282955D02*
X75026095Y67206765D01*
X75026095Y67054384D01*
X75064190Y66978193D01*
X75102286Y66940098D01*
X75178476Y66902003D01*
X75407048Y66902003D01*
X75483238Y66940098D01*
X75521333Y66978193D01*
X75559429Y67054384D01*
X75559429Y67206765D01*
X75521333Y67282955D01*
X84473619Y76904857D02*
X83864095Y76904857D01*
X84168857Y76600095D02*
X84168857Y77209619D01*
X83064095Y76600095D02*
X83521238Y76600095D01*
X83292667Y76600095D02*
X83292667Y77400095D01*
X83368857Y77285810D01*
X83445048Y77209619D01*
X83521238Y77171524D01*
X82759333Y77323905D02*
X82721238Y77362000D01*
X82645047Y77400095D01*
X82454571Y77400095D01*
X82378381Y77362000D01*
X82340285Y77323905D01*
X82302190Y77247714D01*
X82302190Y77171524D01*
X82340285Y77057238D01*
X82797428Y76600095D01*
X82302190Y76600095D01*
X82073619Y77400095D02*
X81806952Y76600095D01*
X81540285Y77400095D01*
X80664095Y76600095D02*
X80664095Y77400095D01*
X80283143Y76600095D02*
X80283143Y77400095D01*
X79826000Y76600095D01*
X79826000Y77400095D01*
X79445048Y76600095D02*
X79445048Y77400095D01*
X79140286Y77400095D01*
X79064095Y77362000D01*
X79026000Y77323905D01*
X78987905Y77247714D01*
X78987905Y77133429D01*
X79026000Y77057238D01*
X79064095Y77019143D01*
X79140286Y76981048D01*
X79445048Y76981048D01*
X78645048Y77400095D02*
X78645048Y76752476D01*
X78606953Y76676286D01*
X78568857Y76638190D01*
X78492667Y76600095D01*
X78340286Y76600095D01*
X78264095Y76638190D01*
X78226000Y76676286D01*
X78187905Y76752476D01*
X78187905Y77400095D01*
X77921239Y77400095D02*
X77464096Y77400095D01*
X77692667Y76600095D02*
X77692667Y77400095D01*
X86842523Y72663000D02*
X86918714Y72701095D01*
X87032999Y72701095D01*
X87147285Y72663000D01*
X87223476Y72586810D01*
X87261571Y72510619D01*
X87299666Y72358238D01*
X87299666Y72243952D01*
X87261571Y72091571D01*
X87223476Y72015381D01*
X87147285Y71939190D01*
X87032999Y71901095D01*
X86956809Y71901095D01*
X86842523Y71939190D01*
X86804428Y71977286D01*
X86804428Y72243952D01*
X86956809Y72243952D01*
X86461571Y71901095D02*
X86461571Y72701095D01*
X86004428Y71901095D01*
X86004428Y72701095D01*
X85623476Y71901095D02*
X85623476Y72701095D01*
X85433000Y72701095D01*
X85318714Y72663000D01*
X85242523Y72586810D01*
X85204428Y72510619D01*
X85166333Y72358238D01*
X85166333Y72243952D01*
X85204428Y72091571D01*
X85242523Y72015381D01*
X85318714Y71939190D01*
X85433000Y71901095D01*
X85623476Y71901095D01*
X77666095Y78625619D02*
X78047048Y78358952D01*
X77666095Y78168476D02*
X78466095Y78168476D01*
X78466095Y78473238D01*
X78428000Y78549429D01*
X78389905Y78587524D01*
X78313714Y78625619D01*
X78199429Y78625619D01*
X78123238Y78587524D01*
X78085143Y78549429D01*
X78047048Y78473238D01*
X78047048Y78168476D01*
X77704190Y79273238D02*
X77666095Y79197048D01*
X77666095Y79044667D01*
X77704190Y78968476D01*
X77780381Y78930381D01*
X78085143Y78930381D01*
X78161333Y78968476D01*
X78199429Y79044667D01*
X78199429Y79197048D01*
X78161333Y79273238D01*
X78085143Y79311333D01*
X78008952Y79311333D01*
X77932762Y78930381D01*
X78199429Y79578000D02*
X77666095Y79768476D01*
X78199429Y79958952D01*
X77666095Y80682762D02*
X77666095Y80225619D01*
X77666095Y80454190D02*
X78466095Y80454190D01*
X78351810Y80378000D01*
X78275619Y80301809D01*
X78237524Y80225619D01*
X77742286Y81025619D02*
X77704190Y81063714D01*
X77666095Y81025619D01*
X77704190Y80987524D01*
X77742286Y81025619D01*
X77666095Y81025619D01*
X78466095Y81558952D02*
X78466095Y81635143D01*
X78428000Y81711333D01*
X78389905Y81749428D01*
X78313714Y81787524D01*
X78161333Y81825619D01*
X77970857Y81825619D01*
X77818476Y81787524D01*
X77742286Y81749428D01*
X77704190Y81711333D01*
X77666095Y81635143D01*
X77666095Y81558952D01*
X77704190Y81482762D01*
X77742286Y81444666D01*
X77818476Y81406571D01*
X77970857Y81368476D01*
X78161333Y81368476D01*
X78313714Y81406571D01*
X78389905Y81444666D01*
X78428000Y81482762D01*
X78466095Y81558952D01*
X76346095Y78168476D02*
X77146095Y78168476D01*
X77146095Y78358952D01*
X77108000Y78473238D01*
X77031810Y78549429D01*
X76955619Y78587524D01*
X76803238Y78625619D01*
X76688952Y78625619D01*
X76536571Y78587524D01*
X76460381Y78549429D01*
X76384190Y78473238D01*
X76346095Y78358952D01*
X76346095Y78168476D01*
X76384190Y79273238D02*
X76346095Y79197048D01*
X76346095Y79044667D01*
X76384190Y78968476D01*
X76460381Y78930381D01*
X76765143Y78930381D01*
X76841333Y78968476D01*
X76879429Y79044667D01*
X76879429Y79197048D01*
X76841333Y79273238D01*
X76765143Y79311333D01*
X76688952Y79311333D01*
X76612762Y78930381D01*
X76384190Y79997047D02*
X76346095Y79920857D01*
X76346095Y79768476D01*
X76384190Y79692285D01*
X76422286Y79654190D01*
X76498476Y79616095D01*
X76727048Y79616095D01*
X76803238Y79654190D01*
X76841333Y79692285D01*
X76879429Y79768476D01*
X76879429Y79920857D01*
X76841333Y79997047D01*
X76650857Y80339904D02*
X76650857Y80949428D01*
X77069905Y81292285D02*
X77108000Y81330380D01*
X77146095Y81406571D01*
X77146095Y81597047D01*
X77108000Y81673237D01*
X77069905Y81711333D01*
X76993714Y81749428D01*
X76917524Y81749428D01*
X76803238Y81711333D01*
X76346095Y81254190D01*
X76346095Y81749428D01*
X77146095Y82244666D02*
X77146095Y82320857D01*
X77108000Y82397047D01*
X77069905Y82435142D01*
X76993714Y82473238D01*
X76841333Y82511333D01*
X76650857Y82511333D01*
X76498476Y82473238D01*
X76422286Y82435142D01*
X76384190Y82397047D01*
X76346095Y82320857D01*
X76346095Y82244666D01*
X76384190Y82168476D01*
X76422286Y82130380D01*
X76498476Y82092285D01*
X76650857Y82054190D01*
X76841333Y82054190D01*
X76993714Y82092285D01*
X77069905Y82130380D01*
X77108000Y82168476D01*
X77146095Y82244666D01*
X76346095Y83273238D02*
X76346095Y82816095D01*
X76346095Y83044666D02*
X77146095Y83044666D01*
X77031810Y82968476D01*
X76955619Y82892285D01*
X76917524Y82816095D01*
X77146095Y83997048D02*
X77146095Y83616095D01*
X76765143Y83578000D01*
X76803238Y83616095D01*
X76841333Y83692286D01*
X76841333Y83882762D01*
X76803238Y83958952D01*
X76765143Y83997048D01*
X76688952Y84035143D01*
X76498476Y84035143D01*
X76422286Y83997048D01*
X76384190Y83958952D01*
X76346095Y83882762D01*
X76346095Y83692286D01*
X76384190Y83616095D01*
X76422286Y83578000D01*
X75026095Y78168476D02*
X75826095Y78168476D01*
X75826095Y78358952D01*
X75788000Y78473238D01*
X75711810Y78549429D01*
X75635619Y78587524D01*
X75483238Y78625619D01*
X75368952Y78625619D01*
X75216571Y78587524D01*
X75140381Y78549429D01*
X75064190Y78473238D01*
X75026095Y78358952D01*
X75026095Y78168476D01*
X75064190Y79273238D02*
X75026095Y79197048D01*
X75026095Y79044667D01*
X75064190Y78968476D01*
X75140381Y78930381D01*
X75445143Y78930381D01*
X75521333Y78968476D01*
X75559429Y79044667D01*
X75559429Y79197048D01*
X75521333Y79273238D01*
X75445143Y79311333D01*
X75368952Y79311333D01*
X75292762Y78930381D01*
X75064190Y79616095D02*
X75026095Y79692285D01*
X75026095Y79844666D01*
X75064190Y79920857D01*
X75140381Y79958952D01*
X75178476Y79958952D01*
X75254667Y79920857D01*
X75292762Y79844666D01*
X75292762Y79730381D01*
X75330857Y79654190D01*
X75407048Y79616095D01*
X75445143Y79616095D01*
X75521333Y79654190D01*
X75559429Y79730381D01*
X75559429Y79844666D01*
X75521333Y79920857D01*
X75026095Y80301809D02*
X75559429Y80301809D01*
X75826095Y80301809D02*
X75788000Y80263714D01*
X75749905Y80301809D01*
X75788000Y80339904D01*
X75826095Y80301809D01*
X75749905Y80301809D01*
X75559429Y81025618D02*
X74911810Y81025618D01*
X74835619Y80987523D01*
X74797524Y80949428D01*
X74759429Y80873237D01*
X74759429Y80758952D01*
X74797524Y80682761D01*
X75064190Y81025618D02*
X75026095Y80949428D01*
X75026095Y80797047D01*
X75064190Y80720856D01*
X75102286Y80682761D01*
X75178476Y80644666D01*
X75407048Y80644666D01*
X75483238Y80682761D01*
X75521333Y80720856D01*
X75559429Y80797047D01*
X75559429Y80949428D01*
X75521333Y81025618D01*
X75559429Y81406571D02*
X75026095Y81406571D01*
X75483238Y81406571D02*
X75521333Y81444666D01*
X75559429Y81520857D01*
X75559429Y81635143D01*
X75521333Y81711333D01*
X75445143Y81749428D01*
X75026095Y81749428D01*
X75064190Y82435143D02*
X75026095Y82358953D01*
X75026095Y82206572D01*
X75064190Y82130381D01*
X75140381Y82092286D01*
X75445143Y82092286D01*
X75521333Y82130381D01*
X75559429Y82206572D01*
X75559429Y82358953D01*
X75521333Y82435143D01*
X75445143Y82473238D01*
X75368952Y82473238D01*
X75292762Y82092286D01*
X75026095Y83158952D02*
X75826095Y83158952D01*
X75064190Y83158952D02*
X75026095Y83082762D01*
X75026095Y82930381D01*
X75064190Y82854190D01*
X75102286Y82816095D01*
X75178476Y82778000D01*
X75407048Y82778000D01*
X75483238Y82816095D01*
X75521333Y82854190D01*
X75559429Y82930381D01*
X75559429Y83082762D01*
X75521333Y83158952D01*
X75026095Y84149429D02*
X75826095Y84149429D01*
X75521333Y84149429D02*
X75559429Y84225620D01*
X75559429Y84378001D01*
X75521333Y84454191D01*
X75483238Y84492286D01*
X75407048Y84530382D01*
X75178476Y84530382D01*
X75102286Y84492286D01*
X75064190Y84454191D01*
X75026095Y84378001D01*
X75026095Y84225620D01*
X75064190Y84149429D01*
X75559429Y84797049D02*
X75026095Y84987525D01*
X75559429Y85178001D02*
X75026095Y84987525D01*
X74835619Y84911334D01*
X74797524Y84873239D01*
X74759429Y84797049D01*
X75026095Y86092287D02*
X75826095Y86092287D01*
X75445143Y86092287D02*
X75445143Y86549430D01*
X75026095Y86549430D02*
X75826095Y86549430D01*
X75826095Y86854192D02*
X75026095Y87044668D01*
X75597524Y87197049D01*
X75026095Y87349430D01*
X75826095Y87539906D01*
X75826095Y88378002D02*
X75026095Y88568478D01*
X75597524Y88720859D01*
X75026095Y88873240D01*
X75826095Y89063716D01*
X75026095Y89482764D02*
X75064190Y89406573D01*
X75102286Y89368478D01*
X75178476Y89330383D01*
X75407048Y89330383D01*
X75483238Y89368478D01*
X75521333Y89406573D01*
X75559429Y89482764D01*
X75559429Y89597050D01*
X75521333Y89673240D01*
X75483238Y89711335D01*
X75407048Y89749431D01*
X75178476Y89749431D01*
X75102286Y89711335D01*
X75064190Y89673240D01*
X75026095Y89597050D01*
X75026095Y89482764D01*
X75559429Y90092288D02*
X75026095Y90092288D01*
X75483238Y90092288D02*
X75521333Y90130383D01*
X75559429Y90206574D01*
X75559429Y90320860D01*
X75521333Y90397050D01*
X75445143Y90435145D01*
X75026095Y90435145D01*
X75559429Y91158955D02*
X74911810Y91158955D01*
X74835619Y91120860D01*
X74797524Y91082765D01*
X74759429Y91006574D01*
X74759429Y90892289D01*
X74797524Y90816098D01*
X75064190Y91158955D02*
X75026095Y91082765D01*
X75026095Y90930384D01*
X75064190Y90854193D01*
X75102286Y90816098D01*
X75178476Y90778003D01*
X75407048Y90778003D01*
X75483238Y90816098D01*
X75521333Y90854193D01*
X75559429Y90930384D01*
X75559429Y91082765D01*
X75521333Y91158955D01*
X60597619Y5276857D02*
X59988095Y5276857D01*
X60292857Y4972095D02*
X60292857Y5581619D01*
X59188095Y4972095D02*
X59645238Y4972095D01*
X59416667Y4972095D02*
X59416667Y5772095D01*
X59492857Y5657810D01*
X59569048Y5581619D01*
X59645238Y5543524D01*
X58883333Y5695905D02*
X58845238Y5734000D01*
X58769047Y5772095D01*
X58578571Y5772095D01*
X58502381Y5734000D01*
X58464285Y5695905D01*
X58426190Y5619714D01*
X58426190Y5543524D01*
X58464285Y5429238D01*
X58921428Y4972095D01*
X58426190Y4972095D01*
X58197619Y5772095D02*
X57930952Y4972095D01*
X57664285Y5772095D01*
X56788095Y4972095D02*
X56788095Y5772095D01*
X56407143Y4972095D02*
X56407143Y5772095D01*
X55950000Y4972095D01*
X55950000Y5772095D01*
X55569048Y4972095D02*
X55569048Y5772095D01*
X55264286Y5772095D01*
X55188095Y5734000D01*
X55150000Y5695905D01*
X55111905Y5619714D01*
X55111905Y5505429D01*
X55150000Y5429238D01*
X55188095Y5391143D01*
X55264286Y5353048D01*
X55569048Y5353048D01*
X54769048Y5772095D02*
X54769048Y5124476D01*
X54730953Y5048286D01*
X54692857Y5010190D01*
X54616667Y4972095D01*
X54464286Y4972095D01*
X54388095Y5010190D01*
X54350000Y5048286D01*
X54311905Y5124476D01*
X54311905Y5772095D01*
X54045239Y5772095D02*
X53588096Y5772095D01*
X53816667Y4972095D02*
X53816667Y5772095D01*
X62966523Y1035000D02*
X63042714Y1073095D01*
X63156999Y1073095D01*
X63271285Y1035000D01*
X63347476Y958810D01*
X63385571Y882619D01*
X63423666Y730238D01*
X63423666Y615952D01*
X63385571Y463571D01*
X63347476Y387381D01*
X63271285Y311190D01*
X63156999Y273095D01*
X63080809Y273095D01*
X62966523Y311190D01*
X62928428Y349286D01*
X62928428Y615952D01*
X63080809Y615952D01*
X62585571Y273095D02*
X62585571Y1073095D01*
X62128428Y273095D01*
X62128428Y1073095D01*
X61747476Y273095D02*
X61747476Y1073095D01*
X61557000Y1073095D01*
X61442714Y1035000D01*
X61366523Y958810D01*
X61328428Y882619D01*
X61290333Y730238D01*
X61290333Y615952D01*
X61328428Y463571D01*
X61366523Y387381D01*
X61442714Y311190D01*
X61557000Y273095D01*
X61747476Y273095D01*
X53790095Y6997619D02*
X54171048Y6730952D01*
X53790095Y6540476D02*
X54590095Y6540476D01*
X54590095Y6845238D01*
X54552000Y6921429D01*
X54513905Y6959524D01*
X54437714Y6997619D01*
X54323429Y6997619D01*
X54247238Y6959524D01*
X54209143Y6921429D01*
X54171048Y6845238D01*
X54171048Y6540476D01*
X53828190Y7645238D02*
X53790095Y7569048D01*
X53790095Y7416667D01*
X53828190Y7340476D01*
X53904381Y7302381D01*
X54209143Y7302381D01*
X54285333Y7340476D01*
X54323429Y7416667D01*
X54323429Y7569048D01*
X54285333Y7645238D01*
X54209143Y7683333D01*
X54132952Y7683333D01*
X54056762Y7302381D01*
X54323429Y7950000D02*
X53790095Y8140476D01*
X54323429Y8330952D01*
X53790095Y9054762D02*
X53790095Y8597619D01*
X53790095Y8826190D02*
X54590095Y8826190D01*
X54475810Y8750000D01*
X54399619Y8673809D01*
X54361524Y8597619D01*
X53866286Y9397619D02*
X53828190Y9435714D01*
X53790095Y9397619D01*
X53828190Y9359524D01*
X53866286Y9397619D01*
X53790095Y9397619D01*
X54590095Y9930952D02*
X54590095Y10007143D01*
X54552000Y10083333D01*
X54513905Y10121428D01*
X54437714Y10159524D01*
X54285333Y10197619D01*
X54094857Y10197619D01*
X53942476Y10159524D01*
X53866286Y10121428D01*
X53828190Y10083333D01*
X53790095Y10007143D01*
X53790095Y9930952D01*
X53828190Y9854762D01*
X53866286Y9816666D01*
X53942476Y9778571D01*
X54094857Y9740476D01*
X54285333Y9740476D01*
X54437714Y9778571D01*
X54513905Y9816666D01*
X54552000Y9854762D01*
X54590095Y9930952D01*
X52470095Y6540476D02*
X53270095Y6540476D01*
X53270095Y6730952D01*
X53232000Y6845238D01*
X53155810Y6921429D01*
X53079619Y6959524D01*
X52927238Y6997619D01*
X52812952Y6997619D01*
X52660571Y6959524D01*
X52584381Y6921429D01*
X52508190Y6845238D01*
X52470095Y6730952D01*
X52470095Y6540476D01*
X52508190Y7645238D02*
X52470095Y7569048D01*
X52470095Y7416667D01*
X52508190Y7340476D01*
X52584381Y7302381D01*
X52889143Y7302381D01*
X52965333Y7340476D01*
X53003429Y7416667D01*
X53003429Y7569048D01*
X52965333Y7645238D01*
X52889143Y7683333D01*
X52812952Y7683333D01*
X52736762Y7302381D01*
X52508190Y8369047D02*
X52470095Y8292857D01*
X52470095Y8140476D01*
X52508190Y8064285D01*
X52546286Y8026190D01*
X52622476Y7988095D01*
X52851048Y7988095D01*
X52927238Y8026190D01*
X52965333Y8064285D01*
X53003429Y8140476D01*
X53003429Y8292857D01*
X52965333Y8369047D01*
X52774857Y8711904D02*
X52774857Y9321428D01*
X53193905Y9664285D02*
X53232000Y9702380D01*
X53270095Y9778571D01*
X53270095Y9969047D01*
X53232000Y10045237D01*
X53193905Y10083333D01*
X53117714Y10121428D01*
X53041524Y10121428D01*
X52927238Y10083333D01*
X52470095Y9626190D01*
X52470095Y10121428D01*
X53270095Y10616666D02*
X53270095Y10692857D01*
X53232000Y10769047D01*
X53193905Y10807142D01*
X53117714Y10845238D01*
X52965333Y10883333D01*
X52774857Y10883333D01*
X52622476Y10845238D01*
X52546286Y10807142D01*
X52508190Y10769047D01*
X52470095Y10692857D01*
X52470095Y10616666D01*
X52508190Y10540476D01*
X52546286Y10502380D01*
X52622476Y10464285D01*
X52774857Y10426190D01*
X52965333Y10426190D01*
X53117714Y10464285D01*
X53193905Y10502380D01*
X53232000Y10540476D01*
X53270095Y10616666D01*
X52470095Y11645238D02*
X52470095Y11188095D01*
X52470095Y11416666D02*
X53270095Y11416666D01*
X53155810Y11340476D01*
X53079619Y11264285D01*
X53041524Y11188095D01*
X53270095Y12369048D02*
X53270095Y11988095D01*
X52889143Y11950000D01*
X52927238Y11988095D01*
X52965333Y12064286D01*
X52965333Y12254762D01*
X52927238Y12330952D01*
X52889143Y12369048D01*
X52812952Y12407143D01*
X52622476Y12407143D01*
X52546286Y12369048D01*
X52508190Y12330952D01*
X52470095Y12254762D01*
X52470095Y12064286D01*
X52508190Y11988095D01*
X52546286Y11950000D01*
X51150095Y6540476D02*
X51950095Y6540476D01*
X51950095Y6730952D01*
X51912000Y6845238D01*
X51835810Y6921429D01*
X51759619Y6959524D01*
X51607238Y6997619D01*
X51492952Y6997619D01*
X51340571Y6959524D01*
X51264381Y6921429D01*
X51188190Y6845238D01*
X51150095Y6730952D01*
X51150095Y6540476D01*
X51188190Y7645238D02*
X51150095Y7569048D01*
X51150095Y7416667D01*
X51188190Y7340476D01*
X51264381Y7302381D01*
X51569143Y7302381D01*
X51645333Y7340476D01*
X51683429Y7416667D01*
X51683429Y7569048D01*
X51645333Y7645238D01*
X51569143Y7683333D01*
X51492952Y7683333D01*
X51416762Y7302381D01*
X51188190Y7988095D02*
X51150095Y8064285D01*
X51150095Y8216666D01*
X51188190Y8292857D01*
X51264381Y8330952D01*
X51302476Y8330952D01*
X51378667Y8292857D01*
X51416762Y8216666D01*
X51416762Y8102381D01*
X51454857Y8026190D01*
X51531048Y7988095D01*
X51569143Y7988095D01*
X51645333Y8026190D01*
X51683429Y8102381D01*
X51683429Y8216666D01*
X51645333Y8292857D01*
X51150095Y8673809D02*
X51683429Y8673809D01*
X51950095Y8673809D02*
X51912000Y8635714D01*
X51873905Y8673809D01*
X51912000Y8711904D01*
X51950095Y8673809D01*
X51873905Y8673809D01*
X51683429Y9397618D02*
X51035810Y9397618D01*
X50959619Y9359523D01*
X50921524Y9321428D01*
X50883429Y9245237D01*
X50883429Y9130952D01*
X50921524Y9054761D01*
X51188190Y9397618D02*
X51150095Y9321428D01*
X51150095Y9169047D01*
X51188190Y9092856D01*
X51226286Y9054761D01*
X51302476Y9016666D01*
X51531048Y9016666D01*
X51607238Y9054761D01*
X51645333Y9092856D01*
X51683429Y9169047D01*
X51683429Y9321428D01*
X51645333Y9397618D01*
X51683429Y9778571D02*
X51150095Y9778571D01*
X51607238Y9778571D02*
X51645333Y9816666D01*
X51683429Y9892857D01*
X51683429Y10007143D01*
X51645333Y10083333D01*
X51569143Y10121428D01*
X51150095Y10121428D01*
X51188190Y10807143D02*
X51150095Y10730953D01*
X51150095Y10578572D01*
X51188190Y10502381D01*
X51264381Y10464286D01*
X51569143Y10464286D01*
X51645333Y10502381D01*
X51683429Y10578572D01*
X51683429Y10730953D01*
X51645333Y10807143D01*
X51569143Y10845238D01*
X51492952Y10845238D01*
X51416762Y10464286D01*
X51150095Y11530952D02*
X51950095Y11530952D01*
X51188190Y11530952D02*
X51150095Y11454762D01*
X51150095Y11302381D01*
X51188190Y11226190D01*
X51226286Y11188095D01*
X51302476Y11150000D01*
X51531048Y11150000D01*
X51607238Y11188095D01*
X51645333Y11226190D01*
X51683429Y11302381D01*
X51683429Y11454762D01*
X51645333Y11530952D01*
X51150095Y12521429D02*
X51950095Y12521429D01*
X51645333Y12521429D02*
X51683429Y12597620D01*
X51683429Y12750001D01*
X51645333Y12826191D01*
X51607238Y12864286D01*
X51531048Y12902382D01*
X51302476Y12902382D01*
X51226286Y12864286D01*
X51188190Y12826191D01*
X51150095Y12750001D01*
X51150095Y12597620D01*
X51188190Y12521429D01*
X51683429Y13169049D02*
X51150095Y13359525D01*
X51683429Y13550001D02*
X51150095Y13359525D01*
X50959619Y13283334D01*
X50921524Y13245239D01*
X50883429Y13169049D01*
X51150095Y14464287D02*
X51950095Y14464287D01*
X51569143Y14464287D02*
X51569143Y14921430D01*
X51150095Y14921430D02*
X51950095Y14921430D01*
X51950095Y15226192D02*
X51150095Y15416668D01*
X51721524Y15569049D01*
X51150095Y15721430D01*
X51950095Y15911906D01*
X51950095Y16750002D02*
X51150095Y16940478D01*
X51721524Y17092859D01*
X51150095Y17245240D01*
X51950095Y17435716D01*
X51150095Y17854764D02*
X51188190Y17778573D01*
X51226286Y17740478D01*
X51302476Y17702383D01*
X51531048Y17702383D01*
X51607238Y17740478D01*
X51645333Y17778573D01*
X51683429Y17854764D01*
X51683429Y17969050D01*
X51645333Y18045240D01*
X51607238Y18083335D01*
X51531048Y18121431D01*
X51302476Y18121431D01*
X51226286Y18083335D01*
X51188190Y18045240D01*
X51150095Y17969050D01*
X51150095Y17854764D01*
X51683429Y18464288D02*
X51150095Y18464288D01*
X51607238Y18464288D02*
X51645333Y18502383D01*
X51683429Y18578574D01*
X51683429Y18692860D01*
X51645333Y18769050D01*
X51569143Y18807145D01*
X51150095Y18807145D01*
X51683429Y19530955D02*
X51035810Y19530955D01*
X50959619Y19492860D01*
X50921524Y19454765D01*
X50883429Y19378574D01*
X50883429Y19264289D01*
X50921524Y19188098D01*
X51188190Y19530955D02*
X51150095Y19454765D01*
X51150095Y19302384D01*
X51188190Y19226193D01*
X51226286Y19188098D01*
X51302476Y19150003D01*
X51531048Y19150003D01*
X51607238Y19188098D01*
X51645333Y19226193D01*
X51683429Y19302384D01*
X51683429Y19454765D01*
X51645333Y19530955D01*
X60597619Y29152857D02*
X59988095Y29152857D01*
X60292857Y28848095D02*
X60292857Y29457619D01*
X59188095Y28848095D02*
X59645238Y28848095D01*
X59416667Y28848095D02*
X59416667Y29648095D01*
X59492857Y29533810D01*
X59569048Y29457619D01*
X59645238Y29419524D01*
X58883333Y29571905D02*
X58845238Y29610000D01*
X58769047Y29648095D01*
X58578571Y29648095D01*
X58502381Y29610000D01*
X58464285Y29571905D01*
X58426190Y29495714D01*
X58426190Y29419524D01*
X58464285Y29305238D01*
X58921428Y28848095D01*
X58426190Y28848095D01*
X58197619Y29648095D02*
X57930952Y28848095D01*
X57664285Y29648095D01*
X56788095Y28848095D02*
X56788095Y29648095D01*
X56407143Y28848095D02*
X56407143Y29648095D01*
X55950000Y28848095D01*
X55950000Y29648095D01*
X55569048Y28848095D02*
X55569048Y29648095D01*
X55264286Y29648095D01*
X55188095Y29610000D01*
X55150000Y29571905D01*
X55111905Y29495714D01*
X55111905Y29381429D01*
X55150000Y29305238D01*
X55188095Y29267143D01*
X55264286Y29229048D01*
X55569048Y29229048D01*
X54769048Y29648095D02*
X54769048Y29000476D01*
X54730953Y28924286D01*
X54692857Y28886190D01*
X54616667Y28848095D01*
X54464286Y28848095D01*
X54388095Y28886190D01*
X54350000Y28924286D01*
X54311905Y29000476D01*
X54311905Y29648095D01*
X54045239Y29648095D02*
X53588096Y29648095D01*
X53816667Y28848095D02*
X53816667Y29648095D01*
X62966523Y24911000D02*
X63042714Y24949095D01*
X63156999Y24949095D01*
X63271285Y24911000D01*
X63347476Y24834810D01*
X63385571Y24758619D01*
X63423666Y24606238D01*
X63423666Y24491952D01*
X63385571Y24339571D01*
X63347476Y24263381D01*
X63271285Y24187190D01*
X63156999Y24149095D01*
X63080809Y24149095D01*
X62966523Y24187190D01*
X62928428Y24225286D01*
X62928428Y24491952D01*
X63080809Y24491952D01*
X62585571Y24149095D02*
X62585571Y24949095D01*
X62128428Y24149095D01*
X62128428Y24949095D01*
X61747476Y24149095D02*
X61747476Y24949095D01*
X61557000Y24949095D01*
X61442714Y24911000D01*
X61366523Y24834810D01*
X61328428Y24758619D01*
X61290333Y24606238D01*
X61290333Y24491952D01*
X61328428Y24339571D01*
X61366523Y24263381D01*
X61442714Y24187190D01*
X61557000Y24149095D01*
X61747476Y24149095D01*
X53790095Y30873619D02*
X54171048Y30606952D01*
X53790095Y30416476D02*
X54590095Y30416476D01*
X54590095Y30721238D01*
X54552000Y30797429D01*
X54513905Y30835524D01*
X54437714Y30873619D01*
X54323429Y30873619D01*
X54247238Y30835524D01*
X54209143Y30797429D01*
X54171048Y30721238D01*
X54171048Y30416476D01*
X53828190Y31521238D02*
X53790095Y31445048D01*
X53790095Y31292667D01*
X53828190Y31216476D01*
X53904381Y31178381D01*
X54209143Y31178381D01*
X54285333Y31216476D01*
X54323429Y31292667D01*
X54323429Y31445048D01*
X54285333Y31521238D01*
X54209143Y31559333D01*
X54132952Y31559333D01*
X54056762Y31178381D01*
X54323429Y31826000D02*
X53790095Y32016476D01*
X54323429Y32206952D01*
X53790095Y32930762D02*
X53790095Y32473619D01*
X53790095Y32702190D02*
X54590095Y32702190D01*
X54475810Y32626000D01*
X54399619Y32549809D01*
X54361524Y32473619D01*
X53866286Y33273619D02*
X53828190Y33311714D01*
X53790095Y33273619D01*
X53828190Y33235524D01*
X53866286Y33273619D01*
X53790095Y33273619D01*
X54590095Y33806952D02*
X54590095Y33883143D01*
X54552000Y33959333D01*
X54513905Y33997428D01*
X54437714Y34035524D01*
X54285333Y34073619D01*
X54094857Y34073619D01*
X53942476Y34035524D01*
X53866286Y33997428D01*
X53828190Y33959333D01*
X53790095Y33883143D01*
X53790095Y33806952D01*
X53828190Y33730762D01*
X53866286Y33692666D01*
X53942476Y33654571D01*
X54094857Y33616476D01*
X54285333Y33616476D01*
X54437714Y33654571D01*
X54513905Y33692666D01*
X54552000Y33730762D01*
X54590095Y33806952D01*
X52470095Y30416476D02*
X53270095Y30416476D01*
X53270095Y30606952D01*
X53232000Y30721238D01*
X53155810Y30797429D01*
X53079619Y30835524D01*
X52927238Y30873619D01*
X52812952Y30873619D01*
X52660571Y30835524D01*
X52584381Y30797429D01*
X52508190Y30721238D01*
X52470095Y30606952D01*
X52470095Y30416476D01*
X52508190Y31521238D02*
X52470095Y31445048D01*
X52470095Y31292667D01*
X52508190Y31216476D01*
X52584381Y31178381D01*
X52889143Y31178381D01*
X52965333Y31216476D01*
X53003429Y31292667D01*
X53003429Y31445048D01*
X52965333Y31521238D01*
X52889143Y31559333D01*
X52812952Y31559333D01*
X52736762Y31178381D01*
X52508190Y32245047D02*
X52470095Y32168857D01*
X52470095Y32016476D01*
X52508190Y31940285D01*
X52546286Y31902190D01*
X52622476Y31864095D01*
X52851048Y31864095D01*
X52927238Y31902190D01*
X52965333Y31940285D01*
X53003429Y32016476D01*
X53003429Y32168857D01*
X52965333Y32245047D01*
X52774857Y32587904D02*
X52774857Y33197428D01*
X53193905Y33540285D02*
X53232000Y33578380D01*
X53270095Y33654571D01*
X53270095Y33845047D01*
X53232000Y33921237D01*
X53193905Y33959333D01*
X53117714Y33997428D01*
X53041524Y33997428D01*
X52927238Y33959333D01*
X52470095Y33502190D01*
X52470095Y33997428D01*
X53270095Y34492666D02*
X53270095Y34568857D01*
X53232000Y34645047D01*
X53193905Y34683142D01*
X53117714Y34721238D01*
X52965333Y34759333D01*
X52774857Y34759333D01*
X52622476Y34721238D01*
X52546286Y34683142D01*
X52508190Y34645047D01*
X52470095Y34568857D01*
X52470095Y34492666D01*
X52508190Y34416476D01*
X52546286Y34378380D01*
X52622476Y34340285D01*
X52774857Y34302190D01*
X52965333Y34302190D01*
X53117714Y34340285D01*
X53193905Y34378380D01*
X53232000Y34416476D01*
X53270095Y34492666D01*
X52470095Y35521238D02*
X52470095Y35064095D01*
X52470095Y35292666D02*
X53270095Y35292666D01*
X53155810Y35216476D01*
X53079619Y35140285D01*
X53041524Y35064095D01*
X53270095Y36245048D02*
X53270095Y35864095D01*
X52889143Y35826000D01*
X52927238Y35864095D01*
X52965333Y35940286D01*
X52965333Y36130762D01*
X52927238Y36206952D01*
X52889143Y36245048D01*
X52812952Y36283143D01*
X52622476Y36283143D01*
X52546286Y36245048D01*
X52508190Y36206952D01*
X52470095Y36130762D01*
X52470095Y35940286D01*
X52508190Y35864095D01*
X52546286Y35826000D01*
X51150095Y30416476D02*
X51950095Y30416476D01*
X51950095Y30606952D01*
X51912000Y30721238D01*
X51835810Y30797429D01*
X51759619Y30835524D01*
X51607238Y30873619D01*
X51492952Y30873619D01*
X51340571Y30835524D01*
X51264381Y30797429D01*
X51188190Y30721238D01*
X51150095Y30606952D01*
X51150095Y30416476D01*
X51188190Y31521238D02*
X51150095Y31445048D01*
X51150095Y31292667D01*
X51188190Y31216476D01*
X51264381Y31178381D01*
X51569143Y31178381D01*
X51645333Y31216476D01*
X51683429Y31292667D01*
X51683429Y31445048D01*
X51645333Y31521238D01*
X51569143Y31559333D01*
X51492952Y31559333D01*
X51416762Y31178381D01*
X51188190Y31864095D02*
X51150095Y31940285D01*
X51150095Y32092666D01*
X51188190Y32168857D01*
X51264381Y32206952D01*
X51302476Y32206952D01*
X51378667Y32168857D01*
X51416762Y32092666D01*
X51416762Y31978381D01*
X51454857Y31902190D01*
X51531048Y31864095D01*
X51569143Y31864095D01*
X51645333Y31902190D01*
X51683429Y31978381D01*
X51683429Y32092666D01*
X51645333Y32168857D01*
X51150095Y32549809D02*
X51683429Y32549809D01*
X51950095Y32549809D02*
X51912000Y32511714D01*
X51873905Y32549809D01*
X51912000Y32587904D01*
X51950095Y32549809D01*
X51873905Y32549809D01*
X51683429Y33273618D02*
X51035810Y33273618D01*
X50959619Y33235523D01*
X50921524Y33197428D01*
X50883429Y33121237D01*
X50883429Y33006952D01*
X50921524Y32930761D01*
X51188190Y33273618D02*
X51150095Y33197428D01*
X51150095Y33045047D01*
X51188190Y32968856D01*
X51226286Y32930761D01*
X51302476Y32892666D01*
X51531048Y32892666D01*
X51607238Y32930761D01*
X51645333Y32968856D01*
X51683429Y33045047D01*
X51683429Y33197428D01*
X51645333Y33273618D01*
X51683429Y33654571D02*
X51150095Y33654571D01*
X51607238Y33654571D02*
X51645333Y33692666D01*
X51683429Y33768857D01*
X51683429Y33883143D01*
X51645333Y33959333D01*
X51569143Y33997428D01*
X51150095Y33997428D01*
X51188190Y34683143D02*
X51150095Y34606953D01*
X51150095Y34454572D01*
X51188190Y34378381D01*
X51264381Y34340286D01*
X51569143Y34340286D01*
X51645333Y34378381D01*
X51683429Y34454572D01*
X51683429Y34606953D01*
X51645333Y34683143D01*
X51569143Y34721238D01*
X51492952Y34721238D01*
X51416762Y34340286D01*
X51150095Y35406952D02*
X51950095Y35406952D01*
X51188190Y35406952D02*
X51150095Y35330762D01*
X51150095Y35178381D01*
X51188190Y35102190D01*
X51226286Y35064095D01*
X51302476Y35026000D01*
X51531048Y35026000D01*
X51607238Y35064095D01*
X51645333Y35102190D01*
X51683429Y35178381D01*
X51683429Y35330762D01*
X51645333Y35406952D01*
X51150095Y36397429D02*
X51950095Y36397429D01*
X51645333Y36397429D02*
X51683429Y36473620D01*
X51683429Y36626001D01*
X51645333Y36702191D01*
X51607238Y36740286D01*
X51531048Y36778382D01*
X51302476Y36778382D01*
X51226286Y36740286D01*
X51188190Y36702191D01*
X51150095Y36626001D01*
X51150095Y36473620D01*
X51188190Y36397429D01*
X51683429Y37045049D02*
X51150095Y37235525D01*
X51683429Y37426001D02*
X51150095Y37235525D01*
X50959619Y37159334D01*
X50921524Y37121239D01*
X50883429Y37045049D01*
X51150095Y38340287D02*
X51950095Y38340287D01*
X51569143Y38340287D02*
X51569143Y38797430D01*
X51150095Y38797430D02*
X51950095Y38797430D01*
X51950095Y39102192D02*
X51150095Y39292668D01*
X51721524Y39445049D01*
X51150095Y39597430D01*
X51950095Y39787906D01*
X51950095Y40626002D02*
X51150095Y40816478D01*
X51721524Y40968859D01*
X51150095Y41121240D01*
X51950095Y41311716D01*
X51150095Y41730764D02*
X51188190Y41654573D01*
X51226286Y41616478D01*
X51302476Y41578383D01*
X51531048Y41578383D01*
X51607238Y41616478D01*
X51645333Y41654573D01*
X51683429Y41730764D01*
X51683429Y41845050D01*
X51645333Y41921240D01*
X51607238Y41959335D01*
X51531048Y41997431D01*
X51302476Y41997431D01*
X51226286Y41959335D01*
X51188190Y41921240D01*
X51150095Y41845050D01*
X51150095Y41730764D01*
X51683429Y42340288D02*
X51150095Y42340288D01*
X51607238Y42340288D02*
X51645333Y42378383D01*
X51683429Y42454574D01*
X51683429Y42568860D01*
X51645333Y42645050D01*
X51569143Y42683145D01*
X51150095Y42683145D01*
X51683429Y43406955D02*
X51035810Y43406955D01*
X50959619Y43368860D01*
X50921524Y43330765D01*
X50883429Y43254574D01*
X50883429Y43140289D01*
X50921524Y43064098D01*
X51188190Y43406955D02*
X51150095Y43330765D01*
X51150095Y43178384D01*
X51188190Y43102193D01*
X51226286Y43064098D01*
X51302476Y43026003D01*
X51531048Y43026003D01*
X51607238Y43064098D01*
X51645333Y43102193D01*
X51683429Y43178384D01*
X51683429Y43330765D01*
X51645333Y43406955D01*
X60597619Y53028857D02*
X59988095Y53028857D01*
X60292857Y52724095D02*
X60292857Y53333619D01*
X59188095Y52724095D02*
X59645238Y52724095D01*
X59416667Y52724095D02*
X59416667Y53524095D01*
X59492857Y53409810D01*
X59569048Y53333619D01*
X59645238Y53295524D01*
X58883333Y53447905D02*
X58845238Y53486000D01*
X58769047Y53524095D01*
X58578571Y53524095D01*
X58502381Y53486000D01*
X58464285Y53447905D01*
X58426190Y53371714D01*
X58426190Y53295524D01*
X58464285Y53181238D01*
X58921428Y52724095D01*
X58426190Y52724095D01*
X58197619Y53524095D02*
X57930952Y52724095D01*
X57664285Y53524095D01*
X56788095Y52724095D02*
X56788095Y53524095D01*
X56407143Y52724095D02*
X56407143Y53524095D01*
X55950000Y52724095D01*
X55950000Y53524095D01*
X55569048Y52724095D02*
X55569048Y53524095D01*
X55264286Y53524095D01*
X55188095Y53486000D01*
X55150000Y53447905D01*
X55111905Y53371714D01*
X55111905Y53257429D01*
X55150000Y53181238D01*
X55188095Y53143143D01*
X55264286Y53105048D01*
X55569048Y53105048D01*
X54769048Y53524095D02*
X54769048Y52876476D01*
X54730953Y52800286D01*
X54692857Y52762190D01*
X54616667Y52724095D01*
X54464286Y52724095D01*
X54388095Y52762190D01*
X54350000Y52800286D01*
X54311905Y52876476D01*
X54311905Y53524095D01*
X54045239Y53524095D02*
X53588096Y53524095D01*
X53816667Y52724095D02*
X53816667Y53524095D01*
X62966523Y48787000D02*
X63042714Y48825095D01*
X63156999Y48825095D01*
X63271285Y48787000D01*
X63347476Y48710810D01*
X63385571Y48634619D01*
X63423666Y48482238D01*
X63423666Y48367952D01*
X63385571Y48215571D01*
X63347476Y48139381D01*
X63271285Y48063190D01*
X63156999Y48025095D01*
X63080809Y48025095D01*
X62966523Y48063190D01*
X62928428Y48101286D01*
X62928428Y48367952D01*
X63080809Y48367952D01*
X62585571Y48025095D02*
X62585571Y48825095D01*
X62128428Y48025095D01*
X62128428Y48825095D01*
X61747476Y48025095D02*
X61747476Y48825095D01*
X61557000Y48825095D01*
X61442714Y48787000D01*
X61366523Y48710810D01*
X61328428Y48634619D01*
X61290333Y48482238D01*
X61290333Y48367952D01*
X61328428Y48215571D01*
X61366523Y48139381D01*
X61442714Y48063190D01*
X61557000Y48025095D01*
X61747476Y48025095D01*
X53790095Y54749619D02*
X54171048Y54482952D01*
X53790095Y54292476D02*
X54590095Y54292476D01*
X54590095Y54597238D01*
X54552000Y54673429D01*
X54513905Y54711524D01*
X54437714Y54749619D01*
X54323429Y54749619D01*
X54247238Y54711524D01*
X54209143Y54673429D01*
X54171048Y54597238D01*
X54171048Y54292476D01*
X53828190Y55397238D02*
X53790095Y55321048D01*
X53790095Y55168667D01*
X53828190Y55092476D01*
X53904381Y55054381D01*
X54209143Y55054381D01*
X54285333Y55092476D01*
X54323429Y55168667D01*
X54323429Y55321048D01*
X54285333Y55397238D01*
X54209143Y55435333D01*
X54132952Y55435333D01*
X54056762Y55054381D01*
X54323429Y55702000D02*
X53790095Y55892476D01*
X54323429Y56082952D01*
X53790095Y56806762D02*
X53790095Y56349619D01*
X53790095Y56578190D02*
X54590095Y56578190D01*
X54475810Y56502000D01*
X54399619Y56425809D01*
X54361524Y56349619D01*
X53866286Y57149619D02*
X53828190Y57187714D01*
X53790095Y57149619D01*
X53828190Y57111524D01*
X53866286Y57149619D01*
X53790095Y57149619D01*
X54590095Y57682952D02*
X54590095Y57759143D01*
X54552000Y57835333D01*
X54513905Y57873428D01*
X54437714Y57911524D01*
X54285333Y57949619D01*
X54094857Y57949619D01*
X53942476Y57911524D01*
X53866286Y57873428D01*
X53828190Y57835333D01*
X53790095Y57759143D01*
X53790095Y57682952D01*
X53828190Y57606762D01*
X53866286Y57568666D01*
X53942476Y57530571D01*
X54094857Y57492476D01*
X54285333Y57492476D01*
X54437714Y57530571D01*
X54513905Y57568666D01*
X54552000Y57606762D01*
X54590095Y57682952D01*
X52470095Y54292476D02*
X53270095Y54292476D01*
X53270095Y54482952D01*
X53232000Y54597238D01*
X53155810Y54673429D01*
X53079619Y54711524D01*
X52927238Y54749619D01*
X52812952Y54749619D01*
X52660571Y54711524D01*
X52584381Y54673429D01*
X52508190Y54597238D01*
X52470095Y54482952D01*
X52470095Y54292476D01*
X52508190Y55397238D02*
X52470095Y55321048D01*
X52470095Y55168667D01*
X52508190Y55092476D01*
X52584381Y55054381D01*
X52889143Y55054381D01*
X52965333Y55092476D01*
X53003429Y55168667D01*
X53003429Y55321048D01*
X52965333Y55397238D01*
X52889143Y55435333D01*
X52812952Y55435333D01*
X52736762Y55054381D01*
X52508190Y56121047D02*
X52470095Y56044857D01*
X52470095Y55892476D01*
X52508190Y55816285D01*
X52546286Y55778190D01*
X52622476Y55740095D01*
X52851048Y55740095D01*
X52927238Y55778190D01*
X52965333Y55816285D01*
X53003429Y55892476D01*
X53003429Y56044857D01*
X52965333Y56121047D01*
X52774857Y56463904D02*
X52774857Y57073428D01*
X53193905Y57416285D02*
X53232000Y57454380D01*
X53270095Y57530571D01*
X53270095Y57721047D01*
X53232000Y57797237D01*
X53193905Y57835333D01*
X53117714Y57873428D01*
X53041524Y57873428D01*
X52927238Y57835333D01*
X52470095Y57378190D01*
X52470095Y57873428D01*
X53270095Y58368666D02*
X53270095Y58444857D01*
X53232000Y58521047D01*
X53193905Y58559142D01*
X53117714Y58597238D01*
X52965333Y58635333D01*
X52774857Y58635333D01*
X52622476Y58597238D01*
X52546286Y58559142D01*
X52508190Y58521047D01*
X52470095Y58444857D01*
X52470095Y58368666D01*
X52508190Y58292476D01*
X52546286Y58254380D01*
X52622476Y58216285D01*
X52774857Y58178190D01*
X52965333Y58178190D01*
X53117714Y58216285D01*
X53193905Y58254380D01*
X53232000Y58292476D01*
X53270095Y58368666D01*
X52470095Y59397238D02*
X52470095Y58940095D01*
X52470095Y59168666D02*
X53270095Y59168666D01*
X53155810Y59092476D01*
X53079619Y59016285D01*
X53041524Y58940095D01*
X53270095Y60121048D02*
X53270095Y59740095D01*
X52889143Y59702000D01*
X52927238Y59740095D01*
X52965333Y59816286D01*
X52965333Y60006762D01*
X52927238Y60082952D01*
X52889143Y60121048D01*
X52812952Y60159143D01*
X52622476Y60159143D01*
X52546286Y60121048D01*
X52508190Y60082952D01*
X52470095Y60006762D01*
X52470095Y59816286D01*
X52508190Y59740095D01*
X52546286Y59702000D01*
X51150095Y54292476D02*
X51950095Y54292476D01*
X51950095Y54482952D01*
X51912000Y54597238D01*
X51835810Y54673429D01*
X51759619Y54711524D01*
X51607238Y54749619D01*
X51492952Y54749619D01*
X51340571Y54711524D01*
X51264381Y54673429D01*
X51188190Y54597238D01*
X51150095Y54482952D01*
X51150095Y54292476D01*
X51188190Y55397238D02*
X51150095Y55321048D01*
X51150095Y55168667D01*
X51188190Y55092476D01*
X51264381Y55054381D01*
X51569143Y55054381D01*
X51645333Y55092476D01*
X51683429Y55168667D01*
X51683429Y55321048D01*
X51645333Y55397238D01*
X51569143Y55435333D01*
X51492952Y55435333D01*
X51416762Y55054381D01*
X51188190Y55740095D02*
X51150095Y55816285D01*
X51150095Y55968666D01*
X51188190Y56044857D01*
X51264381Y56082952D01*
X51302476Y56082952D01*
X51378667Y56044857D01*
X51416762Y55968666D01*
X51416762Y55854381D01*
X51454857Y55778190D01*
X51531048Y55740095D01*
X51569143Y55740095D01*
X51645333Y55778190D01*
X51683429Y55854381D01*
X51683429Y55968666D01*
X51645333Y56044857D01*
X51150095Y56425809D02*
X51683429Y56425809D01*
X51950095Y56425809D02*
X51912000Y56387714D01*
X51873905Y56425809D01*
X51912000Y56463904D01*
X51950095Y56425809D01*
X51873905Y56425809D01*
X51683429Y57149618D02*
X51035810Y57149618D01*
X50959619Y57111523D01*
X50921524Y57073428D01*
X50883429Y56997237D01*
X50883429Y56882952D01*
X50921524Y56806761D01*
X51188190Y57149618D02*
X51150095Y57073428D01*
X51150095Y56921047D01*
X51188190Y56844856D01*
X51226286Y56806761D01*
X51302476Y56768666D01*
X51531048Y56768666D01*
X51607238Y56806761D01*
X51645333Y56844856D01*
X51683429Y56921047D01*
X51683429Y57073428D01*
X51645333Y57149618D01*
X51683429Y57530571D02*
X51150095Y57530571D01*
X51607238Y57530571D02*
X51645333Y57568666D01*
X51683429Y57644857D01*
X51683429Y57759143D01*
X51645333Y57835333D01*
X51569143Y57873428D01*
X51150095Y57873428D01*
X51188190Y58559143D02*
X51150095Y58482953D01*
X51150095Y58330572D01*
X51188190Y58254381D01*
X51264381Y58216286D01*
X51569143Y58216286D01*
X51645333Y58254381D01*
X51683429Y58330572D01*
X51683429Y58482953D01*
X51645333Y58559143D01*
X51569143Y58597238D01*
X51492952Y58597238D01*
X51416762Y58216286D01*
X51150095Y59282952D02*
X51950095Y59282952D01*
X51188190Y59282952D02*
X51150095Y59206762D01*
X51150095Y59054381D01*
X51188190Y58978190D01*
X51226286Y58940095D01*
X51302476Y58902000D01*
X51531048Y58902000D01*
X51607238Y58940095D01*
X51645333Y58978190D01*
X51683429Y59054381D01*
X51683429Y59206762D01*
X51645333Y59282952D01*
X51150095Y60273429D02*
X51950095Y60273429D01*
X51645333Y60273429D02*
X51683429Y60349620D01*
X51683429Y60502001D01*
X51645333Y60578191D01*
X51607238Y60616286D01*
X51531048Y60654382D01*
X51302476Y60654382D01*
X51226286Y60616286D01*
X51188190Y60578191D01*
X51150095Y60502001D01*
X51150095Y60349620D01*
X51188190Y60273429D01*
X51683429Y60921049D02*
X51150095Y61111525D01*
X51683429Y61302001D02*
X51150095Y61111525D01*
X50959619Y61035334D01*
X50921524Y60997239D01*
X50883429Y60921049D01*
X51150095Y62216287D02*
X51950095Y62216287D01*
X51569143Y62216287D02*
X51569143Y62673430D01*
X51150095Y62673430D02*
X51950095Y62673430D01*
X51950095Y62978192D02*
X51150095Y63168668D01*
X51721524Y63321049D01*
X51150095Y63473430D01*
X51950095Y63663906D01*
X51950095Y64502002D02*
X51150095Y64692478D01*
X51721524Y64844859D01*
X51150095Y64997240D01*
X51950095Y65187716D01*
X51150095Y65606764D02*
X51188190Y65530573D01*
X51226286Y65492478D01*
X51302476Y65454383D01*
X51531048Y65454383D01*
X51607238Y65492478D01*
X51645333Y65530573D01*
X51683429Y65606764D01*
X51683429Y65721050D01*
X51645333Y65797240D01*
X51607238Y65835335D01*
X51531048Y65873431D01*
X51302476Y65873431D01*
X51226286Y65835335D01*
X51188190Y65797240D01*
X51150095Y65721050D01*
X51150095Y65606764D01*
X51683429Y66216288D02*
X51150095Y66216288D01*
X51607238Y66216288D02*
X51645333Y66254383D01*
X51683429Y66330574D01*
X51683429Y66444860D01*
X51645333Y66521050D01*
X51569143Y66559145D01*
X51150095Y66559145D01*
X51683429Y67282955D02*
X51035810Y67282955D01*
X50959619Y67244860D01*
X50921524Y67206765D01*
X50883429Y67130574D01*
X50883429Y67016289D01*
X50921524Y66940098D01*
X51188190Y67282955D02*
X51150095Y67206765D01*
X51150095Y67054384D01*
X51188190Y66978193D01*
X51226286Y66940098D01*
X51302476Y66902003D01*
X51531048Y66902003D01*
X51607238Y66940098D01*
X51645333Y66978193D01*
X51683429Y67054384D01*
X51683429Y67206765D01*
X51645333Y67282955D01*
X60597619Y76904857D02*
X59988095Y76904857D01*
X60292857Y76600095D02*
X60292857Y77209619D01*
X59188095Y76600095D02*
X59645238Y76600095D01*
X59416667Y76600095D02*
X59416667Y77400095D01*
X59492857Y77285810D01*
X59569048Y77209619D01*
X59645238Y77171524D01*
X58883333Y77323905D02*
X58845238Y77362000D01*
X58769047Y77400095D01*
X58578571Y77400095D01*
X58502381Y77362000D01*
X58464285Y77323905D01*
X58426190Y77247714D01*
X58426190Y77171524D01*
X58464285Y77057238D01*
X58921428Y76600095D01*
X58426190Y76600095D01*
X58197619Y77400095D02*
X57930952Y76600095D01*
X57664285Y77400095D01*
X56788095Y76600095D02*
X56788095Y77400095D01*
X56407143Y76600095D02*
X56407143Y77400095D01*
X55950000Y76600095D01*
X55950000Y77400095D01*
X55569048Y76600095D02*
X55569048Y77400095D01*
X55264286Y77400095D01*
X55188095Y77362000D01*
X55150000Y77323905D01*
X55111905Y77247714D01*
X55111905Y77133429D01*
X55150000Y77057238D01*
X55188095Y77019143D01*
X55264286Y76981048D01*
X55569048Y76981048D01*
X54769048Y77400095D02*
X54769048Y76752476D01*
X54730953Y76676286D01*
X54692857Y76638190D01*
X54616667Y76600095D01*
X54464286Y76600095D01*
X54388095Y76638190D01*
X54350000Y76676286D01*
X54311905Y76752476D01*
X54311905Y77400095D01*
X54045239Y77400095D02*
X53588096Y77400095D01*
X53816667Y76600095D02*
X53816667Y77400095D01*
X62966523Y72663000D02*
X63042714Y72701095D01*
X63156999Y72701095D01*
X63271285Y72663000D01*
X63347476Y72586810D01*
X63385571Y72510619D01*
X63423666Y72358238D01*
X63423666Y72243952D01*
X63385571Y72091571D01*
X63347476Y72015381D01*
X63271285Y71939190D01*
X63156999Y71901095D01*
X63080809Y71901095D01*
X62966523Y71939190D01*
X62928428Y71977286D01*
X62928428Y72243952D01*
X63080809Y72243952D01*
X62585571Y71901095D02*
X62585571Y72701095D01*
X62128428Y71901095D01*
X62128428Y72701095D01*
X61747476Y71901095D02*
X61747476Y72701095D01*
X61557000Y72701095D01*
X61442714Y72663000D01*
X61366523Y72586810D01*
X61328428Y72510619D01*
X61290333Y72358238D01*
X61290333Y72243952D01*
X61328428Y72091571D01*
X61366523Y72015381D01*
X61442714Y71939190D01*
X61557000Y71901095D01*
X61747476Y71901095D01*
X53790095Y78625619D02*
X54171048Y78358952D01*
X53790095Y78168476D02*
X54590095Y78168476D01*
X54590095Y78473238D01*
X54552000Y78549429D01*
X54513905Y78587524D01*
X54437714Y78625619D01*
X54323429Y78625619D01*
X54247238Y78587524D01*
X54209143Y78549429D01*
X54171048Y78473238D01*
X54171048Y78168476D01*
X53828190Y79273238D02*
X53790095Y79197048D01*
X53790095Y79044667D01*
X53828190Y78968476D01*
X53904381Y78930381D01*
X54209143Y78930381D01*
X54285333Y78968476D01*
X54323429Y79044667D01*
X54323429Y79197048D01*
X54285333Y79273238D01*
X54209143Y79311333D01*
X54132952Y79311333D01*
X54056762Y78930381D01*
X54323429Y79578000D02*
X53790095Y79768476D01*
X54323429Y79958952D01*
X53790095Y80682762D02*
X53790095Y80225619D01*
X53790095Y80454190D02*
X54590095Y80454190D01*
X54475810Y80378000D01*
X54399619Y80301809D01*
X54361524Y80225619D01*
X53866286Y81025619D02*
X53828190Y81063714D01*
X53790095Y81025619D01*
X53828190Y80987524D01*
X53866286Y81025619D01*
X53790095Y81025619D01*
X54590095Y81558952D02*
X54590095Y81635143D01*
X54552000Y81711333D01*
X54513905Y81749428D01*
X54437714Y81787524D01*
X54285333Y81825619D01*
X54094857Y81825619D01*
X53942476Y81787524D01*
X53866286Y81749428D01*
X53828190Y81711333D01*
X53790095Y81635143D01*
X53790095Y81558952D01*
X53828190Y81482762D01*
X53866286Y81444666D01*
X53942476Y81406571D01*
X54094857Y81368476D01*
X54285333Y81368476D01*
X54437714Y81406571D01*
X54513905Y81444666D01*
X54552000Y81482762D01*
X54590095Y81558952D01*
X52470095Y78168476D02*
X53270095Y78168476D01*
X53270095Y78358952D01*
X53232000Y78473238D01*
X53155810Y78549429D01*
X53079619Y78587524D01*
X52927238Y78625619D01*
X52812952Y78625619D01*
X52660571Y78587524D01*
X52584381Y78549429D01*
X52508190Y78473238D01*
X52470095Y78358952D01*
X52470095Y78168476D01*
X52508190Y79273238D02*
X52470095Y79197048D01*
X52470095Y79044667D01*
X52508190Y78968476D01*
X52584381Y78930381D01*
X52889143Y78930381D01*
X52965333Y78968476D01*
X53003429Y79044667D01*
X53003429Y79197048D01*
X52965333Y79273238D01*
X52889143Y79311333D01*
X52812952Y79311333D01*
X52736762Y78930381D01*
X52508190Y79997047D02*
X52470095Y79920857D01*
X52470095Y79768476D01*
X52508190Y79692285D01*
X52546286Y79654190D01*
X52622476Y79616095D01*
X52851048Y79616095D01*
X52927238Y79654190D01*
X52965333Y79692285D01*
X53003429Y79768476D01*
X53003429Y79920857D01*
X52965333Y79997047D01*
X52774857Y80339904D02*
X52774857Y80949428D01*
X53193905Y81292285D02*
X53232000Y81330380D01*
X53270095Y81406571D01*
X53270095Y81597047D01*
X53232000Y81673237D01*
X53193905Y81711333D01*
X53117714Y81749428D01*
X53041524Y81749428D01*
X52927238Y81711333D01*
X52470095Y81254190D01*
X52470095Y81749428D01*
X53270095Y82244666D02*
X53270095Y82320857D01*
X53232000Y82397047D01*
X53193905Y82435142D01*
X53117714Y82473238D01*
X52965333Y82511333D01*
X52774857Y82511333D01*
X52622476Y82473238D01*
X52546286Y82435142D01*
X52508190Y82397047D01*
X52470095Y82320857D01*
X52470095Y82244666D01*
X52508190Y82168476D01*
X52546286Y82130380D01*
X52622476Y82092285D01*
X52774857Y82054190D01*
X52965333Y82054190D01*
X53117714Y82092285D01*
X53193905Y82130380D01*
X53232000Y82168476D01*
X53270095Y82244666D01*
X52470095Y83273238D02*
X52470095Y82816095D01*
X52470095Y83044666D02*
X53270095Y83044666D01*
X53155810Y82968476D01*
X53079619Y82892285D01*
X53041524Y82816095D01*
X53270095Y83997048D02*
X53270095Y83616095D01*
X52889143Y83578000D01*
X52927238Y83616095D01*
X52965333Y83692286D01*
X52965333Y83882762D01*
X52927238Y83958952D01*
X52889143Y83997048D01*
X52812952Y84035143D01*
X52622476Y84035143D01*
X52546286Y83997048D01*
X52508190Y83958952D01*
X52470095Y83882762D01*
X52470095Y83692286D01*
X52508190Y83616095D01*
X52546286Y83578000D01*
X51150095Y78168476D02*
X51950095Y78168476D01*
X51950095Y78358952D01*
X51912000Y78473238D01*
X51835810Y78549429D01*
X51759619Y78587524D01*
X51607238Y78625619D01*
X51492952Y78625619D01*
X51340571Y78587524D01*
X51264381Y78549429D01*
X51188190Y78473238D01*
X51150095Y78358952D01*
X51150095Y78168476D01*
X51188190Y79273238D02*
X51150095Y79197048D01*
X51150095Y79044667D01*
X51188190Y78968476D01*
X51264381Y78930381D01*
X51569143Y78930381D01*
X51645333Y78968476D01*
X51683429Y79044667D01*
X51683429Y79197048D01*
X51645333Y79273238D01*
X51569143Y79311333D01*
X51492952Y79311333D01*
X51416762Y78930381D01*
X51188190Y79616095D02*
X51150095Y79692285D01*
X51150095Y79844666D01*
X51188190Y79920857D01*
X51264381Y79958952D01*
X51302476Y79958952D01*
X51378667Y79920857D01*
X51416762Y79844666D01*
X51416762Y79730381D01*
X51454857Y79654190D01*
X51531048Y79616095D01*
X51569143Y79616095D01*
X51645333Y79654190D01*
X51683429Y79730381D01*
X51683429Y79844666D01*
X51645333Y79920857D01*
X51150095Y80301809D02*
X51683429Y80301809D01*
X51950095Y80301809D02*
X51912000Y80263714D01*
X51873905Y80301809D01*
X51912000Y80339904D01*
X51950095Y80301809D01*
X51873905Y80301809D01*
X51683429Y81025618D02*
X51035810Y81025618D01*
X50959619Y80987523D01*
X50921524Y80949428D01*
X50883429Y80873237D01*
X50883429Y80758952D01*
X50921524Y80682761D01*
X51188190Y81025618D02*
X51150095Y80949428D01*
X51150095Y80797047D01*
X51188190Y80720856D01*
X51226286Y80682761D01*
X51302476Y80644666D01*
X51531048Y80644666D01*
X51607238Y80682761D01*
X51645333Y80720856D01*
X51683429Y80797047D01*
X51683429Y80949428D01*
X51645333Y81025618D01*
X51683429Y81406571D02*
X51150095Y81406571D01*
X51607238Y81406571D02*
X51645333Y81444666D01*
X51683429Y81520857D01*
X51683429Y81635143D01*
X51645333Y81711333D01*
X51569143Y81749428D01*
X51150095Y81749428D01*
X51188190Y82435143D02*
X51150095Y82358953D01*
X51150095Y82206572D01*
X51188190Y82130381D01*
X51264381Y82092286D01*
X51569143Y82092286D01*
X51645333Y82130381D01*
X51683429Y82206572D01*
X51683429Y82358953D01*
X51645333Y82435143D01*
X51569143Y82473238D01*
X51492952Y82473238D01*
X51416762Y82092286D01*
X51150095Y83158952D02*
X51950095Y83158952D01*
X51188190Y83158952D02*
X51150095Y83082762D01*
X51150095Y82930381D01*
X51188190Y82854190D01*
X51226286Y82816095D01*
X51302476Y82778000D01*
X51531048Y82778000D01*
X51607238Y82816095D01*
X51645333Y82854190D01*
X51683429Y82930381D01*
X51683429Y83082762D01*
X51645333Y83158952D01*
X51150095Y84149429D02*
X51950095Y84149429D01*
X51645333Y84149429D02*
X51683429Y84225620D01*
X51683429Y84378001D01*
X51645333Y84454191D01*
X51607238Y84492286D01*
X51531048Y84530382D01*
X51302476Y84530382D01*
X51226286Y84492286D01*
X51188190Y84454191D01*
X51150095Y84378001D01*
X51150095Y84225620D01*
X51188190Y84149429D01*
X51683429Y84797049D02*
X51150095Y84987525D01*
X51683429Y85178001D02*
X51150095Y84987525D01*
X50959619Y84911334D01*
X50921524Y84873239D01*
X50883429Y84797049D01*
X51150095Y86092287D02*
X51950095Y86092287D01*
X51569143Y86092287D02*
X51569143Y86549430D01*
X51150095Y86549430D02*
X51950095Y86549430D01*
X51950095Y86854192D02*
X51150095Y87044668D01*
X51721524Y87197049D01*
X51150095Y87349430D01*
X51950095Y87539906D01*
X51950095Y88378002D02*
X51150095Y88568478D01*
X51721524Y88720859D01*
X51150095Y88873240D01*
X51950095Y89063716D01*
X51150095Y89482764D02*
X51188190Y89406573D01*
X51226286Y89368478D01*
X51302476Y89330383D01*
X51531048Y89330383D01*
X51607238Y89368478D01*
X51645333Y89406573D01*
X51683429Y89482764D01*
X51683429Y89597050D01*
X51645333Y89673240D01*
X51607238Y89711335D01*
X51531048Y89749431D01*
X51302476Y89749431D01*
X51226286Y89711335D01*
X51188190Y89673240D01*
X51150095Y89597050D01*
X51150095Y89482764D01*
X51683429Y90092288D02*
X51150095Y90092288D01*
X51607238Y90092288D02*
X51645333Y90130383D01*
X51683429Y90206574D01*
X51683429Y90320860D01*
X51645333Y90397050D01*
X51569143Y90435145D01*
X51150095Y90435145D01*
X51683429Y91158955D02*
X51035810Y91158955D01*
X50959619Y91120860D01*
X50921524Y91082765D01*
X50883429Y91006574D01*
X50883429Y90892289D01*
X50921524Y90816098D01*
X51188190Y91158955D02*
X51150095Y91082765D01*
X51150095Y90930384D01*
X51188190Y90854193D01*
X51226286Y90816098D01*
X51302476Y90778003D01*
X51531048Y90778003D01*
X51607238Y90816098D01*
X51645333Y90854193D01*
X51683429Y90930384D01*
X51683429Y91082765D01*
X51645333Y91158955D01*
X36721619Y5276857D02*
X36112095Y5276857D01*
X36416857Y4972095D02*
X36416857Y5581619D01*
X35312095Y4972095D02*
X35769238Y4972095D01*
X35540667Y4972095D02*
X35540667Y5772095D01*
X35616857Y5657810D01*
X35693048Y5581619D01*
X35769238Y5543524D01*
X35007333Y5695905D02*
X34969238Y5734000D01*
X34893047Y5772095D01*
X34702571Y5772095D01*
X34626381Y5734000D01*
X34588285Y5695905D01*
X34550190Y5619714D01*
X34550190Y5543524D01*
X34588285Y5429238D01*
X35045428Y4972095D01*
X34550190Y4972095D01*
X34321619Y5772095D02*
X34054952Y4972095D01*
X33788285Y5772095D01*
X32912095Y4972095D02*
X32912095Y5772095D01*
X32531143Y4972095D02*
X32531143Y5772095D01*
X32074000Y4972095D01*
X32074000Y5772095D01*
X31693048Y4972095D02*
X31693048Y5772095D01*
X31388286Y5772095D01*
X31312095Y5734000D01*
X31274000Y5695905D01*
X31235905Y5619714D01*
X31235905Y5505429D01*
X31274000Y5429238D01*
X31312095Y5391143D01*
X31388286Y5353048D01*
X31693048Y5353048D01*
X30893048Y5772095D02*
X30893048Y5124476D01*
X30854953Y5048286D01*
X30816857Y5010190D01*
X30740667Y4972095D01*
X30588286Y4972095D01*
X30512095Y5010190D01*
X30474000Y5048286D01*
X30435905Y5124476D01*
X30435905Y5772095D01*
X30169239Y5772095D02*
X29712096Y5772095D01*
X29940667Y4972095D02*
X29940667Y5772095D01*
X39090523Y1035000D02*
X39166714Y1073095D01*
X39280999Y1073095D01*
X39395285Y1035000D01*
X39471476Y958810D01*
X39509571Y882619D01*
X39547666Y730238D01*
X39547666Y615952D01*
X39509571Y463571D01*
X39471476Y387381D01*
X39395285Y311190D01*
X39280999Y273095D01*
X39204809Y273095D01*
X39090523Y311190D01*
X39052428Y349286D01*
X39052428Y615952D01*
X39204809Y615952D01*
X38709571Y273095D02*
X38709571Y1073095D01*
X38252428Y273095D01*
X38252428Y1073095D01*
X37871476Y273095D02*
X37871476Y1073095D01*
X37681000Y1073095D01*
X37566714Y1035000D01*
X37490523Y958810D01*
X37452428Y882619D01*
X37414333Y730238D01*
X37414333Y615952D01*
X37452428Y463571D01*
X37490523Y387381D01*
X37566714Y311190D01*
X37681000Y273095D01*
X37871476Y273095D01*
X29914095Y6997619D02*
X30295048Y6730952D01*
X29914095Y6540476D02*
X30714095Y6540476D01*
X30714095Y6845238D01*
X30676000Y6921429D01*
X30637905Y6959524D01*
X30561714Y6997619D01*
X30447429Y6997619D01*
X30371238Y6959524D01*
X30333143Y6921429D01*
X30295048Y6845238D01*
X30295048Y6540476D01*
X29952190Y7645238D02*
X29914095Y7569048D01*
X29914095Y7416667D01*
X29952190Y7340476D01*
X30028381Y7302381D01*
X30333143Y7302381D01*
X30409333Y7340476D01*
X30447429Y7416667D01*
X30447429Y7569048D01*
X30409333Y7645238D01*
X30333143Y7683333D01*
X30256952Y7683333D01*
X30180762Y7302381D01*
X30447429Y7950000D02*
X29914095Y8140476D01*
X30447429Y8330952D01*
X29914095Y9054762D02*
X29914095Y8597619D01*
X29914095Y8826190D02*
X30714095Y8826190D01*
X30599810Y8750000D01*
X30523619Y8673809D01*
X30485524Y8597619D01*
X29990286Y9397619D02*
X29952190Y9435714D01*
X29914095Y9397619D01*
X29952190Y9359524D01*
X29990286Y9397619D01*
X29914095Y9397619D01*
X30714095Y9930952D02*
X30714095Y10007143D01*
X30676000Y10083333D01*
X30637905Y10121428D01*
X30561714Y10159524D01*
X30409333Y10197619D01*
X30218857Y10197619D01*
X30066476Y10159524D01*
X29990286Y10121428D01*
X29952190Y10083333D01*
X29914095Y10007143D01*
X29914095Y9930952D01*
X29952190Y9854762D01*
X29990286Y9816666D01*
X30066476Y9778571D01*
X30218857Y9740476D01*
X30409333Y9740476D01*
X30561714Y9778571D01*
X30637905Y9816666D01*
X30676000Y9854762D01*
X30714095Y9930952D01*
X28594095Y6540476D02*
X29394095Y6540476D01*
X29394095Y6730952D01*
X29356000Y6845238D01*
X29279810Y6921429D01*
X29203619Y6959524D01*
X29051238Y6997619D01*
X28936952Y6997619D01*
X28784571Y6959524D01*
X28708381Y6921429D01*
X28632190Y6845238D01*
X28594095Y6730952D01*
X28594095Y6540476D01*
X28632190Y7645238D02*
X28594095Y7569048D01*
X28594095Y7416667D01*
X28632190Y7340476D01*
X28708381Y7302381D01*
X29013143Y7302381D01*
X29089333Y7340476D01*
X29127429Y7416667D01*
X29127429Y7569048D01*
X29089333Y7645238D01*
X29013143Y7683333D01*
X28936952Y7683333D01*
X28860762Y7302381D01*
X28632190Y8369047D02*
X28594095Y8292857D01*
X28594095Y8140476D01*
X28632190Y8064285D01*
X28670286Y8026190D01*
X28746476Y7988095D01*
X28975048Y7988095D01*
X29051238Y8026190D01*
X29089333Y8064285D01*
X29127429Y8140476D01*
X29127429Y8292857D01*
X29089333Y8369047D01*
X28898857Y8711904D02*
X28898857Y9321428D01*
X29317905Y9664285D02*
X29356000Y9702380D01*
X29394095Y9778571D01*
X29394095Y9969047D01*
X29356000Y10045237D01*
X29317905Y10083333D01*
X29241714Y10121428D01*
X29165524Y10121428D01*
X29051238Y10083333D01*
X28594095Y9626190D01*
X28594095Y10121428D01*
X29394095Y10616666D02*
X29394095Y10692857D01*
X29356000Y10769047D01*
X29317905Y10807142D01*
X29241714Y10845238D01*
X29089333Y10883333D01*
X28898857Y10883333D01*
X28746476Y10845238D01*
X28670286Y10807142D01*
X28632190Y10769047D01*
X28594095Y10692857D01*
X28594095Y10616666D01*
X28632190Y10540476D01*
X28670286Y10502380D01*
X28746476Y10464285D01*
X28898857Y10426190D01*
X29089333Y10426190D01*
X29241714Y10464285D01*
X29317905Y10502380D01*
X29356000Y10540476D01*
X29394095Y10616666D01*
X28594095Y11645238D02*
X28594095Y11188095D01*
X28594095Y11416666D02*
X29394095Y11416666D01*
X29279810Y11340476D01*
X29203619Y11264285D01*
X29165524Y11188095D01*
X29394095Y12369048D02*
X29394095Y11988095D01*
X29013143Y11950000D01*
X29051238Y11988095D01*
X29089333Y12064286D01*
X29089333Y12254762D01*
X29051238Y12330952D01*
X29013143Y12369048D01*
X28936952Y12407143D01*
X28746476Y12407143D01*
X28670286Y12369048D01*
X28632190Y12330952D01*
X28594095Y12254762D01*
X28594095Y12064286D01*
X28632190Y11988095D01*
X28670286Y11950000D01*
X27274095Y6540476D02*
X28074095Y6540476D01*
X28074095Y6730952D01*
X28036000Y6845238D01*
X27959810Y6921429D01*
X27883619Y6959524D01*
X27731238Y6997619D01*
X27616952Y6997619D01*
X27464571Y6959524D01*
X27388381Y6921429D01*
X27312190Y6845238D01*
X27274095Y6730952D01*
X27274095Y6540476D01*
X27312190Y7645238D02*
X27274095Y7569048D01*
X27274095Y7416667D01*
X27312190Y7340476D01*
X27388381Y7302381D01*
X27693143Y7302381D01*
X27769333Y7340476D01*
X27807429Y7416667D01*
X27807429Y7569048D01*
X27769333Y7645238D01*
X27693143Y7683333D01*
X27616952Y7683333D01*
X27540762Y7302381D01*
X27312190Y7988095D02*
X27274095Y8064285D01*
X27274095Y8216666D01*
X27312190Y8292857D01*
X27388381Y8330952D01*
X27426476Y8330952D01*
X27502667Y8292857D01*
X27540762Y8216666D01*
X27540762Y8102381D01*
X27578857Y8026190D01*
X27655048Y7988095D01*
X27693143Y7988095D01*
X27769333Y8026190D01*
X27807429Y8102381D01*
X27807429Y8216666D01*
X27769333Y8292857D01*
X27274095Y8673809D02*
X27807429Y8673809D01*
X28074095Y8673809D02*
X28036000Y8635714D01*
X27997905Y8673809D01*
X28036000Y8711904D01*
X28074095Y8673809D01*
X27997905Y8673809D01*
X27807429Y9397618D02*
X27159810Y9397618D01*
X27083619Y9359523D01*
X27045524Y9321428D01*
X27007429Y9245237D01*
X27007429Y9130952D01*
X27045524Y9054761D01*
X27312190Y9397618D02*
X27274095Y9321428D01*
X27274095Y9169047D01*
X27312190Y9092856D01*
X27350286Y9054761D01*
X27426476Y9016666D01*
X27655048Y9016666D01*
X27731238Y9054761D01*
X27769333Y9092856D01*
X27807429Y9169047D01*
X27807429Y9321428D01*
X27769333Y9397618D01*
X27807429Y9778571D02*
X27274095Y9778571D01*
X27731238Y9778571D02*
X27769333Y9816666D01*
X27807429Y9892857D01*
X27807429Y10007143D01*
X27769333Y10083333D01*
X27693143Y10121428D01*
X27274095Y10121428D01*
X27312190Y10807143D02*
X27274095Y10730953D01*
X27274095Y10578572D01*
X27312190Y10502381D01*
X27388381Y10464286D01*
X27693143Y10464286D01*
X27769333Y10502381D01*
X27807429Y10578572D01*
X27807429Y10730953D01*
X27769333Y10807143D01*
X27693143Y10845238D01*
X27616952Y10845238D01*
X27540762Y10464286D01*
X27274095Y11530952D02*
X28074095Y11530952D01*
X27312190Y11530952D02*
X27274095Y11454762D01*
X27274095Y11302381D01*
X27312190Y11226190D01*
X27350286Y11188095D01*
X27426476Y11150000D01*
X27655048Y11150000D01*
X27731238Y11188095D01*
X27769333Y11226190D01*
X27807429Y11302381D01*
X27807429Y11454762D01*
X27769333Y11530952D01*
X27274095Y12521429D02*
X28074095Y12521429D01*
X27769333Y12521429D02*
X27807429Y12597620D01*
X27807429Y12750001D01*
X27769333Y12826191D01*
X27731238Y12864286D01*
X27655048Y12902382D01*
X27426476Y12902382D01*
X27350286Y12864286D01*
X27312190Y12826191D01*
X27274095Y12750001D01*
X27274095Y12597620D01*
X27312190Y12521429D01*
X27807429Y13169049D02*
X27274095Y13359525D01*
X27807429Y13550001D02*
X27274095Y13359525D01*
X27083619Y13283334D01*
X27045524Y13245239D01*
X27007429Y13169049D01*
X27274095Y14464287D02*
X28074095Y14464287D01*
X27693143Y14464287D02*
X27693143Y14921430D01*
X27274095Y14921430D02*
X28074095Y14921430D01*
X28074095Y15226192D02*
X27274095Y15416668D01*
X27845524Y15569049D01*
X27274095Y15721430D01*
X28074095Y15911906D01*
X28074095Y16750002D02*
X27274095Y16940478D01*
X27845524Y17092859D01*
X27274095Y17245240D01*
X28074095Y17435716D01*
X27274095Y17854764D02*
X27312190Y17778573D01*
X27350286Y17740478D01*
X27426476Y17702383D01*
X27655048Y17702383D01*
X27731238Y17740478D01*
X27769333Y17778573D01*
X27807429Y17854764D01*
X27807429Y17969050D01*
X27769333Y18045240D01*
X27731238Y18083335D01*
X27655048Y18121431D01*
X27426476Y18121431D01*
X27350286Y18083335D01*
X27312190Y18045240D01*
X27274095Y17969050D01*
X27274095Y17854764D01*
X27807429Y18464288D02*
X27274095Y18464288D01*
X27731238Y18464288D02*
X27769333Y18502383D01*
X27807429Y18578574D01*
X27807429Y18692860D01*
X27769333Y18769050D01*
X27693143Y18807145D01*
X27274095Y18807145D01*
X27807429Y19530955D02*
X27159810Y19530955D01*
X27083619Y19492860D01*
X27045524Y19454765D01*
X27007429Y19378574D01*
X27007429Y19264289D01*
X27045524Y19188098D01*
X27312190Y19530955D02*
X27274095Y19454765D01*
X27274095Y19302384D01*
X27312190Y19226193D01*
X27350286Y19188098D01*
X27426476Y19150003D01*
X27655048Y19150003D01*
X27731238Y19188098D01*
X27769333Y19226193D01*
X27807429Y19302384D01*
X27807429Y19454765D01*
X27769333Y19530955D01*
X36721619Y29152857D02*
X36112095Y29152857D01*
X36416857Y28848095D02*
X36416857Y29457619D01*
X35312095Y28848095D02*
X35769238Y28848095D01*
X35540667Y28848095D02*
X35540667Y29648095D01*
X35616857Y29533810D01*
X35693048Y29457619D01*
X35769238Y29419524D01*
X35007333Y29571905D02*
X34969238Y29610000D01*
X34893047Y29648095D01*
X34702571Y29648095D01*
X34626381Y29610000D01*
X34588285Y29571905D01*
X34550190Y29495714D01*
X34550190Y29419524D01*
X34588285Y29305238D01*
X35045428Y28848095D01*
X34550190Y28848095D01*
X34321619Y29648095D02*
X34054952Y28848095D01*
X33788285Y29648095D01*
X32912095Y28848095D02*
X32912095Y29648095D01*
X32531143Y28848095D02*
X32531143Y29648095D01*
X32074000Y28848095D01*
X32074000Y29648095D01*
X31693048Y28848095D02*
X31693048Y29648095D01*
X31388286Y29648095D01*
X31312095Y29610000D01*
X31274000Y29571905D01*
X31235905Y29495714D01*
X31235905Y29381429D01*
X31274000Y29305238D01*
X31312095Y29267143D01*
X31388286Y29229048D01*
X31693048Y29229048D01*
X30893048Y29648095D02*
X30893048Y29000476D01*
X30854953Y28924286D01*
X30816857Y28886190D01*
X30740667Y28848095D01*
X30588286Y28848095D01*
X30512095Y28886190D01*
X30474000Y28924286D01*
X30435905Y29000476D01*
X30435905Y29648095D01*
X30169239Y29648095D02*
X29712096Y29648095D01*
X29940667Y28848095D02*
X29940667Y29648095D01*
X39090523Y24911000D02*
X39166714Y24949095D01*
X39280999Y24949095D01*
X39395285Y24911000D01*
X39471476Y24834810D01*
X39509571Y24758619D01*
X39547666Y24606238D01*
X39547666Y24491952D01*
X39509571Y24339571D01*
X39471476Y24263381D01*
X39395285Y24187190D01*
X39280999Y24149095D01*
X39204809Y24149095D01*
X39090523Y24187190D01*
X39052428Y24225286D01*
X39052428Y24491952D01*
X39204809Y24491952D01*
X38709571Y24149095D02*
X38709571Y24949095D01*
X38252428Y24149095D01*
X38252428Y24949095D01*
X37871476Y24149095D02*
X37871476Y24949095D01*
X37681000Y24949095D01*
X37566714Y24911000D01*
X37490523Y24834810D01*
X37452428Y24758619D01*
X37414333Y24606238D01*
X37414333Y24491952D01*
X37452428Y24339571D01*
X37490523Y24263381D01*
X37566714Y24187190D01*
X37681000Y24149095D01*
X37871476Y24149095D01*
X29914095Y30873619D02*
X30295048Y30606952D01*
X29914095Y30416476D02*
X30714095Y30416476D01*
X30714095Y30721238D01*
X30676000Y30797429D01*
X30637905Y30835524D01*
X30561714Y30873619D01*
X30447429Y30873619D01*
X30371238Y30835524D01*
X30333143Y30797429D01*
X30295048Y30721238D01*
X30295048Y30416476D01*
X29952190Y31521238D02*
X29914095Y31445048D01*
X29914095Y31292667D01*
X29952190Y31216476D01*
X30028381Y31178381D01*
X30333143Y31178381D01*
X30409333Y31216476D01*
X30447429Y31292667D01*
X30447429Y31445048D01*
X30409333Y31521238D01*
X30333143Y31559333D01*
X30256952Y31559333D01*
X30180762Y31178381D01*
X30447429Y31826000D02*
X29914095Y32016476D01*
X30447429Y32206952D01*
X29914095Y32930762D02*
X29914095Y32473619D01*
X29914095Y32702190D02*
X30714095Y32702190D01*
X30599810Y32626000D01*
X30523619Y32549809D01*
X30485524Y32473619D01*
X29990286Y33273619D02*
X29952190Y33311714D01*
X29914095Y33273619D01*
X29952190Y33235524D01*
X29990286Y33273619D01*
X29914095Y33273619D01*
X30714095Y33806952D02*
X30714095Y33883143D01*
X30676000Y33959333D01*
X30637905Y33997428D01*
X30561714Y34035524D01*
X30409333Y34073619D01*
X30218857Y34073619D01*
X30066476Y34035524D01*
X29990286Y33997428D01*
X29952190Y33959333D01*
X29914095Y33883143D01*
X29914095Y33806952D01*
X29952190Y33730762D01*
X29990286Y33692666D01*
X30066476Y33654571D01*
X30218857Y33616476D01*
X30409333Y33616476D01*
X30561714Y33654571D01*
X30637905Y33692666D01*
X30676000Y33730762D01*
X30714095Y33806952D01*
X28594095Y30416476D02*
X29394095Y30416476D01*
X29394095Y30606952D01*
X29356000Y30721238D01*
X29279810Y30797429D01*
X29203619Y30835524D01*
X29051238Y30873619D01*
X28936952Y30873619D01*
X28784571Y30835524D01*
X28708381Y30797429D01*
X28632190Y30721238D01*
X28594095Y30606952D01*
X28594095Y30416476D01*
X28632190Y31521238D02*
X28594095Y31445048D01*
X28594095Y31292667D01*
X28632190Y31216476D01*
X28708381Y31178381D01*
X29013143Y31178381D01*
X29089333Y31216476D01*
X29127429Y31292667D01*
X29127429Y31445048D01*
X29089333Y31521238D01*
X29013143Y31559333D01*
X28936952Y31559333D01*
X28860762Y31178381D01*
X28632190Y32245047D02*
X28594095Y32168857D01*
X28594095Y32016476D01*
X28632190Y31940285D01*
X28670286Y31902190D01*
X28746476Y31864095D01*
X28975048Y31864095D01*
X29051238Y31902190D01*
X29089333Y31940285D01*
X29127429Y32016476D01*
X29127429Y32168857D01*
X29089333Y32245047D01*
X28898857Y32587904D02*
X28898857Y33197428D01*
X29317905Y33540285D02*
X29356000Y33578380D01*
X29394095Y33654571D01*
X29394095Y33845047D01*
X29356000Y33921237D01*
X29317905Y33959333D01*
X29241714Y33997428D01*
X29165524Y33997428D01*
X29051238Y33959333D01*
X28594095Y33502190D01*
X28594095Y33997428D01*
X29394095Y34492666D02*
X29394095Y34568857D01*
X29356000Y34645047D01*
X29317905Y34683142D01*
X29241714Y34721238D01*
X29089333Y34759333D01*
X28898857Y34759333D01*
X28746476Y34721238D01*
X28670286Y34683142D01*
X28632190Y34645047D01*
X28594095Y34568857D01*
X28594095Y34492666D01*
X28632190Y34416476D01*
X28670286Y34378380D01*
X28746476Y34340285D01*
X28898857Y34302190D01*
X29089333Y34302190D01*
X29241714Y34340285D01*
X29317905Y34378380D01*
X29356000Y34416476D01*
X29394095Y34492666D01*
X28594095Y35521238D02*
X28594095Y35064095D01*
X28594095Y35292666D02*
X29394095Y35292666D01*
X29279810Y35216476D01*
X29203619Y35140285D01*
X29165524Y35064095D01*
X29394095Y36245048D02*
X29394095Y35864095D01*
X29013143Y35826000D01*
X29051238Y35864095D01*
X29089333Y35940286D01*
X29089333Y36130762D01*
X29051238Y36206952D01*
X29013143Y36245048D01*
X28936952Y36283143D01*
X28746476Y36283143D01*
X28670286Y36245048D01*
X28632190Y36206952D01*
X28594095Y36130762D01*
X28594095Y35940286D01*
X28632190Y35864095D01*
X28670286Y35826000D01*
X27274095Y30416476D02*
X28074095Y30416476D01*
X28074095Y30606952D01*
X28036000Y30721238D01*
X27959810Y30797429D01*
X27883619Y30835524D01*
X27731238Y30873619D01*
X27616952Y30873619D01*
X27464571Y30835524D01*
X27388381Y30797429D01*
X27312190Y30721238D01*
X27274095Y30606952D01*
X27274095Y30416476D01*
X27312190Y31521238D02*
X27274095Y31445048D01*
X27274095Y31292667D01*
X27312190Y31216476D01*
X27388381Y31178381D01*
X27693143Y31178381D01*
X27769333Y31216476D01*
X27807429Y31292667D01*
X27807429Y31445048D01*
X27769333Y31521238D01*
X27693143Y31559333D01*
X27616952Y31559333D01*
X27540762Y31178381D01*
X27312190Y31864095D02*
X27274095Y31940285D01*
X27274095Y32092666D01*
X27312190Y32168857D01*
X27388381Y32206952D01*
X27426476Y32206952D01*
X27502667Y32168857D01*
X27540762Y32092666D01*
X27540762Y31978381D01*
X27578857Y31902190D01*
X27655048Y31864095D01*
X27693143Y31864095D01*
X27769333Y31902190D01*
X27807429Y31978381D01*
X27807429Y32092666D01*
X27769333Y32168857D01*
X27274095Y32549809D02*
X27807429Y32549809D01*
X28074095Y32549809D02*
X28036000Y32511714D01*
X27997905Y32549809D01*
X28036000Y32587904D01*
X28074095Y32549809D01*
X27997905Y32549809D01*
X27807429Y33273618D02*
X27159810Y33273618D01*
X27083619Y33235523D01*
X27045524Y33197428D01*
X27007429Y33121237D01*
X27007429Y33006952D01*
X27045524Y32930761D01*
X27312190Y33273618D02*
X27274095Y33197428D01*
X27274095Y33045047D01*
X27312190Y32968856D01*
X27350286Y32930761D01*
X27426476Y32892666D01*
X27655048Y32892666D01*
X27731238Y32930761D01*
X27769333Y32968856D01*
X27807429Y33045047D01*
X27807429Y33197428D01*
X27769333Y33273618D01*
X27807429Y33654571D02*
X27274095Y33654571D01*
X27731238Y33654571D02*
X27769333Y33692666D01*
X27807429Y33768857D01*
X27807429Y33883143D01*
X27769333Y33959333D01*
X27693143Y33997428D01*
X27274095Y33997428D01*
X27312190Y34683143D02*
X27274095Y34606953D01*
X27274095Y34454572D01*
X27312190Y34378381D01*
X27388381Y34340286D01*
X27693143Y34340286D01*
X27769333Y34378381D01*
X27807429Y34454572D01*
X27807429Y34606953D01*
X27769333Y34683143D01*
X27693143Y34721238D01*
X27616952Y34721238D01*
X27540762Y34340286D01*
X27274095Y35406952D02*
X28074095Y35406952D01*
X27312190Y35406952D02*
X27274095Y35330762D01*
X27274095Y35178381D01*
X27312190Y35102190D01*
X27350286Y35064095D01*
X27426476Y35026000D01*
X27655048Y35026000D01*
X27731238Y35064095D01*
X27769333Y35102190D01*
X27807429Y35178381D01*
X27807429Y35330762D01*
X27769333Y35406952D01*
X27274095Y36397429D02*
X28074095Y36397429D01*
X27769333Y36397429D02*
X27807429Y36473620D01*
X27807429Y36626001D01*
X27769333Y36702191D01*
X27731238Y36740286D01*
X27655048Y36778382D01*
X27426476Y36778382D01*
X27350286Y36740286D01*
X27312190Y36702191D01*
X27274095Y36626001D01*
X27274095Y36473620D01*
X27312190Y36397429D01*
X27807429Y37045049D02*
X27274095Y37235525D01*
X27807429Y37426001D02*
X27274095Y37235525D01*
X27083619Y37159334D01*
X27045524Y37121239D01*
X27007429Y37045049D01*
X27274095Y38340287D02*
X28074095Y38340287D01*
X27693143Y38340287D02*
X27693143Y38797430D01*
X27274095Y38797430D02*
X28074095Y38797430D01*
X28074095Y39102192D02*
X27274095Y39292668D01*
X27845524Y39445049D01*
X27274095Y39597430D01*
X28074095Y39787906D01*
X28074095Y40626002D02*
X27274095Y40816478D01*
X27845524Y40968859D01*
X27274095Y41121240D01*
X28074095Y41311716D01*
X27274095Y41730764D02*
X27312190Y41654573D01*
X27350286Y41616478D01*
X27426476Y41578383D01*
X27655048Y41578383D01*
X27731238Y41616478D01*
X27769333Y41654573D01*
X27807429Y41730764D01*
X27807429Y41845050D01*
X27769333Y41921240D01*
X27731238Y41959335D01*
X27655048Y41997431D01*
X27426476Y41997431D01*
X27350286Y41959335D01*
X27312190Y41921240D01*
X27274095Y41845050D01*
X27274095Y41730764D01*
X27807429Y42340288D02*
X27274095Y42340288D01*
X27731238Y42340288D02*
X27769333Y42378383D01*
X27807429Y42454574D01*
X27807429Y42568860D01*
X27769333Y42645050D01*
X27693143Y42683145D01*
X27274095Y42683145D01*
X27807429Y43406955D02*
X27159810Y43406955D01*
X27083619Y43368860D01*
X27045524Y43330765D01*
X27007429Y43254574D01*
X27007429Y43140289D01*
X27045524Y43064098D01*
X27312190Y43406955D02*
X27274095Y43330765D01*
X27274095Y43178384D01*
X27312190Y43102193D01*
X27350286Y43064098D01*
X27426476Y43026003D01*
X27655048Y43026003D01*
X27731238Y43064098D01*
X27769333Y43102193D01*
X27807429Y43178384D01*
X27807429Y43330765D01*
X27769333Y43406955D01*
X36721619Y53028857D02*
X36112095Y53028857D01*
X36416857Y52724095D02*
X36416857Y53333619D01*
X35312095Y52724095D02*
X35769238Y52724095D01*
X35540667Y52724095D02*
X35540667Y53524095D01*
X35616857Y53409810D01*
X35693048Y53333619D01*
X35769238Y53295524D01*
X35007333Y53447905D02*
X34969238Y53486000D01*
X34893047Y53524095D01*
X34702571Y53524095D01*
X34626381Y53486000D01*
X34588285Y53447905D01*
X34550190Y53371714D01*
X34550190Y53295524D01*
X34588285Y53181238D01*
X35045428Y52724095D01*
X34550190Y52724095D01*
X34321619Y53524095D02*
X34054952Y52724095D01*
X33788285Y53524095D01*
X32912095Y52724095D02*
X32912095Y53524095D01*
X32531143Y52724095D02*
X32531143Y53524095D01*
X32074000Y52724095D01*
X32074000Y53524095D01*
X31693048Y52724095D02*
X31693048Y53524095D01*
X31388286Y53524095D01*
X31312095Y53486000D01*
X31274000Y53447905D01*
X31235905Y53371714D01*
X31235905Y53257429D01*
X31274000Y53181238D01*
X31312095Y53143143D01*
X31388286Y53105048D01*
X31693048Y53105048D01*
X30893048Y53524095D02*
X30893048Y52876476D01*
X30854953Y52800286D01*
X30816857Y52762190D01*
X30740667Y52724095D01*
X30588286Y52724095D01*
X30512095Y52762190D01*
X30474000Y52800286D01*
X30435905Y52876476D01*
X30435905Y53524095D01*
X30169239Y53524095D02*
X29712096Y53524095D01*
X29940667Y52724095D02*
X29940667Y53524095D01*
X39090523Y48787000D02*
X39166714Y48825095D01*
X39280999Y48825095D01*
X39395285Y48787000D01*
X39471476Y48710810D01*
X39509571Y48634619D01*
X39547666Y48482238D01*
X39547666Y48367952D01*
X39509571Y48215571D01*
X39471476Y48139381D01*
X39395285Y48063190D01*
X39280999Y48025095D01*
X39204809Y48025095D01*
X39090523Y48063190D01*
X39052428Y48101286D01*
X39052428Y48367952D01*
X39204809Y48367952D01*
X38709571Y48025095D02*
X38709571Y48825095D01*
X38252428Y48025095D01*
X38252428Y48825095D01*
X37871476Y48025095D02*
X37871476Y48825095D01*
X37681000Y48825095D01*
X37566714Y48787000D01*
X37490523Y48710810D01*
X37452428Y48634619D01*
X37414333Y48482238D01*
X37414333Y48367952D01*
X37452428Y48215571D01*
X37490523Y48139381D01*
X37566714Y48063190D01*
X37681000Y48025095D01*
X37871476Y48025095D01*
X29914095Y54749619D02*
X30295048Y54482952D01*
X29914095Y54292476D02*
X30714095Y54292476D01*
X30714095Y54597238D01*
X30676000Y54673429D01*
X30637905Y54711524D01*
X30561714Y54749619D01*
X30447429Y54749619D01*
X30371238Y54711524D01*
X30333143Y54673429D01*
X30295048Y54597238D01*
X30295048Y54292476D01*
X29952190Y55397238D02*
X29914095Y55321048D01*
X29914095Y55168667D01*
X29952190Y55092476D01*
X30028381Y55054381D01*
X30333143Y55054381D01*
X30409333Y55092476D01*
X30447429Y55168667D01*
X30447429Y55321048D01*
X30409333Y55397238D01*
X30333143Y55435333D01*
X30256952Y55435333D01*
X30180762Y55054381D01*
X30447429Y55702000D02*
X29914095Y55892476D01*
X30447429Y56082952D01*
X29914095Y56806762D02*
X29914095Y56349619D01*
X29914095Y56578190D02*
X30714095Y56578190D01*
X30599810Y56502000D01*
X30523619Y56425809D01*
X30485524Y56349619D01*
X29990286Y57149619D02*
X29952190Y57187714D01*
X29914095Y57149619D01*
X29952190Y57111524D01*
X29990286Y57149619D01*
X29914095Y57149619D01*
X30714095Y57682952D02*
X30714095Y57759143D01*
X30676000Y57835333D01*
X30637905Y57873428D01*
X30561714Y57911524D01*
X30409333Y57949619D01*
X30218857Y57949619D01*
X30066476Y57911524D01*
X29990286Y57873428D01*
X29952190Y57835333D01*
X29914095Y57759143D01*
X29914095Y57682952D01*
X29952190Y57606762D01*
X29990286Y57568666D01*
X30066476Y57530571D01*
X30218857Y57492476D01*
X30409333Y57492476D01*
X30561714Y57530571D01*
X30637905Y57568666D01*
X30676000Y57606762D01*
X30714095Y57682952D01*
X28594095Y54292476D02*
X29394095Y54292476D01*
X29394095Y54482952D01*
X29356000Y54597238D01*
X29279810Y54673429D01*
X29203619Y54711524D01*
X29051238Y54749619D01*
X28936952Y54749619D01*
X28784571Y54711524D01*
X28708381Y54673429D01*
X28632190Y54597238D01*
X28594095Y54482952D01*
X28594095Y54292476D01*
X28632190Y55397238D02*
X28594095Y55321048D01*
X28594095Y55168667D01*
X28632190Y55092476D01*
X28708381Y55054381D01*
X29013143Y55054381D01*
X29089333Y55092476D01*
X29127429Y55168667D01*
X29127429Y55321048D01*
X29089333Y55397238D01*
X29013143Y55435333D01*
X28936952Y55435333D01*
X28860762Y55054381D01*
X28632190Y56121047D02*
X28594095Y56044857D01*
X28594095Y55892476D01*
X28632190Y55816285D01*
X28670286Y55778190D01*
X28746476Y55740095D01*
X28975048Y55740095D01*
X29051238Y55778190D01*
X29089333Y55816285D01*
X29127429Y55892476D01*
X29127429Y56044857D01*
X29089333Y56121047D01*
X28898857Y56463904D02*
X28898857Y57073428D01*
X29317905Y57416285D02*
X29356000Y57454380D01*
X29394095Y57530571D01*
X29394095Y57721047D01*
X29356000Y57797237D01*
X29317905Y57835333D01*
X29241714Y57873428D01*
X29165524Y57873428D01*
X29051238Y57835333D01*
X28594095Y57378190D01*
X28594095Y57873428D01*
X29394095Y58368666D02*
X29394095Y58444857D01*
X29356000Y58521047D01*
X29317905Y58559142D01*
X29241714Y58597238D01*
X29089333Y58635333D01*
X28898857Y58635333D01*
X28746476Y58597238D01*
X28670286Y58559142D01*
X28632190Y58521047D01*
X28594095Y58444857D01*
X28594095Y58368666D01*
X28632190Y58292476D01*
X28670286Y58254380D01*
X28746476Y58216285D01*
X28898857Y58178190D01*
X29089333Y58178190D01*
X29241714Y58216285D01*
X29317905Y58254380D01*
X29356000Y58292476D01*
X29394095Y58368666D01*
X28594095Y59397238D02*
X28594095Y58940095D01*
X28594095Y59168666D02*
X29394095Y59168666D01*
X29279810Y59092476D01*
X29203619Y59016285D01*
X29165524Y58940095D01*
X29394095Y60121048D02*
X29394095Y59740095D01*
X29013143Y59702000D01*
X29051238Y59740095D01*
X29089333Y59816286D01*
X29089333Y60006762D01*
X29051238Y60082952D01*
X29013143Y60121048D01*
X28936952Y60159143D01*
X28746476Y60159143D01*
X28670286Y60121048D01*
X28632190Y60082952D01*
X28594095Y60006762D01*
X28594095Y59816286D01*
X28632190Y59740095D01*
X28670286Y59702000D01*
X27274095Y54292476D02*
X28074095Y54292476D01*
X28074095Y54482952D01*
X28036000Y54597238D01*
X27959810Y54673429D01*
X27883619Y54711524D01*
X27731238Y54749619D01*
X27616952Y54749619D01*
X27464571Y54711524D01*
X27388381Y54673429D01*
X27312190Y54597238D01*
X27274095Y54482952D01*
X27274095Y54292476D01*
X27312190Y55397238D02*
X27274095Y55321048D01*
X27274095Y55168667D01*
X27312190Y55092476D01*
X27388381Y55054381D01*
X27693143Y55054381D01*
X27769333Y55092476D01*
X27807429Y55168667D01*
X27807429Y55321048D01*
X27769333Y55397238D01*
X27693143Y55435333D01*
X27616952Y55435333D01*
X27540762Y55054381D01*
X27312190Y55740095D02*
X27274095Y55816285D01*
X27274095Y55968666D01*
X27312190Y56044857D01*
X27388381Y56082952D01*
X27426476Y56082952D01*
X27502667Y56044857D01*
X27540762Y55968666D01*
X27540762Y55854381D01*
X27578857Y55778190D01*
X27655048Y55740095D01*
X27693143Y55740095D01*
X27769333Y55778190D01*
X27807429Y55854381D01*
X27807429Y55968666D01*
X27769333Y56044857D01*
X27274095Y56425809D02*
X27807429Y56425809D01*
X28074095Y56425809D02*
X28036000Y56387714D01*
X27997905Y56425809D01*
X28036000Y56463904D01*
X28074095Y56425809D01*
X27997905Y56425809D01*
X27807429Y57149618D02*
X27159810Y57149618D01*
X27083619Y57111523D01*
X27045524Y57073428D01*
X27007429Y56997237D01*
X27007429Y56882952D01*
X27045524Y56806761D01*
X27312190Y57149618D02*
X27274095Y57073428D01*
X27274095Y56921047D01*
X27312190Y56844856D01*
X27350286Y56806761D01*
X27426476Y56768666D01*
X27655048Y56768666D01*
X27731238Y56806761D01*
X27769333Y56844856D01*
X27807429Y56921047D01*
X27807429Y57073428D01*
X27769333Y57149618D01*
X27807429Y57530571D02*
X27274095Y57530571D01*
X27731238Y57530571D02*
X27769333Y57568666D01*
X27807429Y57644857D01*
X27807429Y57759143D01*
X27769333Y57835333D01*
X27693143Y57873428D01*
X27274095Y57873428D01*
X27312190Y58559143D02*
X27274095Y58482953D01*
X27274095Y58330572D01*
X27312190Y58254381D01*
X27388381Y58216286D01*
X27693143Y58216286D01*
X27769333Y58254381D01*
X27807429Y58330572D01*
X27807429Y58482953D01*
X27769333Y58559143D01*
X27693143Y58597238D01*
X27616952Y58597238D01*
X27540762Y58216286D01*
X27274095Y59282952D02*
X28074095Y59282952D01*
X27312190Y59282952D02*
X27274095Y59206762D01*
X27274095Y59054381D01*
X27312190Y58978190D01*
X27350286Y58940095D01*
X27426476Y58902000D01*
X27655048Y58902000D01*
X27731238Y58940095D01*
X27769333Y58978190D01*
X27807429Y59054381D01*
X27807429Y59206762D01*
X27769333Y59282952D01*
X27274095Y60273429D02*
X28074095Y60273429D01*
X27769333Y60273429D02*
X27807429Y60349620D01*
X27807429Y60502001D01*
X27769333Y60578191D01*
X27731238Y60616286D01*
X27655048Y60654382D01*
X27426476Y60654382D01*
X27350286Y60616286D01*
X27312190Y60578191D01*
X27274095Y60502001D01*
X27274095Y60349620D01*
X27312190Y60273429D01*
X27807429Y60921049D02*
X27274095Y61111525D01*
X27807429Y61302001D02*
X27274095Y61111525D01*
X27083619Y61035334D01*
X27045524Y60997239D01*
X27007429Y60921049D01*
X27274095Y62216287D02*
X28074095Y62216287D01*
X27693143Y62216287D02*
X27693143Y62673430D01*
X27274095Y62673430D02*
X28074095Y62673430D01*
X28074095Y62978192D02*
X27274095Y63168668D01*
X27845524Y63321049D01*
X27274095Y63473430D01*
X28074095Y63663906D01*
X28074095Y64502002D02*
X27274095Y64692478D01*
X27845524Y64844859D01*
X27274095Y64997240D01*
X28074095Y65187716D01*
X27274095Y65606764D02*
X27312190Y65530573D01*
X27350286Y65492478D01*
X27426476Y65454383D01*
X27655048Y65454383D01*
X27731238Y65492478D01*
X27769333Y65530573D01*
X27807429Y65606764D01*
X27807429Y65721050D01*
X27769333Y65797240D01*
X27731238Y65835335D01*
X27655048Y65873431D01*
X27426476Y65873431D01*
X27350286Y65835335D01*
X27312190Y65797240D01*
X27274095Y65721050D01*
X27274095Y65606764D01*
X27807429Y66216288D02*
X27274095Y66216288D01*
X27731238Y66216288D02*
X27769333Y66254383D01*
X27807429Y66330574D01*
X27807429Y66444860D01*
X27769333Y66521050D01*
X27693143Y66559145D01*
X27274095Y66559145D01*
X27807429Y67282955D02*
X27159810Y67282955D01*
X27083619Y67244860D01*
X27045524Y67206765D01*
X27007429Y67130574D01*
X27007429Y67016289D01*
X27045524Y66940098D01*
X27312190Y67282955D02*
X27274095Y67206765D01*
X27274095Y67054384D01*
X27312190Y66978193D01*
X27350286Y66940098D01*
X27426476Y66902003D01*
X27655048Y66902003D01*
X27731238Y66940098D01*
X27769333Y66978193D01*
X27807429Y67054384D01*
X27807429Y67206765D01*
X27769333Y67282955D01*
X36721619Y76904857D02*
X36112095Y76904857D01*
X36416857Y76600095D02*
X36416857Y77209619D01*
X35312095Y76600095D02*
X35769238Y76600095D01*
X35540667Y76600095D02*
X35540667Y77400095D01*
X35616857Y77285810D01*
X35693048Y77209619D01*
X35769238Y77171524D01*
X35007333Y77323905D02*
X34969238Y77362000D01*
X34893047Y77400095D01*
X34702571Y77400095D01*
X34626381Y77362000D01*
X34588285Y77323905D01*
X34550190Y77247714D01*
X34550190Y77171524D01*
X34588285Y77057238D01*
X35045428Y76600095D01*
X34550190Y76600095D01*
X34321619Y77400095D02*
X34054952Y76600095D01*
X33788285Y77400095D01*
X32912095Y76600095D02*
X32912095Y77400095D01*
X32531143Y76600095D02*
X32531143Y77400095D01*
X32074000Y76600095D01*
X32074000Y77400095D01*
X31693048Y76600095D02*
X31693048Y77400095D01*
X31388286Y77400095D01*
X31312095Y77362000D01*
X31274000Y77323905D01*
X31235905Y77247714D01*
X31235905Y77133429D01*
X31274000Y77057238D01*
X31312095Y77019143D01*
X31388286Y76981048D01*
X31693048Y76981048D01*
X30893048Y77400095D02*
X30893048Y76752476D01*
X30854953Y76676286D01*
X30816857Y76638190D01*
X30740667Y76600095D01*
X30588286Y76600095D01*
X30512095Y76638190D01*
X30474000Y76676286D01*
X30435905Y76752476D01*
X30435905Y77400095D01*
X30169239Y77400095D02*
X29712096Y77400095D01*
X29940667Y76600095D02*
X29940667Y77400095D01*
X39090523Y72663000D02*
X39166714Y72701095D01*
X39280999Y72701095D01*
X39395285Y72663000D01*
X39471476Y72586810D01*
X39509571Y72510619D01*
X39547666Y72358238D01*
X39547666Y72243952D01*
X39509571Y72091571D01*
X39471476Y72015381D01*
X39395285Y71939190D01*
X39280999Y71901095D01*
X39204809Y71901095D01*
X39090523Y71939190D01*
X39052428Y71977286D01*
X39052428Y72243952D01*
X39204809Y72243952D01*
X38709571Y71901095D02*
X38709571Y72701095D01*
X38252428Y71901095D01*
X38252428Y72701095D01*
X37871476Y71901095D02*
X37871476Y72701095D01*
X37681000Y72701095D01*
X37566714Y72663000D01*
X37490523Y72586810D01*
X37452428Y72510619D01*
X37414333Y72358238D01*
X37414333Y72243952D01*
X37452428Y72091571D01*
X37490523Y72015381D01*
X37566714Y71939190D01*
X37681000Y71901095D01*
X37871476Y71901095D01*
X29914095Y78625619D02*
X30295048Y78358952D01*
X29914095Y78168476D02*
X30714095Y78168476D01*
X30714095Y78473238D01*
X30676000Y78549429D01*
X30637905Y78587524D01*
X30561714Y78625619D01*
X30447429Y78625619D01*
X30371238Y78587524D01*
X30333143Y78549429D01*
X30295048Y78473238D01*
X30295048Y78168476D01*
X29952190Y79273238D02*
X29914095Y79197048D01*
X29914095Y79044667D01*
X29952190Y78968476D01*
X30028381Y78930381D01*
X30333143Y78930381D01*
X30409333Y78968476D01*
X30447429Y79044667D01*
X30447429Y79197048D01*
X30409333Y79273238D01*
X30333143Y79311333D01*
X30256952Y79311333D01*
X30180762Y78930381D01*
X30447429Y79578000D02*
X29914095Y79768476D01*
X30447429Y79958952D01*
X29914095Y80682762D02*
X29914095Y80225619D01*
X29914095Y80454190D02*
X30714095Y80454190D01*
X30599810Y80378000D01*
X30523619Y80301809D01*
X30485524Y80225619D01*
X29990286Y81025619D02*
X29952190Y81063714D01*
X29914095Y81025619D01*
X29952190Y80987524D01*
X29990286Y81025619D01*
X29914095Y81025619D01*
X30714095Y81558952D02*
X30714095Y81635143D01*
X30676000Y81711333D01*
X30637905Y81749428D01*
X30561714Y81787524D01*
X30409333Y81825619D01*
X30218857Y81825619D01*
X30066476Y81787524D01*
X29990286Y81749428D01*
X29952190Y81711333D01*
X29914095Y81635143D01*
X29914095Y81558952D01*
X29952190Y81482762D01*
X29990286Y81444666D01*
X30066476Y81406571D01*
X30218857Y81368476D01*
X30409333Y81368476D01*
X30561714Y81406571D01*
X30637905Y81444666D01*
X30676000Y81482762D01*
X30714095Y81558952D01*
X28594095Y78168476D02*
X29394095Y78168476D01*
X29394095Y78358952D01*
X29356000Y78473238D01*
X29279810Y78549429D01*
X29203619Y78587524D01*
X29051238Y78625619D01*
X28936952Y78625619D01*
X28784571Y78587524D01*
X28708381Y78549429D01*
X28632190Y78473238D01*
X28594095Y78358952D01*
X28594095Y78168476D01*
X28632190Y79273238D02*
X28594095Y79197048D01*
X28594095Y79044667D01*
X28632190Y78968476D01*
X28708381Y78930381D01*
X29013143Y78930381D01*
X29089333Y78968476D01*
X29127429Y79044667D01*
X29127429Y79197048D01*
X29089333Y79273238D01*
X29013143Y79311333D01*
X28936952Y79311333D01*
X28860762Y78930381D01*
X28632190Y79997047D02*
X28594095Y79920857D01*
X28594095Y79768476D01*
X28632190Y79692285D01*
X28670286Y79654190D01*
X28746476Y79616095D01*
X28975048Y79616095D01*
X29051238Y79654190D01*
X29089333Y79692285D01*
X29127429Y79768476D01*
X29127429Y79920857D01*
X29089333Y79997047D01*
X28898857Y80339904D02*
X28898857Y80949428D01*
X29317905Y81292285D02*
X29356000Y81330380D01*
X29394095Y81406571D01*
X29394095Y81597047D01*
X29356000Y81673237D01*
X29317905Y81711333D01*
X29241714Y81749428D01*
X29165524Y81749428D01*
X29051238Y81711333D01*
X28594095Y81254190D01*
X28594095Y81749428D01*
X29394095Y82244666D02*
X29394095Y82320857D01*
X29356000Y82397047D01*
X29317905Y82435142D01*
X29241714Y82473238D01*
X29089333Y82511333D01*
X28898857Y82511333D01*
X28746476Y82473238D01*
X28670286Y82435142D01*
X28632190Y82397047D01*
X28594095Y82320857D01*
X28594095Y82244666D01*
X28632190Y82168476D01*
X28670286Y82130380D01*
X28746476Y82092285D01*
X28898857Y82054190D01*
X29089333Y82054190D01*
X29241714Y82092285D01*
X29317905Y82130380D01*
X29356000Y82168476D01*
X29394095Y82244666D01*
X28594095Y83273238D02*
X28594095Y82816095D01*
X28594095Y83044666D02*
X29394095Y83044666D01*
X29279810Y82968476D01*
X29203619Y82892285D01*
X29165524Y82816095D01*
X29394095Y83997048D02*
X29394095Y83616095D01*
X29013143Y83578000D01*
X29051238Y83616095D01*
X29089333Y83692286D01*
X29089333Y83882762D01*
X29051238Y83958952D01*
X29013143Y83997048D01*
X28936952Y84035143D01*
X28746476Y84035143D01*
X28670286Y83997048D01*
X28632190Y83958952D01*
X28594095Y83882762D01*
X28594095Y83692286D01*
X28632190Y83616095D01*
X28670286Y83578000D01*
X27274095Y78168476D02*
X28074095Y78168476D01*
X28074095Y78358952D01*
X28036000Y78473238D01*
X27959810Y78549429D01*
X27883619Y78587524D01*
X27731238Y78625619D01*
X27616952Y78625619D01*
X27464571Y78587524D01*
X27388381Y78549429D01*
X27312190Y78473238D01*
X27274095Y78358952D01*
X27274095Y78168476D01*
X27312190Y79273238D02*
X27274095Y79197048D01*
X27274095Y79044667D01*
X27312190Y78968476D01*
X27388381Y78930381D01*
X27693143Y78930381D01*
X27769333Y78968476D01*
X27807429Y79044667D01*
X27807429Y79197048D01*
X27769333Y79273238D01*
X27693143Y79311333D01*
X27616952Y79311333D01*
X27540762Y78930381D01*
X27312190Y79616095D02*
X27274095Y79692285D01*
X27274095Y79844666D01*
X27312190Y79920857D01*
X27388381Y79958952D01*
X27426476Y79958952D01*
X27502667Y79920857D01*
X27540762Y79844666D01*
X27540762Y79730381D01*
X27578857Y79654190D01*
X27655048Y79616095D01*
X27693143Y79616095D01*
X27769333Y79654190D01*
X27807429Y79730381D01*
X27807429Y79844666D01*
X27769333Y79920857D01*
X27274095Y80301809D02*
X27807429Y80301809D01*
X28074095Y80301809D02*
X28036000Y80263714D01*
X27997905Y80301809D01*
X28036000Y80339904D01*
X28074095Y80301809D01*
X27997905Y80301809D01*
X27807429Y81025618D02*
X27159810Y81025618D01*
X27083619Y80987523D01*
X27045524Y80949428D01*
X27007429Y80873237D01*
X27007429Y80758952D01*
X27045524Y80682761D01*
X27312190Y81025618D02*
X27274095Y80949428D01*
X27274095Y80797047D01*
X27312190Y80720856D01*
X27350286Y80682761D01*
X27426476Y80644666D01*
X27655048Y80644666D01*
X27731238Y80682761D01*
X27769333Y80720856D01*
X27807429Y80797047D01*
X27807429Y80949428D01*
X27769333Y81025618D01*
X27807429Y81406571D02*
X27274095Y81406571D01*
X27731238Y81406571D02*
X27769333Y81444666D01*
X27807429Y81520857D01*
X27807429Y81635143D01*
X27769333Y81711333D01*
X27693143Y81749428D01*
X27274095Y81749428D01*
X27312190Y82435143D02*
X27274095Y82358953D01*
X27274095Y82206572D01*
X27312190Y82130381D01*
X27388381Y82092286D01*
X27693143Y82092286D01*
X27769333Y82130381D01*
X27807429Y82206572D01*
X27807429Y82358953D01*
X27769333Y82435143D01*
X27693143Y82473238D01*
X27616952Y82473238D01*
X27540762Y82092286D01*
X27274095Y83158952D02*
X28074095Y83158952D01*
X27312190Y83158952D02*
X27274095Y83082762D01*
X27274095Y82930381D01*
X27312190Y82854190D01*
X27350286Y82816095D01*
X27426476Y82778000D01*
X27655048Y82778000D01*
X27731238Y82816095D01*
X27769333Y82854190D01*
X27807429Y82930381D01*
X27807429Y83082762D01*
X27769333Y83158952D01*
X27274095Y84149429D02*
X28074095Y84149429D01*
X27769333Y84149429D02*
X27807429Y84225620D01*
X27807429Y84378001D01*
X27769333Y84454191D01*
X27731238Y84492286D01*
X27655048Y84530382D01*
X27426476Y84530382D01*
X27350286Y84492286D01*
X27312190Y84454191D01*
X27274095Y84378001D01*
X27274095Y84225620D01*
X27312190Y84149429D01*
X27807429Y84797049D02*
X27274095Y84987525D01*
X27807429Y85178001D02*
X27274095Y84987525D01*
X27083619Y84911334D01*
X27045524Y84873239D01*
X27007429Y84797049D01*
X27274095Y86092287D02*
X28074095Y86092287D01*
X27693143Y86092287D02*
X27693143Y86549430D01*
X27274095Y86549430D02*
X28074095Y86549430D01*
X28074095Y86854192D02*
X27274095Y87044668D01*
X27845524Y87197049D01*
X27274095Y87349430D01*
X28074095Y87539906D01*
X28074095Y88378002D02*
X27274095Y88568478D01*
X27845524Y88720859D01*
X27274095Y88873240D01*
X28074095Y89063716D01*
X27274095Y89482764D02*
X27312190Y89406573D01*
X27350286Y89368478D01*
X27426476Y89330383D01*
X27655048Y89330383D01*
X27731238Y89368478D01*
X27769333Y89406573D01*
X27807429Y89482764D01*
X27807429Y89597050D01*
X27769333Y89673240D01*
X27731238Y89711335D01*
X27655048Y89749431D01*
X27426476Y89749431D01*
X27350286Y89711335D01*
X27312190Y89673240D01*
X27274095Y89597050D01*
X27274095Y89482764D01*
X27807429Y90092288D02*
X27274095Y90092288D01*
X27731238Y90092288D02*
X27769333Y90130383D01*
X27807429Y90206574D01*
X27807429Y90320860D01*
X27769333Y90397050D01*
X27693143Y90435145D01*
X27274095Y90435145D01*
X27807429Y91158955D02*
X27159810Y91158955D01*
X27083619Y91120860D01*
X27045524Y91082765D01*
X27007429Y91006574D01*
X27007429Y90892289D01*
X27045524Y90816098D01*
X27312190Y91158955D02*
X27274095Y91082765D01*
X27274095Y90930384D01*
X27312190Y90854193D01*
X27350286Y90816098D01*
X27426476Y90778003D01*
X27655048Y90778003D01*
X27731238Y90816098D01*
X27769333Y90854193D01*
X27807429Y90930384D01*
X27807429Y91082765D01*
X27769333Y91158955D01*
X12845619Y5276857D02*
X12236095Y5276857D01*
X12540857Y4972095D02*
X12540857Y5581619D01*
X11436095Y4972095D02*
X11893238Y4972095D01*
X11664667Y4972095D02*
X11664667Y5772095D01*
X11740857Y5657810D01*
X11817048Y5581619D01*
X11893238Y5543524D01*
X11131333Y5695905D02*
X11093238Y5734000D01*
X11017047Y5772095D01*
X10826571Y5772095D01*
X10750381Y5734000D01*
X10712285Y5695905D01*
X10674190Y5619714D01*
X10674190Y5543524D01*
X10712285Y5429238D01*
X11169428Y4972095D01*
X10674190Y4972095D01*
X10445619Y5772095D02*
X10178952Y4972095D01*
X9912285Y5772095D01*
X9036095Y4972095D02*
X9036095Y5772095D01*
X8655143Y4972095D02*
X8655143Y5772095D01*
X8198000Y4972095D01*
X8198000Y5772095D01*
X7817048Y4972095D02*
X7817048Y5772095D01*
X7512286Y5772095D01*
X7436095Y5734000D01*
X7398000Y5695905D01*
X7359905Y5619714D01*
X7359905Y5505429D01*
X7398000Y5429238D01*
X7436095Y5391143D01*
X7512286Y5353048D01*
X7817048Y5353048D01*
X7017048Y5772095D02*
X7017048Y5124476D01*
X6978953Y5048286D01*
X6940857Y5010190D01*
X6864667Y4972095D01*
X6712286Y4972095D01*
X6636095Y5010190D01*
X6598000Y5048286D01*
X6559905Y5124476D01*
X6559905Y5772095D01*
X6293239Y5772095D02*
X5836096Y5772095D01*
X6064667Y4972095D02*
X6064667Y5772095D01*
X15214523Y1035000D02*
X15290714Y1073095D01*
X15404999Y1073095D01*
X15519285Y1035000D01*
X15595476Y958810D01*
X15633571Y882619D01*
X15671666Y730238D01*
X15671666Y615952D01*
X15633571Y463571D01*
X15595476Y387381D01*
X15519285Y311190D01*
X15404999Y273095D01*
X15328809Y273095D01*
X15214523Y311190D01*
X15176428Y349286D01*
X15176428Y615952D01*
X15328809Y615952D01*
X14833571Y273095D02*
X14833571Y1073095D01*
X14376428Y273095D01*
X14376428Y1073095D01*
X13995476Y273095D02*
X13995476Y1073095D01*
X13805000Y1073095D01*
X13690714Y1035000D01*
X13614523Y958810D01*
X13576428Y882619D01*
X13538333Y730238D01*
X13538333Y615952D01*
X13576428Y463571D01*
X13614523Y387381D01*
X13690714Y311190D01*
X13805000Y273095D01*
X13995476Y273095D01*
X6038095Y6997619D02*
X6419048Y6730952D01*
X6038095Y6540476D02*
X6838095Y6540476D01*
X6838095Y6845238D01*
X6800000Y6921429D01*
X6761905Y6959524D01*
X6685714Y6997619D01*
X6571429Y6997619D01*
X6495238Y6959524D01*
X6457143Y6921429D01*
X6419048Y6845238D01*
X6419048Y6540476D01*
X6076190Y7645238D02*
X6038095Y7569048D01*
X6038095Y7416667D01*
X6076190Y7340476D01*
X6152381Y7302381D01*
X6457143Y7302381D01*
X6533333Y7340476D01*
X6571429Y7416667D01*
X6571429Y7569048D01*
X6533333Y7645238D01*
X6457143Y7683333D01*
X6380952Y7683333D01*
X6304762Y7302381D01*
X6571429Y7950000D02*
X6038095Y8140476D01*
X6571429Y8330952D01*
X6038095Y9054762D02*
X6038095Y8597619D01*
X6038095Y8826190D02*
X6838095Y8826190D01*
X6723810Y8750000D01*
X6647619Y8673809D01*
X6609524Y8597619D01*
X6114286Y9397619D02*
X6076190Y9435714D01*
X6038095Y9397619D01*
X6076190Y9359524D01*
X6114286Y9397619D01*
X6038095Y9397619D01*
X6838095Y9930952D02*
X6838095Y10007143D01*
X6800000Y10083333D01*
X6761905Y10121428D01*
X6685714Y10159524D01*
X6533333Y10197619D01*
X6342857Y10197619D01*
X6190476Y10159524D01*
X6114286Y10121428D01*
X6076190Y10083333D01*
X6038095Y10007143D01*
X6038095Y9930952D01*
X6076190Y9854762D01*
X6114286Y9816666D01*
X6190476Y9778571D01*
X6342857Y9740476D01*
X6533333Y9740476D01*
X6685714Y9778571D01*
X6761905Y9816666D01*
X6800000Y9854762D01*
X6838095Y9930952D01*
X4718095Y6540476D02*
X5518095Y6540476D01*
X5518095Y6730952D01*
X5480000Y6845238D01*
X5403810Y6921429D01*
X5327619Y6959524D01*
X5175238Y6997619D01*
X5060952Y6997619D01*
X4908571Y6959524D01*
X4832381Y6921429D01*
X4756190Y6845238D01*
X4718095Y6730952D01*
X4718095Y6540476D01*
X4756190Y7645238D02*
X4718095Y7569048D01*
X4718095Y7416667D01*
X4756190Y7340476D01*
X4832381Y7302381D01*
X5137143Y7302381D01*
X5213333Y7340476D01*
X5251429Y7416667D01*
X5251429Y7569048D01*
X5213333Y7645238D01*
X5137143Y7683333D01*
X5060952Y7683333D01*
X4984762Y7302381D01*
X4756190Y8369047D02*
X4718095Y8292857D01*
X4718095Y8140476D01*
X4756190Y8064285D01*
X4794286Y8026190D01*
X4870476Y7988095D01*
X5099048Y7988095D01*
X5175238Y8026190D01*
X5213333Y8064285D01*
X5251429Y8140476D01*
X5251429Y8292857D01*
X5213333Y8369047D01*
X5022857Y8711904D02*
X5022857Y9321428D01*
X5441905Y9664285D02*
X5480000Y9702380D01*
X5518095Y9778571D01*
X5518095Y9969047D01*
X5480000Y10045237D01*
X5441905Y10083333D01*
X5365714Y10121428D01*
X5289524Y10121428D01*
X5175238Y10083333D01*
X4718095Y9626190D01*
X4718095Y10121428D01*
X5518095Y10616666D02*
X5518095Y10692857D01*
X5480000Y10769047D01*
X5441905Y10807142D01*
X5365714Y10845238D01*
X5213333Y10883333D01*
X5022857Y10883333D01*
X4870476Y10845238D01*
X4794286Y10807142D01*
X4756190Y10769047D01*
X4718095Y10692857D01*
X4718095Y10616666D01*
X4756190Y10540476D01*
X4794286Y10502380D01*
X4870476Y10464285D01*
X5022857Y10426190D01*
X5213333Y10426190D01*
X5365714Y10464285D01*
X5441905Y10502380D01*
X5480000Y10540476D01*
X5518095Y10616666D01*
X4718095Y11645238D02*
X4718095Y11188095D01*
X4718095Y11416666D02*
X5518095Y11416666D01*
X5403810Y11340476D01*
X5327619Y11264285D01*
X5289524Y11188095D01*
X5518095Y12369048D02*
X5518095Y11988095D01*
X5137143Y11950000D01*
X5175238Y11988095D01*
X5213333Y12064286D01*
X5213333Y12254762D01*
X5175238Y12330952D01*
X5137143Y12369048D01*
X5060952Y12407143D01*
X4870476Y12407143D01*
X4794286Y12369048D01*
X4756190Y12330952D01*
X4718095Y12254762D01*
X4718095Y12064286D01*
X4756190Y11988095D01*
X4794286Y11950000D01*
X3398095Y6540476D02*
X4198095Y6540476D01*
X4198095Y6730952D01*
X4160000Y6845238D01*
X4083810Y6921429D01*
X4007619Y6959524D01*
X3855238Y6997619D01*
X3740952Y6997619D01*
X3588571Y6959524D01*
X3512381Y6921429D01*
X3436190Y6845238D01*
X3398095Y6730952D01*
X3398095Y6540476D01*
X3436190Y7645238D02*
X3398095Y7569048D01*
X3398095Y7416667D01*
X3436190Y7340476D01*
X3512381Y7302381D01*
X3817143Y7302381D01*
X3893333Y7340476D01*
X3931429Y7416667D01*
X3931429Y7569048D01*
X3893333Y7645238D01*
X3817143Y7683333D01*
X3740952Y7683333D01*
X3664762Y7302381D01*
X3436190Y7988095D02*
X3398095Y8064285D01*
X3398095Y8216666D01*
X3436190Y8292857D01*
X3512381Y8330952D01*
X3550476Y8330952D01*
X3626667Y8292857D01*
X3664762Y8216666D01*
X3664762Y8102381D01*
X3702857Y8026190D01*
X3779048Y7988095D01*
X3817143Y7988095D01*
X3893333Y8026190D01*
X3931429Y8102381D01*
X3931429Y8216666D01*
X3893333Y8292857D01*
X3398095Y8673809D02*
X3931429Y8673809D01*
X4198095Y8673809D02*
X4160000Y8635714D01*
X4121905Y8673809D01*
X4160000Y8711904D01*
X4198095Y8673809D01*
X4121905Y8673809D01*
X3931429Y9397618D02*
X3283810Y9397618D01*
X3207619Y9359523D01*
X3169524Y9321428D01*
X3131429Y9245237D01*
X3131429Y9130952D01*
X3169524Y9054761D01*
X3436190Y9397618D02*
X3398095Y9321428D01*
X3398095Y9169047D01*
X3436190Y9092856D01*
X3474286Y9054761D01*
X3550476Y9016666D01*
X3779048Y9016666D01*
X3855238Y9054761D01*
X3893333Y9092856D01*
X3931429Y9169047D01*
X3931429Y9321428D01*
X3893333Y9397618D01*
X3931429Y9778571D02*
X3398095Y9778571D01*
X3855238Y9778571D02*
X3893333Y9816666D01*
X3931429Y9892857D01*
X3931429Y10007143D01*
X3893333Y10083333D01*
X3817143Y10121428D01*
X3398095Y10121428D01*
X3436190Y10807143D02*
X3398095Y10730953D01*
X3398095Y10578572D01*
X3436190Y10502381D01*
X3512381Y10464286D01*
X3817143Y10464286D01*
X3893333Y10502381D01*
X3931429Y10578572D01*
X3931429Y10730953D01*
X3893333Y10807143D01*
X3817143Y10845238D01*
X3740952Y10845238D01*
X3664762Y10464286D01*
X3398095Y11530952D02*
X4198095Y11530952D01*
X3436190Y11530952D02*
X3398095Y11454762D01*
X3398095Y11302381D01*
X3436190Y11226190D01*
X3474286Y11188095D01*
X3550476Y11150000D01*
X3779048Y11150000D01*
X3855238Y11188095D01*
X3893333Y11226190D01*
X3931429Y11302381D01*
X3931429Y11454762D01*
X3893333Y11530952D01*
X3398095Y12521429D02*
X4198095Y12521429D01*
X3893333Y12521429D02*
X3931429Y12597620D01*
X3931429Y12750001D01*
X3893333Y12826191D01*
X3855238Y12864286D01*
X3779048Y12902382D01*
X3550476Y12902382D01*
X3474286Y12864286D01*
X3436190Y12826191D01*
X3398095Y12750001D01*
X3398095Y12597620D01*
X3436190Y12521429D01*
X3931429Y13169049D02*
X3398095Y13359525D01*
X3931429Y13550001D02*
X3398095Y13359525D01*
X3207619Y13283334D01*
X3169524Y13245239D01*
X3131429Y13169049D01*
X3398095Y14464287D02*
X4198095Y14464287D01*
X3817143Y14464287D02*
X3817143Y14921430D01*
X3398095Y14921430D02*
X4198095Y14921430D01*
X4198095Y15226192D02*
X3398095Y15416668D01*
X3969524Y15569049D01*
X3398095Y15721430D01*
X4198095Y15911906D01*
X4198095Y16750002D02*
X3398095Y16940478D01*
X3969524Y17092859D01*
X3398095Y17245240D01*
X4198095Y17435716D01*
X3398095Y17854764D02*
X3436190Y17778573D01*
X3474286Y17740478D01*
X3550476Y17702383D01*
X3779048Y17702383D01*
X3855238Y17740478D01*
X3893333Y17778573D01*
X3931429Y17854764D01*
X3931429Y17969050D01*
X3893333Y18045240D01*
X3855238Y18083335D01*
X3779048Y18121431D01*
X3550476Y18121431D01*
X3474286Y18083335D01*
X3436190Y18045240D01*
X3398095Y17969050D01*
X3398095Y17854764D01*
X3931429Y18464288D02*
X3398095Y18464288D01*
X3855238Y18464288D02*
X3893333Y18502383D01*
X3931429Y18578574D01*
X3931429Y18692860D01*
X3893333Y18769050D01*
X3817143Y18807145D01*
X3398095Y18807145D01*
X3931429Y19530955D02*
X3283810Y19530955D01*
X3207619Y19492860D01*
X3169524Y19454765D01*
X3131429Y19378574D01*
X3131429Y19264289D01*
X3169524Y19188098D01*
X3436190Y19530955D02*
X3398095Y19454765D01*
X3398095Y19302384D01*
X3436190Y19226193D01*
X3474286Y19188098D01*
X3550476Y19150003D01*
X3779048Y19150003D01*
X3855238Y19188098D01*
X3893333Y19226193D01*
X3931429Y19302384D01*
X3931429Y19454765D01*
X3893333Y19530955D01*
X12845619Y29152857D02*
X12236095Y29152857D01*
X12540857Y28848095D02*
X12540857Y29457619D01*
X11436095Y28848095D02*
X11893238Y28848095D01*
X11664667Y28848095D02*
X11664667Y29648095D01*
X11740857Y29533810D01*
X11817048Y29457619D01*
X11893238Y29419524D01*
X11131333Y29571905D02*
X11093238Y29610000D01*
X11017047Y29648095D01*
X10826571Y29648095D01*
X10750381Y29610000D01*
X10712285Y29571905D01*
X10674190Y29495714D01*
X10674190Y29419524D01*
X10712285Y29305238D01*
X11169428Y28848095D01*
X10674190Y28848095D01*
X10445619Y29648095D02*
X10178952Y28848095D01*
X9912285Y29648095D01*
X9036095Y28848095D02*
X9036095Y29648095D01*
X8655143Y28848095D02*
X8655143Y29648095D01*
X8198000Y28848095D01*
X8198000Y29648095D01*
X7817048Y28848095D02*
X7817048Y29648095D01*
X7512286Y29648095D01*
X7436095Y29610000D01*
X7398000Y29571905D01*
X7359905Y29495714D01*
X7359905Y29381429D01*
X7398000Y29305238D01*
X7436095Y29267143D01*
X7512286Y29229048D01*
X7817048Y29229048D01*
X7017048Y29648095D02*
X7017048Y29000476D01*
X6978953Y28924286D01*
X6940857Y28886190D01*
X6864667Y28848095D01*
X6712286Y28848095D01*
X6636095Y28886190D01*
X6598000Y28924286D01*
X6559905Y29000476D01*
X6559905Y29648095D01*
X6293239Y29648095D02*
X5836096Y29648095D01*
X6064667Y28848095D02*
X6064667Y29648095D01*
X15214523Y24911000D02*
X15290714Y24949095D01*
X15404999Y24949095D01*
X15519285Y24911000D01*
X15595476Y24834810D01*
X15633571Y24758619D01*
X15671666Y24606238D01*
X15671666Y24491952D01*
X15633571Y24339571D01*
X15595476Y24263381D01*
X15519285Y24187190D01*
X15404999Y24149095D01*
X15328809Y24149095D01*
X15214523Y24187190D01*
X15176428Y24225286D01*
X15176428Y24491952D01*
X15328809Y24491952D01*
X14833571Y24149095D02*
X14833571Y24949095D01*
X14376428Y24149095D01*
X14376428Y24949095D01*
X13995476Y24149095D02*
X13995476Y24949095D01*
X13805000Y24949095D01*
X13690714Y24911000D01*
X13614523Y24834810D01*
X13576428Y24758619D01*
X13538333Y24606238D01*
X13538333Y24491952D01*
X13576428Y24339571D01*
X13614523Y24263381D01*
X13690714Y24187190D01*
X13805000Y24149095D01*
X13995476Y24149095D01*
X6038095Y30873619D02*
X6419048Y30606952D01*
X6038095Y30416476D02*
X6838095Y30416476D01*
X6838095Y30721238D01*
X6800000Y30797429D01*
X6761905Y30835524D01*
X6685714Y30873619D01*
X6571429Y30873619D01*
X6495238Y30835524D01*
X6457143Y30797429D01*
X6419048Y30721238D01*
X6419048Y30416476D01*
X6076190Y31521238D02*
X6038095Y31445048D01*
X6038095Y31292667D01*
X6076190Y31216476D01*
X6152381Y31178381D01*
X6457143Y31178381D01*
X6533333Y31216476D01*
X6571429Y31292667D01*
X6571429Y31445048D01*
X6533333Y31521238D01*
X6457143Y31559333D01*
X6380952Y31559333D01*
X6304762Y31178381D01*
X6571429Y31826000D02*
X6038095Y32016476D01*
X6571429Y32206952D01*
X6038095Y32930762D02*
X6038095Y32473619D01*
X6038095Y32702190D02*
X6838095Y32702190D01*
X6723810Y32626000D01*
X6647619Y32549809D01*
X6609524Y32473619D01*
X6114286Y33273619D02*
X6076190Y33311714D01*
X6038095Y33273619D01*
X6076190Y33235524D01*
X6114286Y33273619D01*
X6038095Y33273619D01*
X6838095Y33806952D02*
X6838095Y33883143D01*
X6800000Y33959333D01*
X6761905Y33997428D01*
X6685714Y34035524D01*
X6533333Y34073619D01*
X6342857Y34073619D01*
X6190476Y34035524D01*
X6114286Y33997428D01*
X6076190Y33959333D01*
X6038095Y33883143D01*
X6038095Y33806952D01*
X6076190Y33730762D01*
X6114286Y33692666D01*
X6190476Y33654571D01*
X6342857Y33616476D01*
X6533333Y33616476D01*
X6685714Y33654571D01*
X6761905Y33692666D01*
X6800000Y33730762D01*
X6838095Y33806952D01*
X4718095Y30416476D02*
X5518095Y30416476D01*
X5518095Y30606952D01*
X5480000Y30721238D01*
X5403810Y30797429D01*
X5327619Y30835524D01*
X5175238Y30873619D01*
X5060952Y30873619D01*
X4908571Y30835524D01*
X4832381Y30797429D01*
X4756190Y30721238D01*
X4718095Y30606952D01*
X4718095Y30416476D01*
X4756190Y31521238D02*
X4718095Y31445048D01*
X4718095Y31292667D01*
X4756190Y31216476D01*
X4832381Y31178381D01*
X5137143Y31178381D01*
X5213333Y31216476D01*
X5251429Y31292667D01*
X5251429Y31445048D01*
X5213333Y31521238D01*
X5137143Y31559333D01*
X5060952Y31559333D01*
X4984762Y31178381D01*
X4756190Y32245047D02*
X4718095Y32168857D01*
X4718095Y32016476D01*
X4756190Y31940285D01*
X4794286Y31902190D01*
X4870476Y31864095D01*
X5099048Y31864095D01*
X5175238Y31902190D01*
X5213333Y31940285D01*
X5251429Y32016476D01*
X5251429Y32168857D01*
X5213333Y32245047D01*
X5022857Y32587904D02*
X5022857Y33197428D01*
X5441905Y33540285D02*
X5480000Y33578380D01*
X5518095Y33654571D01*
X5518095Y33845047D01*
X5480000Y33921237D01*
X5441905Y33959333D01*
X5365714Y33997428D01*
X5289524Y33997428D01*
X5175238Y33959333D01*
X4718095Y33502190D01*
X4718095Y33997428D01*
X5518095Y34492666D02*
X5518095Y34568857D01*
X5480000Y34645047D01*
X5441905Y34683142D01*
X5365714Y34721238D01*
X5213333Y34759333D01*
X5022857Y34759333D01*
X4870476Y34721238D01*
X4794286Y34683142D01*
X4756190Y34645047D01*
X4718095Y34568857D01*
X4718095Y34492666D01*
X4756190Y34416476D01*
X4794286Y34378380D01*
X4870476Y34340285D01*
X5022857Y34302190D01*
X5213333Y34302190D01*
X5365714Y34340285D01*
X5441905Y34378380D01*
X5480000Y34416476D01*
X5518095Y34492666D01*
X4718095Y35521238D02*
X4718095Y35064095D01*
X4718095Y35292666D02*
X5518095Y35292666D01*
X5403810Y35216476D01*
X5327619Y35140285D01*
X5289524Y35064095D01*
X5518095Y36245048D02*
X5518095Y35864095D01*
X5137143Y35826000D01*
X5175238Y35864095D01*
X5213333Y35940286D01*
X5213333Y36130762D01*
X5175238Y36206952D01*
X5137143Y36245048D01*
X5060952Y36283143D01*
X4870476Y36283143D01*
X4794286Y36245048D01*
X4756190Y36206952D01*
X4718095Y36130762D01*
X4718095Y35940286D01*
X4756190Y35864095D01*
X4794286Y35826000D01*
X3398095Y30416476D02*
X4198095Y30416476D01*
X4198095Y30606952D01*
X4160000Y30721238D01*
X4083810Y30797429D01*
X4007619Y30835524D01*
X3855238Y30873619D01*
X3740952Y30873619D01*
X3588571Y30835524D01*
X3512381Y30797429D01*
X3436190Y30721238D01*
X3398095Y30606952D01*
X3398095Y30416476D01*
X3436190Y31521238D02*
X3398095Y31445048D01*
X3398095Y31292667D01*
X3436190Y31216476D01*
X3512381Y31178381D01*
X3817143Y31178381D01*
X3893333Y31216476D01*
X3931429Y31292667D01*
X3931429Y31445048D01*
X3893333Y31521238D01*
X3817143Y31559333D01*
X3740952Y31559333D01*
X3664762Y31178381D01*
X3436190Y31864095D02*
X3398095Y31940285D01*
X3398095Y32092666D01*
X3436190Y32168857D01*
X3512381Y32206952D01*
X3550476Y32206952D01*
X3626667Y32168857D01*
X3664762Y32092666D01*
X3664762Y31978381D01*
X3702857Y31902190D01*
X3779048Y31864095D01*
X3817143Y31864095D01*
X3893333Y31902190D01*
X3931429Y31978381D01*
X3931429Y32092666D01*
X3893333Y32168857D01*
X3398095Y32549809D02*
X3931429Y32549809D01*
X4198095Y32549809D02*
X4160000Y32511714D01*
X4121905Y32549809D01*
X4160000Y32587904D01*
X4198095Y32549809D01*
X4121905Y32549809D01*
X3931429Y33273618D02*
X3283810Y33273618D01*
X3207619Y33235523D01*
X3169524Y33197428D01*
X3131429Y33121237D01*
X3131429Y33006952D01*
X3169524Y32930761D01*
X3436190Y33273618D02*
X3398095Y33197428D01*
X3398095Y33045047D01*
X3436190Y32968856D01*
X3474286Y32930761D01*
X3550476Y32892666D01*
X3779048Y32892666D01*
X3855238Y32930761D01*
X3893333Y32968856D01*
X3931429Y33045047D01*
X3931429Y33197428D01*
X3893333Y33273618D01*
X3931429Y33654571D02*
X3398095Y33654571D01*
X3855238Y33654571D02*
X3893333Y33692666D01*
X3931429Y33768857D01*
X3931429Y33883143D01*
X3893333Y33959333D01*
X3817143Y33997428D01*
X3398095Y33997428D01*
X3436190Y34683143D02*
X3398095Y34606953D01*
X3398095Y34454572D01*
X3436190Y34378381D01*
X3512381Y34340286D01*
X3817143Y34340286D01*
X3893333Y34378381D01*
X3931429Y34454572D01*
X3931429Y34606953D01*
X3893333Y34683143D01*
X3817143Y34721238D01*
X3740952Y34721238D01*
X3664762Y34340286D01*
X3398095Y35406952D02*
X4198095Y35406952D01*
X3436190Y35406952D02*
X3398095Y35330762D01*
X3398095Y35178381D01*
X3436190Y35102190D01*
X3474286Y35064095D01*
X3550476Y35026000D01*
X3779048Y35026000D01*
X3855238Y35064095D01*
X3893333Y35102190D01*
X3931429Y35178381D01*
X3931429Y35330762D01*
X3893333Y35406952D01*
X3398095Y36397429D02*
X4198095Y36397429D01*
X3893333Y36397429D02*
X3931429Y36473620D01*
X3931429Y36626001D01*
X3893333Y36702191D01*
X3855238Y36740286D01*
X3779048Y36778382D01*
X3550476Y36778382D01*
X3474286Y36740286D01*
X3436190Y36702191D01*
X3398095Y36626001D01*
X3398095Y36473620D01*
X3436190Y36397429D01*
X3931429Y37045049D02*
X3398095Y37235525D01*
X3931429Y37426001D02*
X3398095Y37235525D01*
X3207619Y37159334D01*
X3169524Y37121239D01*
X3131429Y37045049D01*
X3398095Y38340287D02*
X4198095Y38340287D01*
X3817143Y38340287D02*
X3817143Y38797430D01*
X3398095Y38797430D02*
X4198095Y38797430D01*
X4198095Y39102192D02*
X3398095Y39292668D01*
X3969524Y39445049D01*
X3398095Y39597430D01*
X4198095Y39787906D01*
X4198095Y40626002D02*
X3398095Y40816478D01*
X3969524Y40968859D01*
X3398095Y41121240D01*
X4198095Y41311716D01*
X3398095Y41730764D02*
X3436190Y41654573D01*
X3474286Y41616478D01*
X3550476Y41578383D01*
X3779048Y41578383D01*
X3855238Y41616478D01*
X3893333Y41654573D01*
X3931429Y41730764D01*
X3931429Y41845050D01*
X3893333Y41921240D01*
X3855238Y41959335D01*
X3779048Y41997431D01*
X3550476Y41997431D01*
X3474286Y41959335D01*
X3436190Y41921240D01*
X3398095Y41845050D01*
X3398095Y41730764D01*
X3931429Y42340288D02*
X3398095Y42340288D01*
X3855238Y42340288D02*
X3893333Y42378383D01*
X3931429Y42454574D01*
X3931429Y42568860D01*
X3893333Y42645050D01*
X3817143Y42683145D01*
X3398095Y42683145D01*
X3931429Y43406955D02*
X3283810Y43406955D01*
X3207619Y43368860D01*
X3169524Y43330765D01*
X3131429Y43254574D01*
X3131429Y43140289D01*
X3169524Y43064098D01*
X3436190Y43406955D02*
X3398095Y43330765D01*
X3398095Y43178384D01*
X3436190Y43102193D01*
X3474286Y43064098D01*
X3550476Y43026003D01*
X3779048Y43026003D01*
X3855238Y43064098D01*
X3893333Y43102193D01*
X3931429Y43178384D01*
X3931429Y43330765D01*
X3893333Y43406955D01*
X12845619Y53028857D02*
X12236095Y53028857D01*
X12540857Y52724095D02*
X12540857Y53333619D01*
X11436095Y52724095D02*
X11893238Y52724095D01*
X11664667Y52724095D02*
X11664667Y53524095D01*
X11740857Y53409810D01*
X11817048Y53333619D01*
X11893238Y53295524D01*
X11131333Y53447905D02*
X11093238Y53486000D01*
X11017047Y53524095D01*
X10826571Y53524095D01*
X10750381Y53486000D01*
X10712285Y53447905D01*
X10674190Y53371714D01*
X10674190Y53295524D01*
X10712285Y53181238D01*
X11169428Y52724095D01*
X10674190Y52724095D01*
X10445619Y53524095D02*
X10178952Y52724095D01*
X9912285Y53524095D01*
X9036095Y52724095D02*
X9036095Y53524095D01*
X8655143Y52724095D02*
X8655143Y53524095D01*
X8198000Y52724095D01*
X8198000Y53524095D01*
X7817048Y52724095D02*
X7817048Y53524095D01*
X7512286Y53524095D01*
X7436095Y53486000D01*
X7398000Y53447905D01*
X7359905Y53371714D01*
X7359905Y53257429D01*
X7398000Y53181238D01*
X7436095Y53143143D01*
X7512286Y53105048D01*
X7817048Y53105048D01*
X7017048Y53524095D02*
X7017048Y52876476D01*
X6978953Y52800286D01*
X6940857Y52762190D01*
X6864667Y52724095D01*
X6712286Y52724095D01*
X6636095Y52762190D01*
X6598000Y52800286D01*
X6559905Y52876476D01*
X6559905Y53524095D01*
X6293239Y53524095D02*
X5836096Y53524095D01*
X6064667Y52724095D02*
X6064667Y53524095D01*
X15214523Y48787000D02*
X15290714Y48825095D01*
X15404999Y48825095D01*
X15519285Y48787000D01*
X15595476Y48710810D01*
X15633571Y48634619D01*
X15671666Y48482238D01*
X15671666Y48367952D01*
X15633571Y48215571D01*
X15595476Y48139381D01*
X15519285Y48063190D01*
X15404999Y48025095D01*
X15328809Y48025095D01*
X15214523Y48063190D01*
X15176428Y48101286D01*
X15176428Y48367952D01*
X15328809Y48367952D01*
X14833571Y48025095D02*
X14833571Y48825095D01*
X14376428Y48025095D01*
X14376428Y48825095D01*
X13995476Y48025095D02*
X13995476Y48825095D01*
X13805000Y48825095D01*
X13690714Y48787000D01*
X13614523Y48710810D01*
X13576428Y48634619D01*
X13538333Y48482238D01*
X13538333Y48367952D01*
X13576428Y48215571D01*
X13614523Y48139381D01*
X13690714Y48063190D01*
X13805000Y48025095D01*
X13995476Y48025095D01*
X6038095Y54749619D02*
X6419048Y54482952D01*
X6038095Y54292476D02*
X6838095Y54292476D01*
X6838095Y54597238D01*
X6800000Y54673429D01*
X6761905Y54711524D01*
X6685714Y54749619D01*
X6571429Y54749619D01*
X6495238Y54711524D01*
X6457143Y54673429D01*
X6419048Y54597238D01*
X6419048Y54292476D01*
X6076190Y55397238D02*
X6038095Y55321048D01*
X6038095Y55168667D01*
X6076190Y55092476D01*
X6152381Y55054381D01*
X6457143Y55054381D01*
X6533333Y55092476D01*
X6571429Y55168667D01*
X6571429Y55321048D01*
X6533333Y55397238D01*
X6457143Y55435333D01*
X6380952Y55435333D01*
X6304762Y55054381D01*
X6571429Y55702000D02*
X6038095Y55892476D01*
X6571429Y56082952D01*
X6038095Y56806762D02*
X6038095Y56349619D01*
X6038095Y56578190D02*
X6838095Y56578190D01*
X6723810Y56502000D01*
X6647619Y56425809D01*
X6609524Y56349619D01*
X6114286Y57149619D02*
X6076190Y57187714D01*
X6038095Y57149619D01*
X6076190Y57111524D01*
X6114286Y57149619D01*
X6038095Y57149619D01*
X6838095Y57682952D02*
X6838095Y57759143D01*
X6800000Y57835333D01*
X6761905Y57873428D01*
X6685714Y57911524D01*
X6533333Y57949619D01*
X6342857Y57949619D01*
X6190476Y57911524D01*
X6114286Y57873428D01*
X6076190Y57835333D01*
X6038095Y57759143D01*
X6038095Y57682952D01*
X6076190Y57606762D01*
X6114286Y57568666D01*
X6190476Y57530571D01*
X6342857Y57492476D01*
X6533333Y57492476D01*
X6685714Y57530571D01*
X6761905Y57568666D01*
X6800000Y57606762D01*
X6838095Y57682952D01*
X4718095Y54292476D02*
X5518095Y54292476D01*
X5518095Y54482952D01*
X5480000Y54597238D01*
X5403810Y54673429D01*
X5327619Y54711524D01*
X5175238Y54749619D01*
X5060952Y54749619D01*
X4908571Y54711524D01*
X4832381Y54673429D01*
X4756190Y54597238D01*
X4718095Y54482952D01*
X4718095Y54292476D01*
X4756190Y55397238D02*
X4718095Y55321048D01*
X4718095Y55168667D01*
X4756190Y55092476D01*
X4832381Y55054381D01*
X5137143Y55054381D01*
X5213333Y55092476D01*
X5251429Y55168667D01*
X5251429Y55321048D01*
X5213333Y55397238D01*
X5137143Y55435333D01*
X5060952Y55435333D01*
X4984762Y55054381D01*
X4756190Y56121047D02*
X4718095Y56044857D01*
X4718095Y55892476D01*
X4756190Y55816285D01*
X4794286Y55778190D01*
X4870476Y55740095D01*
X5099048Y55740095D01*
X5175238Y55778190D01*
X5213333Y55816285D01*
X5251429Y55892476D01*
X5251429Y56044857D01*
X5213333Y56121047D01*
X5022857Y56463904D02*
X5022857Y57073428D01*
X5441905Y57416285D02*
X5480000Y57454380D01*
X5518095Y57530571D01*
X5518095Y57721047D01*
X5480000Y57797237D01*
X5441905Y57835333D01*
X5365714Y57873428D01*
X5289524Y57873428D01*
X5175238Y57835333D01*
X4718095Y57378190D01*
X4718095Y57873428D01*
X5518095Y58368666D02*
X5518095Y58444857D01*
X5480000Y58521047D01*
X5441905Y58559142D01*
X5365714Y58597238D01*
X5213333Y58635333D01*
X5022857Y58635333D01*
X4870476Y58597238D01*
X4794286Y58559142D01*
X4756190Y58521047D01*
X4718095Y58444857D01*
X4718095Y58368666D01*
X4756190Y58292476D01*
X4794286Y58254380D01*
X4870476Y58216285D01*
X5022857Y58178190D01*
X5213333Y58178190D01*
X5365714Y58216285D01*
X5441905Y58254380D01*
X5480000Y58292476D01*
X5518095Y58368666D01*
X4718095Y59397238D02*
X4718095Y58940095D01*
X4718095Y59168666D02*
X5518095Y59168666D01*
X5403810Y59092476D01*
X5327619Y59016285D01*
X5289524Y58940095D01*
X5518095Y60121048D02*
X5518095Y59740095D01*
X5137143Y59702000D01*
X5175238Y59740095D01*
X5213333Y59816286D01*
X5213333Y60006762D01*
X5175238Y60082952D01*
X5137143Y60121048D01*
X5060952Y60159143D01*
X4870476Y60159143D01*
X4794286Y60121048D01*
X4756190Y60082952D01*
X4718095Y60006762D01*
X4718095Y59816286D01*
X4756190Y59740095D01*
X4794286Y59702000D01*
X3398095Y54292476D02*
X4198095Y54292476D01*
X4198095Y54482952D01*
X4160000Y54597238D01*
X4083810Y54673429D01*
X4007619Y54711524D01*
X3855238Y54749619D01*
X3740952Y54749619D01*
X3588571Y54711524D01*
X3512381Y54673429D01*
X3436190Y54597238D01*
X3398095Y54482952D01*
X3398095Y54292476D01*
X3436190Y55397238D02*
X3398095Y55321048D01*
X3398095Y55168667D01*
X3436190Y55092476D01*
X3512381Y55054381D01*
X3817143Y55054381D01*
X3893333Y55092476D01*
X3931429Y55168667D01*
X3931429Y55321048D01*
X3893333Y55397238D01*
X3817143Y55435333D01*
X3740952Y55435333D01*
X3664762Y55054381D01*
X3436190Y55740095D02*
X3398095Y55816285D01*
X3398095Y55968666D01*
X3436190Y56044857D01*
X3512381Y56082952D01*
X3550476Y56082952D01*
X3626667Y56044857D01*
X3664762Y55968666D01*
X3664762Y55854381D01*
X3702857Y55778190D01*
X3779048Y55740095D01*
X3817143Y55740095D01*
X3893333Y55778190D01*
X3931429Y55854381D01*
X3931429Y55968666D01*
X3893333Y56044857D01*
X3398095Y56425809D02*
X3931429Y56425809D01*
X4198095Y56425809D02*
X4160000Y56387714D01*
X4121905Y56425809D01*
X4160000Y56463904D01*
X4198095Y56425809D01*
X4121905Y56425809D01*
X3931429Y57149618D02*
X3283810Y57149618D01*
X3207619Y57111523D01*
X3169524Y57073428D01*
X3131429Y56997237D01*
X3131429Y56882952D01*
X3169524Y56806761D01*
X3436190Y57149618D02*
X3398095Y57073428D01*
X3398095Y56921047D01*
X3436190Y56844856D01*
X3474286Y56806761D01*
X3550476Y56768666D01*
X3779048Y56768666D01*
X3855238Y56806761D01*
X3893333Y56844856D01*
X3931429Y56921047D01*
X3931429Y57073428D01*
X3893333Y57149618D01*
X3931429Y57530571D02*
X3398095Y57530571D01*
X3855238Y57530571D02*
X3893333Y57568666D01*
X3931429Y57644857D01*
X3931429Y57759143D01*
X3893333Y57835333D01*
X3817143Y57873428D01*
X3398095Y57873428D01*
X3436190Y58559143D02*
X3398095Y58482953D01*
X3398095Y58330572D01*
X3436190Y58254381D01*
X3512381Y58216286D01*
X3817143Y58216286D01*
X3893333Y58254381D01*
X3931429Y58330572D01*
X3931429Y58482953D01*
X3893333Y58559143D01*
X3817143Y58597238D01*
X3740952Y58597238D01*
X3664762Y58216286D01*
X3398095Y59282952D02*
X4198095Y59282952D01*
X3436190Y59282952D02*
X3398095Y59206762D01*
X3398095Y59054381D01*
X3436190Y58978190D01*
X3474286Y58940095D01*
X3550476Y58902000D01*
X3779048Y58902000D01*
X3855238Y58940095D01*
X3893333Y58978190D01*
X3931429Y59054381D01*
X3931429Y59206762D01*
X3893333Y59282952D01*
X3398095Y60273429D02*
X4198095Y60273429D01*
X3893333Y60273429D02*
X3931429Y60349620D01*
X3931429Y60502001D01*
X3893333Y60578191D01*
X3855238Y60616286D01*
X3779048Y60654382D01*
X3550476Y60654382D01*
X3474286Y60616286D01*
X3436190Y60578191D01*
X3398095Y60502001D01*
X3398095Y60349620D01*
X3436190Y60273429D01*
X3931429Y60921049D02*
X3398095Y61111525D01*
X3931429Y61302001D02*
X3398095Y61111525D01*
X3207619Y61035334D01*
X3169524Y60997239D01*
X3131429Y60921049D01*
X3398095Y62216287D02*
X4198095Y62216287D01*
X3817143Y62216287D02*
X3817143Y62673430D01*
X3398095Y62673430D02*
X4198095Y62673430D01*
X4198095Y62978192D02*
X3398095Y63168668D01*
X3969524Y63321049D01*
X3398095Y63473430D01*
X4198095Y63663906D01*
X4198095Y64502002D02*
X3398095Y64692478D01*
X3969524Y64844859D01*
X3398095Y64997240D01*
X4198095Y65187716D01*
X3398095Y65606764D02*
X3436190Y65530573D01*
X3474286Y65492478D01*
X3550476Y65454383D01*
X3779048Y65454383D01*
X3855238Y65492478D01*
X3893333Y65530573D01*
X3931429Y65606764D01*
X3931429Y65721050D01*
X3893333Y65797240D01*
X3855238Y65835335D01*
X3779048Y65873431D01*
X3550476Y65873431D01*
X3474286Y65835335D01*
X3436190Y65797240D01*
X3398095Y65721050D01*
X3398095Y65606764D01*
X3931429Y66216288D02*
X3398095Y66216288D01*
X3855238Y66216288D02*
X3893333Y66254383D01*
X3931429Y66330574D01*
X3931429Y66444860D01*
X3893333Y66521050D01*
X3817143Y66559145D01*
X3398095Y66559145D01*
X3931429Y67282955D02*
X3283810Y67282955D01*
X3207619Y67244860D01*
X3169524Y67206765D01*
X3131429Y67130574D01*
X3131429Y67016289D01*
X3169524Y66940098D01*
X3436190Y67282955D02*
X3398095Y67206765D01*
X3398095Y67054384D01*
X3436190Y66978193D01*
X3474286Y66940098D01*
X3550476Y66902003D01*
X3779048Y66902003D01*
X3855238Y66940098D01*
X3893333Y66978193D01*
X3931429Y67054384D01*
X3931429Y67206765D01*
X3893333Y67282955D01*
X6038095Y78625619D02*
X6419048Y78358952D01*
X6038095Y78168476D02*
X6838095Y78168476D01*
X6838095Y78473238D01*
X6800000Y78549429D01*
X6761905Y78587524D01*
X6685714Y78625619D01*
X6571429Y78625619D01*
X6495238Y78587524D01*
X6457143Y78549429D01*
X6419048Y78473238D01*
X6419048Y78168476D01*
X6076190Y79273238D02*
X6038095Y79197048D01*
X6038095Y79044667D01*
X6076190Y78968476D01*
X6152381Y78930381D01*
X6457143Y78930381D01*
X6533333Y78968476D01*
X6571429Y79044667D01*
X6571429Y79197048D01*
X6533333Y79273238D01*
X6457143Y79311333D01*
X6380952Y79311333D01*
X6304762Y78930381D01*
X6571429Y79578000D02*
X6038095Y79768476D01*
X6571429Y79958952D01*
X6038095Y80682762D02*
X6038095Y80225619D01*
X6038095Y80454190D02*
X6838095Y80454190D01*
X6723810Y80378000D01*
X6647619Y80301809D01*
X6609524Y80225619D01*
X6114286Y81025619D02*
X6076190Y81063714D01*
X6038095Y81025619D01*
X6076190Y80987524D01*
X6114286Y81025619D01*
X6038095Y81025619D01*
X6838095Y81558952D02*
X6838095Y81635143D01*
X6800000Y81711333D01*
X6761905Y81749428D01*
X6685714Y81787524D01*
X6533333Y81825619D01*
X6342857Y81825619D01*
X6190476Y81787524D01*
X6114286Y81749428D01*
X6076190Y81711333D01*
X6038095Y81635143D01*
X6038095Y81558952D01*
X6076190Y81482762D01*
X6114286Y81444666D01*
X6190476Y81406571D01*
X6342857Y81368476D01*
X6533333Y81368476D01*
X6685714Y81406571D01*
X6761905Y81444666D01*
X6800000Y81482762D01*
X6838095Y81558952D01*
X4718095Y78168476D02*
X5518095Y78168476D01*
X5518095Y78358952D01*
X5480000Y78473238D01*
X5403810Y78549429D01*
X5327619Y78587524D01*
X5175238Y78625619D01*
X5060952Y78625619D01*
X4908571Y78587524D01*
X4832381Y78549429D01*
X4756190Y78473238D01*
X4718095Y78358952D01*
X4718095Y78168476D01*
X4756190Y79273238D02*
X4718095Y79197048D01*
X4718095Y79044667D01*
X4756190Y78968476D01*
X4832381Y78930381D01*
X5137143Y78930381D01*
X5213333Y78968476D01*
X5251429Y79044667D01*
X5251429Y79197048D01*
X5213333Y79273238D01*
X5137143Y79311333D01*
X5060952Y79311333D01*
X4984762Y78930381D01*
X4756190Y79997047D02*
X4718095Y79920857D01*
X4718095Y79768476D01*
X4756190Y79692285D01*
X4794286Y79654190D01*
X4870476Y79616095D01*
X5099048Y79616095D01*
X5175238Y79654190D01*
X5213333Y79692285D01*
X5251429Y79768476D01*
X5251429Y79920857D01*
X5213333Y79997047D01*
X5022857Y80339904D02*
X5022857Y80949428D01*
X5441905Y81292285D02*
X5480000Y81330380D01*
X5518095Y81406571D01*
X5518095Y81597047D01*
X5480000Y81673237D01*
X5441905Y81711333D01*
X5365714Y81749428D01*
X5289524Y81749428D01*
X5175238Y81711333D01*
X4718095Y81254190D01*
X4718095Y81749428D01*
X5518095Y82244666D02*
X5518095Y82320857D01*
X5480000Y82397047D01*
X5441905Y82435142D01*
X5365714Y82473238D01*
X5213333Y82511333D01*
X5022857Y82511333D01*
X4870476Y82473238D01*
X4794286Y82435142D01*
X4756190Y82397047D01*
X4718095Y82320857D01*
X4718095Y82244666D01*
X4756190Y82168476D01*
X4794286Y82130380D01*
X4870476Y82092285D01*
X5022857Y82054190D01*
X5213333Y82054190D01*
X5365714Y82092285D01*
X5441905Y82130380D01*
X5480000Y82168476D01*
X5518095Y82244666D01*
X4718095Y83273238D02*
X4718095Y82816095D01*
X4718095Y83044666D02*
X5518095Y83044666D01*
X5403810Y82968476D01*
X5327619Y82892285D01*
X5289524Y82816095D01*
X5518095Y83997048D02*
X5518095Y83616095D01*
X5137143Y83578000D01*
X5175238Y83616095D01*
X5213333Y83692286D01*
X5213333Y83882762D01*
X5175238Y83958952D01*
X5137143Y83997048D01*
X5060952Y84035143D01*
X4870476Y84035143D01*
X4794286Y83997048D01*
X4756190Y83958952D01*
X4718095Y83882762D01*
X4718095Y83692286D01*
X4756190Y83616095D01*
X4794286Y83578000D01*
X3398095Y78168476D02*
X4198095Y78168476D01*
X4198095Y78358952D01*
X4160000Y78473238D01*
X4083810Y78549429D01*
X4007619Y78587524D01*
X3855238Y78625619D01*
X3740952Y78625619D01*
X3588571Y78587524D01*
X3512381Y78549429D01*
X3436190Y78473238D01*
X3398095Y78358952D01*
X3398095Y78168476D01*
X3436190Y79273238D02*
X3398095Y79197048D01*
X3398095Y79044667D01*
X3436190Y78968476D01*
X3512381Y78930381D01*
X3817143Y78930381D01*
X3893333Y78968476D01*
X3931429Y79044667D01*
X3931429Y79197048D01*
X3893333Y79273238D01*
X3817143Y79311333D01*
X3740952Y79311333D01*
X3664762Y78930381D01*
X3436190Y79616095D02*
X3398095Y79692285D01*
X3398095Y79844666D01*
X3436190Y79920857D01*
X3512381Y79958952D01*
X3550476Y79958952D01*
X3626667Y79920857D01*
X3664762Y79844666D01*
X3664762Y79730381D01*
X3702857Y79654190D01*
X3779048Y79616095D01*
X3817143Y79616095D01*
X3893333Y79654190D01*
X3931429Y79730381D01*
X3931429Y79844666D01*
X3893333Y79920857D01*
X3398095Y80301809D02*
X3931429Y80301809D01*
X4198095Y80301809D02*
X4160000Y80263714D01*
X4121905Y80301809D01*
X4160000Y80339904D01*
X4198095Y80301809D01*
X4121905Y80301809D01*
X3931429Y81025618D02*
X3283810Y81025618D01*
X3207619Y80987523D01*
X3169524Y80949428D01*
X3131429Y80873237D01*
X3131429Y80758952D01*
X3169524Y80682761D01*
X3436190Y81025618D02*
X3398095Y80949428D01*
X3398095Y80797047D01*
X3436190Y80720856D01*
X3474286Y80682761D01*
X3550476Y80644666D01*
X3779048Y80644666D01*
X3855238Y80682761D01*
X3893333Y80720856D01*
X3931429Y80797047D01*
X3931429Y80949428D01*
X3893333Y81025618D01*
X3931429Y81406571D02*
X3398095Y81406571D01*
X3855238Y81406571D02*
X3893333Y81444666D01*
X3931429Y81520857D01*
X3931429Y81635143D01*
X3893333Y81711333D01*
X3817143Y81749428D01*
X3398095Y81749428D01*
X3436190Y82435143D02*
X3398095Y82358953D01*
X3398095Y82206572D01*
X3436190Y82130381D01*
X3512381Y82092286D01*
X3817143Y82092286D01*
X3893333Y82130381D01*
X3931429Y82206572D01*
X3931429Y82358953D01*
X3893333Y82435143D01*
X3817143Y82473238D01*
X3740952Y82473238D01*
X3664762Y82092286D01*
X3398095Y83158952D02*
X4198095Y83158952D01*
X3436190Y83158952D02*
X3398095Y83082762D01*
X3398095Y82930381D01*
X3436190Y82854190D01*
X3474286Y82816095D01*
X3550476Y82778000D01*
X3779048Y82778000D01*
X3855238Y82816095D01*
X3893333Y82854190D01*
X3931429Y82930381D01*
X3931429Y83082762D01*
X3893333Y83158952D01*
X3398095Y84149429D02*
X4198095Y84149429D01*
X3893333Y84149429D02*
X3931429Y84225620D01*
X3931429Y84378001D01*
X3893333Y84454191D01*
X3855238Y84492286D01*
X3779048Y84530382D01*
X3550476Y84530382D01*
X3474286Y84492286D01*
X3436190Y84454191D01*
X3398095Y84378001D01*
X3398095Y84225620D01*
X3436190Y84149429D01*
X3931429Y84797049D02*
X3398095Y84987525D01*
X3931429Y85178001D02*
X3398095Y84987525D01*
X3207619Y84911334D01*
X3169524Y84873239D01*
X3131429Y84797049D01*
X3398095Y86092287D02*
X4198095Y86092287D01*
X3817143Y86092287D02*
X3817143Y86549430D01*
X3398095Y86549430D02*
X4198095Y86549430D01*
X4198095Y86854192D02*
X3398095Y87044668D01*
X3969524Y87197049D01*
X3398095Y87349430D01*
X4198095Y87539906D01*
X4198095Y88378002D02*
X3398095Y88568478D01*
X3969524Y88720859D01*
X3398095Y88873240D01*
X4198095Y89063716D01*
X3398095Y89482764D02*
X3436190Y89406573D01*
X3474286Y89368478D01*
X3550476Y89330383D01*
X3779048Y89330383D01*
X3855238Y89368478D01*
X3893333Y89406573D01*
X3931429Y89482764D01*
X3931429Y89597050D01*
X3893333Y89673240D01*
X3855238Y89711335D01*
X3779048Y89749431D01*
X3550476Y89749431D01*
X3474286Y89711335D01*
X3436190Y89673240D01*
X3398095Y89597050D01*
X3398095Y89482764D01*
X3931429Y90092288D02*
X3398095Y90092288D01*
X3855238Y90092288D02*
X3893333Y90130383D01*
X3931429Y90206574D01*
X3931429Y90320860D01*
X3893333Y90397050D01*
X3817143Y90435145D01*
X3398095Y90435145D01*
X3931429Y91158955D02*
X3283810Y91158955D01*
X3207619Y91120860D01*
X3169524Y91082765D01*
X3131429Y91006574D01*
X3131429Y90892289D01*
X3169524Y90816098D01*
X3436190Y91158955D02*
X3398095Y91082765D01*
X3398095Y90930384D01*
X3436190Y90854193D01*
X3474286Y90816098D01*
X3550476Y90778003D01*
X3779048Y90778003D01*
X3855238Y90816098D01*
X3893333Y90854193D01*
X3931429Y90930384D01*
X3931429Y91082765D01*
X3893333Y91158955D01*
X15214523Y72663000D02*
X15290714Y72701095D01*
X15404999Y72701095D01*
X15519285Y72663000D01*
X15595476Y72586810D01*
X15633571Y72510619D01*
X15671666Y72358238D01*
X15671666Y72243952D01*
X15633571Y72091571D01*
X15595476Y72015381D01*
X15519285Y71939190D01*
X15404999Y71901095D01*
X15328809Y71901095D01*
X15214523Y71939190D01*
X15176428Y71977286D01*
X15176428Y72243952D01*
X15328809Y72243952D01*
X14833571Y71901095D02*
X14833571Y72701095D01*
X14376428Y71901095D01*
X14376428Y72701095D01*
X13995476Y71901095D02*
X13995476Y72701095D01*
X13805000Y72701095D01*
X13690714Y72663000D01*
X13614523Y72586810D01*
X13576428Y72510619D01*
X13538333Y72358238D01*
X13538333Y72243952D01*
X13576428Y72091571D01*
X13614523Y72015381D01*
X13690714Y71939190D01*
X13805000Y71901095D01*
X13995476Y71901095D01*
X12845619Y76904857D02*
X12236095Y76904857D01*
X12540857Y76600095D02*
X12540857Y77209619D01*
X11436095Y76600095D02*
X11893238Y76600095D01*
X11664667Y76600095D02*
X11664667Y77400095D01*
X11740857Y77285810D01*
X11817048Y77209619D01*
X11893238Y77171524D01*
X11131333Y77323905D02*
X11093238Y77362000D01*
X11017047Y77400095D01*
X10826571Y77400095D01*
X10750381Y77362000D01*
X10712285Y77323905D01*
X10674190Y77247714D01*
X10674190Y77171524D01*
X10712285Y77057238D01*
X11169428Y76600095D01*
X10674190Y76600095D01*
X10445619Y77400095D02*
X10178952Y76600095D01*
X9912285Y77400095D01*
X9036095Y76600095D02*
X9036095Y77400095D01*
X8655143Y76600095D02*
X8655143Y77400095D01*
X8198000Y76600095D01*
X8198000Y77400095D01*
X7817048Y76600095D02*
X7817048Y77400095D01*
X7512286Y77400095D01*
X7436095Y77362000D01*
X7398000Y77323905D01*
X7359905Y77247714D01*
X7359905Y77133429D01*
X7398000Y77057238D01*
X7436095Y77019143D01*
X7512286Y76981048D01*
X7817048Y76981048D01*
X7017048Y77400095D02*
X7017048Y76752476D01*
X6978953Y76676286D01*
X6940857Y76638190D01*
X6864667Y76600095D01*
X6712286Y76600095D01*
X6636095Y76638190D01*
X6598000Y76676286D01*
X6559905Y76752476D01*
X6559905Y77400095D01*
X6293239Y77400095D02*
X5836096Y77400095D01*
X6064667Y76600095D02*
X6064667Y77400095D01*
D12*
X88765000Y14898000D02*
X87765000Y14898000D01*
X87765000Y16598000D02*
X88765000Y16598000D01*
X88558000Y3564000D02*
X88558000Y4564000D01*
X90258000Y4564000D02*
X90258000Y3564000D01*
X87376000Y13970000D02*
X90424000Y13970000D01*
X90424000Y13970000D02*
X90424000Y6858000D01*
X90424000Y6858000D02*
X87376000Y6858000D01*
X84328000Y13970000D02*
X83566000Y13970000D01*
X83566000Y13970000D02*
X81280000Y12446000D01*
X81280000Y12446000D02*
X81280000Y8382000D01*
X81280000Y8382000D02*
X83566000Y6858000D01*
X83566000Y6858000D02*
X84328000Y6858000D01*
X88765000Y38774000D02*
X87765000Y38774000D01*
X87765000Y40474000D02*
X88765000Y40474000D01*
X88558000Y27440000D02*
X88558000Y28440000D01*
X90258000Y28440000D02*
X90258000Y27440000D01*
X87376000Y37846000D02*
X90424000Y37846000D01*
X90424000Y37846000D02*
X90424000Y30734000D01*
X90424000Y30734000D02*
X87376000Y30734000D01*
X84328000Y37846000D02*
X83566000Y37846000D01*
X83566000Y37846000D02*
X81280000Y36322000D01*
X81280000Y36322000D02*
X81280000Y32258000D01*
X81280000Y32258000D02*
X83566000Y30734000D01*
X83566000Y30734000D02*
X84328000Y30734000D01*
X88765000Y62650000D02*
X87765000Y62650000D01*
X87765000Y64350000D02*
X88765000Y64350000D01*
X88558000Y51316000D02*
X88558000Y52316000D01*
X90258000Y52316000D02*
X90258000Y51316000D01*
X87376000Y61722000D02*
X90424000Y61722000D01*
X90424000Y61722000D02*
X90424000Y54610000D01*
X90424000Y54610000D02*
X87376000Y54610000D01*
X84328000Y61722000D02*
X83566000Y61722000D01*
X83566000Y61722000D02*
X81280000Y60198000D01*
X81280000Y60198000D02*
X81280000Y56134000D01*
X81280000Y56134000D02*
X83566000Y54610000D01*
X83566000Y54610000D02*
X84328000Y54610000D01*
X88765000Y86526000D02*
X87765000Y86526000D01*
X87765000Y88226000D02*
X88765000Y88226000D01*
X88558000Y75192000D02*
X88558000Y76192000D01*
X90258000Y76192000D02*
X90258000Y75192000D01*
X87376000Y85598000D02*
X90424000Y85598000D01*
X90424000Y85598000D02*
X90424000Y78486000D01*
X90424000Y78486000D02*
X87376000Y78486000D01*
X84328000Y85598000D02*
X83566000Y85598000D01*
X83566000Y85598000D02*
X81280000Y84074000D01*
X81280000Y84074000D02*
X81280000Y80010000D01*
X81280000Y80010000D02*
X83566000Y78486000D01*
X83566000Y78486000D02*
X84328000Y78486000D01*
X64889000Y14898000D02*
X63889000Y14898000D01*
X63889000Y16598000D02*
X64889000Y16598000D01*
X64682000Y3564000D02*
X64682000Y4564000D01*
X66382000Y4564000D02*
X66382000Y3564000D01*
X63500000Y13970000D02*
X66548000Y13970000D01*
X66548000Y13970000D02*
X66548000Y6858000D01*
X66548000Y6858000D02*
X63500000Y6858000D01*
X60452000Y13970000D02*
X59690000Y13970000D01*
X59690000Y13970000D02*
X57404000Y12446000D01*
X57404000Y12446000D02*
X57404000Y8382000D01*
X57404000Y8382000D02*
X59690000Y6858000D01*
X59690000Y6858000D02*
X60452000Y6858000D01*
X64889000Y38774000D02*
X63889000Y38774000D01*
X63889000Y40474000D02*
X64889000Y40474000D01*
X64682000Y27440000D02*
X64682000Y28440000D01*
X66382000Y28440000D02*
X66382000Y27440000D01*
X63500000Y37846000D02*
X66548000Y37846000D01*
X66548000Y37846000D02*
X66548000Y30734000D01*
X66548000Y30734000D02*
X63500000Y30734000D01*
X60452000Y37846000D02*
X59690000Y37846000D01*
X59690000Y37846000D02*
X57404000Y36322000D01*
X57404000Y36322000D02*
X57404000Y32258000D01*
X57404000Y32258000D02*
X59690000Y30734000D01*
X59690000Y30734000D02*
X60452000Y30734000D01*
X64889000Y62650000D02*
X63889000Y62650000D01*
X63889000Y64350000D02*
X64889000Y64350000D01*
X64682000Y51316000D02*
X64682000Y52316000D01*
X66382000Y52316000D02*
X66382000Y51316000D01*
X63500000Y61722000D02*
X66548000Y61722000D01*
X66548000Y61722000D02*
X66548000Y54610000D01*
X66548000Y54610000D02*
X63500000Y54610000D01*
X60452000Y61722000D02*
X59690000Y61722000D01*
X59690000Y61722000D02*
X57404000Y60198000D01*
X57404000Y60198000D02*
X57404000Y56134000D01*
X57404000Y56134000D02*
X59690000Y54610000D01*
X59690000Y54610000D02*
X60452000Y54610000D01*
X64889000Y86526000D02*
X63889000Y86526000D01*
X63889000Y88226000D02*
X64889000Y88226000D01*
X64682000Y75192000D02*
X64682000Y76192000D01*
X66382000Y76192000D02*
X66382000Y75192000D01*
X63500000Y85598000D02*
X66548000Y85598000D01*
X66548000Y85598000D02*
X66548000Y78486000D01*
X66548000Y78486000D02*
X63500000Y78486000D01*
X60452000Y85598000D02*
X59690000Y85598000D01*
X59690000Y85598000D02*
X57404000Y84074000D01*
X57404000Y84074000D02*
X57404000Y80010000D01*
X57404000Y80010000D02*
X59690000Y78486000D01*
X59690000Y78486000D02*
X60452000Y78486000D01*
X41013000Y14898000D02*
X40013000Y14898000D01*
X40013000Y16598000D02*
X41013000Y16598000D01*
X40806000Y3564000D02*
X40806000Y4564000D01*
X42506000Y4564000D02*
X42506000Y3564000D01*
X39624000Y13970000D02*
X42672000Y13970000D01*
X42672000Y13970000D02*
X42672000Y6858000D01*
X42672000Y6858000D02*
X39624000Y6858000D01*
X36576000Y13970000D02*
X35814000Y13970000D01*
X35814000Y13970000D02*
X33528000Y12446000D01*
X33528000Y12446000D02*
X33528000Y8382000D01*
X33528000Y8382000D02*
X35814000Y6858000D01*
X35814000Y6858000D02*
X36576000Y6858000D01*
X41013000Y38774000D02*
X40013000Y38774000D01*
X40013000Y40474000D02*
X41013000Y40474000D01*
X40806000Y27440000D02*
X40806000Y28440000D01*
X42506000Y28440000D02*
X42506000Y27440000D01*
X39624000Y37846000D02*
X42672000Y37846000D01*
X42672000Y37846000D02*
X42672000Y30734000D01*
X42672000Y30734000D02*
X39624000Y30734000D01*
X36576000Y37846000D02*
X35814000Y37846000D01*
X35814000Y37846000D02*
X33528000Y36322000D01*
X33528000Y36322000D02*
X33528000Y32258000D01*
X33528000Y32258000D02*
X35814000Y30734000D01*
X35814000Y30734000D02*
X36576000Y30734000D01*
X41013000Y62650000D02*
X40013000Y62650000D01*
X40013000Y64350000D02*
X41013000Y64350000D01*
X40806000Y51316000D02*
X40806000Y52316000D01*
X42506000Y52316000D02*
X42506000Y51316000D01*
X39624000Y61722000D02*
X42672000Y61722000D01*
X42672000Y61722000D02*
X42672000Y54610000D01*
X42672000Y54610000D02*
X39624000Y54610000D01*
X36576000Y61722000D02*
X35814000Y61722000D01*
X35814000Y61722000D02*
X33528000Y60198000D01*
X33528000Y60198000D02*
X33528000Y56134000D01*
X33528000Y56134000D02*
X35814000Y54610000D01*
X35814000Y54610000D02*
X36576000Y54610000D01*
X41013000Y86526000D02*
X40013000Y86526000D01*
X40013000Y88226000D02*
X41013000Y88226000D01*
X40806000Y75192000D02*
X40806000Y76192000D01*
X42506000Y76192000D02*
X42506000Y75192000D01*
X39624000Y85598000D02*
X42672000Y85598000D01*
X42672000Y85598000D02*
X42672000Y78486000D01*
X42672000Y78486000D02*
X39624000Y78486000D01*
X36576000Y85598000D02*
X35814000Y85598000D01*
X35814000Y85598000D02*
X33528000Y84074000D01*
X33528000Y84074000D02*
X33528000Y80010000D01*
X33528000Y80010000D02*
X35814000Y78486000D01*
X35814000Y78486000D02*
X36576000Y78486000D01*
X17137000Y14898000D02*
X16137000Y14898000D01*
X16137000Y16598000D02*
X17137000Y16598000D01*
X16930000Y3564000D02*
X16930000Y4564000D01*
X18630000Y4564000D02*
X18630000Y3564000D01*
X15748000Y13970000D02*
X18796000Y13970000D01*
X18796000Y13970000D02*
X18796000Y6858000D01*
X18796000Y6858000D02*
X15748000Y6858000D01*
X12700000Y13970000D02*
X11938000Y13970000D01*
X11938000Y13970000D02*
X9652000Y12446000D01*
X9652000Y12446000D02*
X9652000Y8382000D01*
X9652000Y8382000D02*
X11938000Y6858000D01*
X11938000Y6858000D02*
X12700000Y6858000D01*
X17137000Y38774000D02*
X16137000Y38774000D01*
X16137000Y40474000D02*
X17137000Y40474000D01*
X16930000Y27440000D02*
X16930000Y28440000D01*
X18630000Y28440000D02*
X18630000Y27440000D01*
X15748000Y37846000D02*
X18796000Y37846000D01*
X18796000Y37846000D02*
X18796000Y30734000D01*
X18796000Y30734000D02*
X15748000Y30734000D01*
X12700000Y37846000D02*
X11938000Y37846000D01*
X11938000Y37846000D02*
X9652000Y36322000D01*
X9652000Y36322000D02*
X9652000Y32258000D01*
X9652000Y32258000D02*
X11938000Y30734000D01*
X11938000Y30734000D02*
X12700000Y30734000D01*
X17137000Y62650000D02*
X16137000Y62650000D01*
X16137000Y64350000D02*
X17137000Y64350000D01*
X16930000Y51316000D02*
X16930000Y52316000D01*
X18630000Y52316000D02*
X18630000Y51316000D01*
X15748000Y61722000D02*
X18796000Y61722000D01*
X18796000Y61722000D02*
X18796000Y54610000D01*
X18796000Y54610000D02*
X15748000Y54610000D01*
X12700000Y61722000D02*
X11938000Y61722000D01*
X11938000Y61722000D02*
X9652000Y60198000D01*
X9652000Y60198000D02*
X9652000Y56134000D01*
X9652000Y56134000D02*
X11938000Y54610000D01*
X11938000Y54610000D02*
X12700000Y54610000D01*
X15748000Y85598000D02*
X18796000Y85598000D01*
X18796000Y85598000D02*
X18796000Y78486000D01*
X18796000Y78486000D02*
X15748000Y78486000D01*
X12700000Y85598000D02*
X11938000Y85598000D01*
X11938000Y85598000D02*
X9652000Y84074000D01*
X9652000Y84074000D02*
X9652000Y80010000D01*
X9652000Y80010000D02*
X11938000Y78486000D01*
X11938000Y78486000D02*
X12700000Y78486000D01*
X16930000Y75192000D02*
X16930000Y76192000D01*
X18630000Y76192000D02*
X18630000Y75192000D01*
X17137000Y86526000D02*
X16137000Y86526000D01*
X16137000Y88226000D02*
X17137000Y88226000D01*
X91670143Y16168666D02*
X91717762Y16216285D01*
X91765381Y16359142D01*
X91765381Y16454380D01*
X91717762Y16597238D01*
X91622524Y16692476D01*
X91527286Y16740095D01*
X91336810Y16787714D01*
X91193952Y16787714D01*
X91003476Y16740095D01*
X90908238Y16692476D01*
X90813000Y16597238D01*
X90765381Y16454380D01*
X90765381Y16359142D01*
X90813000Y16216285D01*
X90860619Y16168666D01*
X90765381Y15835333D02*
X90765381Y15168666D01*
X91765381Y15597238D01*
X91670143Y4103666D02*
X91717762Y4151285D01*
X91765381Y4294142D01*
X91765381Y4389380D01*
X91717762Y4532238D01*
X91622524Y4627476D01*
X91527286Y4675095D01*
X91336810Y4722714D01*
X91193952Y4722714D01*
X91003476Y4675095D01*
X90908238Y4627476D01*
X90813000Y4532238D01*
X90765381Y4389380D01*
X90765381Y4294142D01*
X90813000Y4151285D01*
X90860619Y4103666D01*
X90765381Y3246523D02*
X90765381Y3437000D01*
X90813000Y3532238D01*
X90860619Y3579857D01*
X91003476Y3675095D01*
X91193952Y3722714D01*
X91574905Y3722714D01*
X91670143Y3675095D01*
X91717762Y3627476D01*
X91765381Y3532238D01*
X91765381Y3341761D01*
X91717762Y3246523D01*
X91670143Y3198904D01*
X91574905Y3151285D01*
X91336810Y3151285D01*
X91241571Y3198904D01*
X91193952Y3246523D01*
X91146333Y3341761D01*
X91146333Y3532238D01*
X91193952Y3627476D01*
X91241571Y3675095D01*
X91336810Y3722714D01*
X79716381Y9397905D02*
X80525905Y9397905D01*
X80621143Y9350286D01*
X80668762Y9302667D01*
X80716381Y9207429D01*
X80716381Y9016952D01*
X80668762Y8921714D01*
X80621143Y8874095D01*
X80525905Y8826476D01*
X79716381Y8826476D01*
X80716381Y7826476D02*
X80716381Y8397905D01*
X80716381Y8112191D02*
X79716381Y8112191D01*
X79859238Y8207429D01*
X79954476Y8302667D01*
X80002095Y8397905D01*
X91670143Y40044666D02*
X91717762Y40092285D01*
X91765381Y40235142D01*
X91765381Y40330380D01*
X91717762Y40473238D01*
X91622524Y40568476D01*
X91527286Y40616095D01*
X91336810Y40663714D01*
X91193952Y40663714D01*
X91003476Y40616095D01*
X90908238Y40568476D01*
X90813000Y40473238D01*
X90765381Y40330380D01*
X90765381Y40235142D01*
X90813000Y40092285D01*
X90860619Y40044666D01*
X90765381Y39711333D02*
X90765381Y39044666D01*
X91765381Y39473238D01*
X91670143Y27979666D02*
X91717762Y28027285D01*
X91765381Y28170142D01*
X91765381Y28265380D01*
X91717762Y28408238D01*
X91622524Y28503476D01*
X91527286Y28551095D01*
X91336810Y28598714D01*
X91193952Y28598714D01*
X91003476Y28551095D01*
X90908238Y28503476D01*
X90813000Y28408238D01*
X90765381Y28265380D01*
X90765381Y28170142D01*
X90813000Y28027285D01*
X90860619Y27979666D01*
X90765381Y27122523D02*
X90765381Y27313000D01*
X90813000Y27408238D01*
X90860619Y27455857D01*
X91003476Y27551095D01*
X91193952Y27598714D01*
X91574905Y27598714D01*
X91670143Y27551095D01*
X91717762Y27503476D01*
X91765381Y27408238D01*
X91765381Y27217761D01*
X91717762Y27122523D01*
X91670143Y27074904D01*
X91574905Y27027285D01*
X91336810Y27027285D01*
X91241571Y27074904D01*
X91193952Y27122523D01*
X91146333Y27217761D01*
X91146333Y27408238D01*
X91193952Y27503476D01*
X91241571Y27551095D01*
X91336810Y27598714D01*
X79716381Y33273905D02*
X80525905Y33273905D01*
X80621143Y33226286D01*
X80668762Y33178667D01*
X80716381Y33083429D01*
X80716381Y32892952D01*
X80668762Y32797714D01*
X80621143Y32750095D01*
X80525905Y32702476D01*
X79716381Y32702476D01*
X80716381Y31702476D02*
X80716381Y32273905D01*
X80716381Y31988191D02*
X79716381Y31988191D01*
X79859238Y32083429D01*
X79954476Y32178667D01*
X80002095Y32273905D01*
X91670143Y63920666D02*
X91717762Y63968285D01*
X91765381Y64111142D01*
X91765381Y64206380D01*
X91717762Y64349238D01*
X91622524Y64444476D01*
X91527286Y64492095D01*
X91336810Y64539714D01*
X91193952Y64539714D01*
X91003476Y64492095D01*
X90908238Y64444476D01*
X90813000Y64349238D01*
X90765381Y64206380D01*
X90765381Y64111142D01*
X90813000Y63968285D01*
X90860619Y63920666D01*
X90765381Y63587333D02*
X90765381Y62920666D01*
X91765381Y63349238D01*
X91670143Y51855666D02*
X91717762Y51903285D01*
X91765381Y52046142D01*
X91765381Y52141380D01*
X91717762Y52284238D01*
X91622524Y52379476D01*
X91527286Y52427095D01*
X91336810Y52474714D01*
X91193952Y52474714D01*
X91003476Y52427095D01*
X90908238Y52379476D01*
X90813000Y52284238D01*
X90765381Y52141380D01*
X90765381Y52046142D01*
X90813000Y51903285D01*
X90860619Y51855666D01*
X90765381Y50998523D02*
X90765381Y51189000D01*
X90813000Y51284238D01*
X90860619Y51331857D01*
X91003476Y51427095D01*
X91193952Y51474714D01*
X91574905Y51474714D01*
X91670143Y51427095D01*
X91717762Y51379476D01*
X91765381Y51284238D01*
X91765381Y51093761D01*
X91717762Y50998523D01*
X91670143Y50950904D01*
X91574905Y50903285D01*
X91336810Y50903285D01*
X91241571Y50950904D01*
X91193952Y50998523D01*
X91146333Y51093761D01*
X91146333Y51284238D01*
X91193952Y51379476D01*
X91241571Y51427095D01*
X91336810Y51474714D01*
X79716381Y57149905D02*
X80525905Y57149905D01*
X80621143Y57102286D01*
X80668762Y57054667D01*
X80716381Y56959429D01*
X80716381Y56768952D01*
X80668762Y56673714D01*
X80621143Y56626095D01*
X80525905Y56578476D01*
X79716381Y56578476D01*
X80716381Y55578476D02*
X80716381Y56149905D01*
X80716381Y55864191D02*
X79716381Y55864191D01*
X79859238Y55959429D01*
X79954476Y56054667D01*
X80002095Y56149905D01*
X91670143Y87796666D02*
X91717762Y87844285D01*
X91765381Y87987142D01*
X91765381Y88082380D01*
X91717762Y88225238D01*
X91622524Y88320476D01*
X91527286Y88368095D01*
X91336810Y88415714D01*
X91193952Y88415714D01*
X91003476Y88368095D01*
X90908238Y88320476D01*
X90813000Y88225238D01*
X90765381Y88082380D01*
X90765381Y87987142D01*
X90813000Y87844285D01*
X90860619Y87796666D01*
X90765381Y87463333D02*
X90765381Y86796666D01*
X91765381Y87225238D01*
X91670143Y75731666D02*
X91717762Y75779285D01*
X91765381Y75922142D01*
X91765381Y76017380D01*
X91717762Y76160238D01*
X91622524Y76255476D01*
X91527286Y76303095D01*
X91336810Y76350714D01*
X91193952Y76350714D01*
X91003476Y76303095D01*
X90908238Y76255476D01*
X90813000Y76160238D01*
X90765381Y76017380D01*
X90765381Y75922142D01*
X90813000Y75779285D01*
X90860619Y75731666D01*
X90765381Y74874523D02*
X90765381Y75065000D01*
X90813000Y75160238D01*
X90860619Y75207857D01*
X91003476Y75303095D01*
X91193952Y75350714D01*
X91574905Y75350714D01*
X91670143Y75303095D01*
X91717762Y75255476D01*
X91765381Y75160238D01*
X91765381Y74969761D01*
X91717762Y74874523D01*
X91670143Y74826904D01*
X91574905Y74779285D01*
X91336810Y74779285D01*
X91241571Y74826904D01*
X91193952Y74874523D01*
X91146333Y74969761D01*
X91146333Y75160238D01*
X91193952Y75255476D01*
X91241571Y75303095D01*
X91336810Y75350714D01*
X79716381Y81025905D02*
X80525905Y81025905D01*
X80621143Y80978286D01*
X80668762Y80930667D01*
X80716381Y80835429D01*
X80716381Y80644952D01*
X80668762Y80549714D01*
X80621143Y80502095D01*
X80525905Y80454476D01*
X79716381Y80454476D01*
X80716381Y79454476D02*
X80716381Y80025905D01*
X80716381Y79740191D02*
X79716381Y79740191D01*
X79859238Y79835429D01*
X79954476Y79930667D01*
X80002095Y80025905D01*
X67794143Y16168666D02*
X67841762Y16216285D01*
X67889381Y16359142D01*
X67889381Y16454380D01*
X67841762Y16597238D01*
X67746524Y16692476D01*
X67651286Y16740095D01*
X67460810Y16787714D01*
X67317952Y16787714D01*
X67127476Y16740095D01*
X67032238Y16692476D01*
X66937000Y16597238D01*
X66889381Y16454380D01*
X66889381Y16359142D01*
X66937000Y16216285D01*
X66984619Y16168666D01*
X66889381Y15835333D02*
X66889381Y15168666D01*
X67889381Y15597238D01*
X67794143Y4103666D02*
X67841762Y4151285D01*
X67889381Y4294142D01*
X67889381Y4389380D01*
X67841762Y4532238D01*
X67746524Y4627476D01*
X67651286Y4675095D01*
X67460810Y4722714D01*
X67317952Y4722714D01*
X67127476Y4675095D01*
X67032238Y4627476D01*
X66937000Y4532238D01*
X66889381Y4389380D01*
X66889381Y4294142D01*
X66937000Y4151285D01*
X66984619Y4103666D01*
X66889381Y3246523D02*
X66889381Y3437000D01*
X66937000Y3532238D01*
X66984619Y3579857D01*
X67127476Y3675095D01*
X67317952Y3722714D01*
X67698905Y3722714D01*
X67794143Y3675095D01*
X67841762Y3627476D01*
X67889381Y3532238D01*
X67889381Y3341761D01*
X67841762Y3246523D01*
X67794143Y3198904D01*
X67698905Y3151285D01*
X67460810Y3151285D01*
X67365571Y3198904D01*
X67317952Y3246523D01*
X67270333Y3341761D01*
X67270333Y3532238D01*
X67317952Y3627476D01*
X67365571Y3675095D01*
X67460810Y3722714D01*
X55840381Y9397905D02*
X56649905Y9397905D01*
X56745143Y9350286D01*
X56792762Y9302667D01*
X56840381Y9207429D01*
X56840381Y9016952D01*
X56792762Y8921714D01*
X56745143Y8874095D01*
X56649905Y8826476D01*
X55840381Y8826476D01*
X56840381Y7826476D02*
X56840381Y8397905D01*
X56840381Y8112191D02*
X55840381Y8112191D01*
X55983238Y8207429D01*
X56078476Y8302667D01*
X56126095Y8397905D01*
X67794143Y40044666D02*
X67841762Y40092285D01*
X67889381Y40235142D01*
X67889381Y40330380D01*
X67841762Y40473238D01*
X67746524Y40568476D01*
X67651286Y40616095D01*
X67460810Y40663714D01*
X67317952Y40663714D01*
X67127476Y40616095D01*
X67032238Y40568476D01*
X66937000Y40473238D01*
X66889381Y40330380D01*
X66889381Y40235142D01*
X66937000Y40092285D01*
X66984619Y40044666D01*
X66889381Y39711333D02*
X66889381Y39044666D01*
X67889381Y39473238D01*
X67794143Y27979666D02*
X67841762Y28027285D01*
X67889381Y28170142D01*
X67889381Y28265380D01*
X67841762Y28408238D01*
X67746524Y28503476D01*
X67651286Y28551095D01*
X67460810Y28598714D01*
X67317952Y28598714D01*
X67127476Y28551095D01*
X67032238Y28503476D01*
X66937000Y28408238D01*
X66889381Y28265380D01*
X66889381Y28170142D01*
X66937000Y28027285D01*
X66984619Y27979666D01*
X66889381Y27122523D02*
X66889381Y27313000D01*
X66937000Y27408238D01*
X66984619Y27455857D01*
X67127476Y27551095D01*
X67317952Y27598714D01*
X67698905Y27598714D01*
X67794143Y27551095D01*
X67841762Y27503476D01*
X67889381Y27408238D01*
X67889381Y27217761D01*
X67841762Y27122523D01*
X67794143Y27074904D01*
X67698905Y27027285D01*
X67460810Y27027285D01*
X67365571Y27074904D01*
X67317952Y27122523D01*
X67270333Y27217761D01*
X67270333Y27408238D01*
X67317952Y27503476D01*
X67365571Y27551095D01*
X67460810Y27598714D01*
X55840381Y33273905D02*
X56649905Y33273905D01*
X56745143Y33226286D01*
X56792762Y33178667D01*
X56840381Y33083429D01*
X56840381Y32892952D01*
X56792762Y32797714D01*
X56745143Y32750095D01*
X56649905Y32702476D01*
X55840381Y32702476D01*
X56840381Y31702476D02*
X56840381Y32273905D01*
X56840381Y31988191D02*
X55840381Y31988191D01*
X55983238Y32083429D01*
X56078476Y32178667D01*
X56126095Y32273905D01*
X67794143Y63920666D02*
X67841762Y63968285D01*
X67889381Y64111142D01*
X67889381Y64206380D01*
X67841762Y64349238D01*
X67746524Y64444476D01*
X67651286Y64492095D01*
X67460810Y64539714D01*
X67317952Y64539714D01*
X67127476Y64492095D01*
X67032238Y64444476D01*
X66937000Y64349238D01*
X66889381Y64206380D01*
X66889381Y64111142D01*
X66937000Y63968285D01*
X66984619Y63920666D01*
X66889381Y63587333D02*
X66889381Y62920666D01*
X67889381Y63349238D01*
X67794143Y51855666D02*
X67841762Y51903285D01*
X67889381Y52046142D01*
X67889381Y52141380D01*
X67841762Y52284238D01*
X67746524Y52379476D01*
X67651286Y52427095D01*
X67460810Y52474714D01*
X67317952Y52474714D01*
X67127476Y52427095D01*
X67032238Y52379476D01*
X66937000Y52284238D01*
X66889381Y52141380D01*
X66889381Y52046142D01*
X66937000Y51903285D01*
X66984619Y51855666D01*
X66889381Y50998523D02*
X66889381Y51189000D01*
X66937000Y51284238D01*
X66984619Y51331857D01*
X67127476Y51427095D01*
X67317952Y51474714D01*
X67698905Y51474714D01*
X67794143Y51427095D01*
X67841762Y51379476D01*
X67889381Y51284238D01*
X67889381Y51093761D01*
X67841762Y50998523D01*
X67794143Y50950904D01*
X67698905Y50903285D01*
X67460810Y50903285D01*
X67365571Y50950904D01*
X67317952Y50998523D01*
X67270333Y51093761D01*
X67270333Y51284238D01*
X67317952Y51379476D01*
X67365571Y51427095D01*
X67460810Y51474714D01*
X55840381Y57149905D02*
X56649905Y57149905D01*
X56745143Y57102286D01*
X56792762Y57054667D01*
X56840381Y56959429D01*
X56840381Y56768952D01*
X56792762Y56673714D01*
X56745143Y56626095D01*
X56649905Y56578476D01*
X55840381Y56578476D01*
X56840381Y55578476D02*
X56840381Y56149905D01*
X56840381Y55864191D02*
X55840381Y55864191D01*
X55983238Y55959429D01*
X56078476Y56054667D01*
X56126095Y56149905D01*
X67794143Y87796666D02*
X67841762Y87844285D01*
X67889381Y87987142D01*
X67889381Y88082380D01*
X67841762Y88225238D01*
X67746524Y88320476D01*
X67651286Y88368095D01*
X67460810Y88415714D01*
X67317952Y88415714D01*
X67127476Y88368095D01*
X67032238Y88320476D01*
X66937000Y88225238D01*
X66889381Y88082380D01*
X66889381Y87987142D01*
X66937000Y87844285D01*
X66984619Y87796666D01*
X66889381Y87463333D02*
X66889381Y86796666D01*
X67889381Y87225238D01*
X67794143Y75731666D02*
X67841762Y75779285D01*
X67889381Y75922142D01*
X67889381Y76017380D01*
X67841762Y76160238D01*
X67746524Y76255476D01*
X67651286Y76303095D01*
X67460810Y76350714D01*
X67317952Y76350714D01*
X67127476Y76303095D01*
X67032238Y76255476D01*
X66937000Y76160238D01*
X66889381Y76017380D01*
X66889381Y75922142D01*
X66937000Y75779285D01*
X66984619Y75731666D01*
X66889381Y74874523D02*
X66889381Y75065000D01*
X66937000Y75160238D01*
X66984619Y75207857D01*
X67127476Y75303095D01*
X67317952Y75350714D01*
X67698905Y75350714D01*
X67794143Y75303095D01*
X67841762Y75255476D01*
X67889381Y75160238D01*
X67889381Y74969761D01*
X67841762Y74874523D01*
X67794143Y74826904D01*
X67698905Y74779285D01*
X67460810Y74779285D01*
X67365571Y74826904D01*
X67317952Y74874523D01*
X67270333Y74969761D01*
X67270333Y75160238D01*
X67317952Y75255476D01*
X67365571Y75303095D01*
X67460810Y75350714D01*
X55840381Y81025905D02*
X56649905Y81025905D01*
X56745143Y80978286D01*
X56792762Y80930667D01*
X56840381Y80835429D01*
X56840381Y80644952D01*
X56792762Y80549714D01*
X56745143Y80502095D01*
X56649905Y80454476D01*
X55840381Y80454476D01*
X56840381Y79454476D02*
X56840381Y80025905D01*
X56840381Y79740191D02*
X55840381Y79740191D01*
X55983238Y79835429D01*
X56078476Y79930667D01*
X56126095Y80025905D01*
X43918143Y16168666D02*
X43965762Y16216285D01*
X44013381Y16359142D01*
X44013381Y16454380D01*
X43965762Y16597238D01*
X43870524Y16692476D01*
X43775286Y16740095D01*
X43584810Y16787714D01*
X43441952Y16787714D01*
X43251476Y16740095D01*
X43156238Y16692476D01*
X43061000Y16597238D01*
X43013381Y16454380D01*
X43013381Y16359142D01*
X43061000Y16216285D01*
X43108619Y16168666D01*
X43013381Y15835333D02*
X43013381Y15168666D01*
X44013381Y15597238D01*
X43918143Y4103666D02*
X43965762Y4151285D01*
X44013381Y4294142D01*
X44013381Y4389380D01*
X43965762Y4532238D01*
X43870524Y4627476D01*
X43775286Y4675095D01*
X43584810Y4722714D01*
X43441952Y4722714D01*
X43251476Y4675095D01*
X43156238Y4627476D01*
X43061000Y4532238D01*
X43013381Y4389380D01*
X43013381Y4294142D01*
X43061000Y4151285D01*
X43108619Y4103666D01*
X43013381Y3246523D02*
X43013381Y3437000D01*
X43061000Y3532238D01*
X43108619Y3579857D01*
X43251476Y3675095D01*
X43441952Y3722714D01*
X43822905Y3722714D01*
X43918143Y3675095D01*
X43965762Y3627476D01*
X44013381Y3532238D01*
X44013381Y3341761D01*
X43965762Y3246523D01*
X43918143Y3198904D01*
X43822905Y3151285D01*
X43584810Y3151285D01*
X43489571Y3198904D01*
X43441952Y3246523D01*
X43394333Y3341761D01*
X43394333Y3532238D01*
X43441952Y3627476D01*
X43489571Y3675095D01*
X43584810Y3722714D01*
X31964381Y9397905D02*
X32773905Y9397905D01*
X32869143Y9350286D01*
X32916762Y9302667D01*
X32964381Y9207429D01*
X32964381Y9016952D01*
X32916762Y8921714D01*
X32869143Y8874095D01*
X32773905Y8826476D01*
X31964381Y8826476D01*
X32964381Y7826476D02*
X32964381Y8397905D01*
X32964381Y8112191D02*
X31964381Y8112191D01*
X32107238Y8207429D01*
X32202476Y8302667D01*
X32250095Y8397905D01*
X43918143Y40044666D02*
X43965762Y40092285D01*
X44013381Y40235142D01*
X44013381Y40330380D01*
X43965762Y40473238D01*
X43870524Y40568476D01*
X43775286Y40616095D01*
X43584810Y40663714D01*
X43441952Y40663714D01*
X43251476Y40616095D01*
X43156238Y40568476D01*
X43061000Y40473238D01*
X43013381Y40330380D01*
X43013381Y40235142D01*
X43061000Y40092285D01*
X43108619Y40044666D01*
X43013381Y39711333D02*
X43013381Y39044666D01*
X44013381Y39473238D01*
X43918143Y27979666D02*
X43965762Y28027285D01*
X44013381Y28170142D01*
X44013381Y28265380D01*
X43965762Y28408238D01*
X43870524Y28503476D01*
X43775286Y28551095D01*
X43584810Y28598714D01*
X43441952Y28598714D01*
X43251476Y28551095D01*
X43156238Y28503476D01*
X43061000Y28408238D01*
X43013381Y28265380D01*
X43013381Y28170142D01*
X43061000Y28027285D01*
X43108619Y27979666D01*
X43013381Y27122523D02*
X43013381Y27313000D01*
X43061000Y27408238D01*
X43108619Y27455857D01*
X43251476Y27551095D01*
X43441952Y27598714D01*
X43822905Y27598714D01*
X43918143Y27551095D01*
X43965762Y27503476D01*
X44013381Y27408238D01*
X44013381Y27217761D01*
X43965762Y27122523D01*
X43918143Y27074904D01*
X43822905Y27027285D01*
X43584810Y27027285D01*
X43489571Y27074904D01*
X43441952Y27122523D01*
X43394333Y27217761D01*
X43394333Y27408238D01*
X43441952Y27503476D01*
X43489571Y27551095D01*
X43584810Y27598714D01*
X31964381Y33273905D02*
X32773905Y33273905D01*
X32869143Y33226286D01*
X32916762Y33178667D01*
X32964381Y33083429D01*
X32964381Y32892952D01*
X32916762Y32797714D01*
X32869143Y32750095D01*
X32773905Y32702476D01*
X31964381Y32702476D01*
X32964381Y31702476D02*
X32964381Y32273905D01*
X32964381Y31988191D02*
X31964381Y31988191D01*
X32107238Y32083429D01*
X32202476Y32178667D01*
X32250095Y32273905D01*
X43918143Y63920666D02*
X43965762Y63968285D01*
X44013381Y64111142D01*
X44013381Y64206380D01*
X43965762Y64349238D01*
X43870524Y64444476D01*
X43775286Y64492095D01*
X43584810Y64539714D01*
X43441952Y64539714D01*
X43251476Y64492095D01*
X43156238Y64444476D01*
X43061000Y64349238D01*
X43013381Y64206380D01*
X43013381Y64111142D01*
X43061000Y63968285D01*
X43108619Y63920666D01*
X43013381Y63587333D02*
X43013381Y62920666D01*
X44013381Y63349238D01*
X43918143Y51855666D02*
X43965762Y51903285D01*
X44013381Y52046142D01*
X44013381Y52141380D01*
X43965762Y52284238D01*
X43870524Y52379476D01*
X43775286Y52427095D01*
X43584810Y52474714D01*
X43441952Y52474714D01*
X43251476Y52427095D01*
X43156238Y52379476D01*
X43061000Y52284238D01*
X43013381Y52141380D01*
X43013381Y52046142D01*
X43061000Y51903285D01*
X43108619Y51855666D01*
X43013381Y50998523D02*
X43013381Y51189000D01*
X43061000Y51284238D01*
X43108619Y51331857D01*
X43251476Y51427095D01*
X43441952Y51474714D01*
X43822905Y51474714D01*
X43918143Y51427095D01*
X43965762Y51379476D01*
X44013381Y51284238D01*
X44013381Y51093761D01*
X43965762Y50998523D01*
X43918143Y50950904D01*
X43822905Y50903285D01*
X43584810Y50903285D01*
X43489571Y50950904D01*
X43441952Y50998523D01*
X43394333Y51093761D01*
X43394333Y51284238D01*
X43441952Y51379476D01*
X43489571Y51427095D01*
X43584810Y51474714D01*
X31964381Y57149905D02*
X32773905Y57149905D01*
X32869143Y57102286D01*
X32916762Y57054667D01*
X32964381Y56959429D01*
X32964381Y56768952D01*
X32916762Y56673714D01*
X32869143Y56626095D01*
X32773905Y56578476D01*
X31964381Y56578476D01*
X32964381Y55578476D02*
X32964381Y56149905D01*
X32964381Y55864191D02*
X31964381Y55864191D01*
X32107238Y55959429D01*
X32202476Y56054667D01*
X32250095Y56149905D01*
X43918143Y87796666D02*
X43965762Y87844285D01*
X44013381Y87987142D01*
X44013381Y88082380D01*
X43965762Y88225238D01*
X43870524Y88320476D01*
X43775286Y88368095D01*
X43584810Y88415714D01*
X43441952Y88415714D01*
X43251476Y88368095D01*
X43156238Y88320476D01*
X43061000Y88225238D01*
X43013381Y88082380D01*
X43013381Y87987142D01*
X43061000Y87844285D01*
X43108619Y87796666D01*
X43013381Y87463333D02*
X43013381Y86796666D01*
X44013381Y87225238D01*
X43918143Y75731666D02*
X43965762Y75779285D01*
X44013381Y75922142D01*
X44013381Y76017380D01*
X43965762Y76160238D01*
X43870524Y76255476D01*
X43775286Y76303095D01*
X43584810Y76350714D01*
X43441952Y76350714D01*
X43251476Y76303095D01*
X43156238Y76255476D01*
X43061000Y76160238D01*
X43013381Y76017380D01*
X43013381Y75922142D01*
X43061000Y75779285D01*
X43108619Y75731666D01*
X43013381Y74874523D02*
X43013381Y75065000D01*
X43061000Y75160238D01*
X43108619Y75207857D01*
X43251476Y75303095D01*
X43441952Y75350714D01*
X43822905Y75350714D01*
X43918143Y75303095D01*
X43965762Y75255476D01*
X44013381Y75160238D01*
X44013381Y74969761D01*
X43965762Y74874523D01*
X43918143Y74826904D01*
X43822905Y74779285D01*
X43584810Y74779285D01*
X43489571Y74826904D01*
X43441952Y74874523D01*
X43394333Y74969761D01*
X43394333Y75160238D01*
X43441952Y75255476D01*
X43489571Y75303095D01*
X43584810Y75350714D01*
X31964381Y81025905D02*
X32773905Y81025905D01*
X32869143Y80978286D01*
X32916762Y80930667D01*
X32964381Y80835429D01*
X32964381Y80644952D01*
X32916762Y80549714D01*
X32869143Y80502095D01*
X32773905Y80454476D01*
X31964381Y80454476D01*
X32964381Y79454476D02*
X32964381Y80025905D01*
X32964381Y79740191D02*
X31964381Y79740191D01*
X32107238Y79835429D01*
X32202476Y79930667D01*
X32250095Y80025905D01*
X20042143Y16168666D02*
X20089762Y16216285D01*
X20137381Y16359142D01*
X20137381Y16454380D01*
X20089762Y16597238D01*
X19994524Y16692476D01*
X19899286Y16740095D01*
X19708810Y16787714D01*
X19565952Y16787714D01*
X19375476Y16740095D01*
X19280238Y16692476D01*
X19185000Y16597238D01*
X19137381Y16454380D01*
X19137381Y16359142D01*
X19185000Y16216285D01*
X19232619Y16168666D01*
X19137381Y15835333D02*
X19137381Y15168666D01*
X20137381Y15597238D01*
X20042143Y4103666D02*
X20089762Y4151285D01*
X20137381Y4294142D01*
X20137381Y4389380D01*
X20089762Y4532238D01*
X19994524Y4627476D01*
X19899286Y4675095D01*
X19708810Y4722714D01*
X19565952Y4722714D01*
X19375476Y4675095D01*
X19280238Y4627476D01*
X19185000Y4532238D01*
X19137381Y4389380D01*
X19137381Y4294142D01*
X19185000Y4151285D01*
X19232619Y4103666D01*
X19137381Y3246523D02*
X19137381Y3437000D01*
X19185000Y3532238D01*
X19232619Y3579857D01*
X19375476Y3675095D01*
X19565952Y3722714D01*
X19946905Y3722714D01*
X20042143Y3675095D01*
X20089762Y3627476D01*
X20137381Y3532238D01*
X20137381Y3341761D01*
X20089762Y3246523D01*
X20042143Y3198904D01*
X19946905Y3151285D01*
X19708810Y3151285D01*
X19613571Y3198904D01*
X19565952Y3246523D01*
X19518333Y3341761D01*
X19518333Y3532238D01*
X19565952Y3627476D01*
X19613571Y3675095D01*
X19708810Y3722714D01*
X8088381Y9397905D02*
X8897905Y9397905D01*
X8993143Y9350286D01*
X9040762Y9302667D01*
X9088381Y9207429D01*
X9088381Y9016952D01*
X9040762Y8921714D01*
X8993143Y8874095D01*
X8897905Y8826476D01*
X8088381Y8826476D01*
X9088381Y7826476D02*
X9088381Y8397905D01*
X9088381Y8112191D02*
X8088381Y8112191D01*
X8231238Y8207429D01*
X8326476Y8302667D01*
X8374095Y8397905D01*
X20042143Y40044666D02*
X20089762Y40092285D01*
X20137381Y40235142D01*
X20137381Y40330380D01*
X20089762Y40473238D01*
X19994524Y40568476D01*
X19899286Y40616095D01*
X19708810Y40663714D01*
X19565952Y40663714D01*
X19375476Y40616095D01*
X19280238Y40568476D01*
X19185000Y40473238D01*
X19137381Y40330380D01*
X19137381Y40235142D01*
X19185000Y40092285D01*
X19232619Y40044666D01*
X19137381Y39711333D02*
X19137381Y39044666D01*
X20137381Y39473238D01*
X20042143Y27979666D02*
X20089762Y28027285D01*
X20137381Y28170142D01*
X20137381Y28265380D01*
X20089762Y28408238D01*
X19994524Y28503476D01*
X19899286Y28551095D01*
X19708810Y28598714D01*
X19565952Y28598714D01*
X19375476Y28551095D01*
X19280238Y28503476D01*
X19185000Y28408238D01*
X19137381Y28265380D01*
X19137381Y28170142D01*
X19185000Y28027285D01*
X19232619Y27979666D01*
X19137381Y27122523D02*
X19137381Y27313000D01*
X19185000Y27408238D01*
X19232619Y27455857D01*
X19375476Y27551095D01*
X19565952Y27598714D01*
X19946905Y27598714D01*
X20042143Y27551095D01*
X20089762Y27503476D01*
X20137381Y27408238D01*
X20137381Y27217761D01*
X20089762Y27122523D01*
X20042143Y27074904D01*
X19946905Y27027285D01*
X19708810Y27027285D01*
X19613571Y27074904D01*
X19565952Y27122523D01*
X19518333Y27217761D01*
X19518333Y27408238D01*
X19565952Y27503476D01*
X19613571Y27551095D01*
X19708810Y27598714D01*
X8088381Y33273905D02*
X8897905Y33273905D01*
X8993143Y33226286D01*
X9040762Y33178667D01*
X9088381Y33083429D01*
X9088381Y32892952D01*
X9040762Y32797714D01*
X8993143Y32750095D01*
X8897905Y32702476D01*
X8088381Y32702476D01*
X9088381Y31702476D02*
X9088381Y32273905D01*
X9088381Y31988191D02*
X8088381Y31988191D01*
X8231238Y32083429D01*
X8326476Y32178667D01*
X8374095Y32273905D01*
X20042143Y63920666D02*
X20089762Y63968285D01*
X20137381Y64111142D01*
X20137381Y64206380D01*
X20089762Y64349238D01*
X19994524Y64444476D01*
X19899286Y64492095D01*
X19708810Y64539714D01*
X19565952Y64539714D01*
X19375476Y64492095D01*
X19280238Y64444476D01*
X19185000Y64349238D01*
X19137381Y64206380D01*
X19137381Y64111142D01*
X19185000Y63968285D01*
X19232619Y63920666D01*
X19137381Y63587333D02*
X19137381Y62920666D01*
X20137381Y63349238D01*
X20042143Y51855666D02*
X20089762Y51903285D01*
X20137381Y52046142D01*
X20137381Y52141380D01*
X20089762Y52284238D01*
X19994524Y52379476D01*
X19899286Y52427095D01*
X19708810Y52474714D01*
X19565952Y52474714D01*
X19375476Y52427095D01*
X19280238Y52379476D01*
X19185000Y52284238D01*
X19137381Y52141380D01*
X19137381Y52046142D01*
X19185000Y51903285D01*
X19232619Y51855666D01*
X19137381Y50998523D02*
X19137381Y51189000D01*
X19185000Y51284238D01*
X19232619Y51331857D01*
X19375476Y51427095D01*
X19565952Y51474714D01*
X19946905Y51474714D01*
X20042143Y51427095D01*
X20089762Y51379476D01*
X20137381Y51284238D01*
X20137381Y51093761D01*
X20089762Y50998523D01*
X20042143Y50950904D01*
X19946905Y50903285D01*
X19708810Y50903285D01*
X19613571Y50950904D01*
X19565952Y50998523D01*
X19518333Y51093761D01*
X19518333Y51284238D01*
X19565952Y51379476D01*
X19613571Y51427095D01*
X19708810Y51474714D01*
X8088381Y57149905D02*
X8897905Y57149905D01*
X8993143Y57102286D01*
X9040762Y57054667D01*
X9088381Y56959429D01*
X9088381Y56768952D01*
X9040762Y56673714D01*
X8993143Y56626095D01*
X8897905Y56578476D01*
X8088381Y56578476D01*
X9088381Y55578476D02*
X9088381Y56149905D01*
X9088381Y55864191D02*
X8088381Y55864191D01*
X8231238Y55959429D01*
X8326476Y56054667D01*
X8374095Y56149905D01*
X8088381Y81025905D02*
X8897905Y81025905D01*
X8993143Y80978286D01*
X9040762Y80930667D01*
X9088381Y80835429D01*
X9088381Y80644952D01*
X9040762Y80549714D01*
X8993143Y80502095D01*
X8897905Y80454476D01*
X8088381Y80454476D01*
X9088381Y79454476D02*
X9088381Y80025905D01*
X9088381Y79740191D02*
X8088381Y79740191D01*
X8231238Y79835429D01*
X8326476Y79930667D01*
X8374095Y80025905D01*
X20042143Y75731666D02*
X20089762Y75779285D01*
X20137381Y75922142D01*
X20137381Y76017380D01*
X20089762Y76160238D01*
X19994524Y76255476D01*
X19899286Y76303095D01*
X19708810Y76350714D01*
X19565952Y76350714D01*
X19375476Y76303095D01*
X19280238Y76255476D01*
X19185000Y76160238D01*
X19137381Y76017380D01*
X19137381Y75922142D01*
X19185000Y75779285D01*
X19232619Y75731666D01*
X19137381Y74874523D02*
X19137381Y75065000D01*
X19185000Y75160238D01*
X19232619Y75207857D01*
X19375476Y75303095D01*
X19565952Y75350714D01*
X19946905Y75350714D01*
X20042143Y75303095D01*
X20089762Y75255476D01*
X20137381Y75160238D01*
X20137381Y74969761D01*
X20089762Y74874523D01*
X20042143Y74826904D01*
X19946905Y74779285D01*
X19708810Y74779285D01*
X19613571Y74826904D01*
X19565952Y74874523D01*
X19518333Y74969761D01*
X19518333Y75160238D01*
X19565952Y75255476D01*
X19613571Y75303095D01*
X19708810Y75350714D01*
X20042143Y87796666D02*
X20089762Y87844285D01*
X20137381Y87987142D01*
X20137381Y88082380D01*
X20089762Y88225238D01*
X19994524Y88320476D01*
X19899286Y88368095D01*
X19708810Y88415714D01*
X19565952Y88415714D01*
X19375476Y88368095D01*
X19280238Y88320476D01*
X19185000Y88225238D01*
X19137381Y88082380D01*
X19137381Y87987142D01*
X19185000Y87844285D01*
X19232619Y87796666D01*
X19137381Y87463333D02*
X19137381Y86796666D01*
X20137381Y87225238D01*
M02*
