G04 #@! TF.FileFunction,Soldermask,Top*
%FSLAX46Y46*%
G04 Gerber Fmt 4.6, Leading zero omitted, Abs format (unit mm)*
G04 Created by KiCad (PCBNEW 4.0.1-2.201512121406+6195~38~ubuntu15.10.1-stable) date Monday, December 14, 2015 PM10:34:12 HKT*
%MOMM*%
G01*
G04 APERTURE LIST*
%ADD10C,0.100000*%
%ADD11R,2.235200X2.235200*%
%ADD12O,2.235200X2.235200*%
%ADD13C,1.704340*%
%ADD14R,1.803200X2.203200*%
%ADD15R,1.103200X1.403200*%
%ADD16R,2.235200X1.930400*%
%ADD17O,2.235200X1.930400*%
%ADD18R,1.930400X2.235200*%
%ADD19O,1.930400X2.235200*%
%ADD20R,1.653200X0.653200*%
%ADD21R,1.000760X1.000760*%
%ADD22R,0.953200X1.403200*%
%ADD23R,1.403200X0.953200*%
%ADD24O,0.603200X1.553200*%
%ADD25R,0.603200X1.553200*%
%ADD26O,1.403200X2.203200*%
%ADD27C,0.803200*%
G04 APERTURE END LIST*
D10*
D11*
X86106000Y4826000D03*
D12*
X86106000Y2286000D03*
D13*
X78232000Y11275060D03*
X78232000Y16156940D03*
D14*
X89408000Y1745000D03*
X89408000Y7145000D03*
D15*
X81407000Y9482000D03*
X81407000Y7282000D03*
X83185000Y7282000D03*
X83185000Y9482000D03*
X84963000Y9736000D03*
X84963000Y7536000D03*
D16*
X93726000Y22098000D03*
D17*
X93726000Y19558000D03*
X93726000Y17018000D03*
X93726000Y14478000D03*
X93726000Y11938000D03*
X93726000Y9398000D03*
X93726000Y6858000D03*
X93726000Y4318000D03*
X93726000Y1778000D03*
D16*
X73406000Y22098000D03*
D17*
X73406000Y19558000D03*
X73406000Y17018000D03*
X73406000Y14478000D03*
X73406000Y11938000D03*
X73406000Y9398000D03*
X73406000Y6858000D03*
X73406000Y4318000D03*
X73406000Y1778000D03*
D18*
X77216000Y22098000D03*
D19*
X79756000Y22098000D03*
X82296000Y22098000D03*
X84836000Y22098000D03*
X87376000Y22098000D03*
X89916000Y22098000D03*
D20*
X84172000Y18673000D03*
X84172000Y18023000D03*
X84172000Y17373000D03*
X84172000Y16723000D03*
X84172000Y16073000D03*
X84172000Y15423000D03*
X84172000Y14773000D03*
X84172000Y14123000D03*
X84172000Y13473000D03*
X84172000Y12823000D03*
X90072000Y12823000D03*
X90072000Y13473000D03*
X90072000Y14123000D03*
X90072000Y14773000D03*
X90072000Y15423000D03*
X90072000Y16073000D03*
X90072000Y16723000D03*
X90072000Y17373000D03*
X90072000Y18023000D03*
X90072000Y18673000D03*
D21*
X78473300Y7239000D03*
X76974700Y7239000D03*
X88785700Y9525000D03*
X90284300Y9525000D03*
D22*
X81534000Y16322000D03*
X81534000Y18222000D03*
X81534000Y14412000D03*
X81534000Y12512000D03*
D23*
X84013000Y11430000D03*
X85913000Y11430000D03*
X88331000Y11430000D03*
X90231000Y11430000D03*
D22*
X86868000Y7559000D03*
X86868000Y9459000D03*
D24*
X78837000Y5286000D03*
D25*
X79487000Y4961000D03*
X80137000Y4961000D03*
X80787000Y4961000D03*
D24*
X81437000Y5286000D03*
D26*
X76937000Y2286000D03*
X83337000Y2286000D03*
D27*
X78237000Y4436000D03*
X82037000Y4436000D03*
D11*
X86106000Y28702000D03*
D12*
X86106000Y26162000D03*
D13*
X78232000Y35151060D03*
X78232000Y40032940D03*
D14*
X89408000Y25621000D03*
X89408000Y31021000D03*
D15*
X81407000Y33358000D03*
X81407000Y31158000D03*
X83185000Y31158000D03*
X83185000Y33358000D03*
X84963000Y33612000D03*
X84963000Y31412000D03*
D16*
X93726000Y45974000D03*
D17*
X93726000Y43434000D03*
X93726000Y40894000D03*
X93726000Y38354000D03*
X93726000Y35814000D03*
X93726000Y33274000D03*
X93726000Y30734000D03*
X93726000Y28194000D03*
X93726000Y25654000D03*
D16*
X73406000Y45974000D03*
D17*
X73406000Y43434000D03*
X73406000Y40894000D03*
X73406000Y38354000D03*
X73406000Y35814000D03*
X73406000Y33274000D03*
X73406000Y30734000D03*
X73406000Y28194000D03*
X73406000Y25654000D03*
D18*
X77216000Y45974000D03*
D19*
X79756000Y45974000D03*
X82296000Y45974000D03*
X84836000Y45974000D03*
X87376000Y45974000D03*
X89916000Y45974000D03*
D20*
X84172000Y42549000D03*
X84172000Y41899000D03*
X84172000Y41249000D03*
X84172000Y40599000D03*
X84172000Y39949000D03*
X84172000Y39299000D03*
X84172000Y38649000D03*
X84172000Y37999000D03*
X84172000Y37349000D03*
X84172000Y36699000D03*
X90072000Y36699000D03*
X90072000Y37349000D03*
X90072000Y37999000D03*
X90072000Y38649000D03*
X90072000Y39299000D03*
X90072000Y39949000D03*
X90072000Y40599000D03*
X90072000Y41249000D03*
X90072000Y41899000D03*
X90072000Y42549000D03*
D21*
X78473300Y31115000D03*
X76974700Y31115000D03*
X88785700Y33401000D03*
X90284300Y33401000D03*
D22*
X81534000Y40198000D03*
X81534000Y42098000D03*
X81534000Y38288000D03*
X81534000Y36388000D03*
D23*
X84013000Y35306000D03*
X85913000Y35306000D03*
X88331000Y35306000D03*
X90231000Y35306000D03*
D22*
X86868000Y31435000D03*
X86868000Y33335000D03*
D24*
X78837000Y29162000D03*
D25*
X79487000Y28837000D03*
X80137000Y28837000D03*
X80787000Y28837000D03*
D24*
X81437000Y29162000D03*
D26*
X76937000Y26162000D03*
X83337000Y26162000D03*
D27*
X78237000Y28312000D03*
X82037000Y28312000D03*
D11*
X86106000Y52578000D03*
D12*
X86106000Y50038000D03*
D13*
X78232000Y59027060D03*
X78232000Y63908940D03*
D14*
X89408000Y49497000D03*
X89408000Y54897000D03*
D15*
X81407000Y57234000D03*
X81407000Y55034000D03*
X83185000Y55034000D03*
X83185000Y57234000D03*
X84963000Y57488000D03*
X84963000Y55288000D03*
D16*
X93726000Y69850000D03*
D17*
X93726000Y67310000D03*
X93726000Y64770000D03*
X93726000Y62230000D03*
X93726000Y59690000D03*
X93726000Y57150000D03*
X93726000Y54610000D03*
X93726000Y52070000D03*
X93726000Y49530000D03*
D16*
X73406000Y69850000D03*
D17*
X73406000Y67310000D03*
X73406000Y64770000D03*
X73406000Y62230000D03*
X73406000Y59690000D03*
X73406000Y57150000D03*
X73406000Y54610000D03*
X73406000Y52070000D03*
X73406000Y49530000D03*
D18*
X77216000Y69850000D03*
D19*
X79756000Y69850000D03*
X82296000Y69850000D03*
X84836000Y69850000D03*
X87376000Y69850000D03*
X89916000Y69850000D03*
D20*
X84172000Y66425000D03*
X84172000Y65775000D03*
X84172000Y65125000D03*
X84172000Y64475000D03*
X84172000Y63825000D03*
X84172000Y63175000D03*
X84172000Y62525000D03*
X84172000Y61875000D03*
X84172000Y61225000D03*
X84172000Y60575000D03*
X90072000Y60575000D03*
X90072000Y61225000D03*
X90072000Y61875000D03*
X90072000Y62525000D03*
X90072000Y63175000D03*
X90072000Y63825000D03*
X90072000Y64475000D03*
X90072000Y65125000D03*
X90072000Y65775000D03*
X90072000Y66425000D03*
D21*
X78473300Y54991000D03*
X76974700Y54991000D03*
X88785700Y57277000D03*
X90284300Y57277000D03*
D22*
X81534000Y64074000D03*
X81534000Y65974000D03*
X81534000Y62164000D03*
X81534000Y60264000D03*
D23*
X84013000Y59182000D03*
X85913000Y59182000D03*
X88331000Y59182000D03*
X90231000Y59182000D03*
D22*
X86868000Y55311000D03*
X86868000Y57211000D03*
D24*
X78837000Y53038000D03*
D25*
X79487000Y52713000D03*
X80137000Y52713000D03*
X80787000Y52713000D03*
D24*
X81437000Y53038000D03*
D26*
X76937000Y50038000D03*
X83337000Y50038000D03*
D27*
X78237000Y52188000D03*
X82037000Y52188000D03*
D11*
X86106000Y76454000D03*
D12*
X86106000Y73914000D03*
D13*
X78232000Y82903060D03*
X78232000Y87784940D03*
D14*
X89408000Y73373000D03*
X89408000Y78773000D03*
D15*
X81407000Y81110000D03*
X81407000Y78910000D03*
X83185000Y78910000D03*
X83185000Y81110000D03*
X84963000Y81364000D03*
X84963000Y79164000D03*
D16*
X93726000Y93726000D03*
D17*
X93726000Y91186000D03*
X93726000Y88646000D03*
X93726000Y86106000D03*
X93726000Y83566000D03*
X93726000Y81026000D03*
X93726000Y78486000D03*
X93726000Y75946000D03*
X93726000Y73406000D03*
D16*
X73406000Y93726000D03*
D17*
X73406000Y91186000D03*
X73406000Y88646000D03*
X73406000Y86106000D03*
X73406000Y83566000D03*
X73406000Y81026000D03*
X73406000Y78486000D03*
X73406000Y75946000D03*
X73406000Y73406000D03*
D18*
X77216000Y93726000D03*
D19*
X79756000Y93726000D03*
X82296000Y93726000D03*
X84836000Y93726000D03*
X87376000Y93726000D03*
X89916000Y93726000D03*
D20*
X84172000Y90301000D03*
X84172000Y89651000D03*
X84172000Y89001000D03*
X84172000Y88351000D03*
X84172000Y87701000D03*
X84172000Y87051000D03*
X84172000Y86401000D03*
X84172000Y85751000D03*
X84172000Y85101000D03*
X84172000Y84451000D03*
X90072000Y84451000D03*
X90072000Y85101000D03*
X90072000Y85751000D03*
X90072000Y86401000D03*
X90072000Y87051000D03*
X90072000Y87701000D03*
X90072000Y88351000D03*
X90072000Y89001000D03*
X90072000Y89651000D03*
X90072000Y90301000D03*
D21*
X78473300Y78867000D03*
X76974700Y78867000D03*
X88785700Y81153000D03*
X90284300Y81153000D03*
D22*
X81534000Y87950000D03*
X81534000Y89850000D03*
X81534000Y86040000D03*
X81534000Y84140000D03*
D23*
X84013000Y83058000D03*
X85913000Y83058000D03*
X88331000Y83058000D03*
X90231000Y83058000D03*
D22*
X86868000Y79187000D03*
X86868000Y81087000D03*
D24*
X78837000Y76914000D03*
D25*
X79487000Y76589000D03*
X80137000Y76589000D03*
X80787000Y76589000D03*
D24*
X81437000Y76914000D03*
D26*
X76937000Y73914000D03*
X83337000Y73914000D03*
D27*
X78237000Y76064000D03*
X82037000Y76064000D03*
D11*
X62230000Y4826000D03*
D12*
X62230000Y2286000D03*
D13*
X54356000Y11275060D03*
X54356000Y16156940D03*
D14*
X65532000Y1745000D03*
X65532000Y7145000D03*
D15*
X57531000Y9482000D03*
X57531000Y7282000D03*
X59309000Y7282000D03*
X59309000Y9482000D03*
X61087000Y9736000D03*
X61087000Y7536000D03*
D16*
X69850000Y22098000D03*
D17*
X69850000Y19558000D03*
X69850000Y17018000D03*
X69850000Y14478000D03*
X69850000Y11938000D03*
X69850000Y9398000D03*
X69850000Y6858000D03*
X69850000Y4318000D03*
X69850000Y1778000D03*
D16*
X49530000Y22098000D03*
D17*
X49530000Y19558000D03*
X49530000Y17018000D03*
X49530000Y14478000D03*
X49530000Y11938000D03*
X49530000Y9398000D03*
X49530000Y6858000D03*
X49530000Y4318000D03*
X49530000Y1778000D03*
D18*
X53340000Y22098000D03*
D19*
X55880000Y22098000D03*
X58420000Y22098000D03*
X60960000Y22098000D03*
X63500000Y22098000D03*
X66040000Y22098000D03*
D20*
X60296000Y18673000D03*
X60296000Y18023000D03*
X60296000Y17373000D03*
X60296000Y16723000D03*
X60296000Y16073000D03*
X60296000Y15423000D03*
X60296000Y14773000D03*
X60296000Y14123000D03*
X60296000Y13473000D03*
X60296000Y12823000D03*
X66196000Y12823000D03*
X66196000Y13473000D03*
X66196000Y14123000D03*
X66196000Y14773000D03*
X66196000Y15423000D03*
X66196000Y16073000D03*
X66196000Y16723000D03*
X66196000Y17373000D03*
X66196000Y18023000D03*
X66196000Y18673000D03*
D21*
X54597300Y7239000D03*
X53098700Y7239000D03*
X64909700Y9525000D03*
X66408300Y9525000D03*
D22*
X57658000Y16322000D03*
X57658000Y18222000D03*
X57658000Y14412000D03*
X57658000Y12512000D03*
D23*
X60137000Y11430000D03*
X62037000Y11430000D03*
X64455000Y11430000D03*
X66355000Y11430000D03*
D22*
X62992000Y7559000D03*
X62992000Y9459000D03*
D24*
X54961000Y5286000D03*
D25*
X55611000Y4961000D03*
X56261000Y4961000D03*
X56911000Y4961000D03*
D24*
X57561000Y5286000D03*
D26*
X53061000Y2286000D03*
X59461000Y2286000D03*
D27*
X54361000Y4436000D03*
X58161000Y4436000D03*
D11*
X62230000Y28702000D03*
D12*
X62230000Y26162000D03*
D13*
X54356000Y35151060D03*
X54356000Y40032940D03*
D14*
X65532000Y25621000D03*
X65532000Y31021000D03*
D15*
X57531000Y33358000D03*
X57531000Y31158000D03*
X59309000Y31158000D03*
X59309000Y33358000D03*
X61087000Y33612000D03*
X61087000Y31412000D03*
D16*
X69850000Y45974000D03*
D17*
X69850000Y43434000D03*
X69850000Y40894000D03*
X69850000Y38354000D03*
X69850000Y35814000D03*
X69850000Y33274000D03*
X69850000Y30734000D03*
X69850000Y28194000D03*
X69850000Y25654000D03*
D16*
X49530000Y45974000D03*
D17*
X49530000Y43434000D03*
X49530000Y40894000D03*
X49530000Y38354000D03*
X49530000Y35814000D03*
X49530000Y33274000D03*
X49530000Y30734000D03*
X49530000Y28194000D03*
X49530000Y25654000D03*
D18*
X53340000Y45974000D03*
D19*
X55880000Y45974000D03*
X58420000Y45974000D03*
X60960000Y45974000D03*
X63500000Y45974000D03*
X66040000Y45974000D03*
D20*
X60296000Y42549000D03*
X60296000Y41899000D03*
X60296000Y41249000D03*
X60296000Y40599000D03*
X60296000Y39949000D03*
X60296000Y39299000D03*
X60296000Y38649000D03*
X60296000Y37999000D03*
X60296000Y37349000D03*
X60296000Y36699000D03*
X66196000Y36699000D03*
X66196000Y37349000D03*
X66196000Y37999000D03*
X66196000Y38649000D03*
X66196000Y39299000D03*
X66196000Y39949000D03*
X66196000Y40599000D03*
X66196000Y41249000D03*
X66196000Y41899000D03*
X66196000Y42549000D03*
D21*
X54597300Y31115000D03*
X53098700Y31115000D03*
X64909700Y33401000D03*
X66408300Y33401000D03*
D22*
X57658000Y40198000D03*
X57658000Y42098000D03*
X57658000Y38288000D03*
X57658000Y36388000D03*
D23*
X60137000Y35306000D03*
X62037000Y35306000D03*
X64455000Y35306000D03*
X66355000Y35306000D03*
D22*
X62992000Y31435000D03*
X62992000Y33335000D03*
D24*
X54961000Y29162000D03*
D25*
X55611000Y28837000D03*
X56261000Y28837000D03*
X56911000Y28837000D03*
D24*
X57561000Y29162000D03*
D26*
X53061000Y26162000D03*
X59461000Y26162000D03*
D27*
X54361000Y28312000D03*
X58161000Y28312000D03*
D11*
X62230000Y52578000D03*
D12*
X62230000Y50038000D03*
D13*
X54356000Y59027060D03*
X54356000Y63908940D03*
D14*
X65532000Y49497000D03*
X65532000Y54897000D03*
D15*
X57531000Y57234000D03*
X57531000Y55034000D03*
X59309000Y55034000D03*
X59309000Y57234000D03*
X61087000Y57488000D03*
X61087000Y55288000D03*
D16*
X69850000Y69850000D03*
D17*
X69850000Y67310000D03*
X69850000Y64770000D03*
X69850000Y62230000D03*
X69850000Y59690000D03*
X69850000Y57150000D03*
X69850000Y54610000D03*
X69850000Y52070000D03*
X69850000Y49530000D03*
D16*
X49530000Y69850000D03*
D17*
X49530000Y67310000D03*
X49530000Y64770000D03*
X49530000Y62230000D03*
X49530000Y59690000D03*
X49530000Y57150000D03*
X49530000Y54610000D03*
X49530000Y52070000D03*
X49530000Y49530000D03*
D18*
X53340000Y69850000D03*
D19*
X55880000Y69850000D03*
X58420000Y69850000D03*
X60960000Y69850000D03*
X63500000Y69850000D03*
X66040000Y69850000D03*
D20*
X60296000Y66425000D03*
X60296000Y65775000D03*
X60296000Y65125000D03*
X60296000Y64475000D03*
X60296000Y63825000D03*
X60296000Y63175000D03*
X60296000Y62525000D03*
X60296000Y61875000D03*
X60296000Y61225000D03*
X60296000Y60575000D03*
X66196000Y60575000D03*
X66196000Y61225000D03*
X66196000Y61875000D03*
X66196000Y62525000D03*
X66196000Y63175000D03*
X66196000Y63825000D03*
X66196000Y64475000D03*
X66196000Y65125000D03*
X66196000Y65775000D03*
X66196000Y66425000D03*
D21*
X54597300Y54991000D03*
X53098700Y54991000D03*
X64909700Y57277000D03*
X66408300Y57277000D03*
D22*
X57658000Y64074000D03*
X57658000Y65974000D03*
X57658000Y62164000D03*
X57658000Y60264000D03*
D23*
X60137000Y59182000D03*
X62037000Y59182000D03*
X64455000Y59182000D03*
X66355000Y59182000D03*
D22*
X62992000Y55311000D03*
X62992000Y57211000D03*
D24*
X54961000Y53038000D03*
D25*
X55611000Y52713000D03*
X56261000Y52713000D03*
X56911000Y52713000D03*
D24*
X57561000Y53038000D03*
D26*
X53061000Y50038000D03*
X59461000Y50038000D03*
D27*
X54361000Y52188000D03*
X58161000Y52188000D03*
D11*
X62230000Y76454000D03*
D12*
X62230000Y73914000D03*
D13*
X54356000Y82903060D03*
X54356000Y87784940D03*
D14*
X65532000Y73373000D03*
X65532000Y78773000D03*
D15*
X57531000Y81110000D03*
X57531000Y78910000D03*
X59309000Y78910000D03*
X59309000Y81110000D03*
X61087000Y81364000D03*
X61087000Y79164000D03*
D16*
X69850000Y93726000D03*
D17*
X69850000Y91186000D03*
X69850000Y88646000D03*
X69850000Y86106000D03*
X69850000Y83566000D03*
X69850000Y81026000D03*
X69850000Y78486000D03*
X69850000Y75946000D03*
X69850000Y73406000D03*
D16*
X49530000Y93726000D03*
D17*
X49530000Y91186000D03*
X49530000Y88646000D03*
X49530000Y86106000D03*
X49530000Y83566000D03*
X49530000Y81026000D03*
X49530000Y78486000D03*
X49530000Y75946000D03*
X49530000Y73406000D03*
D18*
X53340000Y93726000D03*
D19*
X55880000Y93726000D03*
X58420000Y93726000D03*
X60960000Y93726000D03*
X63500000Y93726000D03*
X66040000Y93726000D03*
D20*
X60296000Y90301000D03*
X60296000Y89651000D03*
X60296000Y89001000D03*
X60296000Y88351000D03*
X60296000Y87701000D03*
X60296000Y87051000D03*
X60296000Y86401000D03*
X60296000Y85751000D03*
X60296000Y85101000D03*
X60296000Y84451000D03*
X66196000Y84451000D03*
X66196000Y85101000D03*
X66196000Y85751000D03*
X66196000Y86401000D03*
X66196000Y87051000D03*
X66196000Y87701000D03*
X66196000Y88351000D03*
X66196000Y89001000D03*
X66196000Y89651000D03*
X66196000Y90301000D03*
D21*
X54597300Y78867000D03*
X53098700Y78867000D03*
X64909700Y81153000D03*
X66408300Y81153000D03*
D22*
X57658000Y87950000D03*
X57658000Y89850000D03*
X57658000Y86040000D03*
X57658000Y84140000D03*
D23*
X60137000Y83058000D03*
X62037000Y83058000D03*
X64455000Y83058000D03*
X66355000Y83058000D03*
D22*
X62992000Y79187000D03*
X62992000Y81087000D03*
D24*
X54961000Y76914000D03*
D25*
X55611000Y76589000D03*
X56261000Y76589000D03*
X56911000Y76589000D03*
D24*
X57561000Y76914000D03*
D26*
X53061000Y73914000D03*
X59461000Y73914000D03*
D27*
X54361000Y76064000D03*
X58161000Y76064000D03*
D11*
X38354000Y4826000D03*
D12*
X38354000Y2286000D03*
D13*
X30480000Y11275060D03*
X30480000Y16156940D03*
D14*
X41656000Y1745000D03*
X41656000Y7145000D03*
D15*
X33655000Y9482000D03*
X33655000Y7282000D03*
X35433000Y7282000D03*
X35433000Y9482000D03*
X37211000Y9736000D03*
X37211000Y7536000D03*
D16*
X45974000Y22098000D03*
D17*
X45974000Y19558000D03*
X45974000Y17018000D03*
X45974000Y14478000D03*
X45974000Y11938000D03*
X45974000Y9398000D03*
X45974000Y6858000D03*
X45974000Y4318000D03*
X45974000Y1778000D03*
D16*
X25654000Y22098000D03*
D17*
X25654000Y19558000D03*
X25654000Y17018000D03*
X25654000Y14478000D03*
X25654000Y11938000D03*
X25654000Y9398000D03*
X25654000Y6858000D03*
X25654000Y4318000D03*
X25654000Y1778000D03*
D18*
X29464000Y22098000D03*
D19*
X32004000Y22098000D03*
X34544000Y22098000D03*
X37084000Y22098000D03*
X39624000Y22098000D03*
X42164000Y22098000D03*
D20*
X36420000Y18673000D03*
X36420000Y18023000D03*
X36420000Y17373000D03*
X36420000Y16723000D03*
X36420000Y16073000D03*
X36420000Y15423000D03*
X36420000Y14773000D03*
X36420000Y14123000D03*
X36420000Y13473000D03*
X36420000Y12823000D03*
X42320000Y12823000D03*
X42320000Y13473000D03*
X42320000Y14123000D03*
X42320000Y14773000D03*
X42320000Y15423000D03*
X42320000Y16073000D03*
X42320000Y16723000D03*
X42320000Y17373000D03*
X42320000Y18023000D03*
X42320000Y18673000D03*
D21*
X30721300Y7239000D03*
X29222700Y7239000D03*
X41033700Y9525000D03*
X42532300Y9525000D03*
D22*
X33782000Y16322000D03*
X33782000Y18222000D03*
X33782000Y14412000D03*
X33782000Y12512000D03*
D23*
X36261000Y11430000D03*
X38161000Y11430000D03*
X40579000Y11430000D03*
X42479000Y11430000D03*
D22*
X39116000Y7559000D03*
X39116000Y9459000D03*
D24*
X31085000Y5286000D03*
D25*
X31735000Y4961000D03*
X32385000Y4961000D03*
X33035000Y4961000D03*
D24*
X33685000Y5286000D03*
D26*
X29185000Y2286000D03*
X35585000Y2286000D03*
D27*
X30485000Y4436000D03*
X34285000Y4436000D03*
D11*
X38354000Y28702000D03*
D12*
X38354000Y26162000D03*
D13*
X30480000Y35151060D03*
X30480000Y40032940D03*
D14*
X41656000Y25621000D03*
X41656000Y31021000D03*
D15*
X33655000Y33358000D03*
X33655000Y31158000D03*
X35433000Y31158000D03*
X35433000Y33358000D03*
X37211000Y33612000D03*
X37211000Y31412000D03*
D16*
X45974000Y45974000D03*
D17*
X45974000Y43434000D03*
X45974000Y40894000D03*
X45974000Y38354000D03*
X45974000Y35814000D03*
X45974000Y33274000D03*
X45974000Y30734000D03*
X45974000Y28194000D03*
X45974000Y25654000D03*
D16*
X25654000Y45974000D03*
D17*
X25654000Y43434000D03*
X25654000Y40894000D03*
X25654000Y38354000D03*
X25654000Y35814000D03*
X25654000Y33274000D03*
X25654000Y30734000D03*
X25654000Y28194000D03*
X25654000Y25654000D03*
D18*
X29464000Y45974000D03*
D19*
X32004000Y45974000D03*
X34544000Y45974000D03*
X37084000Y45974000D03*
X39624000Y45974000D03*
X42164000Y45974000D03*
D20*
X36420000Y42549000D03*
X36420000Y41899000D03*
X36420000Y41249000D03*
X36420000Y40599000D03*
X36420000Y39949000D03*
X36420000Y39299000D03*
X36420000Y38649000D03*
X36420000Y37999000D03*
X36420000Y37349000D03*
X36420000Y36699000D03*
X42320000Y36699000D03*
X42320000Y37349000D03*
X42320000Y37999000D03*
X42320000Y38649000D03*
X42320000Y39299000D03*
X42320000Y39949000D03*
X42320000Y40599000D03*
X42320000Y41249000D03*
X42320000Y41899000D03*
X42320000Y42549000D03*
D21*
X30721300Y31115000D03*
X29222700Y31115000D03*
X41033700Y33401000D03*
X42532300Y33401000D03*
D22*
X33782000Y40198000D03*
X33782000Y42098000D03*
X33782000Y38288000D03*
X33782000Y36388000D03*
D23*
X36261000Y35306000D03*
X38161000Y35306000D03*
X40579000Y35306000D03*
X42479000Y35306000D03*
D22*
X39116000Y31435000D03*
X39116000Y33335000D03*
D24*
X31085000Y29162000D03*
D25*
X31735000Y28837000D03*
X32385000Y28837000D03*
X33035000Y28837000D03*
D24*
X33685000Y29162000D03*
D26*
X29185000Y26162000D03*
X35585000Y26162000D03*
D27*
X30485000Y28312000D03*
X34285000Y28312000D03*
D11*
X38354000Y52578000D03*
D12*
X38354000Y50038000D03*
D13*
X30480000Y59027060D03*
X30480000Y63908940D03*
D14*
X41656000Y49497000D03*
X41656000Y54897000D03*
D15*
X33655000Y57234000D03*
X33655000Y55034000D03*
X35433000Y55034000D03*
X35433000Y57234000D03*
X37211000Y57488000D03*
X37211000Y55288000D03*
D16*
X45974000Y69850000D03*
D17*
X45974000Y67310000D03*
X45974000Y64770000D03*
X45974000Y62230000D03*
X45974000Y59690000D03*
X45974000Y57150000D03*
X45974000Y54610000D03*
X45974000Y52070000D03*
X45974000Y49530000D03*
D16*
X25654000Y69850000D03*
D17*
X25654000Y67310000D03*
X25654000Y64770000D03*
X25654000Y62230000D03*
X25654000Y59690000D03*
X25654000Y57150000D03*
X25654000Y54610000D03*
X25654000Y52070000D03*
X25654000Y49530000D03*
D18*
X29464000Y69850000D03*
D19*
X32004000Y69850000D03*
X34544000Y69850000D03*
X37084000Y69850000D03*
X39624000Y69850000D03*
X42164000Y69850000D03*
D20*
X36420000Y66425000D03*
X36420000Y65775000D03*
X36420000Y65125000D03*
X36420000Y64475000D03*
X36420000Y63825000D03*
X36420000Y63175000D03*
X36420000Y62525000D03*
X36420000Y61875000D03*
X36420000Y61225000D03*
X36420000Y60575000D03*
X42320000Y60575000D03*
X42320000Y61225000D03*
X42320000Y61875000D03*
X42320000Y62525000D03*
X42320000Y63175000D03*
X42320000Y63825000D03*
X42320000Y64475000D03*
X42320000Y65125000D03*
X42320000Y65775000D03*
X42320000Y66425000D03*
D21*
X30721300Y54991000D03*
X29222700Y54991000D03*
X41033700Y57277000D03*
X42532300Y57277000D03*
D22*
X33782000Y64074000D03*
X33782000Y65974000D03*
X33782000Y62164000D03*
X33782000Y60264000D03*
D23*
X36261000Y59182000D03*
X38161000Y59182000D03*
X40579000Y59182000D03*
X42479000Y59182000D03*
D22*
X39116000Y55311000D03*
X39116000Y57211000D03*
D24*
X31085000Y53038000D03*
D25*
X31735000Y52713000D03*
X32385000Y52713000D03*
X33035000Y52713000D03*
D24*
X33685000Y53038000D03*
D26*
X29185000Y50038000D03*
X35585000Y50038000D03*
D27*
X30485000Y52188000D03*
X34285000Y52188000D03*
D11*
X38354000Y76454000D03*
D12*
X38354000Y73914000D03*
D13*
X30480000Y82903060D03*
X30480000Y87784940D03*
D14*
X41656000Y73373000D03*
X41656000Y78773000D03*
D15*
X33655000Y81110000D03*
X33655000Y78910000D03*
X35433000Y78910000D03*
X35433000Y81110000D03*
X37211000Y81364000D03*
X37211000Y79164000D03*
D16*
X45974000Y93726000D03*
D17*
X45974000Y91186000D03*
X45974000Y88646000D03*
X45974000Y86106000D03*
X45974000Y83566000D03*
X45974000Y81026000D03*
X45974000Y78486000D03*
X45974000Y75946000D03*
X45974000Y73406000D03*
D16*
X25654000Y93726000D03*
D17*
X25654000Y91186000D03*
X25654000Y88646000D03*
X25654000Y86106000D03*
X25654000Y83566000D03*
X25654000Y81026000D03*
X25654000Y78486000D03*
X25654000Y75946000D03*
X25654000Y73406000D03*
D18*
X29464000Y93726000D03*
D19*
X32004000Y93726000D03*
X34544000Y93726000D03*
X37084000Y93726000D03*
X39624000Y93726000D03*
X42164000Y93726000D03*
D20*
X36420000Y90301000D03*
X36420000Y89651000D03*
X36420000Y89001000D03*
X36420000Y88351000D03*
X36420000Y87701000D03*
X36420000Y87051000D03*
X36420000Y86401000D03*
X36420000Y85751000D03*
X36420000Y85101000D03*
X36420000Y84451000D03*
X42320000Y84451000D03*
X42320000Y85101000D03*
X42320000Y85751000D03*
X42320000Y86401000D03*
X42320000Y87051000D03*
X42320000Y87701000D03*
X42320000Y88351000D03*
X42320000Y89001000D03*
X42320000Y89651000D03*
X42320000Y90301000D03*
D21*
X30721300Y78867000D03*
X29222700Y78867000D03*
X41033700Y81153000D03*
X42532300Y81153000D03*
D22*
X33782000Y87950000D03*
X33782000Y89850000D03*
X33782000Y86040000D03*
X33782000Y84140000D03*
D23*
X36261000Y83058000D03*
X38161000Y83058000D03*
X40579000Y83058000D03*
X42479000Y83058000D03*
D22*
X39116000Y79187000D03*
X39116000Y81087000D03*
D24*
X31085000Y76914000D03*
D25*
X31735000Y76589000D03*
X32385000Y76589000D03*
X33035000Y76589000D03*
D24*
X33685000Y76914000D03*
D26*
X29185000Y73914000D03*
X35585000Y73914000D03*
D27*
X30485000Y76064000D03*
X34285000Y76064000D03*
D11*
X14478000Y4826000D03*
D12*
X14478000Y2286000D03*
D13*
X6604000Y11275060D03*
X6604000Y16156940D03*
D14*
X17780000Y1745000D03*
X17780000Y7145000D03*
D15*
X9779000Y9482000D03*
X9779000Y7282000D03*
X11557000Y7282000D03*
X11557000Y9482000D03*
X13335000Y9736000D03*
X13335000Y7536000D03*
D16*
X22098000Y22098000D03*
D17*
X22098000Y19558000D03*
X22098000Y17018000D03*
X22098000Y14478000D03*
X22098000Y11938000D03*
X22098000Y9398000D03*
X22098000Y6858000D03*
X22098000Y4318000D03*
X22098000Y1778000D03*
D16*
X1778000Y22098000D03*
D17*
X1778000Y19558000D03*
X1778000Y17018000D03*
X1778000Y14478000D03*
X1778000Y11938000D03*
X1778000Y9398000D03*
X1778000Y6858000D03*
X1778000Y4318000D03*
X1778000Y1778000D03*
D18*
X5588000Y22098000D03*
D19*
X8128000Y22098000D03*
X10668000Y22098000D03*
X13208000Y22098000D03*
X15748000Y22098000D03*
X18288000Y22098000D03*
D20*
X12544000Y18673000D03*
X12544000Y18023000D03*
X12544000Y17373000D03*
X12544000Y16723000D03*
X12544000Y16073000D03*
X12544000Y15423000D03*
X12544000Y14773000D03*
X12544000Y14123000D03*
X12544000Y13473000D03*
X12544000Y12823000D03*
X18444000Y12823000D03*
X18444000Y13473000D03*
X18444000Y14123000D03*
X18444000Y14773000D03*
X18444000Y15423000D03*
X18444000Y16073000D03*
X18444000Y16723000D03*
X18444000Y17373000D03*
X18444000Y18023000D03*
X18444000Y18673000D03*
D21*
X6845300Y7239000D03*
X5346700Y7239000D03*
X17157700Y9525000D03*
X18656300Y9525000D03*
D22*
X9906000Y16322000D03*
X9906000Y18222000D03*
X9906000Y14412000D03*
X9906000Y12512000D03*
D23*
X12385000Y11430000D03*
X14285000Y11430000D03*
X16703000Y11430000D03*
X18603000Y11430000D03*
D22*
X15240000Y7559000D03*
X15240000Y9459000D03*
D24*
X7209000Y5286000D03*
D25*
X7859000Y4961000D03*
X8509000Y4961000D03*
X9159000Y4961000D03*
D24*
X9809000Y5286000D03*
D26*
X5309000Y2286000D03*
X11709000Y2286000D03*
D27*
X6609000Y4436000D03*
X10409000Y4436000D03*
D11*
X14478000Y28702000D03*
D12*
X14478000Y26162000D03*
D13*
X6604000Y35151060D03*
X6604000Y40032940D03*
D14*
X17780000Y25621000D03*
X17780000Y31021000D03*
D15*
X9779000Y33358000D03*
X9779000Y31158000D03*
X11557000Y31158000D03*
X11557000Y33358000D03*
X13335000Y33612000D03*
X13335000Y31412000D03*
D16*
X22098000Y45974000D03*
D17*
X22098000Y43434000D03*
X22098000Y40894000D03*
X22098000Y38354000D03*
X22098000Y35814000D03*
X22098000Y33274000D03*
X22098000Y30734000D03*
X22098000Y28194000D03*
X22098000Y25654000D03*
D16*
X1778000Y45974000D03*
D17*
X1778000Y43434000D03*
X1778000Y40894000D03*
X1778000Y38354000D03*
X1778000Y35814000D03*
X1778000Y33274000D03*
X1778000Y30734000D03*
X1778000Y28194000D03*
X1778000Y25654000D03*
D18*
X5588000Y45974000D03*
D19*
X8128000Y45974000D03*
X10668000Y45974000D03*
X13208000Y45974000D03*
X15748000Y45974000D03*
X18288000Y45974000D03*
D20*
X12544000Y42549000D03*
X12544000Y41899000D03*
X12544000Y41249000D03*
X12544000Y40599000D03*
X12544000Y39949000D03*
X12544000Y39299000D03*
X12544000Y38649000D03*
X12544000Y37999000D03*
X12544000Y37349000D03*
X12544000Y36699000D03*
X18444000Y36699000D03*
X18444000Y37349000D03*
X18444000Y37999000D03*
X18444000Y38649000D03*
X18444000Y39299000D03*
X18444000Y39949000D03*
X18444000Y40599000D03*
X18444000Y41249000D03*
X18444000Y41899000D03*
X18444000Y42549000D03*
D21*
X6845300Y31115000D03*
X5346700Y31115000D03*
X17157700Y33401000D03*
X18656300Y33401000D03*
D22*
X9906000Y40198000D03*
X9906000Y42098000D03*
X9906000Y38288000D03*
X9906000Y36388000D03*
D23*
X12385000Y35306000D03*
X14285000Y35306000D03*
X16703000Y35306000D03*
X18603000Y35306000D03*
D22*
X15240000Y31435000D03*
X15240000Y33335000D03*
D24*
X7209000Y29162000D03*
D25*
X7859000Y28837000D03*
X8509000Y28837000D03*
X9159000Y28837000D03*
D24*
X9809000Y29162000D03*
D26*
X5309000Y26162000D03*
X11709000Y26162000D03*
D27*
X6609000Y28312000D03*
X10409000Y28312000D03*
D11*
X14478000Y52578000D03*
D12*
X14478000Y50038000D03*
D13*
X6604000Y59027060D03*
X6604000Y63908940D03*
D14*
X17780000Y49497000D03*
X17780000Y54897000D03*
D15*
X9779000Y57234000D03*
X9779000Y55034000D03*
X11557000Y55034000D03*
X11557000Y57234000D03*
X13335000Y57488000D03*
X13335000Y55288000D03*
D16*
X22098000Y69850000D03*
D17*
X22098000Y67310000D03*
X22098000Y64770000D03*
X22098000Y62230000D03*
X22098000Y59690000D03*
X22098000Y57150000D03*
X22098000Y54610000D03*
X22098000Y52070000D03*
X22098000Y49530000D03*
D16*
X1778000Y69850000D03*
D17*
X1778000Y67310000D03*
X1778000Y64770000D03*
X1778000Y62230000D03*
X1778000Y59690000D03*
X1778000Y57150000D03*
X1778000Y54610000D03*
X1778000Y52070000D03*
X1778000Y49530000D03*
D18*
X5588000Y69850000D03*
D19*
X8128000Y69850000D03*
X10668000Y69850000D03*
X13208000Y69850000D03*
X15748000Y69850000D03*
X18288000Y69850000D03*
D20*
X12544000Y66425000D03*
X12544000Y65775000D03*
X12544000Y65125000D03*
X12544000Y64475000D03*
X12544000Y63825000D03*
X12544000Y63175000D03*
X12544000Y62525000D03*
X12544000Y61875000D03*
X12544000Y61225000D03*
X12544000Y60575000D03*
X18444000Y60575000D03*
X18444000Y61225000D03*
X18444000Y61875000D03*
X18444000Y62525000D03*
X18444000Y63175000D03*
X18444000Y63825000D03*
X18444000Y64475000D03*
X18444000Y65125000D03*
X18444000Y65775000D03*
X18444000Y66425000D03*
D21*
X6845300Y54991000D03*
X5346700Y54991000D03*
X17157700Y57277000D03*
X18656300Y57277000D03*
D22*
X9906000Y64074000D03*
X9906000Y65974000D03*
X9906000Y62164000D03*
X9906000Y60264000D03*
D23*
X12385000Y59182000D03*
X14285000Y59182000D03*
X16703000Y59182000D03*
X18603000Y59182000D03*
D22*
X15240000Y55311000D03*
X15240000Y57211000D03*
D24*
X7209000Y53038000D03*
D25*
X7859000Y52713000D03*
X8509000Y52713000D03*
X9159000Y52713000D03*
D24*
X9809000Y53038000D03*
D26*
X5309000Y50038000D03*
X11709000Y50038000D03*
D27*
X6609000Y52188000D03*
X10409000Y52188000D03*
D24*
X7209000Y76914000D03*
D25*
X7859000Y76589000D03*
X8509000Y76589000D03*
X9159000Y76589000D03*
D24*
X9809000Y76914000D03*
D26*
X5309000Y73914000D03*
X11709000Y73914000D03*
D27*
X6609000Y76064000D03*
X10409000Y76064000D03*
D22*
X15240000Y79187000D03*
X15240000Y81087000D03*
D23*
X16703000Y83058000D03*
X18603000Y83058000D03*
X12385000Y83058000D03*
X14285000Y83058000D03*
D22*
X9906000Y86040000D03*
X9906000Y84140000D03*
X9906000Y87950000D03*
X9906000Y89850000D03*
D21*
X17157700Y81153000D03*
X18656300Y81153000D03*
X6845300Y78867000D03*
X5346700Y78867000D03*
D20*
X12544000Y90301000D03*
X12544000Y89651000D03*
X12544000Y89001000D03*
X12544000Y88351000D03*
X12544000Y87701000D03*
X12544000Y87051000D03*
X12544000Y86401000D03*
X12544000Y85751000D03*
X12544000Y85101000D03*
X12544000Y84451000D03*
X18444000Y84451000D03*
X18444000Y85101000D03*
X18444000Y85751000D03*
X18444000Y86401000D03*
X18444000Y87051000D03*
X18444000Y87701000D03*
X18444000Y88351000D03*
X18444000Y89001000D03*
X18444000Y89651000D03*
X18444000Y90301000D03*
D18*
X5588000Y93726000D03*
D19*
X8128000Y93726000D03*
X10668000Y93726000D03*
X13208000Y93726000D03*
X15748000Y93726000D03*
X18288000Y93726000D03*
D16*
X1778000Y93726000D03*
D17*
X1778000Y91186000D03*
X1778000Y88646000D03*
X1778000Y86106000D03*
X1778000Y83566000D03*
X1778000Y81026000D03*
X1778000Y78486000D03*
X1778000Y75946000D03*
X1778000Y73406000D03*
D16*
X22098000Y93726000D03*
D17*
X22098000Y91186000D03*
X22098000Y88646000D03*
X22098000Y86106000D03*
X22098000Y83566000D03*
X22098000Y81026000D03*
X22098000Y78486000D03*
X22098000Y75946000D03*
X22098000Y73406000D03*
D15*
X13335000Y81364000D03*
X13335000Y79164000D03*
X11557000Y78910000D03*
X11557000Y81110000D03*
X9779000Y81110000D03*
X9779000Y78910000D03*
D14*
X17780000Y73373000D03*
X17780000Y78773000D03*
D13*
X6604000Y82903060D03*
X6604000Y87784940D03*
D11*
X14478000Y76454000D03*
D12*
X14478000Y73914000D03*
M02*
